<svg width="174" height="260" viewBox="0 0 174 260" fill="none" xmlns="http://www.w3.org/2000/svg">
<g filter="url(#filter0_d)">
<path d="M101.05 20.3936C128.42 17.1243 140.486 34.9189 146.006 47.9007C152.214 62.5003 153.395 87.3344 153.395 87.3344C153.395 87.3344 153.585 91.6248 153.798 96.1635C154.012 100.702 154.248 105.49 153.406 112.005C148.037 153.535 119.788 174.325 84.5558 173.405C46.9645 172.423 32.7835 137.009 30.944 129.131C29.1045 121.254 22.3838 123.544 22.3838 123.544C21.9654 123.552 21.5521 123.452 21.1842 123.252C20.8163 123.053 20.5063 122.761 20.2845 122.407C19.4707 121.163 20.6615 119.762 20.6615 119.762C20.6615 119.762 27.3077 113.327 35.2526 117.719C43.1975 122.111 43.7197 134.051 56.9326 136.016C70.1454 137.981 71.5738 120.731 69.3837 109.479C67.3214 98.8837 66.1929 98.5366 65.5295 98.4302C65.2195 98.3804 63.1942 100.495 58.5283 101.35C53.8252 102.212 51.6088 101.828 49.9438 101.35C48.3483 100.892 45.3876 99.7335 44.2819 97.0935C42.5113 92.8657 45.7265 90.0407 46.9112 89.021C48.0958 88.0012 56.7407 80.5798 57.9367 79.3127C59.1327 78.0456 62.0039 73.8806 62.0039 72.357C62.0039 70.8335 63.4787 23.7899 101.05 20.3936Z" fill="white"/>
<path d="M44.2819 97.0935C45.3876 99.7335 48.3483 100.892 49.9438 101.35C51.6088 101.828 53.8252 102.212 58.5283 101.35C63.1942 100.495 65.2195 98.3804 65.5295 98.4302C66.1929 98.5366 67.3349 100.557 69.3836 109.479C71.3516 118.049 70.5319 132.491 61.5788 135.641C64.9522 134.957 67.956 133.056 70.0181 130.3C76.5206 121.948 75.2874 114.398 72.2403 102.4C69.1932 90.4017 65.67 93.7989 58.814 96.592C53.1414 98.9031 48.9108 98.0973 46.1494 95.5446C44.7563 94.2569 45.0543 91.5929 45.926 89.9347C44.5668 91.3315 42.895 93.7821 44.2819 97.0935Z" fill="url(#paint0_radial)"/>
<path d="M82.0268 49.6536L82.0268 49.6536C80.8075 49.7451 79.8932 50.8076 79.9846 52.0269L80.2623 55.7302C80.3537 56.9495 81.4163 57.8638 82.6356 57.7724C83.8549 57.6809 84.7692 56.6184 84.6777 55.3991L84.4001 51.6958C84.3087 50.4765 83.2461 49.5622 82.0268 49.6536Z" fill="#1D1D1B"/>
<path d="M114.933 49.3673C114.841 48.148 113.779 47.2337 112.56 47.3251C111.34 47.4165 110.426 48.4791 110.517 49.6984L110.795 53.4016C110.886 54.6209 111.949 55.5352 113.168 55.4438C114.388 55.3524 115.302 54.2898 115.21 53.0705L114.933 49.3673Z" fill="#1D1D1B"/>
<path d="M94.6396 61.2989C94.8303 63.8418 96.8646 65.7623 99.1834 65.5884C101.502 65.4146 103.227 63.2122 103.037 60.6693" stroke="#1D1D1B" stroke-width="1.01174" stroke-miterlimit="10" stroke-linecap="round"/>
<path d="M86.3399 45.6456L75.3463 46.47C73.0679 46.6408 71.3594 48.6263 71.5303 50.9047L72.0698 58.1001C72.2407 60.3785 74.2262 62.087 76.5046 61.9161L87.4982 61.0918C89.7766 60.9209 91.4851 58.9354 91.3142 56.657L90.7747 49.4617C90.6038 47.1833 88.6183 45.4748 86.3399 45.6456Z" stroke="#1D1D1B" stroke-width="1.68623" stroke-miterlimit="10"/>
<path d="M121.186 43.0327L110.193 43.8571C107.914 44.0279 106.206 46.0134 106.376 48.2918L106.916 55.4872C107.087 57.7656 109.072 59.4741 111.351 59.3032L122.344 58.4789C124.623 58.308 126.331 56.3225 126.16 54.0441L125.621 46.8488C125.45 44.5704 123.465 42.8619 121.186 43.0327Z" stroke="#1D1D1B" stroke-width="1.68623" stroke-miterlimit="10"/>
<path d="M91.1182 54.0436C90.8626 50.6348 94.2783 49.3474 98.5866 49.0243C102.895 48.7013 106.464 49.4649 106.72 52.8737" stroke="#1D1D1B" stroke-width="1.68623" stroke-miterlimit="10"/>
<path d="M153.798 96.1635C153.752 95.1858 153.751 93.5525 153.609 92.0807L151.907 74.6769C151.907 74.6769 131.823 88.6197 126.681 88.1118C124.435 87.89 119.719 84.0145 113.17 85.1572C106.62 86.2999 98.3084 95.038 101.796 99.6955C107.382 107.156 112.747 94.3228 118.301 99.6955C121.353 102.648 123.17 105.077 125.298 106.788C125.304 106.793 125.311 106.801 125.318 106.805L125.326 106.811C126.016 107.37 126.765 107.849 127.562 108.24C128.467 108.773 129.392 109.29 130.19 109.765C131.186 110.369 132.219 110.91 133.283 111.384C142.234 115.281 146.355 116.262 146.357 116.262C145.247 123.01 143.256 129.341 139.068 137.956C129.338 157.968 109.349 165.11 100.236 167.342C87.1345 170.551 66.6168 171.957 49.3869 153.725C32.157 135.494 34.4687 123.857 29.295 121.096C25.1605 118.889 21.5643 120.737 20.2844 122.407C20.5063 122.761 20.8162 123.053 21.1841 123.252C21.5521 123.452 21.9654 123.552 22.3838 123.544C22.3838 123.544 29.1045 121.254 30.944 129.131C32.7834 137.009 46.9644 172.423 84.5557 173.405C119.788 174.325 148.037 153.535 153.406 112.005C154.248 105.489 154.012 100.702 153.798 96.1635Z" fill="url(#paint1_radial)"/>
<path d="M151.907 72.2011C151.907 72.2011 131.823 86.1439 126.681 85.6361C124.435 85.4143 119.719 81.5388 113.17 82.6814C106.62 83.8241 98.3084 92.5623 101.796 97.2198C107.382 104.681 112.747 91.8471 118.301 97.2198C123.855 102.592 125.316 106.236 132.013 106.966C134.589 107.247 138.398 105.52 142.11 103.289C145.637 101.164 148.502 98.0963 150.38 94.4314C152.259 90.7664 153.077 86.6498 152.743 82.545L151.907 72.2011Z" fill="white"/>
<path d="M126.681 85.636C125.951 85.552 125.238 85.3645 124.561 85.0792C123.876 84.8268 123.203 84.5492 122.522 84.3064C121.185 83.7883 119.801 83.4008 118.389 83.1494C116.997 82.9105 115.577 82.8709 114.174 83.0318C113.828 83.0893 113.475 83.1218 113.134 83.1871L112.628 83.2982L112.126 83.4385C111.457 83.6495 110.805 83.9099 110.176 84.2176C108.902 84.839 107.701 85.601 106.597 86.4894C106.039 86.9297 105.506 87.4014 104.995 87.8951C104.491 88.3967 104.009 88.9187 103.555 89.4649C103.108 90.0148 102.7 90.5959 102.335 91.2037C101.965 91.8051 101.667 92.4484 101.448 93.1201C101.219 93.7875 101.117 94.4917 101.147 95.1966C101.184 95.9159 101.408 96.6131 101.796 97.2197C101.307 96.6556 100.986 95.9661 100.868 95.229C100.756 94.4826 100.79 93.7217 100.969 92.9883C101.352 91.537 102.019 90.1757 102.93 88.9828C104.719 86.5801 107.051 84.6351 109.736 83.3071C110.417 82.9834 111.121 82.711 111.843 82.4923L112.393 82.3449C112.579 82.3017 112.767 82.2671 112.954 82.2282C113.327 82.161 113.7 82.127 114.074 82.0818C115.569 81.9483 117.076 82.0481 118.54 82.3775C119.982 82.709 121.382 83.2032 122.712 83.8506C123.375 84.1644 124.024 84.4959 124.672 84.8235C124.996 84.9875 125.322 85.1448 125.653 85.2901C125.817 85.3682 125.988 85.4231 126.156 85.4913C126.326 85.5557 126.504 85.5862 126.681 85.636Z" fill="url(#paint2_radial)"/>
<path d="M80.9434 111.036H114.638C114.69 111.036 114.741 111.046 114.789 111.066C114.837 111.086 114.881 111.115 114.917 111.152C114.954 111.189 114.983 111.232 115.003 111.28C115.023 111.328 115.033 111.379 115.033 111.431V113.641C115.033 113.984 114.897 114.313 114.654 114.555C114.412 114.798 114.083 114.934 113.74 114.934H80.9434V111.036Z" fill="#E6EDEF"/>
<path d="M80.9434 111.384H115.033V113.696C115.033 113.904 114.992 114.111 114.912 114.303C114.833 114.495 114.716 114.67 114.569 114.817C114.421 114.964 114.247 115.081 114.054 115.161C113.862 115.241 113.656 115.282 113.448 115.282H80.9434V111.384Z" fill="#8B9BA0"/>
<path d="M91.0469 74.1454H50.6529C46.3459 74.1454 42.8545 77.6368 42.8545 81.9438V107.483C42.8545 111.79 46.3459 115.281 50.6529 115.281H91.0469C95.3538 115.281 98.8453 111.79 98.8453 107.483V81.9438C98.8453 77.6368 95.3538 74.1454 91.0469 74.1454Z" fill="#8B9BA0"/>
<path d="M88.9519 74.1454H48.5579C44.251 74.1454 40.7595 77.6368 40.7595 81.9438V107.483C40.7595 111.79 44.251 115.281 48.5579 115.281H88.9519C93.2589 115.281 96.7503 111.79 96.7503 107.483V81.9438C96.7503 77.6368 93.2589 74.1454 88.9519 74.1454Z" fill="#E6EDEF"/>
<path d="M49.3435 115.219H63.7861L73.2179 74.2084H58.7756L49.3435 115.219Z" fill="white"/>
<path d="M73.3589 115.219H80.2448L90.0212 74.2084H83.1353L73.3589 115.219Z" fill="white"/>
<path d="M67.4895 90.0165C67.9428 89.9412 68.4083 90.0282 68.8038 90.2621C69.1994 90.4961 69.4998 90.8621 69.6522 91.2957C69.9508 91.9847 69.8827 91.9308 69.9469 91.9982C70.1119 92.1361 70.2907 92.2566 70.4806 92.3577C70.7874 92.5195 71.0655 92.7186 71.0486 92.9228C71.0171 93.3037 70.4141 93.2429 70.2859 93.2249C70.1915 93.2094 70.0985 93.1865 70.0076 93.1566C70.0076 93.1566 70.0168 93.3591 70.0271 93.5732C70.0452 93.8224 70.0389 94.0728 70.0082 94.3208C69.7499 96.2807 68.3909 97.2618 66.696 97.2183C64.8875 97.172 64.2053 95.5008 64.1168 95.129C64.1117 95.0824 64.0962 95.0375 64.0715 94.9977C64.0468 94.9578 64.0135 94.924 63.974 94.8987C63.9345 94.8734 63.8898 94.8573 63.8433 94.8515C63.7967 94.8458 63.7495 94.8505 63.705 94.8654C63.685 94.8658 63.6652 94.8611 63.6475 94.8517C63.6299 94.8423 63.6149 94.8285 63.604 94.8117C63.5649 94.753 63.6222 94.6869 63.6222 94.6869C63.7155 94.6014 63.8327 94.5464 63.9581 94.5292C64.0835 94.5119 64.2111 94.5333 64.3241 94.5905C64.7063 94.7977 64.7314 95.3612 65.3671 95.4539C66.0027 95.5467 66.0714 94.7326 65.9661 94.2016C65.8669 93.7016 65.8126 93.6852 65.7807 93.6802C65.6788 93.7483 65.5642 93.7952 65.4438 93.818C65.3083 93.852 65.1664 93.852 65.0309 93.818C64.9738 93.8059 64.9199 93.7817 64.8729 93.7471C64.826 93.7124 64.7869 93.6681 64.7585 93.6171C64.733 93.5487 64.7317 93.4737 64.7547 93.4044C64.7777 93.3351 64.8236 93.2758 64.885 93.2362C64.942 93.1881 65.3578 92.8378 65.4154 92.778C65.5037 92.6842 65.5705 92.5722 65.611 92.4498C65.611 92.3779 65.682 90.1768 67.4895 90.0165Z" fill="url(#paint3_radial)" stroke="#A0B6BF" stroke-width="0.252935" stroke-miterlimit="10"/>
<path d="M54.4 240L56.72 232.44V228.56L59.28 227.36L64.48 211.72H72.36L78.8 229.64L81.88 235.32V240H76.4L74 232.8H62.36L60.24 240H54.4ZM64.6 227.84H72.2L68.76 217H67.92L64.6 227.84ZM83.8812 240V218.12L83.0812 214.08L83.8812 211.68H93.4813C95.4279 211.68 97.1746 211.987 98.7213 212.6C100.295 213.187 101.535 214.2 102.441 215.64C103.375 217.053 103.841 219.013 103.841 221.52C103.841 224.027 103.348 226.013 102.361 227.48C101.375 228.92 100.001 229.947 98.2413 230.56C96.5079 231.173 94.5213 231.48 92.2813 231.48H89.4813V233.56L89.8812 237.56L89.4813 240H83.8812ZM89.4813 226.4H93.4013C95.1612 226.4 96.3613 225.947 97.0013 225.04C97.6413 224.107 97.9613 222.933 97.9613 221.52C97.9613 220.027 97.6146 218.88 96.9213 218.08C96.2546 217.28 95.0279 216.88 93.2413 216.88H89.0812L89.4813 226.4ZM105.827 240V218.08L105.427 214.08L105.827 211.68H111.427V240H105.827Z" fill="url(#paint4_linear)"/>
</g>
<defs>
<filter id="filter0_d" x="0" y="0" width="174" height="275" filterUnits="userSpaceOnUse" color-interpolation-filters="sRGB">
<feFlood flood-opacity="0" result="BackgroundImageFix"/>
<feColorMatrix in="SourceAlpha" type="matrix" values="0 0 0 0 0 0 0 0 0 0 0 0 0 0 0 0 0 0 127 0" result="hardAlpha"/>
<feOffset/>
<feGaussianBlur stdDeviation="10"/>
<feComposite in2="hardAlpha" operator="out"/>
<feColorMatrix type="matrix" values="0 0 0 0 0.054902 0 0 0 0 0.956863 0 0 0 0 0.933333 0 0 0 1 0"/>
<feBlend mode="normal" in2="BackgroundImageFix" result="effect1_dropShadow"/>
<feBlend mode="normal" in="SourceGraphic" in2="effect1_dropShadow" result="shape"/>
</filter>
<radialGradient id="paint0_radial" cx="0" cy="0" r="1" gradientUnits="userSpaceOnUse" gradientTransform="translate(47.6729 117.827) scale(36.8112)">
<stop offset="0.32445" stop-color="white"/>
<stop offset="0.80091" stop-color="#A0B6BF" stop-opacity="0.9"/>
</radialGradient>
<radialGradient id="paint1_radial" cx="0" cy="0" r="1" gradientUnits="userSpaceOnUse" gradientTransform="translate(26641.6 30545.6) scale(23302.4 17210.3)">
<stop offset="0.32445" stop-color="white"/>
<stop offset="0.80091" stop-color="#A0B6BF" stop-opacity="0.9"/>
</radialGradient>
<radialGradient id="paint2_radial" cx="0" cy="0" r="1" gradientUnits="userSpaceOnUse" gradientTransform="translate(7282.58 3224.48) scale(828.112 486.28)">
<stop offset="0.32445" stop-color="white"/>
<stop offset="0.80091" stop-color="#A0B6BF" stop-opacity="0.9"/>
</radialGradient>
<radialGradient id="paint3_radial" cx="0" cy="0" r="1" gradientUnits="userSpaceOnUse" gradientTransform="translate(1179.83 1759.67) scale(302.652 293.344)">
<stop offset="0.32445" stop-color="white"/>
<stop offset="0.80091" stop-color="#A0B6BF" stop-opacity="0.9"/>
</radialGradient>
<linearGradient id="paint4_linear" x1="115" y1="226" x2="57.5" y2="226" gradientUnits="userSpaceOnUse">
<stop stop-color="#C273BF"/>
<stop offset="0.3125" stop-color="#BF698C"/>
<stop offset="0.59375" stop-color="#58BBCC"/>
<stop offset="1" stop-color="#E05FBB"/>
</linearGradient>
</defs>
</svg>
