<svg width="134" height="235" viewBox="0 0 134 235" fill="none" xmlns="http://www.w3.org/2000/svg">
<path d="M81.0505 0.393614C108.42 -2.87566 120.486 14.9189 126.006 27.9007C132.214 42.5003 133.395 67.3344 133.395 67.3344C133.395 67.3344 133.585 71.6248 133.798 76.1635C134.012 80.7023 134.248 85.4895 133.406 92.0048C128.037 133.535 99.7881 154.325 64.5558 153.405C26.9645 152.423 12.7835 117.009 10.944 109.131C9.10455 101.254 2.3838 103.544 2.3838 103.544C1.96539 103.552 1.55208 103.452 1.18417 103.252C0.816264 103.053 0.506295 102.761 0.284477 102.407C-0.529299 101.163 0.661519 99.7619 0.661519 99.7619C0.661519 99.7619 7.30767 93.3268 15.2526 97.7188C23.1975 102.111 23.7197 114.051 36.9326 116.016C50.1454 117.981 51.5738 100.731 49.3837 89.4788C47.3214 78.8837 46.1929 78.5366 45.5295 78.4302C45.2195 78.3804 43.1942 80.4953 38.5283 81.3501C33.8252 82.2117 31.6088 81.8284 29.9438 81.3501C28.3483 80.8918 25.3876 79.7335 24.2819 77.0935C22.5113 72.8657 25.7265 70.0407 26.9112 69.021C28.0958 68.0012 36.7407 60.5798 37.9367 59.3127C39.1327 58.0456 42.0039 53.8806 42.0039 52.357C42.0039 50.8335 43.4787 3.78993 81.0505 0.393614Z" fill="white"/>
<path d="M24.2821 77.0935C25.3878 79.7335 28.3485 80.8918 29.944 81.3501C31.609 81.8284 33.8254 82.2117 38.5285 81.3501C43.1944 80.4953 45.2198 78.3804 45.5297 78.4302C46.1931 78.5366 47.3352 80.5569 49.3839 89.4788C51.3518 98.0488 50.5321 112.491 41.5791 115.641C44.9524 114.957 47.9562 113.056 50.0184 110.3C56.5208 101.948 55.2877 94.3978 52.2406 82.3997C49.1935 70.4017 45.6702 73.7989 38.8142 76.592C33.1416 78.9031 28.9111 78.0973 26.1496 75.5446C24.7566 74.2569 25.0546 71.5929 25.9262 69.9347C24.5671 71.3315 22.8953 73.7821 24.2821 77.0935Z" fill="url(#paint0_radial)"/>
<path d="M62.0268 29.6536L62.0268 29.6536C60.8075 29.7451 59.8932 30.8076 59.9846 32.0269L60.2623 35.7302C60.3537 36.9495 61.4163 37.8638 62.6356 37.7724C63.8549 37.6809 64.7692 36.6184 64.6777 35.3991L64.4001 31.6958C64.3087 30.4765 63.2461 29.5622 62.0268 29.6536Z" fill="#1D1D1B"/>
<path d="M94.9328 29.3673C94.8414 28.148 93.7788 27.2337 92.5595 27.3251C91.3402 27.4165 90.4259 28.4791 90.5174 29.6984L90.795 33.4016C90.8865 34.6209 91.949 35.5352 93.1683 35.4438C94.3876 35.3524 95.3019 34.2898 95.2105 33.0705L94.9328 29.3673Z" fill="#1D1D1B"/>
<path d="M74.6396 41.2989C74.8303 43.8418 76.8646 45.7623 79.1834 45.5884C81.5021 45.4146 83.2273 43.2122 83.0366 40.6693" stroke="#1D1D1B" stroke-width="1.01174" stroke-miterlimit="10" stroke-linecap="round"/>
<path d="M66.3399 25.6456L55.3463 26.47C53.0679 26.6408 51.3594 28.6263 51.5303 30.9047L52.0698 38.1001C52.2407 40.3785 54.2262 42.087 56.5046 41.9161L67.4982 41.0918C69.7766 40.9209 71.4851 38.9354 71.3142 36.657L70.7747 29.4617C70.6038 27.1833 68.6183 25.4748 66.3399 25.6456Z" stroke="#1D1D1B" stroke-width="1.68623" stroke-miterlimit="10"/>
<path d="M101.186 23.0327L90.1925 23.8571C87.9141 24.0279 86.2056 26.0134 86.3765 28.2918L86.916 35.4872C87.0869 37.7656 89.0724 39.4741 91.3507 39.3032L102.344 38.4789C104.623 38.308 106.331 36.3225 106.16 34.0441L105.621 26.8488C105.45 24.5704 103.465 22.8619 101.186 23.0327Z" stroke="#1D1D1B" stroke-width="1.68623" stroke-miterlimit="10"/>
<path d="M71.1182 34.0436C70.8626 30.6348 74.2783 29.3474 78.5866 29.0243C82.8949 28.7013 86.4644 29.4649 86.72 32.8737" stroke="#1D1D1B" stroke-width="1.68623" stroke-miterlimit="10"/>
<path d="M133.799 76.1635C133.753 75.1858 133.752 73.5525 133.609 72.0807L131.907 54.6769C131.907 54.6769 111.823 68.6197 106.681 68.1118C104.435 67.89 99.7192 64.0145 93.1699 65.1572C86.6206 66.2999 78.3087 75.038 81.796 79.6955C87.3824 87.1563 92.7475 74.3228 98.3012 79.6955C101.353 82.648 103.17 85.0766 105.298 86.7881C105.304 86.7928 105.312 86.8006 105.318 86.8049L105.327 86.8111C106.016 87.3696 106.766 87.8488 107.562 88.2396C108.467 88.773 109.393 89.2898 110.19 89.765C111.186 90.3693 112.219 90.91 113.283 91.3838C122.234 95.2814 126.355 96.262 126.357 96.2621C125.247 103.01 123.257 109.341 119.068 117.956C109.338 137.968 89.3492 145.11 80.2359 147.342C67.1347 150.551 46.617 151.957 29.3871 133.725C12.1573 115.494 14.469 103.857 9.29519 101.096C5.16079 98.8892 1.56458 100.737 0.284668 102.407C0.506496 102.761 0.816475 103.053 1.18439 103.252C1.55231 103.452 1.96562 103.552 2.38403 103.544C2.38403 103.544 9.10476 101.254 10.9442 109.131C12.7837 117.009 26.9647 152.423 64.5559 153.405C99.7883 154.325 128.038 133.535 133.406 92.0048C134.248 85.4895 134.012 80.7023 133.799 76.1635Z" fill="url(#paint1_radial)"/>
<path d="M131.907 52.2011C131.907 52.2011 111.823 66.1439 106.681 65.6361C104.435 65.4143 99.7189 61.5388 93.1696 62.6814C86.6203 63.8241 78.3084 72.5623 81.7957 77.2198C87.3821 84.6806 92.7473 71.8471 98.3009 77.2198C103.855 82.5924 105.316 86.2359 112.013 86.9659C114.589 87.2467 118.398 85.5203 122.11 83.2892C125.637 81.1641 128.502 78.0963 130.38 74.4314C132.259 70.7664 133.077 66.6498 132.743 62.545L131.907 52.2011Z" fill="white"/>
<path d="M106.681 65.636C105.951 65.552 105.238 65.3645 104.561 65.0792C103.876 64.8268 103.203 64.5492 102.522 64.3064C101.185 63.7883 99.801 63.4008 98.3894 63.1494C96.9969 62.9105 95.5775 62.8709 94.1738 63.0318C93.8279 63.0893 93.4748 63.1218 93.1339 63.1871L92.6275 63.2982L92.1255 63.4385C91.4572 63.6495 90.8054 63.9099 90.1756 64.2176C88.9016 64.839 87.7011 65.601 86.5966 66.4894C86.039 66.9297 85.5064 67.4014 84.9948 67.8951C84.4914 68.3967 84.0089 68.9187 83.5549 69.4649C83.1076 70.0148 82.7 70.5959 82.3353 71.2037C81.9646 71.8051 81.6666 72.4484 81.4475 73.1201C81.2188 73.7875 81.1168 74.4917 81.1467 75.1966C81.1839 75.9159 81.4075 76.6131 81.7958 77.2197C81.3071 76.6556 80.9858 75.9661 80.8681 75.229C80.7562 74.4826 80.7903 73.7217 80.9685 72.9883C81.3521 71.537 82.0185 70.1757 82.9297 68.9828C84.7185 66.5801 87.0509 64.6351 89.7359 63.3071C90.417 62.9834 91.1213 62.711 91.843 62.4923L92.3933 62.3449C92.5787 62.3017 92.767 62.2671 92.9536 62.2282C93.3275 62.161 93.7002 62.127 94.074 62.0818C95.5691 61.9483 97.0759 62.0481 98.5404 62.3775C99.9823 62.709 101.382 63.2032 102.712 63.8506C103.375 64.1644 104.024 64.4959 104.672 64.8235C104.996 64.9875 105.322 65.1448 105.653 65.2901C105.817 65.3682 105.988 65.4231 106.156 65.4913C106.326 65.5557 106.504 65.5862 106.681 65.636Z" fill="url(#paint2_radial)"/>
<path d="M60.9434 91.0363H94.6379C94.6898 91.0363 94.7412 91.0465 94.7891 91.0663C94.8371 91.0862 94.8806 91.1153 94.9173 91.152C94.954 91.1886 94.9831 91.2322 95.0029 91.2801C95.0228 91.3281 95.033 91.3794 95.033 91.4313V93.6406C95.033 93.9836 94.8967 94.3126 94.6542 94.5551C94.4116 94.7977 94.0827 94.934 93.7396 94.934H60.9434V91.0363Z" fill="#E6EDEF"/>
<path d="M60.9434 91.3838H95.033V93.6962C95.033 93.9044 94.992 94.1105 94.9123 94.3029C94.8326 94.4952 94.7159 94.67 94.5687 94.8172C94.4215 94.9644 94.2467 95.0812 94.0544 95.1608C93.862 95.2405 93.6559 95.2815 93.4477 95.2815H60.9434V91.3838Z" fill="#8B9BA0"/>
<path d="M71.0469 54.1454H30.6529C26.3459 54.1454 22.8545 57.6368 22.8545 61.9438V87.4831C22.8545 91.79 26.3459 95.2815 30.6529 95.2815H71.0469C75.3538 95.2815 78.8453 91.79 78.8453 87.4831V61.9438C78.8453 57.6368 75.3538 54.1454 71.0469 54.1454Z" fill="#8B9BA0"/>
<path d="M68.9522 54.1454H28.5581C24.2512 54.1454 20.7598 57.6368 20.7598 61.9438V87.4831C20.7598 91.79 24.2512 95.2815 28.5581 95.2815H68.9522C73.2591 95.2815 76.7506 91.79 76.7506 87.4831V61.9438C76.7506 57.6368 73.2591 54.1454 68.9522 54.1454Z" fill="#E6EDEF"/>
<path d="M29.3433 95.2186H43.7859L53.2176 54.2084H38.7754L29.3433 95.2186Z" fill="white"/>
<path d="M53.3589 95.2186H60.2448L70.0212 54.2084H63.1353L53.3589 95.2186Z" fill="white"/>
<path d="M47.4895 70.0165C47.9428 69.9412 48.4083 70.0282 48.8038 70.2621C49.1994 70.4961 49.4998 70.8621 49.6522 71.2957C49.9508 71.9847 49.8827 71.9308 49.9469 71.9982C50.1119 72.1361 50.2907 72.2566 50.4806 72.3577C50.7874 72.5195 51.0655 72.7186 51.0486 72.9228C51.0171 73.3037 50.4141 73.2429 50.2859 73.2249C50.1915 73.2094 50.0985 73.1865 50.0076 73.1566C50.0076 73.1566 50.0168 73.3591 50.0271 73.5732C50.0452 73.8224 50.0389 74.0728 50.0082 74.3208C49.7499 76.2807 48.3909 77.2618 46.696 77.2183C44.8875 77.172 44.2053 75.5008 44.1168 75.129C44.1117 75.0824 44.0962 75.0375 44.0715 74.9977C44.0468 74.9578 44.0135 74.924 43.974 74.8987C43.9345 74.8734 43.8898 74.8573 43.8433 74.8515C43.7967 74.8458 43.7495 74.8505 43.705 74.8654C43.685 74.8658 43.6652 74.8611 43.6475 74.8517C43.6299 74.8423 43.6149 74.8285 43.604 74.8117C43.5649 74.753 43.6222 74.6869 43.6222 74.6869C43.7155 74.6014 43.8327 74.5464 43.9581 74.5292C44.0835 74.5119 44.2111 74.5333 44.3241 74.5905C44.7063 74.7977 44.7314 75.3612 45.3671 75.4539C46.0027 75.5467 46.0714 74.7326 45.9661 74.2016C45.8669 73.7016 45.8126 73.6852 45.7807 73.6802C45.6788 73.7483 45.5642 73.7952 45.4438 73.818C45.3083 73.852 45.1664 73.852 45.0309 73.818C44.9738 73.8059 44.9199 73.7817 44.8729 73.7471C44.826 73.7124 44.7869 73.6681 44.7585 73.6171C44.733 73.5487 44.7317 73.4737 44.7547 73.4044C44.7777 73.3351 44.8236 73.2758 44.885 73.2362C44.942 73.1881 45.3578 72.8378 45.4154 72.778C45.5037 72.6842 45.5705 72.5722 45.611 72.4498C45.611 72.3779 45.682 70.1768 47.4895 70.0165Z" fill="url(#paint3_radial)" stroke="#A0B6BF" stroke-width="0.252935" stroke-miterlimit="10"/>
<path d="M34.4 220L36.72 212.44V208.56L39.28 207.36L44.48 191.72H52.36L58.8 209.64L61.88 215.32V220H56.4L54 212.8H42.36L40.24 220H34.4ZM44.6 207.84H52.2L48.76 197H47.92L44.6 207.84ZM63.8812 220V198.12L63.0812 194.08L63.8812 191.68H73.4813C75.4279 191.68 77.1746 191.987 78.7213 192.6C80.2946 193.187 81.5346 194.2 82.4413 195.64C83.3746 197.053 83.8413 199.013 83.8413 201.52C83.8413 204.027 83.3479 206.013 82.3613 207.48C81.3746 208.92 80.0012 209.947 78.2413 210.56C76.5079 211.173 74.5213 211.48 72.2813 211.48H69.4813V213.56L69.8812 217.56L69.4813 220H63.8812ZM69.4813 206.4H73.4013C75.1612 206.4 76.3613 205.947 77.0013 205.04C77.6413 204.107 77.9613 202.933 77.9613 201.52C77.9613 200.027 77.6146 198.88 76.9213 198.08C76.2546 197.28 75.0279 196.88 73.2413 196.88H69.0812L69.4813 206.4ZM85.8266 220V198.08L85.4266 194.08L85.8266 191.68H91.4266V220H85.8266Z" fill="white"/>
<defs>
<radialGradient id="paint0_radial" cx="0" cy="0" r="1" gradientUnits="userSpaceOnUse" gradientTransform="translate(27.6732 97.8266) scale(36.8112)">
<stop offset="0.32445" stop-color="white"/>
<stop offset="0.80091" stop-color="#A0B6BF" stop-opacity="0.9"/>
</radialGradient>
<radialGradient id="paint1_radial" cx="0" cy="0" r="1" gradientUnits="userSpaceOnUse" gradientTransform="translate(26621.6 30525.6) scale(23302.4 17210.3)">
<stop offset="0.32445" stop-color="white"/>
<stop offset="0.80091" stop-color="#A0B6BF" stop-opacity="0.9"/>
</radialGradient>
<radialGradient id="paint2_radial" cx="0" cy="0" r="1" gradientUnits="userSpaceOnUse" gradientTransform="translate(7262.58 3204.48) scale(828.112 486.28)">
<stop offset="0.32445" stop-color="white"/>
<stop offset="0.80091" stop-color="#A0B6BF" stop-opacity="0.9"/>
</radialGradient>
<radialGradient id="paint3_radial" cx="0" cy="0" r="1" gradientUnits="userSpaceOnUse" gradientTransform="translate(1159.83 1739.67) scale(302.652 293.344)">
<stop offset="0.32445" stop-color="white"/>
<stop offset="0.80091" stop-color="#A0B6BF" stop-opacity="0.9"/>
</radialGradient>
</defs>
</svg>
