<svg width="163" height="236" viewBox="0 0 163 236" fill="none" xmlns="http://www.w3.org/2000/svg">
<path d="M22.2 221V199.08L21.4 195.08L22.2 192.68H32.6C34.6267 192.68 36.3733 192.92 37.84 193.4C39.3333 193.853 40.4933 194.6 41.32 195.64C42.1467 196.68 42.56 198.067 42.56 199.8C42.56 200.867 42.3733 201.88 42 202.84C41.6533 203.773 41.0533 204.56 40.2 205.2C41.88 205.787 43.16 206.667 44.04 207.84C44.92 209.013 45.36 210.573 45.36 212.52C45.36 215.48 44.5333 217.64 42.88 219C41.2267 220.333 38.7333 221 35.4 221H22.2ZM27.8 204.08H33.32C35.56 204.08 36.68 203.093 36.68 201.12C36.68 200.133 36.4533 199.347 36 198.76C35.5467 198.173 34.6533 197.88 33.32 197.88H27.8V204.08ZM27.8 215.8H35C36.4133 215.8 37.44 215.48 38.08 214.84C38.7467 214.2 39.08 213.307 39.08 212.16C39.08 211.067 38.72 210.24 38 209.68C37.3067 209.12 36.1733 208.84 34.6 208.84H27.8V215.8ZM48.5687 221V199.12L47.7687 195.08L48.5687 192.68H58.1688C60.1154 192.68 61.8621 192.987 63.4088 193.6C64.9821 194.187 66.2221 195.2 67.1288 196.64C68.0621 198.053 68.5288 200.013 68.5288 202.52C68.5288 204.893 68.0754 206.787 67.1688 208.2C66.2888 209.613 65.0621 210.667 63.4887 211.36L64.6488 212.4L68.2088 216.56L70.4888 218.6V221H63.0888L57.4887 212.48H54.1688V214.56L54.5687 218.56L54.1688 221H48.5687ZM54.1688 207.4H58.0888C59.8487 207.4 61.0488 206.947 61.6888 206.04C62.3288 205.107 62.6488 203.933 62.6488 202.52C62.6488 201.027 62.3021 199.88 61.6088 199.08C60.9421 198.28 59.7154 197.88 57.9288 197.88H53.7687L54.1688 207.4ZM72.0766 221V199.08L71.6766 195.08L72.0766 192.68H77.6766V221H72.0766ZM81.6578 221V199.12L80.8578 195.12L81.6578 192.68H90.3778C92.2978 192.68 94.1378 192.867 95.8978 193.24C97.6845 193.587 99.2711 194.253 100.658 195.24C102.071 196.227 103.178 197.64 103.978 199.48C104.804 201.32 105.218 203.707 105.218 206.64C105.218 209.573 104.804 211.987 103.978 213.88C103.151 215.747 102.031 217.2 100.618 218.24C99.2045 219.28 97.6045 220 95.8178 220.4C94.0578 220.8 92.2445 221 90.3778 221H81.6578ZM87.3378 215.8H91.5778C94.3511 215.8 96.3245 214.987 97.4978 213.36C98.6711 211.707 99.2578 209.467 99.2578 206.64C99.2578 203.813 98.6578 201.653 97.4578 200.16C96.2845 198.64 94.3245 197.88 91.5778 197.88H87.3378V215.8ZM121.093 221.4C119.173 221.4 117.36 221.173 115.653 220.72C113.973 220.24 112.493 219.453 111.213 218.36C109.933 217.267 108.933 215.787 108.213 213.92C107.493 212.027 107.133 209.667 107.133 206.84C107.133 204.36 107.52 202.2 108.293 200.36C109.067 198.52 110.107 197.013 111.413 195.84C112.72 194.64 114.173 193.747 115.773 193.16C117.373 192.573 119 192.28 120.653 192.28C121.8 192.28 122.76 192.347 123.533 192.48C124.307 192.613 125.133 192.787 126.013 193L131.453 196.56L129.053 201.12L121.053 198C119.56 198 118.2 198.347 116.973 199.04C115.773 199.707 114.827 200.707 114.133 202.04C113.44 203.347 113.093 204.96 113.093 206.88C113.093 210.107 113.853 212.493 115.373 214.04C116.92 215.56 118.947 216.32 121.453 216.32C122.653 216.32 123.507 216.253 124.013 216.12C124.52 215.987 124.867 215.893 125.053 215.84V210.72H119.973V205.6H131.093L131.533 208L130.653 210.12V219.72C130.36 219.827 129.867 220.013 129.173 220.28C128.48 220.547 127.48 220.8 126.173 221.04C124.893 221.28 123.2 221.4 121.093 221.4ZM134.747 221L133.947 218.6L134.747 214.6V192.68H152.907L154.907 193.88L152.667 198.28L148.667 197.88H140.267V204.08H151.067V209.08H147.147L140.267 208.68V215.8H153.067L156.227 218.44L153.867 221H134.747Z" fill="white"/>
<path d="M136.142 19.1922C136.566 19.5823 137.106 20.1298 137.724 20.8176C137.066 20.0803 136.495 19.4998 136.05 19.0901C135.839 18.896 135.646 18.7031 135.47 18.5117C135.671 18.7366 135.893 18.9635 136.142 19.1922Z" fill="white"/>
<path d="M136.288 77.5659C141.976 68.4526 149.005 57.2393 144.311 40.4412C138.933 21.1993 131.104 19.5695 131.217 14.9C131.306 11.1997 133.952 9.42958 135.614 9.17291C135.598 9.13658 135.583 9.10063 135.564 9.06378C135.021 8.01228 133.583 8.28893 133.583 8.28893C133.583 8.28893 126.516 10.3756 126.448 17.6054C126.38 24.8353 134.455 29.8762 130.64 39.8078C127.436 48.1477 118.094 45.4158 111.071 40.8159L95.1226 94.4418C96.5245 94.4823 97.9894 94.5057 99.532 94.5117C117.254 94.5808 130.041 87.5747 136.288 77.5659Z" fill="white"/>
<path d="M145.74 73.6122C135.035 93.7666 116.188 105.097 92.909 101.885L92.8838 101.97C116.217 105.236 135.109 93.9025 145.832 73.7143C158.625 49.6299 144.019 27.82 137.724 20.8176C144.068 27.9305 158.47 49.6465 145.74 73.6122Z" fill="url(#paint0_radial)"/>
<path d="M135.53 10.9653C135.53 10.9653 131.676 14.4005 135.47 18.5116C131.833 14.4459 135.622 11.0674 135.622 11.0674C135.792 10.7804 135.884 10.4543 135.89 10.1211C135.896 9.78785 135.815 9.45876 135.656 9.16589C135.642 9.16787 135.628 9.1708 135.614 9.17295C135.746 9.45611 135.808 9.76721 135.793 10.0795C135.779 10.3917 135.688 10.6957 135.53 10.9653Z" fill="url(#paint1_radial)"/>
<path d="M145.74 73.6122C158.47 49.6465 144.068 27.9305 137.724 20.8176C137.106 20.1298 136.566 19.5823 136.142 19.1922C135.893 18.9635 135.671 18.7366 135.47 18.5117C131.677 14.4005 135.53 10.9654 135.53 10.9654C135.689 10.6958 135.779 10.3917 135.793 10.0795C135.808 9.76723 135.746 9.45613 135.614 9.17297C133.952 9.42964 131.306 11.1998 131.217 14.9001C131.104 19.5695 138.933 21.1994 144.31 40.4413C149.005 57.2393 141.976 68.4527 136.288 77.566C130.041 87.5748 117.254 94.5809 99.5319 94.5117C97.9893 94.5057 96.5243 94.4824 95.1224 94.4419L92.9089 101.885C116.188 105.097 135.035 93.7666 145.74 73.6122Z" fill="white"/>
<path d="M145.74 73.6122C158.47 49.6465 144.068 27.9305 137.724 20.8176C137.106 20.1298 136.566 19.5823 136.142 19.1922C135.893 18.9635 135.671 18.7366 135.47 18.5117C131.677 14.4005 135.53 10.9654 135.53 10.9654C135.689 10.6958 135.779 10.3917 135.793 10.0795C135.808 9.76723 135.746 9.45613 135.614 9.17297C133.952 9.42964 131.306 11.1998 131.217 14.9001C131.104 19.5695 138.933 21.1994 144.31 40.4413C149.005 57.2393 141.976 68.4527 136.288 77.566C130.041 87.5748 117.254 94.5809 99.5319 94.5117C97.9893 94.5057 96.5243 94.4824 95.1224 94.4419L92.9089 101.885C116.188 105.097 135.035 93.7666 145.74 73.6122Z" fill="url(#paint2_radial)"/>
<path d="M84.1515 148.006C103.388 148.006 118.982 117.9 118.982 80.7613C118.982 43.623 103.388 13.5165 84.1515 13.5165C64.9153 13.5165 49.3213 43.623 49.3213 80.7613C49.3213 117.9 64.9153 148.006 84.1515 148.006Z" fill="#030360"/>
<path d="M87.4826 136.665C103.768 136.665 116.969 111.178 116.969 79.7372C116.969 48.2968 103.768 22.8093 87.4826 22.8093C71.1976 22.8093 57.9961 48.2968 57.9961 79.7372C57.9961 111.178 71.1976 136.665 87.4826 136.665Z" fill="#00004C"/>
<path d="M91.3649 130.523C104.887 130.523 115.849 108.062 115.849 80.3552C115.849 52.6481 104.887 30.1871 91.3649 30.1871C77.8425 30.1871 66.8804 52.6481 66.8804 80.3552C66.8804 108.062 77.8425 130.523 91.3649 130.523Z" fill="url(#paint3_radial)"/>
<path d="M86.0599 0.0271606C62.7241 0.0271606 42.5688 36.4013 42.5688 80.5981C42.5688 124.795 62.7241 160.078 86.0599 160.078C109.396 160.078 130.401 124.249 130.401 80.0526C130.401 35.8558 109.396 0.0271606 86.0599 0.0271606ZM83.8289 144.286C66.9771 144.286 52.4222 116.031 52.4222 80.6371C52.4222 45.2432 66.9771 16.114 83.8289 16.114C100.681 16.114 115.85 44.8064 115.85 80.2003C115.85 115.594 100.681 144.286 83.8289 144.286Z" fill="url(#paint4_radial)"/>
<g style="mix-blend-mode:screen">
<path d="M82.9717 159.673C84.1878 159.941 85.4293 160.077 86.6745 160.078C106.788 160.078 124.16 123.704 124.16 79.5072C124.16 35.3103 106.788 0.0271606 86.6745 0.0271606C85.4398 0.0289651 84.2088 0.162814 83.0025 0.426434C98.818 0.0271954 122.329 33.8422 121.788 83.0778C121.266 130.523 101.485 155.588 82.9717 159.673Z" fill="#0F0FD3"/>
</g>
<g style="mix-blend-mode:multiply" opacity="0.52">
<path d="M86.0597 0.0271707C85.0321 0.0278544 84.0058 0.0986417 82.9878 0.23904C95.8816 -2.92763 125.05 25.4581 124.229 80.0526C123.453 131.621 105.042 156.888 82.9717 159.868C83.9952 160.007 85.0269 160.077 86.0597 160.078C109.396 160.078 130.401 124.249 130.401 80.0526C130.401 35.8558 109.396 0.0271707 86.0597 0.0271707Z" fill="#00004C"/>
</g>
<g style="mix-blend-mode:lighten">
<path d="M50.3609 66.1684C54.0017 36.1476 68.6703 11.811 83.124 11.811C86.1393 11.811 88.906 12.8736 91.3651 14.8225C88.1919 10.2151 84.1553 7.56622 79.4987 7.56622C65.7004 7.56622 51.6971 30.7993 48.2214 59.4587C46.4931 73.7094 47.6942 86.617 51.0342 95.9952C49.3613 87.4318 49.025 77.1839 50.3609 66.1684Z" fill="#3939FF"/>
</g>
<g style="mix-blend-mode:lighten">
<path d="M115.587 100.464C111.062 128.475 95.9598 148.027 81.8549 146.646C78.9123 146.358 76.2469 145.09 73.9102 143.014C76.8576 147.67 80.7111 150.558 85.2552 151.003C98.7205 152.321 113.138 133.748 117.458 107.007C119.606 93.7099 119.61 75.7793 116.654 66.6011C118.009 74.8503 117.248 90.1859 115.587 100.464Z" fill="#2E2EFF"/>
</g>
<path style="mix-blend-mode:multiply" d="M107.284 78.3098C108.081 103.649 99.536 119.614 91.3651 119.614C85.0071 119.614 71.8232 113.931 70.041 79.7372C68.3444 47.1861 76.6139 39.2205 82.9718 39.2205C89.3298 39.2205 106.343 48.3994 107.284 78.3098Z" fill="url(#paint5_radial)"/>
<path style="mix-blend-mode:multiply" d="M109.625 75.7283C110.472 102.651 101.393 119.614 92.7119 119.614C85.9565 119.614 71.9486 113.575 70.055 77.2449C68.2524 42.6594 77.0387 34.1959 83.7941 34.1959C90.5494 34.1959 108.626 43.9485 109.625 75.7283Z" fill="url(#paint6_radial)"/>
<path d="M55.2627 131.18C55.9376 133.349 58.3855 140.707 61.4323 141.09C65.1369 141.555 68.1201 134.75 67.9545 129.088C67.918 126.759 67.6794 124.437 67.2415 122.148C62.5454 124.3 57.8288 126.317 53.7812 127.519C54.6747 128.781 55.0315 130.437 55.2627 131.18Z" fill="url(#paint7_radial)"/>
<path d="M56.1084 50.1286C58.872 49.4693 61.9186 48.9153 65.6408 48.2839C62.4199 48.6479 59.2326 49.2647 56.1084 50.1286Z" fill="white"/>
<path d="M94.9077 83.3279C94.1806 72.6634 92.0688 64.3991 89.4325 58.0316C89.2373 57.9725 89.046 57.9103 88.8491 57.8526C70.2999 52.4149 62.0949 52.7302 43.2107 53.7926C37.0834 55.7386 24.1516 60.2582 16.2751 65.9696C6.84922 72.8045 -5.24152 85.7925 2.43578 107.209C12.0965 136.809 44.9678 129.947 52.9375 127.761C53.215 127.685 53.4969 127.603 53.7814 127.519C57.829 126.317 62.5455 124.3 67.2416 122.148C71.6905 120.111 76.1204 117.953 79.944 116.257C83.3425 114.744 86.9513 113.756 90.6466 113.328C94.1428 103.734 95.5943 93.5157 94.9077 83.3279Z" fill="white"/>
<path d="M6.18863 98.8098L6.68023 98.4315C6.99913 98.1861 7.40246 98.0775 7.80148 98.1294C8.2005 98.1814 8.56252 98.3897 8.80792 98.7086L11.0555 101.629C11.3009 101.948 11.4095 102.352 11.3575 102.751C11.3056 103.15 11.0972 103.512 10.7784 103.757L10.2865 104.135C9.9677 104.381 9.56445 104.489 9.16551 104.437C8.76657 104.385 8.40461 104.177 8.15926 103.858L5.91151 100.937C5.66613 100.618 5.55748 100.215 5.60945 99.8161C5.66142 99.4172 5.86976 99.0552 6.18863 98.8098L6.18863 98.8098Z" fill="white"/>
<path d="M26.1975 83.3699L26.6891 82.9917C27.008 82.7463 27.4112 82.6377 27.8102 82.6896C28.2092 82.7416 28.5712 82.9499 28.8166 83.2688L31.0642 86.1896C31.1857 86.3475 31.2749 86.5278 31.3267 86.7201C31.3786 86.9125 31.392 87.1132 31.3662 87.3108C31.3405 87.5083 31.2761 87.6989 31.1767 87.8716C31.0774 88.0442 30.945 88.1956 30.7871 88.3171L30.2955 88.6954C29.9766 88.9408 29.5733 89.0495 29.1743 88.9975C28.7753 88.9455 28.4133 88.7372 28.1679 88.4183L25.9204 85.4977C25.675 85.1788 25.5663 84.7754 25.6183 84.3764C25.6703 83.9774 25.8786 83.6153 26.1976 83.3699L26.1975 83.3699Z" fill="white"/>
<path d="M68.126 107.775C64.5234 108.358 62.0782 104.613 60.1202 100.048C58.5305 96.3418 55.6721 90.9432 51.5662 87.027C46.1481 81.8593 48.6814 73.2824 54.1581 70.5836C59.6349 67.8849 64.9619 70.9995 68.3565 77.1885C72.2865 84.3535 72.6167 90.365 73.1107 97.7445C73.4392 102.653 71.7285 107.192 68.126 107.775Z" fill="white"/>
<path d="M84.3339 48.5557C84.0866 48.1983 83.8392 47.8486 83.5923 47.5134C77.9284 46.9341 72.2117 47.1387 66.6037 48.1211C66.2775 48.176 65.9565 48.2302 65.6406 48.2838C65.9176 48.2531 66.1963 48.223 66.4819 48.1953C72.8708 47.5751 78.8288 47.7231 84.3339 48.5557Z" fill="url(#paint8_radial)"/>
<path d="M53.6656 50.8007C54.4647 50.5775 55.2751 50.3514 56.1086 50.1286C55.3149 50.3179 54.5433 50.5154 53.7873 50.7264C50.1752 51.735 46.7588 52.6793 43.0757 53.8001L43.2109 53.7925C45.3299 53.1194 46.637 52.7535 46.637 52.7535C46.637 52.7535 50.0534 51.8092 53.6656 50.8007Z" fill="url(#paint9_radial)"/>
<path d="M88.8488 57.8526C89.0457 57.9103 89.237 57.9725 89.4322 58.0316C88.0743 54.7008 86.3652 51.5243 84.3338 48.5559C78.8287 47.7233 72.8707 47.5752 66.4818 48.1954C66.1962 48.2232 65.9175 48.2533 65.6405 48.2839C61.9184 48.9153 58.8718 49.4694 56.1082 50.1287C55.2747 50.3515 54.4643 50.5775 53.6651 50.8007C50.053 51.8092 46.6366 52.7535 46.6366 52.7535C46.6366 52.7535 45.3295 53.1195 43.2104 53.7926C62.0947 52.7302 70.2997 52.4149 88.8488 57.8526Z" fill="white"/>
<path d="M88.8488 57.8526C89.0457 57.9103 89.237 57.9725 89.4322 58.0316C88.0743 54.7008 86.3652 51.5243 84.3338 48.5559C78.8287 47.7233 72.8707 47.5752 66.4818 48.1954C66.1962 48.2232 65.9175 48.2533 65.6405 48.2839C61.9184 48.9153 58.8718 49.4694 56.1082 50.1287C55.2747 50.3515 54.4643 50.5775 53.6651 50.8007C50.053 51.8092 46.6366 52.7535 46.6366 52.7535C46.6366 52.7535 45.3295 53.1195 43.2104 53.7926C62.0947 52.7302 70.2997 52.4149 88.8488 57.8526Z" fill="white"/>
<path d="M6.18806 98.8102L6.67952 98.4318C6.99832 98.1864 7.40158 98.0776 7.80057 98.1295C8.19957 98.1814 8.56162 98.3896 8.80707 98.7084L11.0554 101.629C11.3009 101.947 11.4096 102.351 11.3578 102.75C11.3059 103.149 11.0976 103.511 10.7788 103.756L10.2875 104.135C9.9686 104.38 9.56529 104.489 9.16624 104.437C8.7672 104.385 8.40511 104.177 8.15962 103.858L5.91145 100.938C5.66597 100.619 5.5572 100.216 5.60907 99.8169C5.66095 99.4178 5.86921 99.0557 6.18806 98.8102Z" fill="#1D1D1B"/>
<path d="M26.1974 83.3702L26.6889 82.9919C27.0078 82.7465 27.4111 82.6378 27.8101 82.6897C28.2091 82.7417 28.5712 82.95 28.8166 83.2689L31.0642 86.1893C31.3096 86.5082 31.4184 86.9115 31.3664 87.3105C31.3145 87.7096 31.1061 88.0716 30.7872 88.3171L30.2957 88.6954C29.9769 88.9408 29.5736 89.0494 29.1746 88.9975C28.7756 88.9456 28.4136 88.7373 28.1682 88.4184L25.9204 85.4978C25.675 85.1789 25.5663 84.7756 25.6183 84.3766C25.6702 83.9776 25.8785 83.6156 26.1974 83.3702Z" fill="#1D1D1B"/>
<path d="M68.3565 77.1885C64.9619 70.9995 59.6348 67.8849 54.1581 70.5836C48.6814 73.2824 46.1481 81.8593 51.5662 87.027C55.6721 90.9432 58.5305 96.3418 60.1202 100.048C62.0782 104.613 64.5234 108.358 68.126 107.775C71.7285 107.192 73.4392 102.653 73.1107 97.7445C72.6167 90.365 72.2865 84.3535 68.3565 77.1885Z" fill="url(#paint10_radial)"/>
<path d="M20.0986 102.458C23.6249 102.781 26.7222 100.436 27.0166 97.2202" stroke="#1D1D1B" stroke-width="0.69333" stroke-miterlimit="10" stroke-linecap="round"/>
<path d="M50.3991 123.66C37.7034 131.468 26.1897 127.575 18.5547 126.423C31.6574 132.664 47.6916 129.2 52.9374 127.761C53.2149 127.685 53.4968 127.603 53.7813 127.519C57.8288 126.317 62.5454 124.3 67.2415 122.148C71.6904 120.11 76.1203 117.953 79.9439 116.257C83.3424 114.744 86.9512 113.756 90.6465 113.328C91.5807 110.736 92.3743 108.095 93.0236 105.418C83.1852 107.124 69.8161 111.718 50.3991 123.66Z" fill="url(#paint11_radial)"/>
<path d="M50.3991 123.66C37.7034 131.468 26.1897 127.575 18.5547 126.423C31.6574 132.664 47.6916 129.2 52.9374 127.761C53.2149 127.685 53.4968 127.603 53.7813 127.519C57.8288 126.317 62.5454 124.3 67.2415 122.148C71.6904 120.11 76.1203 117.953 79.9439 116.257C83.3424 114.744 86.9512 113.756 90.6465 113.328C91.5807 110.736 92.3743 108.095 93.0236 105.418C83.1852 107.124 69.8161 111.718 50.3991 123.66Z" fill="url(#paint12_radial)"/>
<defs>
<radialGradient id="paint0_radial" cx="0" cy="0" r="1" gradientUnits="userSpaceOnUse" gradientTransform="translate(89.3658 52.1172) rotate(119.472) scale(71.3876)">
<stop offset="0.63788" stop-color="white"/>
<stop offset="0.80085" stop-color="#A0B6BF" stop-opacity="0.9"/>
</radialGradient>
<radialGradient id="paint1_radial" cx="0" cy="0" r="1" gradientUnits="userSpaceOnUse" gradientTransform="translate(89.3657 52.1172) rotate(119.472) scale(71.3876)">
<stop offset="0.63788" stop-color="white"/>
<stop offset="0.80085" stop-color="#A0B6BF" stop-opacity="0.9"/>
</radialGradient>
<radialGradient id="paint2_radial" cx="0" cy="0" r="1" gradientUnits="userSpaceOnUse" gradientTransform="translate(89.3658 52.1172) rotate(119.472) scale(71.3876)">
<stop offset="0.63788" stop-color="white"/>
<stop offset="0.80085" stop-color="#A0B6BF" stop-opacity="0.9"/>
</radialGradient>
<radialGradient id="paint3_radial" cx="0" cy="0" r="1" gradientUnits="userSpaceOnUse" gradientTransform="translate(91.3649 80.3547) scale(30.7253 53.6457)">
<stop stop-color="#121212"/>
<stop offset="1" stop-color="#00004C"/>
</radialGradient>
<radialGradient id="paint4_radial" cx="0" cy="0" r="1" gradientUnits="userSpaceOnUse" gradientTransform="translate(64.6248 2.16221) scale(129.234)">
<stop stop-color="#2525EF"/>
<stop offset="0.13367" stop-color="#2020E9"/>
<stop offset="0.56525" stop-color="#1313D8"/>
<stop offset="0.73753" stop-color="#0B0BD5"/>
<stop offset="1" stop-color="#0303D3"/>
</radialGradient>
<radialGradient id="paint5_radial" cx="0" cy="0" r="1" gradientUnits="userSpaceOnUse" gradientTransform="translate(86.8114 120.723) scale(114.95)">
<stop offset="0.07469" stop-color="#1D1D1B"/>
<stop offset="0.20155" stop-color="#0F0F3F"/>
<stop offset="0.33706" stop-color="#04045E"/>
<stop offset="0.39802" stop-color="#04045F" stop-opacity="0.70515"/>
<stop offset="0.46888" stop-color="#03035F" stop-opacity="0.44799"/>
<stop offset="0.54921" stop-color="#030360" stop-opacity="0.24734"/>
<stop offset="0.6431" stop-color="#030360" stop-opacity="0.10615"/>
<stop offset="0.76322" stop-color="#030360" stop-opacity="0.02401"/>
<stop offset="1" stop-color="#030360" stop-opacity="0"/>
</radialGradient>
<radialGradient id="paint6_radial" cx="0" cy="0" r="1" gradientUnits="userSpaceOnUse" gradientTransform="translate(15450.4 74656.8) scale(21066.9 45140.7)">
<stop offset="0.07469" stop-color="#1D1D1B"/>
<stop offset="0.20155" stop-color="#0F0F3F"/>
<stop offset="0.33706" stop-color="#04045E"/>
<stop offset="0.39802" stop-color="#04045F" stop-opacity="0.70515"/>
<stop offset="0.46888" stop-color="#03035F" stop-opacity="0.44799"/>
<stop offset="0.54921" stop-color="#030360" stop-opacity="0.24734"/>
<stop offset="0.6431" stop-color="#030360" stop-opacity="0.10615"/>
<stop offset="0.76322" stop-color="#030360" stop-opacity="0.02401"/>
<stop offset="1" stop-color="#030360" stop-opacity="0"/>
</radialGradient>
<radialGradient id="paint7_radial" cx="0" cy="0" r="1" gradientUnits="userSpaceOnUse" gradientTransform="translate(50.4277 140.206) scale(24.2865)">
<stop offset="0.47759" stop-color="white"/>
<stop offset="0.75721" stop-color="#A0B6BF" stop-opacity="0.9"/>
</radialGradient>
<radialGradient id="paint8_radial" cx="0" cy="0" r="1" gradientUnits="userSpaceOnUse" gradientTransform="translate(11721.5 48687.1) rotate(-102.91) scale(5981.84 436.383)">
<stop offset="0.63788" stop-color="white"/>
<stop offset="0.80085" stop-color="#A0B6BF" stop-opacity="0.9"/>
</radialGradient>
<radialGradient id="paint9_radial" cx="0" cy="0" r="1" gradientUnits="userSpaceOnUse" gradientTransform="translate(9049.11 33585.3) rotate(-102.91) scale(4170.52 1174.87)">
<stop offset="0.63788" stop-color="white"/>
<stop offset="0.80085" stop-color="#A0B6BF" stop-opacity="0.9"/>
</radialGradient>
<radialGradient id="paint10_radial" cx="0" cy="0" r="1" gradientUnits="userSpaceOnUse" gradientTransform="translate(88.3775 47.5078) scale(71.4652)">
<stop offset="0.68621" stop-color="white"/>
<stop offset="0.71606" stop-color="#F8FAFB" stop-opacity="0.9931"/>
<stop offset="0.76149" stop-color="#E6ECEE" stop-opacity="0.97411"/>
<stop offset="0.81686" stop-color="#C9D5DB" stop-opacity="0.94304"/>
<stop offset="0.87957" stop-color="#A0B6BF" stop-opacity="0.90022"/>
</radialGradient>
<radialGradient id="paint11_radial" cx="0" cy="0" r="1" gradientUnits="userSpaceOnUse" gradientTransform="translate(20838.8 15362.2) scale(31356.6 10360.8)">
<stop offset="0.588542" stop-color="white"/>
<stop offset="0.854167" stop-color="#A0B6BF" stop-opacity="0.9"/>
</radialGradient>
<radialGradient id="paint12_radial" cx="0" cy="0" r="1" gradientUnits="userSpaceOnUse" gradientTransform="translate(139.133 91.1937) scale(216.406 45.9992)">
<stop offset="0.489583" stop-color="white"/>
<stop offset="0.609375" stop-color="#F8FAFB" stop-opacity="0.9931"/>
<stop offset="0.682292" stop-color="#E6ECEE" stop-opacity="0.97411"/>
<stop offset="0.81686" stop-color="#C9D5DB" stop-opacity="0.94304"/>
<stop offset="0.87957" stop-color="#A0B6BF" stop-opacity="0.90022"/>
</radialGradient>
</defs>
</svg>
