 <svg width="197" height="262" viewBox="0 0 197 262" fill="none" xmlns="http://www.w3.org/2000/svg">
<g filter="url(#filter0_d)">
<path d="M42.2 241V219.08L41.4 215.08L42.2 212.68H52.6C54.6267 212.68 56.3733 212.92 57.84 213.4C59.3333 213.853 60.4933 214.6 61.32 215.64C62.1467 216.68 62.56 218.067 62.56 219.8C62.56 220.867 62.3733 221.88 62 222.84C61.6533 223.773 61.0533 224.56 60.2 225.2C61.88 225.787 63.16 226.667 64.04 227.84C64.92 229.013 65.36 230.573 65.36 232.52C65.36 235.48 64.5333 237.64 62.88 239C61.2267 240.333 58.7333 241 55.4 241H42.2ZM47.8 224.08H53.32C55.56 224.08 56.68 223.093 56.68 221.12C56.68 220.133 56.4533 219.347 56 218.76C55.5467 218.173 54.6533 217.88 53.32 217.88H47.8V224.08ZM47.8 235.8H55C56.4133 235.8 57.44 235.48 58.08 234.84C58.7467 234.2 59.08 233.307 59.08 232.16C59.08 231.067 58.72 230.24 58 229.68C57.3067 229.12 56.1733 228.84 54.6 228.84H47.8V235.8ZM68.5687 241V219.12L67.7687 215.08L68.5687 212.68H78.1688C80.1154 212.68 81.8621 212.987 83.4088 213.6C84.9821 214.187 86.2221 215.2 87.1288 216.64C88.0621 218.053 88.5288 220.013 88.5288 222.52C88.5288 224.893 88.0754 226.787 87.1688 228.2C86.2888 229.613 85.0621 230.667 83.4887 231.36L84.6488 232.4L88.2088 236.56L90.4888 238.6V241H83.0888L77.4887 232.48H74.1688V234.56L74.5687 238.56L74.1688 241H68.5687ZM74.1688 227.4H78.0888C79.8487 227.4 81.0488 226.947 81.6888 226.04C82.3288 225.107 82.6488 223.933 82.6488 222.52C82.6488 221.027 82.3021 219.88 81.6088 219.08C80.9421 218.28 79.7154 217.88 77.9288 217.88H73.7687L74.1688 227.4ZM92.0766 241V219.08L91.6766 215.08L92.0766 212.68H97.6766V241H92.0766ZM101.658 241V219.12L100.858 215.12L101.658 212.68H110.378C112.298 212.68 114.138 212.867 115.898 213.24C117.684 213.587 119.271 214.253 120.658 215.24C122.071 216.227 123.178 217.64 123.978 219.48C124.804 221.32 125.218 223.707 125.218 226.64C125.218 229.573 124.804 231.987 123.978 233.88C123.151 235.747 122.031 237.2 120.618 238.24C119.204 239.28 117.604 240 115.818 240.4C114.058 240.8 112.244 241 110.378 241H101.658ZM107.338 235.8H111.578C114.351 235.8 116.324 234.987 117.498 233.36C118.671 231.707 119.258 229.467 119.258 226.64C119.258 223.813 118.658 221.653 117.458 220.16C116.284 218.64 114.324 217.88 111.578 217.88H107.338V235.8ZM141.093 241.4C139.173 241.4 137.36 241.173 135.653 240.72C133.973 240.24 132.493 239.453 131.213 238.36C129.933 237.267 128.933 235.787 128.213 233.92C127.493 232.027 127.133 229.667 127.133 226.84C127.133 224.36 127.52 222.2 128.293 220.36C129.067 218.52 130.107 217.013 131.413 215.84C132.72 214.64 134.173 213.747 135.773 213.16C137.373 212.573 139 212.28 140.653 212.28C141.8 212.28 142.76 212.347 143.533 212.48C144.307 212.613 145.133 212.787 146.013 213L151.453 216.56L149.053 221.12L141.053 218C139.56 218 138.2 218.347 136.973 219.04C135.773 219.707 134.827 220.707 134.133 222.04C133.44 223.347 133.093 224.96 133.093 226.88C133.093 230.107 133.853 232.493 135.373 234.04C136.92 235.56 138.947 236.32 141.453 236.32C142.653 236.32 143.507 236.253 144.013 236.12C144.52 235.987 144.867 235.893 145.053 235.84V230.72H139.973V225.6H151.093L151.533 228L150.653 230.12V239.72C150.36 239.827 149.867 240.013 149.173 240.28C148.48 240.547 147.48 240.8 146.173 241.04C144.893 241.28 143.2 241.4 141.093 241.4ZM154.747 241L153.947 238.6L154.747 234.6V212.68H172.907L174.907 213.88L172.667 218.28L168.667 217.88H160.267V224.08H171.067V229.08H167.147L160.267 228.68V235.8H173.067L176.227 238.44L173.867 241H154.747Z" fill="url(#paint0_linear)"/>
<path d="M156.142 39.1922C156.566 39.5823 157.106 40.1298 157.724 40.8176C157.066 40.0803 156.495 39.4998 156.05 39.0901C155.839 38.896 155.646 38.7031 155.47 38.5117C155.671 38.7366 155.893 38.9635 156.142 39.1922Z" fill="white"/>
<path d="M156.288 97.5659C161.976 88.4526 169.005 77.2393 164.311 60.4412C158.933 41.1993 151.104 39.5695 151.217 34.9C151.306 31.1997 153.952 29.4296 155.614 29.1729C155.598 29.1366 155.583 29.1006 155.564 29.0638C155.021 28.0123 153.583 28.2889 153.583 28.2889C153.583 28.2889 146.516 30.3756 146.448 37.6054C146.38 44.8353 154.455 49.8762 150.64 59.8078C147.436 68.1477 138.094 65.4158 131.071 60.8159L115.123 114.442C116.524 114.482 117.989 114.506 119.532 114.512C137.254 114.581 150.041 107.575 156.288 97.5659Z" fill="white"/>
<path d="M165.74 93.6122C155.035 113.767 136.188 125.097 112.909 121.885L112.884 121.97C136.217 125.236 155.109 113.902 165.832 93.7143C178.625 69.6299 164.019 47.82 157.724 40.8176C164.068 47.9305 178.47 69.6465 165.74 93.6122Z" fill="url(#paint1_radial)"/>
<path d="M155.53 30.9653C155.53 30.9653 151.676 34.4005 155.47 38.5116C151.833 34.4459 155.622 31.0674 155.622 31.0674C155.792 30.7804 155.884 30.4543 155.89 30.1211C155.896 29.7878 155.815 29.4588 155.656 29.1659C155.642 29.1679 155.628 29.1708 155.614 29.1729C155.746 29.4561 155.808 29.7672 155.793 30.0795C155.779 30.3917 155.688 30.6957 155.53 30.9653Z" fill="url(#paint2_radial)"/>
<path d="M165.74 93.6122C178.47 69.6465 164.068 47.9305 157.724 40.8176C157.106 40.1298 156.566 39.5823 156.142 39.1922C155.893 38.9635 155.671 38.7366 155.47 38.5117C151.677 34.4005 155.53 30.9654 155.53 30.9654C155.689 30.6958 155.779 30.3917 155.793 30.0795C155.808 29.7672 155.746 29.4561 155.614 29.173C153.952 29.4296 151.306 31.1998 151.217 34.9001C151.104 39.5695 158.933 41.1994 164.31 60.4413C169.005 77.2393 161.976 88.4527 156.288 97.566C150.041 107.575 137.254 114.581 119.532 114.512C117.989 114.506 116.524 114.482 115.122 114.442L112.909 121.885C136.188 125.097 155.035 113.767 165.74 93.6122Z" fill="white"/>
<path d="M165.74 93.6122C178.47 69.6465 164.068 47.9305 157.724 40.8176C157.106 40.1298 156.566 39.5823 156.142 39.1922C155.893 38.9635 155.671 38.7366 155.47 38.5117C151.677 34.4005 155.53 30.9654 155.53 30.9654C155.689 30.6958 155.779 30.3917 155.793 30.0795C155.808 29.7672 155.746 29.4561 155.614 29.173C153.952 29.4296 151.306 31.1998 151.217 34.9001C151.104 39.5695 158.933 41.1994 164.31 60.4413C169.005 77.2393 161.976 88.4527 156.288 97.566C150.041 107.575 137.254 114.581 119.532 114.512C117.989 114.506 116.524 114.482 115.122 114.442L112.909 121.885C136.188 125.097 155.035 113.767 165.74 93.6122Z" fill="url(#paint3_radial)"/>
<path d="M104.152 168.006C123.388 168.006 138.982 137.9 138.982 100.761C138.982 63.623 123.388 33.5165 104.152 33.5165C84.9153 33.5165 69.3213 63.623 69.3213 100.761C69.3213 137.9 84.9153 168.006 104.152 168.006Z" fill="#030360"/>
<path d="M107.483 156.665C123.768 156.665 136.969 131.178 136.969 99.7372C136.969 68.2968 123.768 42.8093 107.483 42.8093C91.1976 42.8093 77.9961 68.2968 77.9961 99.7372C77.9961 131.178 91.1976 156.665 107.483 156.665Z" fill="#00004C"/>
<path d="M111.365 150.523C124.887 150.523 135.849 128.062 135.849 100.355C135.849 72.6481 124.887 50.1871 111.365 50.1871C97.8425 50.1871 86.8804 72.6481 86.8804 100.355C86.8804 128.062 97.8425 150.523 111.365 150.523Z" fill="url(#paint4_radial)"/>
<path d="M106.06 20.0272C82.7241 20.0272 62.5688 56.4013 62.5688 100.598C62.5688 144.795 82.7241 180.078 106.06 180.078C129.396 180.078 150.401 144.249 150.401 100.053C150.401 55.8558 129.396 20.0272 106.06 20.0272ZM103.829 164.286C86.9771 164.286 72.4222 136.031 72.4222 100.637C72.4222 65.2432 86.9771 36.114 103.829 36.114C120.681 36.114 135.85 64.8064 135.85 100.2C135.85 135.594 120.681 164.286 103.829 164.286Z" fill="url(#paint5_radial)"/>
<g style="mix-blend-mode:screen">
<path d="M102.972 179.673C104.188 179.941 105.429 180.077 106.675 180.078C126.788 180.078 144.16 143.704 144.16 99.5072C144.16 55.3103 126.788 20.0272 106.675 20.0272C105.44 20.029 104.209 20.1628 103.003 20.4264C118.818 20.0272 142.329 53.8422 141.788 103.078C141.266 150.523 121.485 175.588 102.972 179.673Z" fill="#0F0FD3"/>
</g>
<g style="mix-blend-mode:multiply" opacity="0.52">
<path d="M106.06 20.0272C105.032 20.0279 104.006 20.0986 102.988 20.239C115.882 17.0724 145.05 45.4581 144.229 100.053C143.453 151.621 125.042 176.888 102.972 179.868C103.995 180.007 105.027 180.077 106.06 180.078C129.396 180.078 150.401 144.249 150.401 100.053C150.401 55.8558 129.396 20.0272 106.06 20.0272Z" fill="#00004C"/>
</g>
<g style="mix-blend-mode:lighten">
<path d="M70.3607 86.1684C74.0015 56.1476 88.67 31.811 103.124 31.811C106.139 31.811 108.906 32.8736 111.365 34.8225C108.192 30.2151 104.155 27.5662 99.4985 27.5662C85.7002 27.5662 71.6969 50.7993 68.2212 79.4587C66.4929 93.7094 67.694 106.617 71.0339 115.995C69.3611 107.432 69.0247 97.1839 70.3607 86.1684Z" fill="#3939FF"/>
</g>
<g style="mix-blend-mode:lighten">
<path d="M135.587 120.464C131.062 148.475 115.96 168.027 101.855 166.646C98.9123 166.358 96.2469 165.09 93.9102 163.014C96.8576 167.67 100.711 170.558 105.255 171.003C118.72 172.321 133.138 153.748 137.458 127.007C139.606 113.71 139.61 95.7793 136.654 86.6011C138.009 94.8503 137.248 110.186 135.587 120.464Z" fill="#2E2EFF"/>
</g>
<path style="mix-blend-mode:multiply" d="M127.283 98.3098C128.081 123.649 119.536 139.614 111.365 139.614C105.007 139.614 91.8229 133.931 90.0407 99.7372C88.3441 67.1861 96.6136 59.2205 102.972 59.2205C109.33 59.2205 126.343 68.3994 127.283 98.3098Z" fill="url(#paint6_radial)"/>
<path style="mix-blend-mode:multiply" d="M129.625 95.7283C130.472 122.651 121.393 139.614 112.712 139.614C105.956 139.614 91.9484 133.575 90.0548 97.2449C88.2521 62.6594 97.0385 54.1959 103.794 54.1959C110.549 54.1959 128.625 63.9485 129.625 95.7283Z" fill="url(#paint7_radial)"/>
<path d="M75.263 151.18C75.9379 153.349 78.3858 160.707 81.4325 161.09C85.1372 161.555 88.1204 154.75 87.9547 149.088C87.9182 146.759 87.6797 144.437 87.2417 142.148C82.5456 144.3 77.8291 146.317 73.7815 147.519C74.6749 148.781 75.0317 150.437 75.263 151.18Z" fill="url(#paint8_radial)"/>
<path d="M76.1084 70.1286C78.872 69.4693 81.9186 68.9153 85.6408 68.2839C82.4199 68.6479 79.2326 69.2647 76.1084 70.1286Z" fill="white"/>
<path d="M114.908 103.328C114.181 92.6634 112.069 84.3991 109.432 78.0316C109.237 77.9725 109.046 77.9103 108.849 77.8526C90.2999 72.4149 82.0949 72.7302 63.2107 73.7926C57.0834 75.7386 44.1516 80.2582 36.2751 85.9696C26.8492 92.8045 14.7585 105.792 22.4358 127.209C32.0965 156.809 64.9678 149.947 72.9375 147.761C73.215 147.685 73.4969 147.603 73.7814 147.519C77.829 146.317 82.5455 144.3 87.2416 142.148C91.6905 140.111 96.1204 137.953 99.944 136.257C103.343 134.744 106.951 133.756 110.647 133.328C114.143 123.734 115.594 113.516 114.908 103.328Z" fill="white"/>
<path d="M26.1886 118.81L26.6802 118.432C26.9991 118.186 27.4025 118.077 27.8015 118.129C28.2005 118.181 28.5625 118.39 28.8079 118.709L31.0555 121.629C31.3009 121.948 31.4095 122.352 31.3575 122.751C31.3056 123.15 31.0972 123.512 30.7784 123.757L30.2865 124.135C29.9677 124.381 29.5645 124.489 29.1655 124.437C28.7666 124.385 28.4046 124.177 28.1593 123.858L25.9115 120.937C25.6661 120.618 25.5575 120.215 25.6095 119.816C25.6614 119.417 25.8698 119.055 26.1886 118.81L26.1886 118.81Z" fill="white"/>
<path d="M46.1978 103.37L46.6893 102.992C47.0082 102.746 47.4115 102.638 47.8105 102.69C48.2095 102.742 48.5715 102.95 48.8168 103.269L51.0644 106.19C51.1859 106.348 51.2751 106.528 51.327 106.72C51.3788 106.913 51.3922 107.113 51.3665 107.311C51.3408 107.508 51.2764 107.699 51.177 107.872C51.0776 108.044 50.9452 108.196 50.7873 108.317L50.2957 108.695C49.9768 108.941 49.5735 109.049 49.1745 108.998C48.7755 108.946 48.4135 108.737 48.1681 108.418L45.9207 105.498C45.6752 105.179 45.5666 104.775 45.6186 104.376C45.6705 103.977 45.8789 103.615 46.1978 103.37L46.1978 103.37Z" fill="white"/>
<path d="M88.1258 127.775C84.5231 128.358 82.078 124.613 80.12 120.048C78.5303 116.342 75.6719 110.943 71.566 107.027C66.1478 101.859 68.6811 93.2824 74.1578 90.5836C79.6346 87.8849 84.9617 90.9995 88.3563 97.1885C92.2863 104.353 92.6165 110.365 93.1104 117.744C93.4389 122.653 91.7283 127.192 88.1258 127.775Z" fill="white"/>
<path d="M104.334 68.5557C104.087 68.1983 103.839 67.8486 103.593 67.5134C97.9286 66.9341 92.2119 67.1387 86.6039 68.1211C86.2778 68.176 85.9568 68.2302 85.6409 68.2838C85.9178 68.2531 86.1965 68.223 86.4821 68.1953C92.8711 67.5751 98.829 67.7231 104.334 68.5557Z" fill="url(#paint9_radial)"/>
<path d="M73.6653 70.8007C74.4645 70.5775 75.2748 70.3514 76.1083 70.1286C75.3147 70.3179 74.543 70.5154 73.7871 70.7264C70.175 71.735 66.7585 72.6793 63.0754 73.8001L63.2106 73.7925C65.3297 73.1194 66.6368 72.7535 66.6368 72.7535C66.6368 72.7535 70.0532 71.8092 73.6653 70.8007Z" fill="url(#paint10_radial)"/>
<path d="M108.849 77.8526C109.046 77.9103 109.237 77.9725 109.432 78.0316C108.075 74.7008 106.365 71.5243 104.334 68.5559C98.8289 67.7233 92.871 67.5752 86.4821 68.1954C86.1964 68.2232 85.9177 68.2533 85.6408 68.2839C81.9186 68.9153 78.872 69.4694 76.1084 70.1287C75.2749 70.3515 74.4646 70.5775 73.6654 70.8007C70.0533 71.8092 66.6368 72.7535 66.6368 72.7535C66.6368 72.7535 65.3297 73.1195 63.2107 73.7926C82.0949 72.7302 90.2999 72.4149 108.849 77.8526Z" fill="white"/>
<path d="M108.849 77.8526C109.046 77.9103 109.237 77.9725 109.432 78.0316C108.075 74.7008 106.365 71.5243 104.334 68.5559C98.8289 67.7233 92.871 67.5752 86.4821 68.1954C86.1964 68.2232 85.9177 68.2533 85.6408 68.2839C81.9186 68.9153 78.872 69.4694 76.1084 70.1287C75.2749 70.3515 74.4646 70.5775 73.6654 70.8007C70.0533 71.8092 66.6368 72.7535 66.6368 72.7535C66.6368 72.7535 65.3297 73.1195 63.2107 73.7926C82.0949 72.7302 90.2999 72.4149 108.849 77.8526Z" fill="white"/>
<path d="M26.1883 118.81L26.6798 118.432C26.9986 118.186 27.4018 118.078 27.8008 118.129C28.1998 118.181 28.5619 118.39 28.8073 118.708L31.0556 121.629C31.3011 121.947 31.4099 122.351 31.358 122.75C31.3061 123.149 31.0979 123.511 30.779 123.756L30.2877 124.135C29.9688 124.38 29.5655 124.489 29.1665 124.437C28.7674 124.385 28.4054 124.177 28.1599 123.858L25.9117 120.938C25.6662 120.619 25.5574 120.216 25.6093 119.817C25.6612 119.418 25.8695 119.056 26.1883 118.81Z" fill="#1D1D1B"/>
<path d="M46.1974 103.37L46.6889 102.992C47.0078 102.746 47.4111 102.638 47.8101 102.69C48.2091 102.742 48.5712 102.95 48.8166 103.269L51.0642 106.189C51.3096 106.508 51.4184 106.912 51.3664 107.311C51.3145 107.71 51.1061 108.072 50.7872 108.317L50.2957 108.695C49.9769 108.941 49.5736 109.049 49.1746 108.997C48.7756 108.946 48.4136 108.737 48.1682 108.418L45.9204 105.498C45.675 105.179 45.5663 104.776 45.6183 104.377C45.6702 103.978 45.8785 103.616 46.1974 103.37Z" fill="#1D1D1B"/>
<path d="M88.3563 97.1885C84.9616 90.9995 79.6346 87.8849 74.1578 90.5836C68.6811 93.2824 66.1478 101.859 71.566 107.027C75.6719 110.943 78.5303 116.342 80.12 120.048C82.078 124.613 84.5231 128.358 88.1258 127.775C91.7283 127.192 93.4389 122.653 93.1104 117.744C92.6165 110.365 92.2863 104.353 88.3563 97.1885Z" fill="url(#paint11_radial)"/>
<path d="M40.0986 122.458C43.6249 122.781 46.7222 120.436 47.0166 117.22" stroke="#1D1D1B" stroke-width="0.69333" stroke-miterlimit="10" stroke-linecap="round"/>
<path d="M70.3993 143.66C57.7036 151.468 46.1899 147.575 38.5549 146.423C51.6577 152.664 67.6918 149.2 72.9376 147.761C73.2151 147.685 73.497 147.603 73.7815 147.519C77.8291 146.317 82.5456 144.3 87.2418 142.148C91.6906 140.11 96.1205 137.953 99.9441 136.257C103.343 134.744 106.951 133.756 110.647 133.328C111.581 130.736 112.375 128.095 113.024 125.418C103.185 127.124 89.8164 131.718 70.3993 143.66Z" fill="url(#paint12_radial)"/>
<path d="M70.3993 143.66C57.7036 151.468 46.1899 147.575 38.5549 146.423C51.6577 152.664 67.6918 149.2 72.9376 147.761C73.2151 147.685 73.497 147.603 73.7815 147.519C77.8291 146.317 82.5456 144.3 87.2418 142.148C91.6906 140.11 96.1205 137.953 99.9441 136.257C103.343 134.744 106.951 133.756 110.647 133.328C111.581 130.736 112.375 128.095 113.024 125.418C103.185 127.124 89.8164 131.718 70.3993 143.66Z" fill="url(#paint13_radial)"/>
</g>
<defs>
<filter id="filter0_d" x="0" y="0" width="196.227" height="277" filterUnits="userSpaceOnUse" color-interpolation-filters="sRGB">
<feFlood flood-opacity="0" result="BackgroundImageFix"/>
<feColorMatrix in="SourceAlpha" type="matrix" values="0 0 0 0 0 0 0 0 0 0 0 0 0 0 0 0 0 0 127 0" result="hardAlpha"/>
<feOffset/>
<feGaussianBlur stdDeviation="10"/>
<feComposite in2="hardAlpha" operator="out"/>
<feColorMatrix type="matrix" values="0 0 0 0 0.054902 0 0 0 0 0.956863 0 0 0 0 0.933333 0 0 0 1 0"/>
<feBlend mode="normal" in2="BackgroundImageFix" result="effect1_dropShadow"/>
<feBlend mode="normal" in="SourceGraphic" in2="effect1_dropShadow" result="shape"/>
</filter>
<linearGradient id="paint0_linear" x1="173" y1="225.5" x2="39" y2="227" gradientUnits="userSpaceOnUse">
<stop stop-color="#E05EBA"/>
<stop offset="0.630208" stop-color="#4AC7D5"/>
<stop offset="0.791667" stop-color="#CE608D"/>
<stop offset="1" stop-color="#E05EBA"/>
</linearGradient>
<radialGradient id="paint1_radial" cx="0" cy="0" r="1" gradientUnits="userSpaceOnUse" gradientTransform="translate(109.366 72.1172) rotate(119.472) scale(71.3876)">
<stop offset="0.63788" stop-color="white"/>
<stop offset="0.80085" stop-color="#A0B6BF" stop-opacity="0.9"/>
</radialGradient>
<radialGradient id="paint2_radial" cx="0" cy="0" r="1" gradientUnits="userSpaceOnUse" gradientTransform="translate(109.366 72.1172) rotate(119.472) scale(71.3876)">
<stop offset="0.63788" stop-color="white"/>
<stop offset="0.80085" stop-color="#A0B6BF" stop-opacity="0.9"/>
</radialGradient>
<radialGradient id="paint3_radial" cx="0" cy="0" r="1" gradientUnits="userSpaceOnUse" gradientTransform="translate(109.366 72.1172) rotate(119.472) scale(71.3876)">
<stop offset="0.63788" stop-color="white"/>
<stop offset="0.80085" stop-color="#A0B6BF" stop-opacity="0.9"/>
</radialGradient>
<radialGradient id="paint4_radial" cx="0" cy="0" r="1" gradientUnits="userSpaceOnUse" gradientTransform="translate(111.365 100.355) scale(30.7253 53.6457)">
<stop stop-color="#121212"/>
<stop offset="1" stop-color="#00004C"/>
</radialGradient>
<radialGradient id="paint5_radial" cx="0" cy="0" r="1" gradientUnits="userSpaceOnUse" gradientTransform="translate(84.6248 22.1622) scale(129.234)">
<stop stop-color="#2525EF"/>
<stop offset="0.13367" stop-color="#2020E9"/>
<stop offset="0.56525" stop-color="#1313D8"/>
<stop offset="0.73753" stop-color="#0B0BD5"/>
<stop offset="1" stop-color="#0303D3"/>
</radialGradient>
<radialGradient id="paint6_radial" cx="0" cy="0" r="1" gradientUnits="userSpaceOnUse" gradientTransform="translate(106.811 140.723) scale(114.95)">
<stop offset="0.07469" stop-color="#1D1D1B"/>
<stop offset="0.20155" stop-color="#0F0F3F"/>
<stop offset="0.33706" stop-color="#04045E"/>
<stop offset="0.39802" stop-color="#04045F" stop-opacity="0.70515"/>
<stop offset="0.46888" stop-color="#03035F" stop-opacity="0.44799"/>
<stop offset="0.54921" stop-color="#030360" stop-opacity="0.24734"/>
<stop offset="0.6431" stop-color="#030360" stop-opacity="0.10615"/>
<stop offset="0.76322" stop-color="#030360" stop-opacity="0.02401"/>
<stop offset="1" stop-color="#030360" stop-opacity="0"/>
</radialGradient>
<radialGradient id="paint7_radial" cx="0" cy="0" r="1" gradientUnits="userSpaceOnUse" gradientTransform="translate(15470.4 74676.8) scale(21066.9 45140.7)">
<stop offset="0.07469" stop-color="#1D1D1B"/>
<stop offset="0.20155" stop-color="#0F0F3F"/>
<stop offset="0.33706" stop-color="#04045E"/>
<stop offset="0.39802" stop-color="#04045F" stop-opacity="0.70515"/>
<stop offset="0.46888" stop-color="#03035F" stop-opacity="0.44799"/>
<stop offset="0.54921" stop-color="#030360" stop-opacity="0.24734"/>
<stop offset="0.6431" stop-color="#030360" stop-opacity="0.10615"/>
<stop offset="0.76322" stop-color="#030360" stop-opacity="0.02401"/>
<stop offset="1" stop-color="#030360" stop-opacity="0"/>
</radialGradient>
<radialGradient id="paint8_radial" cx="0" cy="0" r="1" gradientUnits="userSpaceOnUse" gradientTransform="translate(70.428 160.206) scale(24.2865)">
<stop offset="0.47759" stop-color="white"/>
<stop offset="0.75721" stop-color="#A0B6BF" stop-opacity="0.9"/>
</radialGradient>
<radialGradient id="paint9_radial" cx="0" cy="0" r="1" gradientUnits="userSpaceOnUse" gradientTransform="translate(11741.5 48707.1) rotate(-102.91) scale(5981.84 436.383)">
<stop offset="0.63788" stop-color="white"/>
<stop offset="0.80085" stop-color="#A0B6BF" stop-opacity="0.9"/>
</radialGradient>
<radialGradient id="paint10_radial" cx="0" cy="0" r="1" gradientUnits="userSpaceOnUse" gradientTransform="translate(9069.11 33605.3) rotate(-102.91) scale(4170.52 1174.87)">
<stop offset="0.63788" stop-color="white"/>
<stop offset="0.80085" stop-color="#A0B6BF" stop-opacity="0.9"/>
</radialGradient>
<radialGradient id="paint11_radial" cx="0" cy="0" r="1" gradientUnits="userSpaceOnUse" gradientTransform="translate(108.377 67.5078) scale(71.4652)">
<stop offset="0.68621" stop-color="white"/>
<stop offset="0.71606" stop-color="#F8FAFB" stop-opacity="0.9931"/>
<stop offset="0.76149" stop-color="#E6ECEE" stop-opacity="0.97411"/>
<stop offset="0.81686" stop-color="#C9D5DB" stop-opacity="0.94304"/>
<stop offset="0.87957" stop-color="#A0B6BF" stop-opacity="0.90022"/>
</radialGradient>
<radialGradient id="paint12_radial" cx="0" cy="0" r="1" gradientUnits="userSpaceOnUse" gradientTransform="translate(20858.8 15382.2) scale(31356.6 10360.8)">
<stop offset="0.588542" stop-color="white"/>
<stop offset="0.854167" stop-color="#A0B6BF" stop-opacity="0.9"/>
</radialGradient>
<radialGradient id="paint13_radial" cx="0" cy="0" r="1" gradientUnits="userSpaceOnUse" gradientTransform="translate(159.134 111.194) scale(216.406 45.9992)">
<stop offset="0.489583" stop-color="white"/>
<stop offset="0.609375" stop-color="#F8FAFB" stop-opacity="0.9931"/>
<stop offset="0.682292" stop-color="#E6ECEE" stop-opacity="0.97411"/>
<stop offset="0.81686" stop-color="#C9D5DB" stop-opacity="0.94304"/>
<stop offset="0.87957" stop-color="#A0B6BF" stop-opacity="0.90022"/>
</radialGradient>
</defs>
</svg>
