<svg width="243" height="223" viewBox="0 0 243 223" fill="none" xmlns="http://www.w3.org/2000/svg">
<path d="M161.021 51.8188C161.021 51.8188 150.724 91.9717 105.596 91.4278C60.4677 90.8837 30.5526 59.4858 30.5526 59.4858L161.021 51.8188Z" fill="#96051D"/>
<path d="M198.155 40.0691C198.155 40.0691 172.084 9.12964 126.642 26.3937C89.6463 63.0572 71.0947 21.0696 71.0947 21.0696C71.0947 21.0696 66.8634 40.4016 60.6716 41.1246C54.515 41.8434 39.2922 41.9159 29.5608 61.1917C21.5862 77.0223 17.9422 69.6357 9.90504 72.8611C1.78729 76.1189 0.000259399 85.0715 0.000259399 85.0715C0.000259399 85.0715 8.9586 78.5093 15.6111 86.359C22.5415 94.5367 22.8755 100.626 49.0833 100.195C93.1591 99.471 132.899 60.2706 134.895 70.9828C137.051 82.5612 198.155 40.0691 198.155 40.0691Z" fill="#CE0631"/>
<g style="mix-blend-mode:multiply" opacity="0.1">
<g style="mix-blend-mode:multiply" opacity="0.1">
<path d="M68.4091 30.2681L70.5045 33.7734L72.0929 36.4309C72.2793 36.7428 72.3857 37.0958 72.4026 37.4587C72.4196 37.8217 72.3463 38.183 72.1894 38.5108C72.0327 38.8385 71.7972 39.1222 71.5042 39.337C71.2111 39.5516 70.8696 39.6903 70.5097 39.7409L60.6712 41.1246C63.8844 40.7494 66.5691 35.3635 68.4091 30.2681Z" fill="#9E0720"/>
</g>
</g>
<path d="M123.673 45.1187L129.451 47.2029L118.554 75.8676L106.484 78.0309L97.0224 75.0119L82.6148 52.813L117.11 44.9046L123.679 45.1059L123.673 45.1187Z" fill="#FCE905"/>
<path d="M123.274 47.641L120.612 46.5681L118.264 46.468L87.5736 53.4469L102.348 72.0899L105.592 72.991L111.022 71.9809L123.274 47.641ZM129.451 47.2029L118.554 75.8676L106.484 78.0309L97.0224 75.0116L82.6148 52.813L117.11 44.9046L123.679 45.1059L123.673 45.1187L129.451 47.2029Z" fill="#00006B"/>
<path d="M103.388 50.8234C102.279 50.783 100.926 50.7319 99.3461 50.6703C97.8039 50.6106 96.6653 50.5647 95.9087 50.5324C95.5359 50.9034 94.8423 51.349 93.8284 51.8692C92.8757 52.3416 91.9986 52.953 91.2252 53.683C90.248 54.6297 89.6744 55.5418 89.5253 56.4207C89.4442 56.8634 89.4572 57.3184 89.5636 57.7559C89.6697 58.1934 89.8669 58.6035 90.1422 58.9597C90.7406 59.7689 91.688 60.4886 93.0045 61.1104C94.5824 61.8264 96.2409 62.3499 97.9442 62.669C102.378 63.5263 106.941 63.4695 111.352 62.5027C116.049 61.5132 119.048 59.678 120.235 57.17C120.727 56.13 120.871 55.2735 120.683 54.5891C120.496 54.0204 120.532 53.402 120.784 52.8589C119.303 52.7027 117.683 52.5236 115.937 52.3231C114.241 52.1283 112.731 51.9515 111.394 51.7915C111.282 51.7946 111.173 51.8329 111.083 51.9012C110.983 51.9581 110.894 52.0337 110.822 52.1236C110.787 52.1753 110.775 52.2381 110.786 52.2988C110.796 52.3674 110.848 52.4167 110.943 52.4467C112.749 52.7217 114.492 53.3112 116.093 54.1886C117.681 55.0837 118.272 56.0074 117.788 56.9432C117.025 58.4189 114.949 59.2733 111.661 59.4459C108.095 59.5864 104.524 59.3539 101.007 58.7519C97.4778 58.1856 94.9531 57.4881 93.3379 56.6692C91.8108 55.8945 91.6403 54.9622 92.7317 53.8723C93.5747 53.0307 94.9179 52.437 96.791 52.0704C98.8028 51.6869 100.842 51.4648 102.889 51.4064C102.999 51.4038 103.106 51.3712 103.198 51.312C103.276 51.2692 103.348 51.2153 103.41 51.1516C103.452 51.0958 103.476 51.0286 103.48 50.9587C103.488 50.8745 103.458 50.8296 103.388 50.8234Z" fill="#00006B"/>
<g style="mix-blend-mode:multiply" opacity="0.2">
<g style="mix-blend-mode:multiply" opacity="0.2">
<path d="M49.082 100.195C37.2984 100.388 31.0451 88.0837 31.6359 81.7559C32.2697 74.9649 26.9459 71.8764 22.7518 70.5041C23.9642 69.6221 25.0254 68.5492 25.8936 67.3269H25.8939C26.0042 67.1796 26.1155 67.0276 26.2273 66.8706L26.2331 66.8626C26.3434 66.7082 26.4544 66.5489 26.5665 66.3849L26.5757 66.3713C26.687 66.2084 26.7989 66.0405 26.9118 65.8676L26.9216 65.8525C27.0345 65.6791 27.1485 65.5008 27.2635 65.3175L27.2716 65.3045C27.3873 65.1193 27.5041 64.9293 27.6217 64.7337L27.6269 64.7251C27.7453 64.528 27.865 64.3254 27.9854 64.1174L27.9873 64.1142C32.4744 64.4933 50.961 68.5302 61.1563 69.4581C127.531 75.5007 113.988 56.5435 111.297 51.8188C108.607 47.0942 71.7986 40.9321 76.4688 39.647C77.9823 39.2304 84.0966 40.8323 92.3231 40.7024C101.066 42.927 112.505 40.4008 126.635 26.4L126.642 26.3937C127.029 26.2467 127.414 26.1033 127.798 25.9636C127.865 25.9394 127.931 25.9162 127.997 25.8921C128.326 25.7734 128.653 25.6569 128.98 25.5427C129.027 25.5262 129.074 25.5103 129.121 25.494C129.476 25.3712 129.829 25.2511 130.181 25.1337C130.198 25.1281 130.214 25.1226 130.231 25.117C130.612 24.9905 130.992 24.8673 131.371 24.7473L150.203 69.0918C149.163 69.5752 148.157 70.021 147.187 70.4291C147.175 70.4338 147.164 70.4384 147.153 70.4431C146.921 70.5404 146.691 70.635 146.464 70.7276L146.44 70.7372C145.737 71.0222 145.058 71.2832 144.402 71.5199C144.381 71.5278 144.359 71.5351 144.338 71.5429C144.145 71.6122 143.953 71.6795 143.764 71.7442C143.739 71.7528 143.714 71.7616 143.688 71.7702C143.063 71.9838 142.463 72.1707 141.89 72.3316C141.861 72.3394 141.832 72.3472 141.804 72.3551C141.646 72.3986 141.491 72.4401 141.338 72.4792C141.301 72.4883 141.265 72.4977 141.229 72.5068C141.073 72.5459 140.92 72.5827 140.769 72.6171C140.746 72.6223 140.723 72.628 140.7 72.633C140.349 72.7117 140.013 72.7772 139.689 72.8298C139.659 72.8348 139.63 72.839 139.6 72.8437C139.473 72.8632 139.349 72.8809 139.226 72.8968C139.187 72.9018 139.148 72.9065 139.109 72.9109C138.992 72.9247 138.878 72.9362 138.765 72.9459C138.732 72.9487 138.697 72.9521 138.665 72.9547C138.378 72.9766 138.105 72.985 137.846 72.9795C137.819 72.979 137.792 72.9772 137.765 72.9761C137.667 72.9727 137.57 72.9675 137.476 72.9599C137.44 72.9571 137.404 72.9534 137.369 72.9498C137.284 72.9414 137.201 72.931 137.12 72.9185C137.086 72.9135 137.052 72.9088 137.019 72.9031C136.929 72.8872 136.841 72.8689 136.756 72.8484C136.738 72.8437 136.718 72.8403 136.7 72.8356C136.597 72.8092 136.498 72.779 136.403 72.7451C136.384 72.7381 136.365 72.7295 136.346 72.7224C136.273 72.6945 136.202 72.6648 136.134 72.6325C136.106 72.6189 136.079 72.6046 136.052 72.5905C135.994 72.5605 135.938 72.5287 135.885 72.4951C135.858 72.4786 135.832 72.4622 135.807 72.445C135.752 72.4072 135.699 72.3668 135.648 72.3248C135.63 72.3097 135.61 72.2953 135.592 72.2794C135.526 72.2208 135.463 72.1579 135.404 72.0912C135.395 72.0808 135.388 72.069 135.379 72.0583C135.331 72.0007 135.286 71.9408 135.244 71.8782C135.228 71.8534 135.213 71.8273 135.198 71.8018C135.166 71.7491 135.136 71.6946 135.109 71.6383C135.094 71.6089 135.08 71.5789 135.067 71.5484C135.041 71.4887 135.018 71.4266 134.996 71.363C134.986 71.3343 134.976 71.3064 134.967 71.2767C134.937 71.1805 134.913 71.0824 134.895 70.9836V70.9828C134.328 67.9428 130.721 68.9236 124.838 71.9032C124.388 72.1313 123.925 72.3704 123.449 72.621C123.215 72.7435 122.979 72.8689 122.739 72.997C122.55 73.0976 122.36 73.1998 122.168 73.3033C121.933 73.4295 121.697 73.5575 121.458 73.6876C121.026 73.9225 120.586 74.164 120.136 74.4119C119.896 74.5444 119.654 74.6787 119.409 74.8148C119.192 74.9352 118.973 75.0572 118.752 75.1803C118.607 75.2609 118.463 75.3417 118.317 75.423C117.859 75.6786 117.393 75.9395 116.92 76.2055C116.77 76.2892 116.62 76.3737 116.469 76.4584C116.167 76.6281 115.862 76.7994 115.553 76.9728C115.433 77.0403 115.313 77.1081 115.192 77.1762C114.881 77.3506 114.568 77.5266 114.251 77.7044C113.796 77.9597 113.336 78.218 112.869 78.4793C111.117 79.4596 109.28 80.4793 107.367 81.5189C107.181 81.62 106.994 81.7212 106.807 81.8226C105.756 82.3913 104.683 82.9638 103.588 83.5405C103.341 83.6701 103.094 83.7997 102.845 83.9295C102.574 84.0714 102.301 84.2132 102.027 84.355C101.771 84.4875 101.515 84.6197 101.257 84.7519C100.721 85.0272 100.18 85.3025 99.6342 85.5776C99.3646 85.7134 99.094 85.849 98.822 85.9849C98.0088 86.3905 97.1862 86.7949 96.3537 87.1975C96.0638 87.3375 95.7728 87.4775 95.4805 87.617C94.9338 87.878 94.3834 88.1377 93.8291 88.3961C93.5225 88.539 93.2151 88.6813 92.9064 88.8231C92.1995 89.148 91.487 89.4703 90.7687 89.7897C90.017 90.1234 89.2591 90.4532 88.4946 90.7789C88.243 90.8863 87.9909 90.9929 87.7382 91.0993C86.073 91.7999 84.3808 92.4767 82.6621 93.1304C82.3542 93.2469 82.0455 93.3627 81.736 93.4774C80.7286 93.851 79.7128 94.2137 78.6889 94.5654C77.8254 94.8621 76.9566 95.1505 76.0827 95.4305C75.4457 95.6339 74.8059 95.8325 74.1637 96.026C73.2001 96.3162 72.2309 96.5944 71.2558 96.8606C70.6058 97.0379 69.9535 97.2092 69.2988 97.3747C62.7509 99.0293 55.9698 100.082 49.083 100.195H49.082Z" fill="#9E0720"/>
</g>
</g>
<path d="M130.64 72.2881C125.571 63.2043 115.861 65.178 110.7 72.0385C106.261 77.9399 101.425 90.0011 110.731 95.4923C115.127 98.0866 122.509 99.8608 123.161 100.546C123.813 101.232 123.443 103.518 124.51 103.521C125.724 103.524 126.913 101.953 127.054 100.013C127.322 96.3199 123.168 93.2923 121.584 90.91C120.456 89.2135 120.632 87.7915 121.874 86.833C128.965 81.3585 133.03 76.5713 130.64 72.2881Z" fill="url(#paint0_radial)"/>
<path d="M119.788 86.9587C118.547 87.9169 118.796 90.2704 120.617 92.5463C122.404 94.7803 125.124 97.5677 125.838 99.9609C126.088 100.8 125.621 102.395 124.841 102.57C124.482 102.64 124.114 102.656 123.75 102.62C123.873 103.127 124.068 103.52 124.509 103.521H124.51C124.663 103.521 124.816 103.497 124.962 103.451C126.005 103.126 126.931 101.71 127.054 100.013C127.252 97.2825 125.034 94.9166 123.223 92.9056C123.172 92.8483 123.121 92.7912 123.07 92.7343C122.968 92.6204 122.867 92.5075 122.769 92.3959C122.725 92.3466 122.682 92.2979 122.64 92.2491C122.535 92.1286 122.433 92.0098 122.334 91.8919C122.286 91.8343 122.239 91.7772 122.192 91.7201C121.965 91.4424 121.758 91.172 121.584 90.91C120.456 89.2135 120.632 87.7914 121.874 86.833L121.881 86.8278C122.726 86.1747 123.698 85.3841 124.625 84.6129C125.738 83.6686 129.134 80.5419 129.809 79.3454C126.371 83.0405 123.188 84.3342 119.788 86.9587Z" fill="url(#paint1_radial)"/>
<path d="M138.233 1.31358C165.398 -5.55395 180.579 16.2925 184.302 25.5588C189.231 37.8287 188.802 42.8543 189.266 47.138C189.73 51.4218 190.46 58.4267 190.46 58.4267C190.46 58.4267 190.619 62.0026 190.797 65.7858C190.974 69.5687 191.171 80.5005 190.469 85.9309C185.995 120.546 155.904 149.442 126.538 148.674C95.2059 147.856 83.3861 118.338 81.853 111.772C80.3197 105.207 74.7179 107.116 74.7179 107.116C74.3693 107.122 74.0249 107.038 73.718 106.872C73.4114 106.706 73.153 106.463 72.9682 106.167C72.29 105.131 73.2826 103.963 73.2826 103.963C73.2826 103.963 77.2577 100.147 82.3372 103.19C88.8282 107.078 97.737 131.149 113.726 122.243C127.56 114.538 128.705 99.7294 122.782 83.3682C119.767 75.0403 112.831 69.7069 109.081 46.7467C106.283 29.6171 111.069 8.18112 138.233 1.31358Z" fill="white"/>
<path d="M128.907 27.7031L128.644 27.7534C127.716 27.931 126.819 27.3222 126.642 26.3937L126.01 23.0908C125.832 22.1623 126.441 21.2657 127.37 21.0882L127.632 21.0379C128.561 20.8604 129.457 21.4692 129.635 22.3976L130.267 25.7005C130.444 26.6289 129.835 27.5255 128.907 27.7031Z" fill="#1D1D1B"/>
<path d="M153.969 22.8779L153.706 22.9281C152.778 23.1056 151.881 22.4969 151.704 21.5684L151.072 18.2655C150.894 17.3371 151.503 16.4405 152.432 16.2629L152.694 16.2127C153.623 16.0352 154.519 16.6439 154.697 17.5724L155.329 20.8753C155.506 21.8037 154.897 22.7003 153.969 22.8779Z" fill="#1D1D1B"/>
<path d="M139.05 29.5097C139.449 31.5973 141.316 32.9946 143.22 32.6306C145.123 32.2666 146.343 30.2791 145.944 28.1914" stroke="#1D1D1B" stroke-width="0.782183" stroke-miterlimit="10" stroke-linecap="round"/>
<path d="M192.752 37.5432C200.998 28.8902 199.788 20.7951 205.061 25.8199C210.333 30.8446 207.922 41.9328 199.675 50.5858C191.429 59.2386 180.469 62.1799 175.197 57.1551C169.925 52.1304 184.505 46.196 192.752 37.5432Z" fill="white"/>
<path d="M76.0398 105.744C77.8655 105.009 81.4155 104.928 82.3581 107.383C87.7025 121.299 101.888 153.544 136.432 142.709C186.486 127.01 179.521 64.9882 179.521 64.9882C177.808 60.2557 192.168 54.5899 198.812 45.989C205.973 36.7188 206.542 31.0078 206.168 27.2825C209.328 32.8582 206.991 42.909 199.675 50.5856C197.041 53.39 193.93 55.7045 190.486 57.4214C190.505 58.0742 190.515 58.4544 190.515 58.4544C190.515 58.4544 190.674 62.0302 190.852 65.8131C190.917 67.2093 190.985 69.5807 191.01 72.2883C191.027 75.6525 190.976 79.9837 190.782 83.1865C190.714 84.2051 190.63 85.1445 190.525 85.9585C190.452 86.517 190.375 87.0711 190.293 87.6202C185.518 118.298 159.227 146.527 133.728 148.521C133.607 148.53 133.487 148.542 133.365 148.551C133.28 148.557 133.193 148.561 133.107 148.567C131.861 148.652 130.603 148.703 129.332 148.721C128.96 148.725 128.586 148.725 128.212 148.724C128.133 148.724 128.055 148.725 127.976 148.725C127.52 148.721 127.063 148.714 126.604 148.702C95.2719 147.883 83.4521 118.366 81.919 111.8C80.9593 107.691 78.4062 106.901 76.6301 106.886C76.0015 106.876 75.3752 106.963 74.7732 107.143C74.7732 107.143 74.762 107.144 74.7461 107.145C74.4142 107.144 74.0875 107.061 73.7955 106.903C74.5083 106.452 75.2592 106.064 76.0398 105.744Z" fill="url(#paint2_radial)"/>
<path d="M76.0398 105.744C77.8655 105.009 81.4155 104.928 82.3581 107.383C87.7025 121.299 101.888 153.544 136.432 142.709C186.486 127.01 179.521 64.9882 179.521 64.9882C177.808 60.2557 192.168 54.5899 198.812 45.989C205.973 36.7188 206.542 31.0078 206.168 27.2825C209.328 32.8582 206.991 42.909 199.675 50.5856C197.041 53.39 193.93 55.7045 190.486 57.4214C190.505 58.0742 190.515 58.4544 190.515 58.4544C190.515 58.4544 190.674 62.0302 190.852 65.8131C190.917 67.2093 190.985 69.5807 191.01 72.2883C191.027 75.6525 190.976 79.9837 190.782 83.1865C190.714 84.2051 190.63 85.1445 190.525 85.9585C190.452 86.517 190.375 87.0711 190.293 87.6202C185.518 118.298 159.227 146.527 133.728 148.521C133.607 148.53 133.487 148.542 133.365 148.551C133.28 148.557 133.193 148.561 133.107 148.567C131.861 148.652 130.603 148.703 129.332 148.721C128.96 148.725 128.586 148.725 128.212 148.724C128.133 148.724 128.055 148.725 127.976 148.725C127.52 148.721 127.063 148.714 126.604 148.702C95.2719 147.883 83.4521 118.366 81.919 111.8C80.9593 107.691 78.4062 106.901 76.6301 106.886C76.0015 106.876 75.3752 106.963 74.7732 107.143C74.7732 107.143 74.762 107.144 74.7461 107.145C74.4142 107.144 74.0875 107.061 73.7955 106.903C74.5083 106.452 75.2592 106.064 76.0398 105.744Z" fill="url(#paint3_radial)"/>
<path d="M174.552 53.4969C174.984 52.7405 175.521 52.0491 176.146 51.4429C176.767 50.8275 177.419 50.2451 178.099 49.6976C179.456 48.5934 180.881 47.57 182.303 46.5446C185.152 44.4986 188.031 42.4691 190.693 40.1437C192.032 38.9814 193.284 37.7236 194.441 36.3806C195.592 35.0272 196.636 33.5859 197.563 32.0703C198.495 30.5601 199.302 28.9752 200.088 27.4116C200.457 26.6419 200.876 25.8978 201.344 25.184C201.542 24.875 201.802 24.6104 202.107 24.407C202.235 24.3337 202.378 24.2903 202.525 24.28C202.672 24.2698 202.82 24.293 202.956 24.348C203.602 24.5754 204.3 25.1613 204.845 25.7303C205.399 26.3306 205.849 27.0187 206.178 27.7664C206.819 29.3118 207.123 30.9757 207.07 32.6478C207.04 34.3477 206.799 36.0375 206.351 37.6775C205.913 39.3339 205.326 40.9473 204.597 42.4981C203.871 44.0585 203.016 45.5556 202.041 46.9737C201.065 48.3989 199.977 49.744 198.787 50.996C197.594 52.2582 196.313 53.4346 194.955 54.5163C193.592 55.6101 192.143 56.5902 190.621 57.4472L190.679 57.5642C193.924 56.1219 196.891 54.1195 199.442 51.6483C200.736 50.4185 201.92 49.0775 202.98 47.6409C204.039 46.1968 204.973 44.6642 205.77 43.0602C207.344 39.8475 208.379 36.3019 208.366 32.6465C208.381 30.7964 207.996 28.9647 207.239 27.2768C206.647 25.9882 205.733 24.8741 204.585 24.0418C204.188 23.7387 203.745 23.5018 203.272 23.3402C202.998 23.2528 202.71 23.2198 202.423 23.243C202.126 23.271 201.839 23.3659 201.584 23.5207C201.155 23.8038 200.792 24.1753 200.519 24.6103C200.037 25.3725 199.607 26.1666 199.232 26.9874C198.472 28.5731 197.714 30.1341 196.83 31.6294C195.953 33.1262 194.96 34.5527 193.861 35.8951C192.752 37.2337 191.546 38.4899 190.255 39.6543C187.683 42.0126 184.868 44.1099 182.069 46.227C180.671 47.289 179.269 48.3506 177.931 49.4963C177.258 50.066 176.615 50.6701 176.005 51.3065C175.384 51.9393 174.856 52.6571 174.436 53.438L174.552 53.4969Z" fill="url(#paint4_radial)"/>
<path d="M113.546 73.5078C117.732 74.1992 119.95 74.6244 120.9 72.6651C121.85 70.7057 120.272 70.2158 117.275 67.1903C115.474 65.371 112.883 63.1209 112.92 68.7117C112.934 70.8807 108.165 72.6192 113.546 73.5078Z" fill="url(#paint5_radial)"/>
<path d="M183.893 35.1318C182.35 38.7332 179.164 45.5364 181.999 46.1347C184.735 46.7125 187.33 44.026 189.568 40.8615C192.658 36.492 190.184 39.5002 188.37 37.9672C186.294 36.2125 186.947 28.0042 183.893 35.1318Z" fill="url(#paint6_radial)"/>
<path d="M184.601 34.014C183.058 37.6155 180.01 43.4539 181.936 44.8507C183.862 46.2474 188.19 42.922 190.428 39.7573C193.518 35.3881 190.892 38.3825 189.078 36.8494C187.002 35.0947 187.655 26.8868 184.601 34.014Z" fill="#D30505"/>
<path d="M112.909 72.8593C117.095 73.5508 119.313 73.976 120.263 72.0167C121.214 70.0573 119.636 69.5674 116.639 66.5416C114.837 64.7226 112.246 62.4725 112.283 68.0633C112.298 70.2323 107.528 71.9705 112.909 72.8593Z" fill="#D30505"/>
<g style="mix-blend-mode:multiply">
<g style="mix-blend-mode:multiply">
<path d="M117.417 73.0184C116.241 73.0184 115.288 72.0651 115.288 70.8893C115.288 69.7134 116.241 68.7604 117.417 68.7604C118.593 68.7604 119.546 69.7134 119.546 70.8893C119.546 72.0651 118.593 73.0184 117.417 73.0184Z" fill="#A50729"/>
</g>
</g>
<path d="M117.394 72.8593C116.281 72.8593 115.378 71.9569 115.378 70.8439C115.378 69.7309 116.281 68.8287 117.394 68.8287C118.507 68.8287 119.409 69.7309 119.409 70.8439C119.409 71.9569 118.507 72.8593 117.394 72.8593Z" fill="#F8B133"/>
<g style="mix-blend-mode:multiply" opacity="0.8">
<g style="mix-blend-mode:multiply" opacity="0.8">
<path d="M117.394 72.5097C117.898 72.5094 118.383 72.3204 118.755 71.9796C119.126 71.6389 119.357 71.1714 119.4 70.6692C119.405 70.7268 119.409 70.785 119.409 70.8439C119.409 71.3784 119.197 71.891 118.819 72.2691C118.441 72.6468 117.928 72.8593 117.394 72.8593C116.859 72.8593 116.347 72.6468 115.969 72.2691C115.591 71.891 115.378 71.3784 115.378 70.8439C115.378 70.785 115.382 70.7268 115.387 70.6692C115.431 71.1714 115.661 71.6389 116.033 71.9796C116.404 72.3204 116.89 72.5094 117.394 72.5097Z" fill="#D1860F"/>
</g>
</g>
<path opacity="0.65" d="M116.08 69.8816C116.08 70.2422 116.668 69.8816 117.394 69.8816C118.119 69.8816 118.708 70.2422 118.708 69.8816C118.708 69.521 118.119 69.1192 117.394 69.1192C116.668 69.1192 116.08 69.521 116.08 69.8816Z" fill="white"/>
<g style="mix-blend-mode:multiply">
<g style="mix-blend-mode:multiply">
<path d="M184.726 43.4823C183.551 43.4823 182.597 42.5291 182.597 41.3532C182.597 40.1776 183.551 39.2244 184.726 39.2244C185.902 39.2244 186.855 40.1776 186.855 41.3532C186.855 42.5291 185.902 43.4823 184.726 43.4823Z" fill="#A50729"/>
</g>
</g>
<path d="M184.703 43.3233C183.59 43.3233 182.688 42.4209 182.688 41.3079C182.688 40.1948 183.59 39.2927 184.703 39.2927C185.816 39.2927 186.719 40.1948 186.719 41.3079C186.719 42.4209 185.816 43.3233 184.703 43.3233Z" fill="#F8B133"/>
<g style="mix-blend-mode:multiply" opacity="0.8">
<g style="mix-blend-mode:multiply" opacity="0.8">
<path d="M184.703 42.9737C185.208 42.9734 185.693 42.7844 186.065 42.4436C186.436 42.1028 186.666 41.6353 186.71 41.1332C186.715 41.1908 186.719 41.2489 186.719 41.3079C186.719 41.8424 186.506 42.3549 186.128 42.733C185.751 43.1111 185.238 43.3233 184.703 43.3233C184.169 43.3233 183.656 43.1111 183.278 42.733C182.9 42.3549 182.688 41.8424 182.688 41.3079C182.688 41.2489 182.692 41.1908 182.697 41.1332C182.741 41.6353 182.971 42.1028 183.342 42.4436C183.714 42.7844 184.199 42.9734 184.703 42.9737Z" fill="#D1860F"/>
</g>
</g>
<path opacity="0.65" d="M183.389 40.3455C183.389 40.7061 183.978 40.3455 184.703 40.3455C185.429 40.3455 186.017 40.7061 186.017 40.3455C186.017 39.9849 185.429 39.5831 184.703 39.5831C183.978 39.5831 183.389 39.9849 183.389 40.3455Z" fill="white"/>
<path d="M126.956 74.5785C127.758 72.4826 128.155 71.4973 128.939 69.5801C135.201 69.1512 141.719 69.3275 147.872 67.8997C154.585 66.3422 160.788 62.1611 167.121 59.5192C169.34 61.2572 170.433 61.8548 172.595 63.1897C172.95 65.306 173.125 66.3341 173.478 68.4371C167.894 77.2562 162.185 85.8756 156.206 94.427C146.906 89.4739 137.791 84.8723 128.857 79.2396C128.086 77.3597 127.696 76.4506 126.928 74.5845L126.956 74.5785Z" fill="#FCE905"/>
<path d="M131.841 73.2465C131.433 74.1423 131.229 74.5989 130.818 75.5409C131.081 76.1825 131.216 76.4746 131.475 77.1579C138.889 82.318 146.748 86.8072 154.959 90.5721C160.242 83.394 164.772 75.798 169.366 68.167C169.226 67.4612 169.155 67.1066 169.013 66.3846C167.955 65.8306 167.423 65.5618 166.355 64.9827C160.762 67.5394 155.099 70.8663 149.023 72.0891C143.497 73.2014 137.45 72.8564 131.841 73.2465ZM128.939 69.5801C135.201 69.1512 141.719 69.3275 147.872 67.8997C154.585 66.3422 160.788 62.1614 167.121 59.5192C169.34 61.2574 170.433 61.8548 172.595 63.1897C172.95 65.306 173.125 66.3341 173.478 68.4371C167.894 77.2562 162.185 85.8756 156.206 94.427C146.906 89.4739 137.791 84.8723 128.857 79.2398C128.086 77.3597 127.696 76.4506 126.928 74.5845L126.955 74.5788C127.758 72.4825 128.155 71.4973 128.939 69.5801Z" fill="#00006B"/>
<path d="M144.586 84.1066C144.957 84.7871 145.41 85.6024 145.944 86.5369C146.472 87.4601 146.863 88.1346 147.122 88.5914C148.093 88.4808 149.072 88.4728 150.044 88.5679C151.286 88.6607 152.535 88.5849 153.757 88.3419C155.298 88.0634 156.775 87.5029 158.113 86.6889C159.238 86.0011 160.208 85.0859 160.959 84.0023C161.648 82.9883 162.098 81.8312 162.274 80.6181C162.457 79.3663 162.393 78.0908 162.087 76.8633C161.634 74.529 159.248 72.3256 157.025 71.6949C153.866 70.5342 150.75 71.2011 147.496 71.3098C146.246 71.4175 145.013 71.6782 143.826 72.0858C143.011 72.4138 142.148 72.6075 141.271 72.6594C141.565 73.5276 141.878 74.4693 142.206 75.5313C142.53 76.5802 142.815 77.566 143.064 78.5182C143.083 78.5745 143.178 78.6193 143.348 78.6511C143.492 78.6814 143.64 78.691 143.786 78.6798C143.884 78.6673 143.978 78.6376 144.066 78.592C144.107 78.5768 144.144 78.5513 144.173 78.5179C144.202 78.4843 144.222 78.4439 144.231 78.4006C143.985 77.1042 144.223 75.7631 144.9 74.6307C145.222 74.0623 145.68 73.5823 146.232 73.2335C146.785 72.8846 147.415 72.6779 148.066 72.6317C150.23 72.3898 152.015 72.6401 153.397 73.7995C154.759 74.9415 155.797 76.5249 156.487 78.9898C157.143 81.3359 157.27 83.1067 156.883 84.5981C156.503 86.06 155.342 86.9923 153.4 87.3954C151.956 87.7237 150.442 87.5224 149.134 86.8278C147.805 86.1288 146.634 85.1628 145.695 83.9901C145.66 83.9546 145.619 83.9262 145.573 83.9069C145.527 83.8876 145.477 83.878 145.427 83.8782C145.317 83.8623 145.206 83.8584 145.094 83.8662C144.981 83.8829 144.87 83.9142 144.764 83.959C144.628 84.0122 144.569 84.0612 144.586 84.1066Z" fill="#00006B"/>
<path d="M38.24 208.4C36.6667 208.4 35.08 208.173 33.48 207.72C31.9067 207.267 30.4533 206.507 29.12 205.44C27.8133 204.347 26.76 202.867 25.96 201C25.16 199.107 24.76 196.72 24.76 193.84C24.76 190.933 25.32 188.4 26.44 186.24C27.5867 184.053 29.1467 182.347 31.12 181.12C33.0933 179.893 35.3333 179.28 37.84 179.28C39.04 179.28 40.1867 179.387 41.28 179.6C42.4 179.813 43.2533 180.053 43.84 180.32L48.28 184.36L45.48 188.56L38.64 185.04C37.1467 185.04 35.8 185.4 34.6 186.12C33.4 186.84 32.44 187.867 31.72 189.2C31.0267 190.507 30.68 192.053 30.68 193.84C30.68 195.893 31.04 197.587 31.76 198.92C32.5067 200.253 33.52 201.253 34.8 201.92C36.08 202.56 37.5067 202.88 39.08 202.88C40.68 202.88 42.0533 202.747 43.2 202.48C44.3467 202.187 45.3067 201.867 46.08 201.52C46.8533 201.147 47.44 200.827 47.84 200.56V206C47.0933 206.507 45.9467 207.04 44.4 207.6C42.88 208.133 40.8267 208.4 38.24 208.4ZM48.5187 208L50.8387 200.44V196.56L53.3987 195.36L58.5988 179.72H66.4788L72.9187 197.64L75.9988 203.32V208H70.5187L68.1187 200.8H56.4787L54.3587 208H48.5187ZM58.7188 195.84H66.3188L62.8788 185H62.0388L58.7188 195.84ZM85.44 208.4C83.3867 208.4 81.64 208.133 80.2 207.6C78.76 207.04 77.68 206.453 76.96 205.84V200.32C77.8933 200.853 79.1333 201.413 80.68 202C82.2533 202.587 83.9867 202.88 85.88 202.88C87.1067 202.88 88.0133 202.64 88.6 202.16C89.2133 201.68 89.52 201.027 89.52 200.2C89.52 199.453 89.28 198.84 88.8 198.36C88.32 197.88 87.6 197.44 86.64 197.04C85.68 196.64 84.4533 196.173 82.96 195.64C80.8267 194.867 79.1733 193.867 78 192.64C76.8267 191.413 76.24 189.76 76.24 187.68C76.24 186.213 76.56 184.84 77.2 183.56C77.8667 182.28 78.8933 181.253 80.28 180.48C81.6933 179.68 83.4933 179.28 85.68 179.28C86.5333 179.28 87.3733 179.32 88.2 179.4C89.0533 179.453 89.7733 179.533 90.36 179.64L94.88 182.96L92.88 187.04L85.56 184.44C84.6 184.44 83.8 184.68 83.16 185.16C82.5467 185.613 82.24 186.267 82.24 187.12C82.24 188.187 82.68 189 83.56 189.56C84.4667 190.12 85.7333 190.667 87.36 191.2C90.4533 192.213 92.6267 193.44 93.88 194.88C95.1333 196.293 95.76 197.96 95.76 199.88C95.76 201.427 95.44 202.853 94.8 204.16C94.16 205.44 93.08 206.467 91.56 207.24C90.0667 208.013 88.0267 208.4 85.44 208.4ZM98.6266 208V186.12L97.8266 182.08L98.6266 179.68H108.227C110.173 179.68 111.92 179.987 113.467 180.6C115.04 181.187 116.28 182.2 117.187 183.64C118.12 185.053 118.587 187.013 118.587 189.52C118.587 192.027 118.093 194.013 117.107 195.48C116.12 196.92 114.747 197.947 112.987 198.56C111.253 199.173 109.267 199.48 107.027 199.48H104.227V201.56L104.627 205.56L104.227 208H98.6266ZM104.227 194.4H108.147C109.907 194.4 111.107 193.947 111.747 193.04C112.387 192.107 112.707 190.933 112.707 189.52C112.707 188.027 112.36 186.88 111.667 186.08C111 185.28 109.773 184.88 107.987 184.88H103.827L104.227 194.4ZM120.972 208L120.172 205.6L120.972 201.6V179.68H139.132L141.132 180.88L138.892 185.28L134.892 184.88H126.492V191.08H137.292V196.08H133.372L126.492 195.68V202.8H139.292L142.452 205.44L140.092 208H120.972ZM144.059 208V186.12L143.259 182.08L144.059 179.68H153.659C155.606 179.68 157.353 179.987 158.899 180.6C160.473 181.187 161.713 182.2 162.619 183.64C163.553 185.053 164.019 187.013 164.019 189.52C164.019 191.893 163.566 193.787 162.659 195.2C161.779 196.613 160.553 197.667 158.979 198.36L160.139 199.4L163.699 203.56L165.979 205.6V208H158.579L152.979 199.48H149.659V201.56L150.059 205.56L149.659 208H144.059ZM149.659 194.4H153.579C155.339 194.4 156.539 193.947 157.179 193.04C157.819 192.107 158.139 190.933 158.139 189.52C158.139 188.027 157.793 186.88 157.099 186.08C156.433 185.28 155.206 184.88 153.419 184.88H149.259L149.659 194.4ZM167.967 208V186.12L167.167 182.08L167.967 179.68H177.567C179.514 179.68 181.261 179.987 182.807 180.6C184.381 181.187 185.621 182.2 186.527 183.64C187.461 185.053 187.927 187.013 187.927 189.52C187.927 192.027 187.434 194.013 186.447 195.48C185.461 196.92 184.087 197.947 182.327 198.56C180.594 199.173 178.607 199.48 176.367 199.48H173.567V201.56L173.967 205.56L173.567 208H167.967ZM173.567 194.4H177.487C179.247 194.4 180.447 193.947 181.087 193.04C181.727 192.107 182.047 190.933 182.047 189.52C182.047 188.027 181.701 186.88 181.007 186.08C180.341 185.28 179.114 184.88 177.327 184.88H173.167L173.567 194.4ZM185.911 208L188.231 200.44V196.56L190.791 195.36L195.991 179.72H203.871L210.311 197.64L213.391 203.32V208H207.911L205.511 200.8H193.871L191.751 208H185.911ZM196.111 195.84H203.711L200.271 185H199.431L196.111 195.84ZM215.392 208V186.12L214.592 182.12L215.392 179.68H224.112C226.032 179.68 227.872 179.867 229.632 180.24C231.419 180.587 233.006 181.253 234.392 182.24C235.806 183.227 236.912 184.64 237.712 186.48C238.539 188.32 238.952 190.707 238.952 193.64C238.952 196.573 238.539 198.987 237.712 200.88C236.886 202.747 235.766 204.2 234.352 205.24C232.939 206.28 231.339 207 229.552 207.4C227.792 207.8 225.979 208 224.112 208H215.392ZM221.072 202.8H225.312C228.086 202.8 230.059 201.987 231.232 200.36C232.406 198.707 232.992 196.467 232.992 193.64C232.992 190.813 232.392 188.653 231.192 187.16C230.019 185.64 228.059 184.88 225.312 184.88H221.072V202.8Z" fill="white"/>
<defs>
<radialGradient id="paint0_radial" cx="0" cy="0" r="1" gradientUnits="userSpaceOnUse" gradientTransform="translate(99.243 61.1526) rotate(-169.089) scale(52.2277)">
<stop offset="0.55067" stop-color="white"/>
<stop offset="0.61948" stop-color="#F9FBFB" stop-opacity="0.99416"/>
<stop offset="0.7158" stop-color="#EAEFF1" stop-opacity="0.97778"/>
<stop offset="0.82832" stop-color="#D0DBE0" stop-opacity="0.95088"/>
<stop offset="0.95222" stop-color="#ADC0C8" stop-opacity="0.91373"/>
<stop offset="0.99302" stop-color="#A0B6BF" stop-opacity="0.9"/>
</radialGradient>
<radialGradient id="paint1_radial" cx="0" cy="0" r="1" gradientUnits="userSpaceOnUse" gradientTransform="translate(100.666 57.5092) rotate(-169.089) scale(47.6152)">
<stop offset="0.22599" stop-color="white"/>
<stop offset="0.93967" stop-color="#A0B6BF" stop-opacity="0.9"/>
</radialGradient>
<radialGradient id="paint2_radial" cx="0" cy="0" r="1" gradientUnits="userSpaceOnUse" gradientTransform="translate(-8438.57 -2108.8) rotate(180) scale(84963.6 77146.7)">
<stop offset="0.22599" stop-color="white"/>
<stop offset="0.93967" stop-color="#A0B6BF" stop-opacity="0.9"/>
</radialGradient>
<radialGradient id="paint3_radial" cx="0" cy="0" r="1" gradientUnits="userSpaceOnUse" gradientTransform="translate(191.511 -4.58606) rotate(180) scale(165.628)">
<stop offset="0.22599" stop-color="white"/>
<stop offset="0.93967" stop-color="#A0B6BF" stop-opacity="0.9"/>
</radialGradient>
<radialGradient id="paint4_radial" cx="0" cy="0" r="1" gradientUnits="userSpaceOnUse" gradientTransform="translate(191.142 40.5971) rotate(180) scale(17.3615)">
<stop offset="0.68087" stop-color="white"/>
<stop offset="1" stop-color="#A0B6BF" stop-opacity="0.9"/>
</radialGradient>
<radialGradient id="paint5_radial" cx="0" cy="0" r="1" gradientUnits="userSpaceOnUse" gradientTransform="translate(-3548.93 2148.46) rotate(180) scale(509.061 445.594)">
<stop offset="0.22599" stop-color="white"/>
<stop offset="0.93967" stop-color="#A0B6BF" stop-opacity="0.9"/>
</radialGradient>
<radialGradient id="paint6_radial" cx="0" cy="0" r="1" gradientUnits="userSpaceOnUse" gradientTransform="translate(-867.091 1872.88) rotate(180) scale(524.451 719.113)">
<stop offset="0.22599" stop-color="white"/>
<stop offset="0.93967" stop-color="#A0B6BF" stop-opacity="0.9"/>
</radialGradient>
</defs>
</svg>
