<svg width="279" height="249" viewBox="0 0 279 249" fill="none" xmlns="http://www.w3.org/2000/svg">
<g filter="url(#filter0_d)">
<path d="M181.021 71.8188C181.021 71.8188 170.724 111.972 125.596 111.428C80.4677 110.884 50.5526 79.4858 50.5526 79.4858L181.021 71.8188Z" fill="#96051D"/>
<path d="M218.155 60.0691C218.155 60.0691 192.084 29.1296 146.642 46.3937C109.646 83.0572 91.0947 41.0696 91.0947 41.0696C91.0947 41.0696 86.8634 60.4016 80.6716 61.1246C74.515 61.8434 59.2922 61.9159 49.5608 81.1917C41.5862 97.0223 37.9422 89.6357 29.905 92.8611C21.7873 96.1189 20.0003 105.072 20.0003 105.072C20.0003 105.072 28.9586 98.5093 35.6111 106.359C42.5415 114.537 42.8755 120.626 69.0833 120.195C113.159 119.471 152.899 80.2706 154.895 90.9828C157.051 102.561 218.155 60.0691 218.155 60.0691Z" fill="#CE0631"/>
<g style="mix-blend-mode:multiply" opacity="0.1">
<g style="mix-blend-mode:multiply" opacity="0.1">
<path d="M88.4091 50.2681L90.5045 53.7734L92.0929 56.4309C92.2793 56.7428 92.3857 57.0958 92.4026 57.4587C92.4196 57.8217 92.3463 58.183 92.1894 58.5108C92.0327 58.8385 91.7972 59.1222 91.5042 59.337C91.2111 59.5516 90.8696 59.6903 90.5097 59.7409L80.6712 61.1246C83.8844 60.7494 86.5691 55.3635 88.4091 50.2681Z" fill="#9E0720"/>
</g>
</g>
<path d="M143.673 65.1187L149.451 67.2029L138.554 95.8676L126.484 98.0309L117.022 95.0119L102.615 72.813L137.11 64.9046L143.679 65.1059L143.673 65.1187Z" fill="#FCE905"/>
<path d="M143.274 67.641L140.612 66.5681L138.264 66.468L107.574 73.4469L122.348 92.0899L125.592 92.991L131.022 91.9809L143.274 67.641ZM149.451 67.2029L138.554 95.8676L126.484 98.0309L117.022 95.0116L102.615 72.813L137.11 64.9046L143.679 65.1059L143.673 65.1187L149.451 67.2029Z" fill="#00006B"/>
<path d="M123.388 70.8234C122.279 70.783 120.926 70.7319 119.346 70.6703C117.804 70.6106 116.665 70.5647 115.909 70.5324C115.536 70.9034 114.842 71.349 113.828 71.8692C112.876 72.3416 111.999 72.953 111.225 73.683C110.248 74.6297 109.674 75.5418 109.525 76.4207C109.444 76.8634 109.457 77.3184 109.564 77.7559C109.67 78.1934 109.867 78.6035 110.142 78.9597C110.741 79.7689 111.688 80.4886 113.004 81.1104C114.582 81.8264 116.241 82.3499 117.944 82.669C122.378 83.5263 126.941 83.4695 131.352 82.5027C136.049 81.5132 139.048 79.678 140.235 77.17C140.727 76.13 140.871 75.2735 140.683 74.5891C140.496 74.0204 140.532 73.402 140.784 72.8589C139.303 72.7027 137.683 72.5236 135.937 72.3231C134.241 72.1283 132.731 71.9515 131.394 71.7915C131.282 71.7946 131.173 71.8329 131.083 71.9012C130.983 71.9581 130.894 72.0337 130.822 72.1236C130.787 72.1753 130.775 72.2381 130.786 72.2988C130.796 72.3674 130.848 72.4167 130.943 72.4467C132.749 72.7217 134.492 73.3112 136.093 74.1886C137.681 75.0837 138.272 76.0074 137.788 76.9432C137.025 78.4189 134.949 79.2733 131.661 79.4459C128.095 79.5864 124.524 79.3539 121.007 78.7519C117.478 78.1856 114.953 77.4881 113.338 76.6692C111.811 75.8945 111.64 74.9622 112.732 73.8723C113.575 73.0307 114.918 72.437 116.791 72.0704C118.803 71.6869 120.842 71.4648 122.889 71.4064C122.999 71.4038 123.106 71.3712 123.198 71.312C123.276 71.2692 123.348 71.2153 123.41 71.1516C123.452 71.0958 123.476 71.0286 123.48 70.9587C123.488 70.8745 123.458 70.8296 123.388 70.8234Z" fill="#00006B"/>
<g style="mix-blend-mode:multiply" opacity="0.2">
<g style="mix-blend-mode:multiply" opacity="0.2">
<path d="M69.082 120.195C57.2984 120.388 51.0451 108.084 51.6359 101.756C52.2697 94.9649 46.9459 91.8764 42.7518 90.5041C43.9642 89.6221 45.0254 88.5492 45.8936 87.3269H45.8939C46.0042 87.1796 46.1155 87.0276 46.2273 86.8706L46.2331 86.8626C46.3434 86.7082 46.4544 86.5489 46.5665 86.3849L46.5757 86.3713C46.687 86.2084 46.7989 86.0405 46.9118 85.8676L46.9216 85.8525C47.0345 85.6791 47.1485 85.5008 47.2635 85.3175L47.2716 85.3045C47.3873 85.1193 47.5041 84.9293 47.6217 84.7337L47.6269 84.7251C47.7453 84.528 47.865 84.3254 47.9854 84.1174L47.9873 84.1142C52.4744 84.4933 70.961 88.5302 81.1563 89.4581C147.531 95.5007 133.988 76.5435 131.297 71.8188C128.607 67.0942 91.7986 60.9321 96.4688 59.647C97.9823 59.2304 104.097 60.8323 112.323 60.7024C121.066 62.927 132.505 60.4008 146.635 46.4L146.642 46.3937C147.029 46.2467 147.414 46.1033 147.798 45.9636C147.865 45.9394 147.931 45.9162 147.997 45.8921C148.326 45.7734 148.653 45.6569 148.98 45.5427C149.027 45.5262 149.074 45.5103 149.121 45.494C149.476 45.3712 149.829 45.2511 150.181 45.1337C150.198 45.1281 150.214 45.1226 150.231 45.117C150.612 44.9905 150.992 44.8673 151.371 44.7473L170.203 89.0918C169.163 89.5752 168.157 90.021 167.187 90.4291C167.175 90.4338 167.164 90.4384 167.153 90.4431C166.921 90.5404 166.691 90.635 166.464 90.7276L166.44 90.7372C165.737 91.0222 165.058 91.2832 164.402 91.5199C164.381 91.5278 164.359 91.5351 164.338 91.5429C164.145 91.6122 163.953 91.6795 163.764 91.7442C163.739 91.7528 163.714 91.7616 163.688 91.7702C163.063 91.9838 162.463 92.1707 161.89 92.3316C161.861 92.3394 161.832 92.3472 161.804 92.3551C161.646 92.3986 161.491 92.4401 161.338 92.4792C161.301 92.4883 161.265 92.4977 161.229 92.5068C161.073 92.5459 160.92 92.5827 160.769 92.6171C160.746 92.6223 160.723 92.628 160.7 92.633C160.349 92.7117 160.013 92.7772 159.689 92.8298C159.659 92.8348 159.63 92.839 159.6 92.8437C159.473 92.8632 159.349 92.8809 159.226 92.8968C159.187 92.9018 159.148 92.9065 159.109 92.9109C158.992 92.9247 158.878 92.9362 158.765 92.9459C158.732 92.9487 158.697 92.9521 158.665 92.9547C158.378 92.9766 158.105 92.985 157.846 92.9795C157.819 92.979 157.792 92.9772 157.765 92.9761C157.667 92.9727 157.57 92.9675 157.476 92.9599C157.44 92.9571 157.404 92.9534 157.369 92.9498C157.284 92.9414 157.201 92.931 157.12 92.9185C157.086 92.9135 157.052 92.9088 157.019 92.9031C156.929 92.8872 156.841 92.8689 156.756 92.8484C156.738 92.8437 156.718 92.8403 156.7 92.8356C156.597 92.8092 156.498 92.779 156.403 92.7451C156.384 92.7381 156.365 92.7295 156.346 92.7224C156.273 92.6945 156.202 92.6648 156.134 92.6325C156.106 92.6189 156.079 92.6046 156.052 92.5905C155.994 92.5605 155.938 92.5287 155.885 92.4951C155.858 92.4786 155.832 92.4622 155.807 92.445C155.752 92.4072 155.699 92.3668 155.648 92.3248C155.63 92.3097 155.61 92.2953 155.592 92.2794C155.526 92.2208 155.463 92.1579 155.404 92.0912C155.395 92.0808 155.388 92.069 155.379 92.0583C155.331 92.0007 155.286 91.9408 155.244 91.8782C155.228 91.8534 155.213 91.8273 155.198 91.8018C155.166 91.7491 155.136 91.6946 155.109 91.6383C155.094 91.6089 155.08 91.5789 155.067 91.5484C155.041 91.4887 155.018 91.4266 154.996 91.363C154.986 91.3343 154.976 91.3064 154.967 91.2767C154.937 91.1805 154.913 91.0824 154.895 90.9836V90.9828C154.328 87.9428 150.721 88.9236 144.838 91.9032C144.388 92.1313 143.925 92.3704 143.449 92.621C143.215 92.7435 142.979 92.8689 142.739 92.997C142.55 93.0976 142.36 93.1998 142.168 93.3033C141.933 93.4295 141.697 93.5575 141.458 93.6876C141.026 93.9225 140.586 94.164 140.136 94.4119C139.896 94.5444 139.654 94.6787 139.409 94.8148C139.192 94.9352 138.973 95.0572 138.752 95.1803C138.607 95.2609 138.463 95.3417 138.317 95.423C137.859 95.6786 137.393 95.9395 136.92 96.2055C136.77 96.2892 136.62 96.3737 136.469 96.4584C136.167 96.6281 135.862 96.7994 135.553 96.9728C135.433 97.0403 135.313 97.1081 135.192 97.1762C134.881 97.3506 134.568 97.5266 134.251 97.7044C133.796 97.9597 133.336 98.218 132.869 98.4793C131.117 99.4596 129.28 100.479 127.367 101.519C127.181 101.62 126.994 101.721 126.807 101.823C125.756 102.391 124.683 102.964 123.588 103.541C123.341 103.67 123.094 103.8 122.845 103.93C122.574 104.071 122.301 104.213 122.027 104.355C121.771 104.487 121.515 104.62 121.257 104.752C120.721 105.027 120.18 105.303 119.634 105.578C119.365 105.713 119.094 105.849 118.822 105.985C118.009 106.391 117.186 106.795 116.354 107.198C116.064 107.338 115.773 107.478 115.481 107.617C114.934 107.878 114.383 108.138 113.829 108.396C113.522 108.539 113.215 108.681 112.906 108.823C112.2 109.148 111.487 109.47 110.769 109.79C110.017 110.123 109.259 110.453 108.495 110.779C108.243 110.886 107.991 110.993 107.738 111.099C106.073 111.8 104.381 112.477 102.662 113.13C102.354 113.247 102.046 113.363 101.736 113.477C100.729 113.851 99.7128 114.214 98.6889 114.565C97.8254 114.862 96.9566 115.15 96.0827 115.431C95.4457 115.634 94.8059 115.833 94.1637 116.026C93.2001 116.316 92.2309 116.594 91.2558 116.861C90.6058 117.038 89.9535 117.209 89.2988 117.375C82.7509 119.029 75.9698 120.082 69.083 120.195H69.082Z" fill="#9E0720"/>
</g>
</g>
<path d="M150.64 92.2881C145.571 83.2043 135.861 85.178 130.7 92.0385C126.261 97.9399 121.425 110.001 130.731 115.492C135.127 118.087 142.509 119.861 143.161 120.546C143.813 121.232 143.443 123.518 144.51 123.521C145.724 123.524 146.913 121.953 147.054 120.013C147.322 116.32 143.168 113.292 141.584 110.91C140.456 109.213 140.632 107.791 141.874 106.833C148.965 101.359 153.03 96.5713 150.64 92.2881Z" fill="url(#paint0_radial)"/>
<path d="M139.788 106.959C138.547 107.917 138.796 110.27 140.617 112.546C142.404 114.78 145.124 117.568 145.838 119.961C146.088 120.8 145.621 122.395 144.841 122.57C144.482 122.64 144.114 122.656 143.75 122.62C143.873 123.127 144.068 123.52 144.509 123.521H144.51C144.663 123.521 144.816 123.497 144.962 123.451C146.005 123.126 146.931 121.71 147.054 120.013C147.252 117.282 145.034 114.917 143.223 112.906C143.172 112.848 143.121 112.791 143.07 112.734C142.968 112.62 142.867 112.507 142.769 112.396C142.725 112.347 142.682 112.298 142.64 112.249C142.535 112.129 142.433 112.01 142.334 111.892C142.286 111.834 142.239 111.777 142.192 111.72C141.965 111.442 141.758 111.172 141.584 110.91C140.456 109.213 140.632 107.791 141.874 106.833L141.881 106.828C142.726 106.175 143.698 105.384 144.625 104.613C145.738 103.669 149.134 100.542 149.809 99.3454C146.371 103.04 143.188 104.334 139.788 106.959Z" fill="url(#paint1_radial)"/>
<path d="M158.233 21.3136C185.398 14.4461 200.579 36.2925 204.302 45.5588C209.231 57.8287 208.802 62.8543 209.266 67.138C209.73 71.4218 210.46 78.4267 210.46 78.4267C210.46 78.4267 210.619 82.0026 210.797 85.7858C210.974 89.5687 211.171 100.5 210.469 105.931C205.995 140.546 175.904 169.442 146.538 168.674C115.206 167.856 103.386 138.338 101.853 131.772C100.32 125.207 94.7179 127.116 94.7179 127.116C94.3693 127.122 94.0249 127.038 93.718 126.872C93.4114 126.706 93.153 126.463 92.9682 126.167C92.29 125.131 93.2826 123.963 93.2826 123.963C93.2826 123.963 97.2577 120.147 102.337 123.19C108.828 127.078 117.737 151.149 133.726 142.243C147.56 134.538 148.705 119.729 142.782 103.368C139.767 95.0403 132.831 89.7069 129.081 66.7467C126.283 49.6171 131.069 28.1811 158.233 21.3136Z" fill="white"/>
<path d="M148.907 47.7031L148.644 47.7534C147.716 47.931 146.819 47.3222 146.642 46.3937L146.01 43.0908C145.832 42.1623 146.441 41.2657 147.37 41.0882L147.632 41.0379C148.561 40.8604 149.457 41.4692 149.635 42.3976L150.267 45.7005C150.444 46.6289 149.835 47.5255 148.907 47.7031Z" fill="#1D1D1B"/>
<path d="M173.969 42.8779L173.706 42.9281C172.778 43.1056 171.881 42.4969 171.704 41.5684L171.072 38.2655C170.894 37.3371 171.503 36.4405 172.432 36.2629L172.694 36.2127C173.623 36.0352 174.519 36.6439 174.697 37.5724L175.329 40.8753C175.506 41.8037 174.897 42.7003 173.969 42.8779Z" fill="#1D1D1B"/>
<path d="M159.05 49.5097C159.449 51.5973 161.316 52.9946 163.22 52.6306C165.123 52.2666 166.343 50.2791 165.944 48.1914" stroke="#1D1D1B" stroke-width="0.782183" stroke-miterlimit="10" stroke-linecap="round"/>
<path d="M212.752 57.5432C220.998 48.8902 219.788 40.7951 225.061 45.8199C230.333 50.8446 227.922 61.9328 219.675 70.5858C211.429 79.2386 200.469 82.1799 195.197 77.1551C189.925 72.1304 204.505 66.196 212.752 57.5432Z" fill="white"/>
<path d="M96.0398 125.744C97.8655 125.009 101.416 124.928 102.358 127.383C107.702 141.299 121.888 173.544 156.432 162.709C206.486 147.01 199.521 84.9882 199.521 84.9882C197.808 80.2557 212.168 74.5899 218.812 65.989C225.973 56.7188 226.542 51.0078 226.168 47.2825C229.328 52.8582 226.991 62.909 219.675 70.5856C217.041 73.39 213.93 75.7045 210.486 77.4214C210.505 78.0742 210.515 78.4544 210.515 78.4544C210.515 78.4544 210.674 82.0302 210.852 85.8131C210.917 87.2093 210.985 89.5807 211.01 92.2883C211.027 95.6525 210.976 99.9837 210.782 103.186C210.714 104.205 210.63 105.145 210.525 105.959C210.452 106.517 210.375 107.071 210.293 107.62C205.518 138.298 179.227 166.527 153.728 168.521C153.607 168.53 153.487 168.542 153.365 168.551C153.28 168.557 153.193 168.561 153.107 168.567C151.861 168.652 150.603 168.703 149.332 168.721C148.96 168.725 148.586 168.725 148.212 168.724C148.133 168.724 148.055 168.725 147.976 168.725C147.52 168.721 147.063 168.714 146.604 168.702C115.272 167.883 103.452 138.366 101.919 131.8C100.959 127.691 98.4062 126.901 96.6301 126.886C96.0015 126.876 95.3752 126.963 94.7732 127.143C94.7732 127.143 94.762 127.144 94.7461 127.145C94.4142 127.144 94.0875 127.061 93.7955 126.903C94.5083 126.452 95.2592 126.064 96.0398 125.744Z" fill="url(#paint2_radial)"/>
<path d="M96.0398 125.744C97.8655 125.009 101.416 124.928 102.358 127.383C107.702 141.299 121.888 173.544 156.432 162.709C206.486 147.01 199.521 84.9882 199.521 84.9882C197.808 80.2557 212.168 74.5899 218.812 65.989C225.973 56.7188 226.542 51.0078 226.168 47.2825C229.328 52.8582 226.991 62.909 219.675 70.5856C217.041 73.39 213.93 75.7045 210.486 77.4214C210.505 78.0742 210.515 78.4544 210.515 78.4544C210.515 78.4544 210.674 82.0302 210.852 85.8131C210.917 87.2093 210.985 89.5807 211.01 92.2883C211.027 95.6525 210.976 99.9837 210.782 103.186C210.714 104.205 210.63 105.145 210.525 105.959C210.452 106.517 210.375 107.071 210.293 107.62C205.518 138.298 179.227 166.527 153.728 168.521C153.607 168.53 153.487 168.542 153.365 168.551C153.28 168.557 153.193 168.561 153.107 168.567C151.861 168.652 150.603 168.703 149.332 168.721C148.96 168.725 148.586 168.725 148.212 168.724C148.133 168.724 148.055 168.725 147.976 168.725C147.52 168.721 147.063 168.714 146.604 168.702C115.272 167.883 103.452 138.366 101.919 131.8C100.959 127.691 98.4062 126.901 96.6301 126.886C96.0015 126.876 95.3752 126.963 94.7732 127.143C94.7732 127.143 94.762 127.144 94.7461 127.145C94.4142 127.144 94.0875 127.061 93.7955 126.903C94.5083 126.452 95.2592 126.064 96.0398 125.744Z" fill="url(#paint3_radial)"/>
<path d="M194.552 73.4969C194.984 72.7405 195.521 72.0491 196.146 71.4429C196.767 70.8275 197.419 70.2451 198.099 69.6976C199.456 68.5934 200.881 67.57 202.303 66.5446C205.152 64.4986 208.031 62.4691 210.693 60.1437C212.032 58.9814 213.284 57.7236 214.441 56.3806C215.592 55.0272 216.636 53.5859 217.563 52.0703C218.495 50.5601 219.302 48.9752 220.088 47.4116C220.457 46.6419 220.876 45.8978 221.344 45.184C221.542 44.875 221.802 44.6104 222.107 44.407C222.235 44.3337 222.378 44.2903 222.525 44.28C222.672 44.2698 222.82 44.293 222.956 44.348C223.602 44.5754 224.3 45.1613 224.845 45.7303C225.399 46.3306 225.849 47.0187 226.178 47.7664C226.819 49.3118 227.123 50.9757 227.07 52.6478C227.04 54.3477 226.799 56.0375 226.351 57.6775C225.913 59.3339 225.326 60.9473 224.597 62.4981C223.871 64.0585 223.016 65.5556 222.041 66.9737C221.065 68.3989 219.977 69.744 218.787 70.996C217.594 72.2582 216.313 73.4346 214.955 74.5163C213.592 75.6101 212.143 76.5902 210.621 77.4472L210.679 77.5642C213.924 76.1219 216.891 74.1195 219.442 71.6483C220.736 70.4185 221.92 69.0775 222.98 67.6409C224.039 66.1968 224.973 64.6642 225.77 63.0602C227.344 59.8475 228.379 56.3019 228.366 52.6465C228.381 50.7964 227.996 48.9647 227.239 47.2768C226.647 45.9882 225.733 44.8741 224.585 44.0418C224.188 43.7387 223.745 43.5018 223.272 43.3402C222.998 43.2528 222.71 43.2198 222.423 43.243C222.126 43.271 221.839 43.3659 221.584 43.5207C221.155 43.8038 220.792 44.1753 220.519 44.6103C220.037 45.3725 219.607 46.1666 219.232 46.9874C218.472 48.5731 217.714 50.1341 216.83 51.6294C215.953 53.1262 214.96 54.5527 213.861 55.8951C212.752 57.2337 211.546 58.4899 210.255 59.6543C207.683 62.0126 204.868 64.1099 202.069 66.227C200.671 67.289 199.269 68.3506 197.931 69.4963C197.258 70.066 196.615 70.6701 196.005 71.3065C195.384 71.9393 194.856 72.6571 194.436 73.438L194.552 73.4969Z" fill="url(#paint4_radial)"/>
<path d="M133.546 93.5078C137.732 94.1992 139.95 94.6244 140.9 92.6651C141.85 90.7057 140.272 90.2158 137.275 87.1903C135.474 85.371 132.883 83.1209 132.92 88.7117C132.934 90.8807 128.165 92.6192 133.546 93.5078Z" fill="url(#paint5_radial)"/>
<path d="M203.893 55.1318C202.35 58.7332 199.164 65.5364 201.999 66.1347C204.735 66.7125 207.33 64.026 209.568 60.8615C212.658 56.492 210.184 59.5002 208.37 57.9672C206.294 56.2125 206.947 48.0042 203.893 55.1318Z" fill="url(#paint6_radial)"/>
<path d="M204.601 54.014C203.058 57.6155 200.01 63.4539 201.936 64.8507C203.862 66.2474 208.19 62.922 210.428 59.7573C213.518 55.3881 210.892 58.3825 209.078 56.8494C207.002 55.0947 207.655 46.8868 204.601 54.014Z" fill="#D30505"/>
<path d="M132.909 92.8593C137.095 93.5508 139.313 93.976 140.263 92.0167C141.214 90.0573 139.636 89.5674 136.639 86.5416C134.837 84.7226 132.246 82.4725 132.283 88.0633C132.298 90.2323 127.528 91.9705 132.909 92.8593Z" fill="#D30505"/>
<g style="mix-blend-mode:multiply">
<g style="mix-blend-mode:multiply">
<path d="M137.417 93.0184C136.241 93.0184 135.288 92.0651 135.288 90.8893C135.288 89.7134 136.241 88.7604 137.417 88.7604C138.593 88.7604 139.546 89.7134 139.546 90.8893C139.546 92.0651 138.593 93.0184 137.417 93.0184Z" fill="#A50729"/>
</g>
</g>
<path d="M137.394 92.8593C136.281 92.8593 135.378 91.9569 135.378 90.8439C135.378 89.7309 136.281 88.8287 137.394 88.8287C138.507 88.8287 139.409 89.7309 139.409 90.8439C139.409 91.9569 138.507 92.8593 137.394 92.8593Z" fill="#F8B133"/>
<g style="mix-blend-mode:multiply" opacity="0.8">
<g style="mix-blend-mode:multiply" opacity="0.8">
<path d="M137.394 92.5097C137.898 92.5094 138.383 92.3204 138.755 91.9796C139.126 91.6389 139.357 91.1714 139.4 90.6692C139.405 90.7268 139.409 90.785 139.409 90.8439C139.409 91.3784 139.197 91.891 138.819 92.2691C138.441 92.6468 137.928 92.8593 137.394 92.8593C136.859 92.8593 136.347 92.6468 135.969 92.2691C135.591 91.891 135.378 91.3784 135.378 90.8439C135.378 90.785 135.382 90.7268 135.387 90.6692C135.431 91.1714 135.661 91.6389 136.033 91.9796C136.404 92.3204 136.89 92.5094 137.394 92.5097Z" fill="#D1860F"/>
</g>
</g>
<path opacity="0.65" d="M136.08 89.8816C136.08 90.2422 136.668 89.8816 137.394 89.8816C138.119 89.8816 138.708 90.2422 138.708 89.8816C138.708 89.521 138.119 89.1192 137.394 89.1192C136.668 89.1192 136.08 89.521 136.08 89.8816Z" fill="white"/>
<g style="mix-blend-mode:multiply">
<g style="mix-blend-mode:multiply">
<path d="M204.726 63.4823C203.551 63.4823 202.597 62.5291 202.597 61.3532C202.597 60.1776 203.551 59.2244 204.726 59.2244C205.902 59.2244 206.855 60.1776 206.855 61.3532C206.855 62.5291 205.902 63.4823 204.726 63.4823Z" fill="#A50729"/>
</g>
</g>
<path d="M204.703 63.3233C203.59 63.3233 202.688 62.4209 202.688 61.3079C202.688 60.1948 203.59 59.2927 204.703 59.2927C205.816 59.2927 206.719 60.1948 206.719 61.3079C206.719 62.4209 205.816 63.3233 204.703 63.3233Z" fill="#F8B133"/>
<g style="mix-blend-mode:multiply" opacity="0.8">
<g style="mix-blend-mode:multiply" opacity="0.8">
<path d="M204.703 62.9737C205.208 62.9734 205.693 62.7844 206.065 62.4436C206.436 62.1028 206.666 61.6353 206.71 61.1332C206.715 61.1908 206.719 61.2489 206.719 61.3079C206.719 61.8424 206.506 62.3549 206.128 62.733C205.751 63.1111 205.238 63.3233 204.703 63.3233C204.169 63.3233 203.656 63.1111 203.278 62.733C202.9 62.3549 202.688 61.8424 202.688 61.3079C202.688 61.2489 202.692 61.1908 202.697 61.1332C202.741 61.6353 202.971 62.1028 203.342 62.4436C203.714 62.7844 204.199 62.9734 204.703 62.9737Z" fill="#D1860F"/>
</g>
</g>
<path opacity="0.65" d="M203.389 60.3455C203.389 60.7061 203.978 60.3455 204.703 60.3455C205.429 60.3455 206.017 60.7061 206.017 60.3455C206.017 59.9849 205.429 59.5831 204.703 59.5831C203.978 59.5831 203.389 59.9849 203.389 60.3455Z" fill="white"/>
<path d="M146.956 94.5785C147.758 92.4826 148.155 91.4973 148.939 89.5801C155.201 89.1512 161.719 89.3275 167.872 87.8997C174.585 86.3422 180.788 82.1611 187.121 79.5192C189.34 81.2572 190.433 81.8548 192.595 83.1897C192.95 85.306 193.125 86.3341 193.478 88.4371C187.894 97.2562 182.185 105.876 176.206 114.427C166.906 109.474 157.791 104.872 148.857 99.2396C148.086 97.3597 147.696 96.4506 146.928 94.5845L146.956 94.5785Z" fill="#FCE905"/>
<path d="M151.841 93.2465C151.433 94.1423 151.229 94.5989 150.818 95.5409C151.081 96.1825 151.216 96.4746 151.475 97.1579C158.889 102.318 166.748 106.807 174.959 110.572C180.242 103.394 184.772 95.798 189.366 88.167C189.226 87.4612 189.155 87.1066 189.013 86.3846C187.955 85.8306 187.423 85.5618 186.355 84.9827C180.762 87.5394 175.099 90.8663 169.023 92.0891C163.497 93.2014 157.45 92.8564 151.841 93.2465ZM148.939 89.5801C155.201 89.1512 161.719 89.3275 167.872 87.8997C174.585 86.3422 180.788 82.1614 187.121 79.5192C189.34 81.2574 190.433 81.8548 192.595 83.1897C192.95 85.306 193.125 86.3341 193.478 88.4371C187.894 97.2562 182.185 105.876 176.206 114.427C166.906 109.474 157.791 104.872 148.857 99.2398C148.086 97.3597 147.696 96.4506 146.928 94.5845L146.955 94.5788C147.758 92.4825 148.155 91.4973 148.939 89.5801Z" fill="#00006B"/>
<path d="M164.586 104.107C164.957 104.787 165.41 105.602 165.944 106.537C166.472 107.46 166.863 108.135 167.122 108.591C168.093 108.481 169.072 108.473 170.044 108.568C171.286 108.661 172.535 108.585 173.757 108.342C175.298 108.063 176.775 107.503 178.113 106.689C179.238 106.001 180.208 105.086 180.959 104.002C181.648 102.988 182.098 101.831 182.274 100.618C182.457 99.3663 182.393 98.0908 182.087 96.8633C181.634 94.529 179.248 92.3256 177.025 91.6949C173.866 90.5342 170.75 91.2011 167.496 91.3098C166.246 91.4175 165.013 91.6782 163.826 92.0858C163.011 92.4138 162.148 92.6075 161.271 92.6594C161.565 93.5276 161.878 94.4693 162.206 95.5313C162.53 96.5802 162.815 97.566 163.064 98.5182C163.083 98.5745 163.178 98.6193 163.348 98.6511C163.492 98.6814 163.64 98.691 163.786 98.6798C163.884 98.6673 163.978 98.6376 164.066 98.592C164.107 98.5768 164.144 98.5513 164.173 98.5179C164.202 98.4843 164.222 98.4439 164.231 98.4006C163.985 97.1042 164.223 95.7631 164.9 94.6307C165.222 94.0623 165.68 93.5823 166.232 93.2335C166.785 92.8846 167.415 92.6779 168.066 92.6317C170.23 92.3898 172.015 92.6401 173.397 93.7995C174.759 94.9415 175.797 96.5249 176.487 98.9898C177.143 101.336 177.27 103.107 176.883 104.598C176.503 106.06 175.342 106.992 173.4 107.395C171.956 107.724 170.442 107.522 169.134 106.828C167.805 106.129 166.634 105.163 165.695 103.99C165.66 103.955 165.619 103.926 165.573 103.907C165.527 103.888 165.477 103.878 165.427 103.878C165.317 103.862 165.206 103.858 165.094 103.866C164.981 103.883 164.87 103.914 164.764 103.959C164.628 104.012 164.569 104.061 164.586 104.107Z" fill="#00006B"/>
<path d="M58.24 228.4C56.6667 228.4 55.08 228.173 53.48 227.72C51.9067 227.267 50.4533 226.507 49.12 225.44C47.8133 224.347 46.76 222.867 45.96 221C45.16 219.107 44.76 216.72 44.76 213.84C44.76 210.933 45.32 208.4 46.44 206.24C47.5867 204.053 49.1467 202.347 51.12 201.12C53.0933 199.893 55.3333 199.28 57.84 199.28C59.04 199.28 60.1867 199.387 61.28 199.6C62.4 199.813 63.2533 200.053 63.84 200.32L68.28 204.36L65.48 208.56L58.64 205.04C57.1467 205.04 55.8 205.4 54.6 206.12C53.4 206.84 52.44 207.867 51.72 209.2C51.0267 210.507 50.68 212.053 50.68 213.84C50.68 215.893 51.04 217.587 51.76 218.92C52.5067 220.253 53.52 221.253 54.8 221.92C56.08 222.56 57.5067 222.88 59.08 222.88C60.68 222.88 62.0533 222.747 63.2 222.48C64.3467 222.187 65.3067 221.867 66.08 221.52C66.8533 221.147 67.44 220.827 67.84 220.56V226C67.0933 226.507 65.9467 227.04 64.4 227.6C62.88 228.133 60.8267 228.4 58.24 228.4ZM68.5187 228L70.8387 220.44V216.56L73.3987 215.36L78.5988 199.72H86.4788L92.9187 217.64L95.9988 223.32V228H90.5187L88.1187 220.8H76.4787L74.3587 228H68.5187ZM78.7188 215.84H86.3188L82.8788 205H82.0388L78.7188 215.84ZM105.44 228.4C103.387 228.4 101.64 228.133 100.2 227.6C98.76 227.04 97.68 226.453 96.96 225.84V220.32C97.8933 220.853 99.1333 221.413 100.68 222C102.253 222.587 103.987 222.88 105.88 222.88C107.107 222.88 108.013 222.64 108.6 222.16C109.213 221.68 109.52 221.027 109.52 220.2C109.52 219.453 109.28 218.84 108.8 218.36C108.32 217.88 107.6 217.44 106.64 217.04C105.68 216.64 104.453 216.173 102.96 215.64C100.827 214.867 99.1733 213.867 98 212.64C96.8267 211.413 96.24 209.76 96.24 207.68C96.24 206.213 96.56 204.84 97.2 203.56C97.8667 202.28 98.8933 201.253 100.28 200.48C101.693 199.68 103.493 199.28 105.68 199.28C106.533 199.28 107.373 199.32 108.2 199.4C109.053 199.453 109.773 199.533 110.36 199.64L114.88 202.96L112.88 207.04L105.56 204.44C104.6 204.44 103.8 204.68 103.16 205.16C102.547 205.613 102.24 206.267 102.24 207.12C102.24 208.187 102.68 209 103.56 209.56C104.467 210.12 105.733 210.667 107.36 211.2C110.453 212.213 112.627 213.44 113.88 214.88C115.133 216.293 115.76 217.96 115.76 219.88C115.76 221.427 115.44 222.853 114.8 224.16C114.16 225.44 113.08 226.467 111.56 227.24C110.067 228.013 108.027 228.4 105.44 228.4ZM118.627 228V206.12L117.827 202.08L118.627 199.68H128.227C130.173 199.68 131.92 199.987 133.467 200.6C135.04 201.187 136.28 202.2 137.187 203.64C138.12 205.053 138.587 207.013 138.587 209.52C138.587 212.027 138.093 214.013 137.107 215.48C136.12 216.92 134.747 217.947 132.987 218.56C131.253 219.173 129.267 219.48 127.027 219.48H124.227V221.56L124.627 225.56L124.227 228H118.627ZM124.227 214.4H128.147C129.907 214.4 131.107 213.947 131.747 213.04C132.387 212.107 132.707 210.933 132.707 209.52C132.707 208.027 132.36 206.88 131.667 206.08C131 205.28 129.773 204.88 127.987 204.88H123.827L124.227 214.4ZM140.972 228L140.172 225.6L140.972 221.6V199.68H159.132L161.132 200.88L158.892 205.28L154.892 204.88H146.492V211.08H157.292V216.08H153.372L146.492 215.68V222.8H159.292L162.452 225.44L160.092 228H140.972ZM164.059 228V206.12L163.259 202.08L164.059 199.68H173.659C175.606 199.68 177.353 199.987 178.899 200.6C180.473 201.187 181.713 202.2 182.619 203.64C183.553 205.053 184.019 207.013 184.019 209.52C184.019 211.893 183.566 213.787 182.659 215.2C181.779 216.613 180.553 217.667 178.979 218.36L180.139 219.4L183.699 223.56L185.979 225.6V228H178.579L172.979 219.48H169.659V221.56L170.059 225.56L169.659 228H164.059ZM169.659 214.4H173.579C175.339 214.4 176.539 213.947 177.179 213.04C177.819 212.107 178.139 210.933 178.139 209.52C178.139 208.027 177.793 206.88 177.099 206.08C176.433 205.28 175.206 204.88 173.419 204.88H169.259L169.659 214.4ZM187.967 228V206.12L187.167 202.08L187.967 199.68H197.567C199.514 199.68 201.261 199.987 202.807 200.6C204.381 201.187 205.621 202.2 206.527 203.64C207.461 205.053 207.927 207.013 207.927 209.52C207.927 212.027 207.434 214.013 206.447 215.48C205.461 216.92 204.087 217.947 202.327 218.56C200.594 219.173 198.607 219.48 196.367 219.48H193.567V221.56L193.967 225.56L193.567 228H187.967ZM193.567 214.4H197.487C199.247 214.4 200.447 213.947 201.087 213.04C201.727 212.107 202.047 210.933 202.047 209.52C202.047 208.027 201.701 206.88 201.007 206.08C200.341 205.28 199.114 204.88 197.327 204.88H193.167L193.567 214.4ZM205.911 228L208.231 220.44V216.56L210.791 215.36L215.991 199.72H223.871L230.311 217.64L233.391 223.32V228H227.911L225.511 220.8H213.871L211.751 228H205.911ZM216.111 215.84H223.711L220.271 205H219.431L216.111 215.84ZM235.392 228V206.12L234.592 202.12L235.392 199.68H244.112C246.032 199.68 247.872 199.867 249.632 200.24C251.419 200.587 253.006 201.253 254.392 202.24C255.806 203.227 256.912 204.64 257.712 206.48C258.539 208.32 258.952 210.707 258.952 213.64C258.952 216.573 258.539 218.987 257.712 220.88C256.886 222.747 255.766 224.2 254.352 225.24C252.939 226.28 251.339 227 249.552 227.4C247.792 227.8 245.979 228 244.112 228H235.392ZM241.072 222.8H245.312C248.086 222.8 250.059 221.987 251.232 220.36C252.406 218.707 252.992 216.467 252.992 213.64C252.992 210.813 252.392 208.653 251.192 207.16C250.019 205.64 248.059 204.88 245.312 204.88H241.072V222.8Z" fill="url(#paint7_linear)"/>
</g>
<defs>
<filter id="filter0_d" x="0" y="0" width="283" height="263" filterUnits="userSpaceOnUse" color-interpolation-filters="sRGB">
<feFlood flood-opacity="0" result="BackgroundImageFix"/>
<feColorMatrix in="SourceAlpha" type="matrix" values="0 0 0 0 0 0 0 0 0 0 0 0 0 0 0 0 0 0 127 0" result="hardAlpha"/>
<feOffset/>
<feGaussianBlur stdDeviation="10"/>
<feComposite in2="hardAlpha" operator="out"/>
<feColorMatrix type="matrix" values="0 0 0 0 0.054902 0 0 0 0 0.956863 0 0 0 0 0.933333 0 0 0 1 0"/>
<feBlend mode="normal" in2="BackgroundImageFix" result="effect1_dropShadow"/>
<feBlend mode="normal" in="SourceGraphic" in2="effect1_dropShadow" result="shape"/>
</filter>
<radialGradient id="paint0_radial" cx="0" cy="0" r="1" gradientUnits="userSpaceOnUse" gradientTransform="translate(119.243 81.1526) rotate(-169.089) scale(52.2277)">
<stop offset="0.55067" stop-color="white"/>
<stop offset="0.61948" stop-color="#F9FBFB" stop-opacity="0.99416"/>
<stop offset="0.7158" stop-color="#EAEFF1" stop-opacity="0.97778"/>
<stop offset="0.82832" stop-color="#D0DBE0" stop-opacity="0.95088"/>
<stop offset="0.95222" stop-color="#ADC0C8" stop-opacity="0.91373"/>
<stop offset="0.99302" stop-color="#A0B6BF" stop-opacity="0.9"/>
</radialGradient>
<radialGradient id="paint1_radial" cx="0" cy="0" r="1" gradientUnits="userSpaceOnUse" gradientTransform="translate(120.666 77.5092) rotate(-169.089) scale(47.6152)">
<stop offset="0.22599" stop-color="white"/>
<stop offset="0.93967" stop-color="#A0B6BF" stop-opacity="0.9"/>
</radialGradient>
<radialGradient id="paint2_radial" cx="0" cy="0" r="1" gradientUnits="userSpaceOnUse" gradientTransform="translate(-8418.57 -2088.8) rotate(180) scale(84963.6 77146.7)">
<stop offset="0.22599" stop-color="white"/>
<stop offset="0.93967" stop-color="#A0B6BF" stop-opacity="0.9"/>
</radialGradient>
<radialGradient id="paint3_radial" cx="0" cy="0" r="1" gradientUnits="userSpaceOnUse" gradientTransform="translate(211.511 15.4139) rotate(180) scale(165.628)">
<stop offset="0.22599" stop-color="white"/>
<stop offset="0.93967" stop-color="#A0B6BF" stop-opacity="0.9"/>
</radialGradient>
<radialGradient id="paint4_radial" cx="0" cy="0" r="1" gradientUnits="userSpaceOnUse" gradientTransform="translate(211.142 60.5971) rotate(180) scale(17.3615)">
<stop offset="0.68087" stop-color="white"/>
<stop offset="1" stop-color="#A0B6BF" stop-opacity="0.9"/>
</radialGradient>
<radialGradient id="paint5_radial" cx="0" cy="0" r="1" gradientUnits="userSpaceOnUse" gradientTransform="translate(-3528.93 2168.46) rotate(180) scale(509.061 445.594)">
<stop offset="0.22599" stop-color="white"/>
<stop offset="0.93967" stop-color="#A0B6BF" stop-opacity="0.9"/>
</radialGradient>
<radialGradient id="paint6_radial" cx="0" cy="0" r="1" gradientUnits="userSpaceOnUse" gradientTransform="translate(-847.091 1892.88) rotate(180) scale(524.451 719.113)">
<stop offset="0.22599" stop-color="white"/>
<stop offset="0.93967" stop-color="#A0B6BF" stop-opacity="0.9"/>
</radialGradient>
<linearGradient id="paint7_linear" x1="249" y1="214" x2="45.5" y2="214" gradientUnits="userSpaceOnUse">
<stop stop-color="#D765BD"/>
<stop offset="0.302083" stop-color="#B57192"/>
<stop offset="0.692708" stop-color="#62B4CB"/>
<stop offset="1" stop-color="#D268BD"/>
</linearGradient>
</defs>
</svg>
