<svg width="190" height="248" viewBox="0 0 190 248" fill="none" xmlns="http://www.w3.org/2000/svg">
<g filter="url(#filter0_d)">
<path d="M98.4044 20.383C124.881 17.2019 136.552 34.5167 141.892 47.1486C147.898 61.3546 146.529 60.2439 147.818 61.6337C148.417 62.2786 153.337 66.2282 158.549 69.0462C164.719 72.3818 170.311 76.4874 169.971 80.6976C169.339 88.5525 157.214 87.2993 154.635 86.9287C152.736 86.6077 150.865 86.1365 149.04 85.5193C149.04 85.5193 149.224 89.6939 149.43 94.1104C149.636 98.5268 149.865 103.185 149.05 109.525C143.857 149.935 116.53 170.165 82.4482 169.269C46.0842 168.314 32.3661 133.855 30.5867 126.189C28.8073 118.524 22.306 120.753 22.306 120.753C21.9012 120.761 21.5014 120.663 21.1455 120.469C20.7896 120.275 20.4898 119.991 20.2752 119.646C19.488 118.436 20.6399 117.073 20.6399 117.073C20.6399 117.073 27.0691 110.811 34.7546 115.085C42.4402 119.358 42.9453 130.976 55.7268 132.889C68.5083 134.801 69.89 118.015 67.7714 107.067C65.7765 96.7572 64.6848 96.4195 64.0431 96.3159C63.7432 96.2675 61.784 98.3253 57.2704 99.1571C52.7209 99.9955 50.5769 99.6225 48.9662 99.1571C47.4228 98.7111 44.5588 97.5841 43.4892 95.0152C41.7763 90.9014 44.8866 88.1526 46.0326 87.1603C47.1785 86.1681 55.5412 78.9467 56.6981 77.7138C57.8551 76.4808 60.6326 72.4281 60.6326 70.9456C60.6326 69.4631 62.0593 23.6878 98.4044 20.383Z" fill="white"/>
<path d="M147.358 80.9996C136.734 81.5556 151.411 101.199 135.181 134.776C125.769 154.248 106.433 161.199 97.6168 163.37C84.9433 166.492 65.0955 167.861 48.4281 150.121C31.7607 132.38 33.997 121.058 28.9921 118.371C24.9927 116.223 21.5139 118.021 20.2758 119.646C20.4903 119.991 20.7902 120.275 21.1461 120.469C21.502 120.663 21.9018 120.761 22.3066 120.753C22.3066 120.753 28.8079 118.524 30.5873 126.189C32.3667 133.855 46.0847 168.314 82.4487 169.269C116.531 170.165 143.858 149.935 149.051 109.525C149.865 103.185 149.637 98.5268 149.431 94.1104C149.224 89.694 149.04 85.5193 149.04 85.5193C150.865 86.1365 152.736 86.6077 154.635 86.9287C157.214 87.2993 169.339 88.5524 169.972 80.6976C169.987 80.495 169.988 80.2917 169.976 80.0889C169.588 81.5247 168.851 84.8294 158.918 83.594C153.157 82.8774 151.705 80.7722 147.358 80.9996Z" fill="url(#paint0_radial)"/>
<path d="M43.4891 95.0152C44.5587 97.5841 47.4228 98.7111 48.9661 99.1571C50.5768 99.6225 52.7209 99.9955 57.2704 99.1571C61.784 98.3253 63.7432 96.2675 64.0431 96.3159C64.6848 96.4195 65.7895 98.3853 67.7714 107.067C69.6751 115.406 68.8821 129.459 60.2214 132.524C63.4846 131.858 66.3903 130.008 68.3851 127.326C74.6753 119.2 73.4824 111.853 70.5348 100.178C67.5872 88.5038 64.179 91.8095 57.5468 94.5273C52.0594 96.7761 47.9669 95.992 45.2956 93.5081C43.9481 92.2551 44.2363 89.6629 45.0796 88.0494C43.7648 89.4086 42.1475 91.7931 43.4891 95.0152Z" fill="url(#paint1_radial)"/>
<path d="M86.2036 48.094L86.2036 48.094C85.0242 48.183 84.1397 49.2169 84.2281 50.4033L84.4968 54.0068C84.5852 55.1932 85.6131 56.0828 86.7925 55.9939L86.7925 55.9939C87.972 55.9049 88.8565 54.871 88.768 53.6846L88.4994 50.0811C88.411 48.8947 87.3831 48.0051 86.2036 48.094Z" fill="#1D1D1B"/>
<path d="M118.035 47.8156C117.947 46.6292 116.919 45.7395 115.739 45.8284C114.56 45.9174 113.675 46.9513 113.764 48.1377L114.032 51.7412C114.121 52.9276 115.149 53.8173 116.328 53.7283C117.508 53.6394 118.392 52.6054 118.304 51.419L118.035 47.8156Z" fill="#1D1D1B"/>
<path d="M98.4044 59.4256C98.5889 61.8999 100.557 63.7687 102.8 63.5995C105.043 63.4303 106.712 61.2873 106.527 58.8129" stroke="#1D1D1B" stroke-width="0.984467" stroke-miterlimit="10" stroke-linecap="round"/>
<path d="M84.493 72.2279L103.819 81.845L94.7131 90.2864C94.6359 90.358 94.5436 90.4112 94.4432 90.4421C94.3427 90.4729 94.2366 90.4806 94.1328 90.4646C94.029 90.4486 93.9301 90.4093 93.8434 90.3496C93.7567 90.2899 93.6845 90.2114 93.6322 90.1198L84.493 72.2279Z" fill="url(#paint2_radial)"/>
<path d="M122.684 72.2279L103.184 81.845L112.29 90.2864C112.367 90.358 112.459 90.4112 112.56 90.4421C112.66 90.4729 112.766 90.4806 112.87 90.4646C112.974 90.4486 113.073 90.4093 113.16 90.3496C113.246 90.2899 113.319 90.2114 113.371 90.1198L122.684 72.2279Z" fill="url(#paint3_radial)"/>
<path d="M107.026 89.9446C106.994 89.5428 106.856 89.1569 106.625 88.8275L110.114 86.1857L109.69 80.4695L96.4351 80.904L96.2544 86.2058L99.6414 88.8993C99.44 89.2131 99.3191 89.5722 99.2896 89.9446L96.5442 122.798C96.5134 123.124 96.5538 123.453 96.6626 123.761C96.7714 124.07 96.9459 124.351 97.174 124.585L101.945 129.286C102.102 129.449 102.291 129.578 102.499 129.667C102.708 129.755 102.932 129.8 103.158 129.8C103.384 129.8 103.608 129.755 103.816 129.667C104.024 129.578 104.213 129.449 104.371 129.286L109.141 124.585C109.369 124.351 109.544 124.07 109.653 123.761C109.761 123.453 109.802 123.124 109.771 122.798L107.026 89.9446Z" fill="url(#paint4_radial)"/>
<path d="M97.0602 86.081L101.643 89.799C102.152 90.2286 102.794 90.4667 103.459 90.4727C104.123 90.4787 104.769 90.2522 105.286 89.8319L110.167 86.0616L109.766 80.5468L97.231 80.966L97.0602 86.081Z" fill="#BD1622"/>
<path d="M109.247 123.108L104.736 127.643C104.588 127.8 104.41 127.925 104.213 128.01C104.016 128.096 103.803 128.14 103.588 128.14C103.374 128.14 103.161 128.096 102.964 128.01C102.767 127.925 102.589 127.8 102.441 127.643L97.9298 123.108C97.7133 122.88 97.5481 122.609 97.4453 122.311C97.3426 122.014 97.3047 121.697 97.3342 121.384L99.9304 89.6881C100.016 88.6466 100.77 87.8511 101.673 87.8511H105.504C106.406 87.8511 107.161 88.6466 107.246 89.6881L109.843 121.384C109.872 121.697 109.834 122.014 109.731 122.311C109.629 122.609 109.463 122.88 109.247 123.108Z" fill="#BD1622"/>
<path d="M103.588 80.0719L84.493 72.2278L93.8059 88.5126C93.8582 88.6042 93.9304 88.6828 94.0171 88.7425C94.1038 88.8022 94.2027 88.8415 94.3065 88.8575C94.4103 88.8735 94.5164 88.8658 94.6169 88.8349C94.7173 88.8041 94.8096 88.7509 94.8869 88.6793L103.588 80.6124L112.29 88.6793C112.367 88.7509 112.459 88.8041 112.56 88.8349C112.66 88.8658 112.766 88.8735 112.87 88.8575C112.974 88.8415 113.073 88.8022 113.16 88.7425C113.246 88.6828 113.318 88.6042 113.371 88.5126L122.684 72.2278L103.588 80.0719Z" fill="white" stroke="#D3E5EA" stroke-width="0.164078" stroke-miterlimit="10"/>
<path d="M60.746 69.2194L71.2515 88.4152C73.7598 92.9986 74.7233 98.2765 73.9973 103.457L70.3359 131.171C70.3217 131.282 70.2686 131.385 70.1862 131.46C70.1038 131.536 69.9974 131.58 69.8859 131.584C68.6781 131.628 65.6967 131.116 63.0488 129.001C59.9368 126.516 58.8101 124.956 58.8981 124.483L63.6373 104.458C63.7053 104.171 63.7028 103.872 63.6301 103.586C63.5575 103.3 63.4168 103.036 63.2202 102.817C63.0236 102.598 62.7769 102.43 62.5016 102.328C62.2262 102.226 61.9303 102.193 61.6394 102.232L51.8075 101.154C51.7065 101.142 51.6111 101.101 51.5336 101.035C51.4561 100.969 51.4 100.881 51.3725 100.783L47.382 86.4982C47.3407 86.3501 47.3425 86.1931 47.3871 86.0459C47.4318 85.8988 47.5174 85.7675 47.6338 85.6678C49.3334 84.213 56.0755 78.3632 57.522 75.8906C58.7267 73.7329 59.8033 71.5053 60.746 69.2194Z" fill="#2D2D2D"/>
<path d="M59.7325 97.1741C56.6577 97.1741 50.1419 96.3784 50.1418 96.3784L51.3723 100.783C51.3998 100.881 51.4559 100.969 51.5334 101.035C51.6109 101.101 51.7063 101.142 51.8073 101.154L61.6392 102.232C61.9301 102.193 62.226 102.226 62.5014 102.328C62.7767 102.43 63.0234 102.598 63.22 102.817C63.4166 103.036 63.5573 103.3 63.6299 103.586C63.7026 103.872 63.705 104.171 63.6371 104.458L59.8883 120.298C62.1971 114.857 64.7478 108.954 65.8258 106.179C67.3917 102.148 65.1212 97.1741 59.7325 97.1741Z" fill="#1D1D1B"/>
<path d="M63.8179 76.4267V89.6174C63.8179 89.9142 63.8999 90.2051 64.0547 90.4577C64.2096 90.7103 64.4311 90.9147 64.6947 91.048L69.2041 93.3289C69.2352 93.3447 69.2596 93.3714 69.2724 93.4041C69.2853 93.4367 69.2857 93.473 69.2737 93.506C69.2617 93.5389 69.2381 93.5663 69.2074 93.5829C69.1766 93.5995 69.1409 93.6042 69.1069 93.596L63.8752 92.333C63.3953 92.2172 62.9738 91.9293 62.6898 91.5233C62.4057 91.1173 62.2785 90.6211 62.332 90.1276L63.8179 76.4267Z" fill="#1D1D1B"/>
<path d="M69.3044 93.4385L68.3989 99.3432C68.3325 100.048 68.3282 100.758 68.386 101.464C68.386 101.464 71.9376 119.875 71.3389 119.875C70.7401 119.875 67.2647 101.658 67.2647 101.658C67.1572 100.831 67.2248 99.9898 67.4631 99.1907L68.9167 93.3533C68.9521 93.2279 69.3241 93.3097 69.3044 93.4385Z" fill="#1D1D1B"/>
<path d="M147.01 60.4859C147.01 60.4859 138.491 79.0244 141.505 97.3339L142.793 124.268C142.802 124.317 142.822 124.363 142.85 124.403C142.879 124.444 142.917 124.477 142.96 124.502C143.003 124.526 143.051 124.54 143.1 124.543C143.15 124.547 143.199 124.539 143.245 124.52C144.139 124.159 149.459 120.971 151.81 119.385C154.402 117.637 156.35 115.069 156.262 114.596L151.068 92.6491C151 92.3619 151.002 92.0625 151.075 91.7766C151.148 91.4906 151.288 91.2267 151.485 91.0076C151.682 90.7885 151.928 90.6208 152.204 90.5189C152.479 90.417 152.775 90.3839 153.066 90.4226L162.898 89.3445C162.999 89.3334 163.094 89.2922 163.172 89.2262C163.249 89.1601 163.305 89.0723 163.333 88.9739L167.323 74.6892C167.364 74.541 167.363 74.3841 167.318 74.2369C167.273 74.0897 167.188 73.9585 167.071 73.8587C165.372 72.404 156.454 67.7513 153.913 65.7129C152.034 64.2058 148.549 61.2649 147.449 60.3344C147.413 60.3043 147.37 60.2839 147.324 60.2753C147.278 60.2668 147.231 60.2703 147.187 60.2855C147.143 60.3007 147.103 60.3272 147.072 60.3623C147.041 60.3974 147.019 60.44 147.01 60.4859Z" fill="#2D2D2D"/>
<path d="M148.827 62.3393V74.3916C148.821 74.6712 148.736 74.9432 148.58 75.175C148.425 75.4068 148.206 75.5886 147.95 75.6988L143.441 77.7828C143.41 77.7968 143.386 77.8221 143.374 77.8535C143.361 77.885 143.361 77.9201 143.374 77.9515C143.386 77.983 143.41 78.0084 143.441 78.0224C143.472 78.0364 143.506 78.038 143.538 78.0268L148.77 76.8729C149.231 76.7914 149.645 76.5394 149.93 76.1666C150.216 75.7937 150.352 75.3268 150.313 74.8578L148.827 62.3393Z" fill="#1D1D1B"/>
<path d="M144.667 77.5586L145.635 83.0792C145.709 83.7387 145.721 84.4037 145.671 85.0654C145.671 85.0654 142.316 102.352 142.915 102.345C143.514 102.338 146.794 85.2342 146.794 85.2342C146.893 84.4575 146.816 83.6683 146.57 82.9255L145.054 77.4743C145.017 77.3573 144.646 77.4382 144.667 77.5586Z" fill="#1D1D1B"/>
<path d="M142.793 124.268C142.802 124.317 142.821 124.363 142.85 124.403C142.879 124.444 142.916 124.477 142.96 124.502C143.003 124.526 143.051 124.54 143.1 124.543C143.15 124.547 143.199 124.539 143.245 124.52C144.138 124.159 149.459 120.971 151.81 119.385C154.402 117.637 156.35 115.069 156.262 114.596L151.068 92.6491C151 92.362 151.002 92.0625 151.075 91.7766C151.148 91.4906 151.288 91.2267 151.485 91.0076C151.681 90.7885 151.928 90.6208 152.203 90.5189C152.479 90.4169 152.775 90.3839 153.066 90.4226L162.898 89.3445C162.999 89.3334 163.094 89.2922 163.171 89.2262C163.249 89.1601 163.305 89.0723 163.333 88.9739L164.429 85.0479C162.467 85.3334 158.509 85.8667 155.072 86.0662C150.282 86.3441 149.981 88.0674 149.353 91.3158C148.708 94.649 143.988 110.991 142.564 121.516L142.793 124.268Z" fill="#1D1D1B"/>
<path d="M50.2 227.298V205.418L49.4 201.418L50.2 198.978H58.92C60.84 198.978 62.68 199.165 64.44 199.538C66.2267 199.885 67.8133 200.551 69.2 201.538C70.6133 202.525 71.72 203.938 72.52 205.778C73.3467 207.618 73.76 210.005 73.76 212.938C73.76 215.871 73.3467 218.285 72.52 220.178C71.6933 222.045 70.5733 223.498 69.16 224.538C67.7467 225.578 66.1467 226.298 64.36 226.698C62.6 227.098 60.7867 227.298 58.92 227.298H50.2ZM55.88 222.098H60.12C62.8933 222.098 64.8667 221.285 66.04 219.658C67.2133 218.005 67.8 215.765 67.8 212.938C67.8 210.111 67.2 207.951 66 206.458C64.8267 204.938 62.8667 204.178 60.12 204.178H55.88V222.098ZM87.6356 227.698C86.1423 227.698 84.6756 227.498 83.2356 227.098C81.8223 226.671 80.5423 225.925 79.3956 224.858C78.249 223.791 77.3423 222.311 76.6756 220.418C76.009 218.525 75.6756 216.098 75.6756 213.138C75.6756 210.178 76.009 207.751 76.6756 205.858C77.3423 203.965 78.249 202.485 79.3956 201.418C80.5423 200.351 81.8223 199.618 83.2356 199.218C84.6756 198.791 86.1423 198.578 87.6356 198.578C89.209 198.578 90.7023 198.791 92.1156 199.218C93.5556 199.645 94.8356 200.391 95.9556 201.458C97.0756 202.525 97.9556 204.005 98.5956 205.898C99.2623 207.791 99.5956 210.205 99.5956 213.138C99.5956 216.071 99.2623 218.485 98.5956 220.378C97.9556 222.271 97.0756 223.751 95.9556 224.818C94.8356 225.885 93.5556 226.631 92.1156 227.058C90.7023 227.485 89.209 227.698 87.6356 227.698ZM87.6356 222.098C89.3156 222.098 90.5823 221.751 91.4356 221.058C92.289 220.338 92.8623 219.311 93.1556 217.978C93.4756 216.618 93.6356 215.005 93.6356 213.138C93.6356 211.245 93.4756 209.631 93.1556 208.298C92.8623 206.965 92.289 205.951 91.4356 205.258C90.5823 204.538 89.3156 204.178 87.6356 204.178C85.9823 204.178 84.7156 204.538 83.8356 205.258C82.9823 205.978 82.409 207.005 82.1156 208.338C81.8223 209.671 81.6756 211.271 81.6756 213.138C81.6756 214.978 81.8223 216.578 82.1156 217.938C82.409 219.271 82.9823 220.298 83.8356 221.018C84.7156 221.738 85.9823 222.098 87.6356 222.098ZM114.977 227.698C113.404 227.698 111.818 227.471 110.218 227.018C108.644 226.565 107.191 225.805 105.857 224.738C104.551 223.645 103.497 222.165 102.697 220.298C101.897 218.405 101.497 216.018 101.497 213.138C101.497 210.231 102.057 207.698 103.177 205.538C104.324 203.351 105.884 201.645 107.857 200.418C109.831 199.191 112.071 198.578 114.578 198.578C115.777 198.578 116.924 198.685 118.017 198.898C119.137 199.111 119.991 199.351 120.578 199.618L125.018 203.658L122.218 207.858L115.378 204.338C113.884 204.338 112.537 204.698 111.338 205.418C110.137 206.138 109.177 207.165 108.457 208.498C107.764 209.805 107.417 211.351 107.417 213.138C107.417 215.191 107.777 216.885 108.497 218.218C109.244 219.551 110.257 220.551 111.537 221.218C112.818 221.858 114.244 222.178 115.817 222.178C117.417 222.178 118.791 222.045 119.937 221.778C121.084 221.485 122.044 221.165 122.818 220.818C123.591 220.445 124.178 220.125 124.578 219.858V225.298C123.831 225.805 122.684 226.338 121.138 226.898C119.617 227.431 117.564 227.698 114.977 227.698ZM135.496 227.698C133.443 227.698 131.696 227.431 130.256 226.898C128.816 226.338 127.736 225.751 127.016 225.138V219.618C127.95 220.151 129.19 220.711 130.736 221.298C132.31 221.885 134.043 222.178 135.936 222.178C137.163 222.178 138.07 221.938 138.656 221.458C139.27 220.978 139.576 220.325 139.576 219.498C139.576 218.751 139.336 218.138 138.856 217.658C138.376 217.178 137.656 216.738 136.696 216.338C135.736 215.938 134.51 215.471 133.016 214.938C130.883 214.165 129.23 213.165 128.056 211.938C126.883 210.711 126.296 209.058 126.296 206.978C126.296 205.511 126.616 204.138 127.256 202.858C127.923 201.578 128.95 200.551 130.336 199.778C131.75 198.978 133.55 198.578 135.736 198.578C136.59 198.578 137.43 198.618 138.256 198.698C139.11 198.751 139.83 198.831 140.416 198.938L144.936 202.258L142.936 206.338L135.616 203.738C134.656 203.738 133.856 203.978 133.216 204.458C132.603 204.911 132.296 205.565 132.296 206.418C132.296 207.485 132.736 208.298 133.616 208.858C134.523 209.418 135.79 209.965 137.416 210.498C140.51 211.511 142.683 212.738 143.936 214.178C145.19 215.591 145.816 217.258 145.816 219.178C145.816 220.725 145.496 222.151 144.856 223.458C144.216 224.738 143.136 225.765 141.616 226.538C140.123 227.311 138.083 227.698 135.496 227.698Z" fill="url(#paint5_linear)"/>
</g>
<defs>
<filter id="filter0_d" x="0" y="0" width="189.986" height="262.298" filterUnits="userSpaceOnUse" color-interpolation-filters="sRGB">
<feFlood flood-opacity="0" result="BackgroundImageFix"/>
<feColorMatrix in="SourceAlpha" type="matrix" values="0 0 0 0 0 0 0 0 0 0 0 0 0 0 0 0 0 0 127 0" result="hardAlpha"/>
<feOffset/>
<feGaussianBlur stdDeviation="10"/>
<feComposite in2="hardAlpha" operator="out"/>
<feColorMatrix type="matrix" values="0 0 0 0 0.054902 0 0 0 0 0.956863 0 0 0 0 0.933333 0 0 0 1 0"/>
<feBlend mode="normal" in2="BackgroundImageFix" result="effect1_dropShadow"/>
<feBlend mode="normal" in="SourceGraphic" in2="effect1_dropShadow" result="shape"/>
</filter>
<radialGradient id="paint0_radial" cx="0" cy="0" r="1" gradientUnits="userSpaceOnUse" gradientTransform="translate(94.5771 106.573) scale(85.0955 85.5961)">
<stop offset="0.32445" stop-color="white"/>
<stop offset="0.80091" stop-color="#A0B6BF" stop-opacity="0.9"/>
</radialGradient>
<radialGradient id="paint1_radial" cx="0" cy="0" r="1" gradientUnits="userSpaceOnUse" gradientTransform="translate(2500.41 12989) scale(3268.92 4854.5)">
<stop offset="0.32445" stop-color="white"/>
<stop offset="0.80091" stop-color="#A0B6BF" stop-opacity="0.9"/>
</radialGradient>
<radialGradient id="paint2_radial" cx="0" cy="0" r="1" gradientUnits="userSpaceOnUse" gradientTransform="translate(4477.33 3483.2) scale(555.098 524.057)">
<stop offset="0.32445" stop-color="white"/>
<stop offset="0.80091" stop-color="#A0B6BF" stop-opacity="0.9"/>
</radialGradient>
<radialGradient id="paint3_radial" cx="0" cy="0" r="1" gradientUnits="userSpaceOnUse" gradientTransform="translate(5657.88 3483.2) scale(562.77 526.567)">
<stop offset="0.32445" stop-color="white"/>
<stop offset="0.80091" stop-color="#A0B6BF" stop-opacity="0.9"/>
</radialGradient>
<radialGradient id="paint4_radial" cx="0" cy="0" r="1" gradientUnits="userSpaceOnUse" gradientTransform="translate(3630.26 12878.6) scale(765.487 2724.58)">
<stop offset="0.32445" stop-color="white"/>
<stop offset="0.80091" stop-color="#A0B6BF" stop-opacity="0.9"/>
</radialGradient>
<linearGradient id="paint5_linear" x1="137.5" y1="214" x2="53.5" y2="214" gradientUnits="userSpaceOnUse">
<stop stop-color="#D765BD"/>
<stop offset="0.270833" stop-color="#B77195"/>
<stop offset="0.5625" stop-color="#6CAECA"/>
<stop offset="1" stop-color="#CE6BBE"/>
</linearGradient>
</defs>
</svg>
