<svg width="150" height="223" viewBox="0 0 150 223" fill="none" xmlns="http://www.w3.org/2000/svg">
<path d="M78.4044 0.383003C104.881 -2.79814 116.552 14.5167 121.892 27.1486C127.898 41.3546 126.529 40.2439 127.818 41.6337C128.417 42.2786 133.337 46.2282 138.549 49.0462C144.719 52.3818 150.311 56.4874 149.971 60.6976C149.339 68.5525 137.214 67.2993 134.635 66.9287C132.736 66.6077 130.865 66.1365 129.04 65.5193C129.04 65.5193 129.224 69.6939 129.43 74.1104C129.636 78.5268 129.865 83.1849 129.05 89.5246C123.857 129.935 96.5302 150.165 62.4482 149.269C26.0842 148.314 12.3661 113.855 10.5867 106.189C8.80731 98.5242 2.30597 100.753 2.30597 100.753C1.90122 100.761 1.50141 100.663 1.14551 100.469C0.789615 100.275 0.489766 99.9912 0.27519 99.6459C-0.512019 98.436 0.639922 97.0726 0.639922 97.0726C0.639922 97.0726 7.06909 90.811 14.7546 95.0845C22.4402 99.3581 22.9453 110.976 35.7268 112.889C48.5083 114.801 49.89 98.0155 47.7714 87.0667C45.7765 76.7572 44.6848 76.4195 44.0431 76.3159C43.7432 76.2675 41.784 78.3253 37.2704 79.1571C32.7209 79.9955 30.5769 79.6225 28.9662 79.1571C27.4228 78.7111 24.5588 77.5841 23.4892 75.0152C21.7763 70.9014 24.8866 68.1526 26.0326 67.1603C27.1785 66.1681 35.5412 58.9467 36.6981 57.7138C37.8551 56.4808 40.6326 52.4281 40.6326 50.9456C40.6326 49.4631 42.0593 3.68777 78.4044 0.383003Z" fill="white"/>
<path d="M127.358 60.9996C116.734 61.5556 131.411 81.1985 115.181 114.776C105.769 134.248 86.4325 141.199 77.6167 143.37C64.9432 146.492 45.0954 147.861 28.428 130.121C11.7606 112.38 13.9969 101.058 8.99202 98.3707C4.99258 96.2235 1.51378 98.0213 0.275635 99.646C0.490214 99.9912 0.790066 100.275 1.14597 100.469C1.50187 100.663 1.90168 100.761 2.30643 100.753C2.30643 100.753 8.80778 98.5243 10.5872 106.189C12.3666 113.855 26.0846 148.314 62.4486 149.269C96.5307 150.165 123.858 129.935 129.051 89.5246C129.865 83.185 129.637 78.5268 129.431 74.1104C129.224 69.694 129.04 65.5193 129.04 65.5193C130.865 66.1365 132.736 66.6077 134.635 66.9287C137.214 67.2993 149.339 68.5524 149.972 60.6976C149.987 60.495 149.988 60.2917 149.976 60.0889C149.588 61.5247 148.851 64.8294 138.918 63.594C133.157 62.8774 131.705 60.7722 127.358 60.9996Z" fill="url(#paint0_radial)"/>
<path d="M23.4893 75.0152C24.5589 77.5841 27.4229 78.7111 28.9663 79.1571C30.5769 79.6225 32.721 79.9955 37.2705 79.1571C41.7841 78.3253 43.7433 76.2675 44.0432 76.3159C44.6849 76.4195 45.7897 78.3853 47.7715 87.0667C49.6752 95.4057 48.8822 109.459 40.2215 112.524C43.4847 111.858 46.3905 110.008 48.3853 107.326C54.6754 99.2002 53.4826 91.853 50.5349 80.1784C47.5873 68.5038 44.1791 71.8095 37.5469 74.5273C32.0595 76.7761 27.967 75.992 25.2958 73.5081C23.9482 72.2551 24.2365 69.6629 25.0797 68.0494C23.7649 69.4086 22.1477 71.7931 23.4893 75.0152Z" fill="url(#paint1_radial)"/>
<path d="M66.2038 28.094L66.2038 28.094C65.0243 28.183 64.1398 29.2169 64.2283 30.4033L64.4969 34.0068C64.5853 35.1932 65.6132 36.0828 66.7927 35.9939L66.7927 35.9939C67.9722 35.9049 68.8566 34.871 68.7682 33.6846L68.4995 30.0811C68.4111 28.8947 67.3832 28.0051 66.2038 28.094Z" fill="#1D1D1B"/>
<path d="M98.035 27.8156C97.9465 26.6292 96.9186 25.7395 95.7392 25.8284C94.5597 25.9174 93.6752 26.9513 93.7637 28.1377L94.0323 31.7412C94.1207 32.9276 95.1486 33.8173 96.3281 33.7283C97.5076 33.6394 98.392 32.6054 98.3036 31.419L98.035 27.8156Z" fill="#1D1D1B"/>
<path d="M78.4043 39.4256C78.5888 41.8999 80.5566 43.7687 82.7997 43.5995C85.0427 43.4303 86.7115 41.2873 86.5271 38.8129" stroke="#1D1D1B" stroke-width="0.984467" stroke-miterlimit="10" stroke-linecap="round"/>
<path d="M64.4932 52.2279L83.8187 61.845L74.7133 70.2864C74.636 70.358 74.5438 70.4112 74.4433 70.4421C74.3428 70.4729 74.2368 70.4806 74.1329 70.4646C74.0291 70.4486 73.9302 70.4093 73.8435 70.3496C73.7568 70.2899 73.6847 70.2114 73.6323 70.1198L64.4932 52.2279Z" fill="url(#paint2_radial)"/>
<path d="M102.684 52.2279L83.1843 61.845L92.2898 70.2864C92.367 70.358 92.4593 70.4112 92.5598 70.4421C92.6602 70.4729 92.7663 70.4806 92.8701 70.4646C92.974 70.4486 93.0729 70.4093 93.1595 70.3496C93.2462 70.2899 93.3184 70.2114 93.3708 70.1198L102.684 52.2279Z" fill="url(#paint3_radial)"/>
<path d="M87.0257 69.9446C86.9942 69.5428 86.8558 69.1569 86.625 68.8275L90.1142 66.1857L89.6905 60.4695L76.4351 60.904L76.2544 66.2058L79.6414 68.8993C79.44 69.2131 79.3191 69.5722 79.2896 69.9446L76.5442 102.798C76.5134 103.124 76.5538 103.453 76.6626 103.761C76.7714 104.07 76.9459 104.351 77.174 104.585L81.9446 109.286C82.1024 109.449 82.2911 109.578 82.4994 109.667C82.7077 109.755 82.9316 109.8 83.1576 109.8C83.3837 109.8 83.6076 109.755 83.8159 109.667C84.0242 109.578 84.2129 109.449 84.3708 109.286L89.1413 104.585C89.3694 104.351 89.5439 104.07 89.6527 103.761C89.7614 103.453 89.8018 103.124 89.771 102.798L87.0257 69.9446Z" fill="url(#paint4_radial)"/>
<path d="M77.0601 66.081L81.6429 69.799C82.1521 70.2286 82.7939 70.4667 83.4584 70.4727C84.1229 70.4787 84.7689 70.2522 85.2857 69.8319L90.167 66.0616L89.7663 60.5468L77.2308 60.966L77.0601 66.081Z" fill="#BD1622"/>
<path d="M89.247 103.108L84.7356 107.643C84.5879 107.8 84.41 107.925 84.2128 108.01C84.0155 108.096 83.8031 108.14 83.5884 108.14C83.3737 108.14 83.1612 108.096 82.964 108.01C82.7667 107.925 82.5888 107.8 82.4411 107.643L77.9298 103.108C77.7133 102.88 77.5481 102.609 77.4453 102.311C77.3426 102.014 77.3047 101.697 77.3342 101.384L79.9304 69.6881C80.0157 68.6466 80.7704 67.8511 81.6732 67.8511H85.5035C86.4063 67.8511 87.161 68.6466 87.2463 69.6881L89.8426 101.384C89.8721 101.697 89.8342 102.014 89.7314 102.311C89.6287 102.609 89.4634 102.88 89.247 103.108Z" fill="#BD1622"/>
<path d="M83.5884 60.0719L64.4932 52.2278L73.806 68.5126C73.8584 68.6042 73.9306 68.6828 74.0172 68.7425C74.1039 68.8022 74.2028 68.8415 74.3066 68.8575C74.4105 68.8735 74.5165 68.8658 74.617 68.8349C74.7175 68.8041 74.8097 68.7509 74.887 68.6793L83.5884 60.6124L92.2899 68.6793C92.3671 68.7509 92.4594 68.8041 92.5599 68.8349C92.6603 68.8658 92.7664 68.8735 92.8702 68.8575C92.9741 68.8415 93.073 68.8022 93.1597 68.7425C93.2463 68.6828 93.3185 68.6042 93.3709 68.5126L102.684 52.2278L83.5884 60.0719Z" fill="white" stroke="#D3E5EA" stroke-width="0.164078" stroke-miterlimit="10"/>
<path d="M40.746 49.2194L51.2515 68.4152C53.7598 72.9986 54.7233 78.2765 53.9973 83.4573L50.3359 111.171C50.3217 111.282 50.2686 111.385 50.1862 111.46C50.1038 111.536 49.9974 111.58 49.8859 111.584C48.6781 111.628 45.6967 111.116 43.0488 109.001C39.9368 106.516 38.8101 104.956 38.8981 104.483L43.6373 84.4581C43.7053 84.171 43.7028 83.8716 43.6301 83.5856C43.5575 83.2997 43.4168 83.0358 43.2202 82.8167C43.0236 82.5976 42.7769 82.4299 42.5016 82.3279C42.2262 82.226 41.9303 82.193 41.6394 82.2317L31.8075 81.1536C31.7065 81.1425 31.6111 81.1013 31.5336 81.0352C31.4561 80.9692 31.4 80.8813 31.3725 80.7829L27.382 66.4982C27.3407 66.3501 27.3425 66.1931 27.3871 66.0459C27.4318 65.8988 27.5174 65.7675 27.6338 65.6678C29.3334 64.213 36.0755 58.3632 37.522 55.8906C38.7267 53.7329 39.8033 51.5053 40.746 49.2194Z" fill="#2D2D2D"/>
<path d="M39.7325 77.1741C36.6577 77.1741 30.1419 76.3784 30.1418 76.3784L31.3723 80.783C31.3998 80.8814 31.4559 80.9692 31.5334 81.0353C31.6109 81.1013 31.7063 81.1425 31.8073 81.1536L41.6392 82.2316C41.9301 82.193 42.226 82.226 42.5014 82.3279C42.7767 82.4298 43.0234 82.5976 43.22 82.8167C43.4166 83.0358 43.5573 83.2997 43.6299 83.5856C43.7026 83.8716 43.705 84.171 43.6371 84.4581L39.8883 100.298C42.1971 94.8567 44.7478 88.9535 45.8258 86.1789C47.3917 82.1484 45.1212 77.1741 39.7325 77.1741Z" fill="#1D1D1B"/>
<path d="M43.8179 56.4267V69.6174C43.8179 69.9142 43.8999 70.2051 44.0547 70.4577C44.2096 70.7103 44.4311 70.9147 44.6947 71.048L49.2041 73.3289C49.2352 73.3447 49.2596 73.3714 49.2724 73.4041C49.2853 73.4367 49.2857 73.473 49.2737 73.506C49.2617 73.5389 49.2381 73.5663 49.2074 73.5829C49.1766 73.5995 49.1409 73.6042 49.1069 73.596L43.8752 72.333C43.3953 72.2172 42.9738 71.9293 42.6898 71.5233C42.4057 71.1173 42.2785 70.6211 42.332 70.1276L43.8179 56.4267Z" fill="#1D1D1B"/>
<path d="M49.3044 73.4385L48.3989 79.3432C48.3325 80.0483 48.3282 80.7578 48.386 81.4637C48.386 81.4637 51.9376 99.8747 51.3389 99.8747C50.7401 99.8747 47.2647 81.6578 47.2647 81.6578C47.1572 80.8305 47.2248 79.9898 47.4631 79.1907L48.9167 73.3533C48.9521 73.2279 49.3241 73.3097 49.3044 73.4385Z" fill="#1D1D1B"/>
<path d="M127.01 40.4859C127.01 40.4859 118.491 59.0244 121.505 77.3339L122.793 104.268C122.802 104.317 122.822 104.363 122.85 104.403C122.879 104.444 122.917 104.477 122.96 104.502C123.003 104.526 123.051 104.54 123.1 104.543C123.15 104.547 123.199 104.539 123.245 104.52C124.139 104.159 129.459 100.971 131.81 99.3851C134.402 97.6368 136.35 95.0689 136.262 94.5962L131.068 72.6491C131 72.3619 131.002 72.0625 131.075 71.7766C131.148 71.4906 131.288 71.2267 131.485 71.0076C131.682 70.7885 131.928 70.6208 132.204 70.5189C132.479 70.417 132.775 70.3839 133.066 70.4226L142.898 69.3445C142.999 69.3334 143.094 69.2922 143.172 69.2262C143.249 69.1601 143.305 69.0723 143.333 68.9739L147.323 54.6892C147.364 54.541 147.363 54.3841 147.318 54.2369C147.273 54.0897 147.188 53.9585 147.071 53.8587C145.372 52.404 136.454 47.7513 133.913 45.7129C132.034 44.2058 128.549 41.2649 127.449 40.3344C127.413 40.3043 127.37 40.2839 127.324 40.2753C127.278 40.2668 127.231 40.2703 127.187 40.2855C127.143 40.3007 127.103 40.3272 127.072 40.3623C127.041 40.3974 127.019 40.44 127.01 40.4859Z" fill="#2D2D2D"/>
<path d="M128.827 42.3393V54.3916C128.821 54.6712 128.736 54.9432 128.58 55.175C128.425 55.4068 128.206 55.5886 127.95 55.6988L123.441 57.7828C123.41 57.7968 123.386 57.8221 123.374 57.8535C123.361 57.885 123.361 57.9201 123.374 57.9515C123.386 57.983 123.41 58.0084 123.441 58.0224C123.472 58.0364 123.506 58.038 123.538 58.0268L128.77 56.8729C129.231 56.7914 129.645 56.5394 129.93 56.1666C130.216 55.7937 130.352 55.3268 130.313 54.8578L128.827 42.3393Z" fill="#1D1D1B"/>
<path d="M124.667 57.5586L125.635 63.0792C125.709 63.7387 125.721 64.4037 125.671 65.0654C125.671 65.0654 122.316 82.3523 122.915 82.3453C123.514 82.3384 126.794 65.2342 126.794 65.2342C126.893 64.4575 126.816 63.6683 126.569 62.9255L125.054 57.4743C125.017 57.3573 124.646 57.4382 124.667 57.5586Z" fill="#1D1D1B"/>
<path d="M122.793 104.268C122.802 104.317 122.821 104.363 122.85 104.403C122.879 104.444 122.916 104.477 122.96 104.502C123.003 104.526 123.051 104.54 123.1 104.543C123.15 104.547 123.199 104.539 123.245 104.52C124.138 104.159 129.459 100.971 131.81 99.3851C134.402 97.6368 136.35 95.0688 136.262 94.5962L131.068 72.6491C131 72.362 131.002 72.0625 131.075 71.7766C131.148 71.4906 131.288 71.2267 131.485 71.0076C131.681 70.7885 131.928 70.6208 132.203 70.5189C132.479 70.4169 132.775 70.3839 133.066 70.4226L142.898 69.3445C142.999 69.3334 143.094 69.2922 143.171 69.2262C143.249 69.1601 143.305 69.0723 143.333 68.9739L144.429 65.0479C142.467 65.3334 138.509 65.8667 135.072 66.0662C130.282 66.3441 129.981 68.0674 129.353 71.3158C128.708 74.649 123.988 90.9911 122.564 101.516L122.793 104.268Z" fill="#1D1D1B"/>
<path d="M30.2 207.298V185.418L29.4 181.418L30.2 178.978H38.92C40.84 178.978 42.68 179.165 44.44 179.538C46.2267 179.885 47.8133 180.551 49.2 181.538C50.6133 182.525 51.72 183.938 52.52 185.778C53.3467 187.618 53.76 190.005 53.76 192.938C53.76 195.871 53.3467 198.285 52.52 200.178C51.6933 202.045 50.5733 203.498 49.16 204.538C47.7467 205.578 46.1467 206.298 44.36 206.698C42.6 207.098 40.7867 207.298 38.92 207.298H30.2ZM35.88 202.098H40.12C42.8933 202.098 44.8667 201.285 46.04 199.658C47.2133 198.005 47.8 195.765 47.8 192.938C47.8 190.111 47.2 187.951 46 186.458C44.8267 184.938 42.8667 184.178 40.12 184.178H35.88V202.098ZM67.6356 207.698C66.1423 207.698 64.6756 207.498 63.2356 207.098C61.8223 206.671 60.5423 205.925 59.3956 204.858C58.249 203.791 57.3423 202.311 56.6756 200.418C56.009 198.525 55.6756 196.098 55.6756 193.138C55.6756 190.178 56.009 187.751 56.6756 185.858C57.3423 183.965 58.249 182.485 59.3956 181.418C60.5423 180.351 61.8223 179.618 63.2356 179.218C64.6756 178.791 66.1423 178.578 67.6356 178.578C69.209 178.578 70.7023 178.791 72.1156 179.218C73.5556 179.645 74.8356 180.391 75.9556 181.458C77.0756 182.525 77.9556 184.005 78.5956 185.898C79.2623 187.791 79.5956 190.205 79.5956 193.138C79.5956 196.071 79.2623 198.485 78.5956 200.378C77.9556 202.271 77.0756 203.751 75.9556 204.818C74.8356 205.885 73.5556 206.631 72.1156 207.058C70.7023 207.485 69.209 207.698 67.6356 207.698ZM67.6356 202.098C69.3156 202.098 70.5823 201.751 71.4356 201.058C72.289 200.338 72.8623 199.311 73.1556 197.978C73.4756 196.618 73.6356 195.005 73.6356 193.138C73.6356 191.245 73.4756 189.631 73.1556 188.298C72.8623 186.965 72.289 185.951 71.4356 185.258C70.5823 184.538 69.3156 184.178 67.6356 184.178C65.9823 184.178 64.7156 184.538 63.8356 185.258C62.9823 185.978 62.409 187.005 62.1156 188.338C61.8223 189.671 61.6756 191.271 61.6756 193.138C61.6756 194.978 61.8223 196.578 62.1156 197.938C62.409 199.271 62.9823 200.298 63.8356 201.018C64.7156 201.738 65.9823 202.098 67.6356 202.098ZM94.9775 207.698C93.4042 207.698 91.8175 207.471 90.2175 207.018C88.6442 206.565 87.1908 205.805 85.8575 204.738C84.5508 203.645 83.4975 202.165 82.6975 200.298C81.8975 198.405 81.4975 196.018 81.4975 193.138C81.4975 190.231 82.0575 187.698 83.1775 185.538C84.3242 183.351 85.8842 181.645 87.8575 180.418C89.8308 179.191 92.0708 178.578 94.5775 178.578C95.7775 178.578 96.9242 178.685 98.0175 178.898C99.1375 179.111 99.9908 179.351 100.578 179.618L105.018 183.658L102.218 187.858L95.3775 184.338C93.8842 184.338 92.5375 184.698 91.3375 185.418C90.1375 186.138 89.1775 187.165 88.4575 188.498C87.7642 189.805 87.4175 191.351 87.4175 193.138C87.4175 195.191 87.7775 196.885 88.4975 198.218C89.2442 199.551 90.2575 200.551 91.5375 201.218C92.8175 201.858 94.2442 202.178 95.8175 202.178C97.4175 202.178 98.7908 202.045 99.9375 201.778C101.084 201.485 102.044 201.165 102.818 200.818C103.591 200.445 104.178 200.125 104.578 199.858V205.298C103.831 205.805 102.684 206.338 101.138 206.898C99.6175 207.431 97.5642 207.698 94.9775 207.698ZM115.496 207.698C113.443 207.698 111.696 207.431 110.256 206.898C108.816 206.338 107.736 205.751 107.016 205.138V199.618C107.95 200.151 109.19 200.711 110.736 201.298C112.31 201.885 114.043 202.178 115.936 202.178C117.163 202.178 118.07 201.938 118.656 201.458C119.27 200.978 119.576 200.325 119.576 199.498C119.576 198.751 119.336 198.138 118.856 197.658C118.376 197.178 117.656 196.738 116.696 196.338C115.736 195.938 114.51 195.471 113.016 194.938C110.883 194.165 109.23 193.165 108.056 191.938C106.883 190.711 106.296 189.058 106.296 186.978C106.296 185.511 106.616 184.138 107.256 182.858C107.923 181.578 108.95 180.551 110.336 179.778C111.75 178.978 113.55 178.578 115.736 178.578C116.59 178.578 117.43 178.618 118.256 178.698C119.11 178.751 119.83 178.831 120.416 178.938L124.936 182.258L122.936 186.338L115.616 183.738C114.656 183.738 113.856 183.978 113.216 184.458C112.603 184.911 112.296 185.565 112.296 186.418C112.296 187.485 112.736 188.298 113.616 188.858C114.523 189.418 115.79 189.965 117.416 190.498C120.51 191.511 122.683 192.738 123.936 194.178C125.19 195.591 125.816 197.258 125.816 199.178C125.816 200.725 125.496 202.151 124.856 203.458C124.216 204.738 123.136 205.765 121.616 206.538C120.123 207.311 118.083 207.698 115.496 207.698Z" fill="white"/>
<defs>
<radialGradient id="paint0_radial" cx="0" cy="0" r="1" gradientUnits="userSpaceOnUse" gradientTransform="translate(74.5769 86.5725) scale(85.0955 85.5961)">
<stop offset="0.32445" stop-color="white"/>
<stop offset="0.80091" stop-color="#A0B6BF" stop-opacity="0.9"/>
</radialGradient>
<radialGradient id="paint1_radial" cx="0" cy="0" r="1" gradientUnits="userSpaceOnUse" gradientTransform="translate(2480.41 12969) scale(3268.92 4854.5)">
<stop offset="0.32445" stop-color="white"/>
<stop offset="0.80091" stop-color="#A0B6BF" stop-opacity="0.9"/>
</radialGradient>
<radialGradient id="paint2_radial" cx="0" cy="0" r="1" gradientUnits="userSpaceOnUse" gradientTransform="translate(4457.33 3463.2) scale(555.098 524.057)">
<stop offset="0.32445" stop-color="white"/>
<stop offset="0.80091" stop-color="#A0B6BF" stop-opacity="0.9"/>
</radialGradient>
<radialGradient id="paint3_radial" cx="0" cy="0" r="1" gradientUnits="userSpaceOnUse" gradientTransform="translate(5637.88 3463.2) scale(562.77 526.567)">
<stop offset="0.32445" stop-color="white"/>
<stop offset="0.80091" stop-color="#A0B6BF" stop-opacity="0.9"/>
</radialGradient>
<radialGradient id="paint4_radial" cx="0" cy="0" r="1" gradientUnits="userSpaceOnUse" gradientTransform="translate(3610.26 12858.6) scale(765.487 2724.58)">
<stop offset="0.32445" stop-color="white"/>
<stop offset="0.80091" stop-color="#A0B6BF" stop-opacity="0.9"/>
</radialGradient>
</defs>
</svg>
