 <svg width="178" height="266" viewBox="0 0 178 266" fill="none" xmlns="http://www.w3.org/2000/svg">
<g filter="url(#filter0_d)">
<path d="M27.2 245V223.16L26.4 219.08L27.2 216.68H45.4L47.4 217.88L45.56 222.28L41.96 221.88H32.4L32.8 228.08H43.56V233.08H40.32L32.8 232.68V238.64L33.24 242.64L32.8 245H27.2ZM42.5266 245L44.8466 237.44V233.56L47.4066 232.36L52.6066 216.72H60.4866L66.9266 234.64L70.0066 240.32V245H64.5266L62.1266 237.8H50.4866L48.3666 245H42.5266ZM52.7266 232.84H60.3266L56.8866 222H56.0466L52.7266 232.84ZM72.0078 245V223.12L71.2078 219.08L72.0078 216.68H81.6078C83.5545 216.68 85.3011 216.987 86.8478 217.6C88.4211 218.187 89.6611 219.2 90.5678 220.64C91.5011 222.053 91.9678 224.013 91.9678 226.52C91.9678 228.893 91.5145 230.787 90.6078 232.2C89.7278 233.613 88.5011 234.667 86.9278 235.36L88.0878 236.4L91.6478 240.56L93.9278 242.6V245H86.5278L80.9278 236.48H77.6078V238.56L78.0078 242.56L77.6078 245H72.0078ZM77.6078 231.4H81.5278C83.2878 231.4 84.4878 230.947 85.1278 230.04C85.7678 229.107 86.0878 227.933 86.0878 226.52C86.0878 225.027 85.7411 223.88 85.0478 223.08C84.3811 222.28 83.1545 221.88 81.3678 221.88H77.2078L77.6078 231.4ZM95.9156 245V223.12L95.1156 219.12L95.9556 216.72H101.996L110.636 233.52H111.436L118.716 216.72H125.076L125.476 219.12L125.076 222.96V245H119.436L119.556 241.6V227.24H119.116L117.756 230.56L113.116 241H108.316L101.916 227.24H101.516V230.48L101.916 245H95.9156ZM136.912 245.4C134.859 245.4 133.112 245.133 131.672 244.6C130.232 244.04 129.152 243.453 128.432 242.84V237.32C129.365 237.853 130.605 238.413 132.152 239C133.725 239.587 135.459 239.88 137.352 239.88C138.579 239.88 139.485 239.64 140.072 239.16C140.685 238.68 140.992 238.027 140.992 237.2C140.992 236.453 140.752 235.84 140.272 235.36C139.792 234.88 139.072 234.44 138.112 234.04C137.152 233.64 135.925 233.173 134.432 232.64C132.299 231.867 130.645 230.867 129.472 229.64C128.299 228.413 127.712 226.76 127.712 224.68C127.712 223.213 128.032 221.84 128.672 220.56C129.339 219.28 130.365 218.253 131.752 217.48C133.165 216.68 134.965 216.28 137.152 216.28C138.005 216.28 138.845 216.32 139.672 216.4C140.525 216.453 141.245 216.533 141.832 216.64L146.352 219.96L144.352 224.04L137.032 221.44C136.072 221.44 135.272 221.68 134.632 222.16C134.019 222.613 133.712 223.267 133.712 224.12C133.712 225.187 134.152 226 135.032 226.56C135.939 227.12 137.205 227.667 138.832 228.2C141.925 229.213 144.099 230.44 145.352 231.88C146.605 233.293 147.232 234.96 147.232 236.88C147.232 238.427 146.912 239.853 146.272 241.16C145.632 242.44 144.552 243.467 143.032 244.24C141.539 245.013 139.499 245.4 136.912 245.4Z" fill="url(#paint0_linear)"/>
<path fill-rule="evenodd" clip-rule="evenodd" d="M84.2481 24.653C87.7416 24.6115 97.0915 19.5799 102.117 21.3246C111.398 24.5461 117.801 36.0942 119.757 51.9783C120.165 55.3198 120.36 58.6839 120.339 62.0501L49.8545 56.0137C50.4568 52.7394 51.2629 49.5059 52.268 46.332C56.7989 32.0649 67.7813 22.334 74.5665 20.2073C78.9335 18.8385 80.3475 24.6993 84.2481 24.653Z" fill="#E5B585"/>
<path fill-rule="evenodd" clip-rule="evenodd" d="M119.757 51.9783C119.68 51.3512 119.594 50.7323 119.503 50.1191C119.481 49.9686 119.457 49.8195 119.434 49.6699C119.358 49.1788 119.277 48.6922 119.193 48.2099C119.171 48.0843 119.15 47.9584 119.127 47.8335C119.021 47.2487 118.909 46.6703 118.792 46.0985C118.79 46.0868 118.788 46.0749 118.785 46.0633C118.674 45.5293 118.556 45.0034 118.434 44.4813C118.336 44.0603 118.234 43.6436 118.129 43.2311L118.127 43.2234C117.616 41.2208 116.989 39.2497 116.248 37.3201C108.338 34.4975 98.3129 32.3998 87.4522 31.5295C77.1178 30.7014 67.4042 31.0959 59.4453 32.4451C56.2937 36.6404 53.8676 41.3344 52.268 46.332C51.2629 49.5058 50.4568 52.7394 49.8545 56.0137L120.339 62.0501C120.36 58.6839 120.165 55.3198 119.757 51.9783Z" fill="#422A2F"/>
<path fill-rule="evenodd" clip-rule="evenodd" d="M80.6807 39.0699C114.935 42.2698 145.144 34.6006 146.937 40.5374L146.916 46.0672L143.291 48.9508L29.1651 37.0773L26.9441 36.8699L27.3693 32.3179C28.3461 25.2829 46.4271 35.8701 80.6807 39.0699Z" fill="#E5B585"/>
<path fill-rule="evenodd" clip-rule="evenodd" d="M79.5515 41.8276C113.806 45.0275 147.8 35.8095 146.916 45.2669C146.033 54.7248 118.075 77.9473 83.821 74.7474C49.5675 71.5476 26.0605 45.5275 26.944 36.0695C27.8275 26.6121 45.298 38.6278 79.5515 41.8276Z" fill="#B7895C"/>
<path d="M84.9766 44.9082C60.2037 41.9491 48.9469 60.0762 43.9506 71.8262C38.3315 85.0404 39.6125 84.0072 38.4059 85.3C37.846 85.8999 37.2629 107.518 37.2629 107.518C37.2629 107.518 37.0906 111.401 36.8976 115.509C36.7046 119.617 36.4908 131.489 37.2531 137.386C42.1119 174.975 67.6807 193.793 99.5699 192.959C133.594 192.071 146.43 160.017 148.094 152.887C149.759 145.757 155.842 147.83 155.842 147.83C156.221 147.837 156.595 147.746 156.928 147.566C157.261 147.385 157.542 147.122 157.743 146.8C158.479 145.675 157.401 144.407 157.401 144.407C157.401 144.407 151.386 138.582 144.195 142.557C137.004 146.533 133.479 160.861 121.52 162.64C109.561 164.418 111.32 137.746 113.302 127.561C115.169 117.971 122.532 115.311 122.532 94.7242C122.532 79.0382 115.982 48.3557 84.9766 44.9082Z" fill="white"/>
<path d="M84.909 78.3698C84.379 78.33 83.8866 78.0814 83.5399 77.6785C83.1933 77.2757 83.0208 76.7516 83.0606 76.2217L83.3119 72.8698C83.3316 72.6074 83.4028 72.3514 83.5214 72.1165C83.64 71.8816 83.8037 71.6724 84.0032 71.5007C84.2026 71.3291 84.4339 71.1984 84.6839 71.1162C84.9339 71.0339 85.1976 71.0017 85.46 71.0214C85.7224 71.0411 85.9784 71.1123 86.2133 71.2309C86.4482 71.3495 86.6575 71.5132 86.8291 71.7126C87.0007 71.9121 87.1314 72.1434 87.2136 72.3934C87.2959 72.6433 87.3281 72.9071 87.3084 73.1695L87.0571 76.5214C87.0173 77.0513 86.7687 77.5438 86.3659 77.8904C85.963 78.2371 85.439 78.4095 84.909 78.3698Z" fill="#1D1D1B"/>
<path d="M55.4256 74.1143C55.3428 75.2179 56.1704 76.1796 57.274 76.2624C58.3776 76.3451 59.3393 75.5176 59.4221 74.414L59.6734 71.0621C59.7561 69.9585 58.9286 68.9968 57.825 68.914C56.7214 68.8313 55.7597 69.6588 55.6769 70.7624L55.4256 74.1143Z" fill="#1D1D1B"/>
<path d="M74.0443 81.562C73.8718 83.8636 72.0305 85.6018 69.9318 85.4445C67.833 85.2871 66.2716 83.2937 66.4442 80.9921" stroke="#1D1D1B" stroke-width="0.915738" stroke-miterlimit="10" stroke-linecap="round"/>
<path d="M37.4737 75.131C36.6802 78.7437 36.4143 81.6588 34.2687 81.1875C32.1231 80.7162 31.027 77.4055 31.8206 73.7928C32.6141 70.1801 34.9967 67.6335 37.1423 68.1047C39.2879 68.576 38.2673 71.5183 37.4737 75.131Z" fill="white"/>
<path d="M40.6245 84.7266C40.6245 84.7266 38.5537 87.1094 37.3179 84.4393C36.0821 81.7692 36.697 77.7502 36.697 77.7502L32.4655 80.015L29.3628 93.1155C29.3628 93.1155 30.397 97.827 32.4655 100.757C33.7649 102.563 35.4153 104.087 37.3179 105.239L40.6245 84.7266Z" fill="white"/>
<path d="M154.441 146.283C152.458 145.486 149.119 145.658 147.58 148.063C143.171 154.954 133.737 190.441 88.8596 186.424C30.8031 181.229 39.8252 104.482 39.8252 104.482C39.7672 104.002 39.5938 103.544 39.3198 103.147C39.0459 102.749 38.6795 102.424 38.2522 102.199L37.4121 101.757C37.4102 101.815 34.5037 99.9119 32.9822 97.8859C31.2835 95.624 30.2411 92.3029 29.8536 90.9044L29.3364 93.0882C29.3364 93.0882 30.3707 97.7997 32.4392 100.73C33.7385 102.535 35.389 104.06 37.2916 105.212L37.3052 105.127C37.2613 106.578 37.2367 107.491 37.2367 107.491C37.2367 107.491 37.0643 111.374 36.8713 115.482C36.8001 116.998 36.7262 119.573 36.6994 122.514C36.6814 126.167 36.7363 130.87 36.9469 134.348C37.0206 135.454 37.1126 136.474 37.2268 137.358C37.3052 137.965 37.3891 138.566 37.4786 139.163C42.6639 172.476 64.1061 190.57 91.7964 192.735C91.9278 192.746 92.0581 192.758 92.1897 192.768C92.2827 192.775 92.3767 192.779 92.4698 192.785C93.8229 192.878 95.1895 192.934 96.5697 192.953C96.9737 192.958 97.3796 192.958 97.7858 192.956C97.8716 192.956 97.9568 192.957 98.0427 192.957C98.5375 192.953 99.0339 192.945 99.5319 192.932C133.556 192.043 146.392 159.99 148.057 152.86C149.099 148.397 151.871 147.54 153.8 147.523C154.482 147.513 155.162 147.607 155.816 147.803C155.816 147.803 155.828 147.804 155.846 147.804C156.206 147.804 156.561 147.714 156.878 147.542C156.104 147.052 155.288 146.63 154.441 146.283Z" fill="url(#paint1_radial)"/>
<path d="M154.441 146.283C152.458 145.486 149.119 145.658 147.58 148.063C143.171 154.954 133.737 190.441 88.8596 186.424C30.8031 181.229 39.8252 104.482 39.8252 104.482C39.7672 104.002 39.5938 103.544 39.3198 103.147C39.0459 102.749 38.6795 102.424 38.2522 102.199L37.4121 101.757C37.4102 101.815 34.5037 99.9119 32.9822 97.8859C31.2835 95.624 30.2411 92.3029 29.8536 90.9044L29.3364 93.0882C29.3364 93.0882 30.3707 97.7997 32.4392 100.73C33.7385 102.535 35.389 104.06 37.2916 105.212L37.3052 105.127C37.2613 106.578 37.2367 107.491 37.2367 107.491C37.2367 107.491 37.0643 111.374 36.8713 115.482C36.8001 116.998 36.7262 119.573 36.6994 122.514C36.6814 126.167 36.7363 130.87 36.9469 134.348C37.0206 135.454 37.1126 136.474 37.2268 137.358C37.3052 137.965 37.3891 138.566 37.4786 139.163C42.6639 172.476 64.1061 190.57 91.7964 192.735C91.9278 192.746 92.0581 192.758 92.1897 192.768C92.2827 192.775 92.3767 192.779 92.4698 192.785C93.8229 192.878 95.1895 192.934 96.5697 192.953C96.9737 192.958 97.3796 192.958 97.7858 192.956C97.8716 192.956 97.9568 192.957 98.0427 192.957C98.5375 192.953 99.0339 192.945 99.5319 192.932C133.556 192.043 146.392 159.99 148.057 152.86C149.099 148.397 151.871 147.54 153.8 147.523C154.482 147.513 155.162 147.607 155.816 147.803C155.816 147.803 155.828 147.804 155.846 147.804C156.206 147.804 156.561 147.714 156.878 147.542C156.104 147.052 155.288 146.63 154.441 146.283Z" fill="url(#paint2_linear)"/>
<path d="M28.2895 94.7202C32.8676 94.7202 36.579 90.1386 36.579 84.487C36.579 78.8353 32.8676 74.2538 28.2895 74.2538C23.7113 74.2538 20 78.8353 20 84.487C20 90.1386 23.7113 94.7202 28.2895 94.7202Z" fill="white"/>
<path d="M34.6804 77.9697C35.6001 79.7121 36.0747 81.6549 36.0618 83.6251C36.0618 89.2768 32.3505 93.8583 27.7723 93.8583C25.2002 93.8583 22.9018 92.412 21.3813 90.1423C22.8662 92.901 25.4053 94.7202 28.2894 94.7202C32.8676 94.7202 36.5789 90.1386 36.5789 84.487C36.6022 82.1749 35.9417 79.9076 34.6804 77.9697Z" fill="url(#paint3_radial)"/>
<path d="M113.302 127.561C113.671 125.62 114.308 123.74 115.195 121.974C115.401 121.528 118.574 115.358 118.574 115.358C118.574 115.358 116.183 119.706 110.617 118.943C105.273 118.21 87.8795 106.054 87.5403 105.411C91.4056 104.087 93.1197 100.474 92.5892 95.8089C91.9856 90.5008 87.6269 86.6376 82.8537 87.1802C78.0805 87.723 73.9582 90.1641 75.3038 97.7742C76.2342 103.036 80.2661 106.946 85.0393 106.403C85.0883 106.397 85.1362 106.389 85.1849 106.382C85.6936 107.799 88.2298 115.435 93.8065 121.184C100.643 128.231 105.18 128.411 106.933 129.524C106.04 134.423 105.851 139.424 106.37 144.377C107.622 157.727 114.668 161.656 118.706 162.484C109.87 159.902 111.626 136.885 113.302 127.561Z" fill="url(#paint4_radial)"/>
<path d="M113.302 127.561C113.671 125.62 114.308 123.74 115.195 121.974C115.401 121.528 118.574 115.358 118.574 115.358C118.574 115.358 116.183 119.706 110.617 118.943C105.273 118.21 87.8795 106.054 87.5403 105.411C91.4056 104.087 93.1197 100.474 92.5892 95.8089C91.9856 90.5008 87.6269 86.6376 82.8537 87.1802C78.0805 87.723 73.9582 90.1641 75.3038 97.7742C76.2342 103.036 80.2661 106.946 85.0393 106.403C85.0883 106.397 85.1362 106.389 85.1849 106.382C85.6936 107.799 88.2298 115.435 93.8065 121.184C100.643 128.231 105.18 128.411 106.933 129.524C106.04 134.423 105.851 139.424 106.37 144.377C107.622 157.727 114.668 161.656 118.706 162.484C109.87 159.902 111.626 136.885 113.302 127.561Z" fill="url(#paint5_radial)"/>
<path d="M91.9635 83.2075C91.17 86.8202 90.904 89.7352 88.7584 89.2639C86.6128 88.7926 85.5168 85.4819 86.3103 81.8692C87.1039 78.2565 89.4865 75.7099 91.6321 76.1812C93.7777 76.6525 92.757 79.5948 91.9635 83.2075Z" fill="white"/>
<path d="M118.051 95.5861C118.051 95.5861 93.9627 94.8135 92.7268 92.1434C91.491 89.4733 92.1059 85.4543 92.1059 85.4543L87.8745 87.7191L84.7717 100.82C84.7717 100.82 85.797 107.19 93.3149 113.599C109.087 127.044 116.793 117.35 116.793 117.35L118.051 95.5861Z" fill="white"/>
<path d="M82.7792 102.797C87.3574 102.797 91.0687 98.215 91.0687 92.5633C91.0687 86.9117 87.3574 82.3301 82.7792 82.3301C78.2011 82.3301 74.4897 86.9117 74.4897 92.5633C74.4897 98.215 78.2011 102.797 82.7792 102.797Z" fill="white"/>
<path d="M76.4682 99.1988C76.1084 98.7892 75.8108 98.329 75.585 97.8328C75.3518 97.3394 75.1583 96.8281 75.0064 96.3039C74.6996 95.255 74.4969 94.1784 74.4011 93.0898C74.3567 92.5456 74.3173 92.0023 74.3167 91.4504C74.3207 90.8994 74.3622 90.3494 74.4409 89.8041C74.6 88.708 74.9204 87.6415 75.3915 86.6391C76.3217 84.5813 77.9853 82.944 80.0577 82.0468C81.1063 81.6163 82.2408 81.4364 83.3711 81.5213C84.5021 81.6164 85.5958 81.9713 86.5672 82.5583L86.109 82.779C86.2338 81.8048 86.4877 80.8516 86.8639 79.9444C87.2331 79.0264 87.7535 78.1767 88.4034 77.4307C88.7358 77.0531 89.117 76.7214 89.5369 76.4444C89.9688 76.157 90.4577 75.9666 90.9702 75.8862C91.5037 75.8015 92.0504 75.8901 92.5298 76.1392C92.7795 76.2791 92.9866 76.4842 93.1291 76.7325C93.2614 76.9694 93.3488 77.2287 93.3869 77.4974C93.4462 77.9959 93.4354 78.5003 93.3551 78.9959C93.2878 79.48 93.1907 79.9533 93.0859 80.4225C92.8733 81.3598 92.63 82.2823 92.4139 83.2095C92.1962 84.1401 91.971 85.068 91.7709 85.9972C91.5822 86.923 91.3817 87.87 91.4916 88.7993L91.4897 88.7908C91.678 89.4604 91.9711 90.096 92.3582 90.6739C92.7309 91.2677 93.2244 91.7766 93.8066 92.1674C93.2026 91.7996 92.6826 91.3091 92.2803 90.7275C91.8654 90.151 91.5448 89.5121 91.3305 88.8349L91.3295 88.8317L91.3286 88.8263C91.2555 88.3451 91.2444 87.8566 91.2955 87.3727C91.337 86.8917 91.4083 86.4157 91.4887 85.9428C91.6526 84.997 91.8636 84.0652 92.0536 83.1302C92.247 82.192 92.4669 81.2613 92.6528 80.3308C92.7443 79.8658 92.827 79.4003 92.8792 78.9369C92.9408 78.4869 92.9404 78.0305 92.8782 77.5806C92.8612 77.3806 92.7972 77.1875 92.6916 77.0169C92.586 76.8463 92.4416 76.703 92.2703 76.5986C91.8914 76.4123 91.4635 76.35 91.0472 76.4206C90.1898 76.5514 89.4222 77.1248 88.8253 77.8055C88.2246 78.5084 87.7458 79.3068 87.4086 80.1677C87.0615 81.0308 86.8273 81.9352 86.7118 82.8582L86.6538 83.3226L86.2535 83.079C85.3672 82.5255 84.3624 82.1899 83.3214 82.0997C82.2804 82.0094 81.2328 82.1671 80.2645 82.5597C79.2897 82.9553 78.4041 83.5424 77.6602 84.2863C76.9125 85.036 76.2876 85.8989 75.8084 86.8431C75.3311 87.7958 74.9972 88.8138 74.8176 89.864C74.7279 90.3905 74.6741 90.9224 74.6566 91.4562C74.6416 91.9891 74.6728 92.5292 74.6947 93.0671C74.7445 94.1445 74.9004 95.2144 75.16 96.2613C75.289 96.7851 75.4587 97.2981 75.6676 97.7955C75.8641 98.3 76.1339 98.7729 76.4682 99.1988Z" fill="url(#paint6_radial)"/>
<g style="mix-blend-mode:multiply">
<path d="M116.116 66.6271C110.899 56.3242 101.827 47.3373 86.5879 45.1172C86.1703 45.0604 85.7513 45.0049 85.3243 44.9574C83.1187 44.6888 80.8974 44.5704 78.6758 44.6028C78.6371 44.6038 78.5978 44.6041 78.5592 44.6052C78.399 44.6083 78.2433 44.6174 78.0844 44.6223C64.4311 45.1799 55.6229 52.6963 49.9717 60.7842L116.116 66.6271Z" fill="#BDCCD4"/>
</g>
<path fill-rule="evenodd" clip-rule="evenodd" d="M116.553 63.6313C116.553 63.6313 115.326 53.1739 80.8426 50.6745C57.0817 48.9522 52.5112 56.1103 52.5112 56.1103C53.044 48.8364 65.1444 41.8121 72.4738 41.8277L96.4338 44.1642C103.652 45.2141 118.292 50.8414 117.759 58.1153L116.553 63.6313Z" fill="#B7895C"/>
</g>
<defs>
<filter id="filter0_d" x="0" y="0" width="178" height="280" filterUnits="userSpaceOnUse" color-interpolation-filters="sRGB">
<feFlood flood-opacity="0" result="BackgroundImageFix"/>
<feColorMatrix in="SourceAlpha" type="matrix" values="0 0 0 0 0 0 0 0 0 0 0 0 0 0 0 0 0 0 127 0" result="hardAlpha"/>
<feOffset/>
<feGaussianBlur stdDeviation="10"/>
<feComposite in2="hardAlpha" operator="out"/>
<feColorMatrix type="matrix" values="0 0 0 0 0.054902 0 0 0 0 0.956863 0 0 0 0 0.933333 0 0 0 1 0"/>
<feBlend mode="normal" in2="BackgroundImageFix" result="effect1_dropShadow"/>
<feBlend mode="normal" in="SourceGraphic" in2="effect1_dropShadow" result="shape"/>
</filter>
<linearGradient id="paint0_linear" x1="29" y1="235" x2="149.5" y2="232.5" gradientUnits="userSpaceOnUse">
<stop stop-color="#E05EBB"/>
<stop offset="0.364583" stop-color="#C8607E"/>
<stop offset="0.765625" stop-color="#49C7D5"/>
<stop offset="1" stop-color="#CC66CB"/>
</linearGradient>
<radialGradient id="paint1_radial" cx="0" cy="0" r="1" gradientUnits="userSpaceOnUse" gradientTransform="translate(76509.4 58730.8) scale(35055.8 28050)">
<stop offset="0.32445" stop-color="white"/>
<stop offset="0.80091" stop-color="#A0B6BF" stop-opacity="0.9"/>
</radialGradient>
<linearGradient id="paint2_linear" x1="114.805" y1="135.928" x2="97.0919" y2="236.923" gradientUnits="userSpaceOnUse">
<stop offset="0.162585" stop-color="white"/>
<stop offset="0.704762" stop-color="#A0B6BF" stop-opacity="0.9"/>
<stop offset="0.95525" stop-color="#AFC1C9" stop-opacity="0.94247"/>
</linearGradient>
<radialGradient id="paint3_radial" cx="0" cy="0" r="1" gradientUnits="userSpaceOnUse" gradientTransform="translate(8803.39 3814.37) scale(398.142 438.806)">
<stop offset="0.32445" stop-color="white"/>
<stop offset="0.80091" stop-color="#A0B6BF" stop-opacity="0.9"/>
</radialGradient>
<radialGradient id="paint4_radial" cx="0" cy="0" r="1" gradientUnits="userSpaceOnUse" gradientTransform="translate(30810 34272.3) scale(9562.31 16503.9)">
<stop offset="0.32445" stop-color="white"/>
<stop offset="0.80091" stop-color="#A0B6BF" stop-opacity="0.9"/>
</radialGradient>
<radialGradient id="paint5_radial" cx="0" cy="0" r="1" gradientUnits="userSpaceOnUse" gradientTransform="translate(124.911 91.1687) scale(58.9734 85.187)">
<stop offset="0.32445" stop-color="white"/>
<stop offset="0.80091" stop-color="#A0B6BF" stop-opacity="0.9"/>
</radialGradient>
<radialGradient id="paint6_radial" cx="0" cy="0" r="1" gradientUnits="userSpaceOnUse" gradientTransform="translate(14853.2 5380.3) scale(695.405 832.912)">
<stop offset="0.32445" stop-color="white"/>
<stop offset="0.80091" stop-color="#A0B6BF" stop-opacity="0.9"/>
</radialGradient>
</defs>
</svg>
