<svg width="138" height="240" viewBox="0 0 138 240" fill="none" xmlns="http://www.w3.org/2000/svg">
<path d="M7.2 225V203.16L6.4 199.08L7.2 196.68H25.4L27.4 197.88L25.56 202.28L21.96 201.88H12.4L12.8 208.08H23.56V213.08H20.32L12.8 212.68V218.64L13.24 222.64L12.8 225H7.2ZM22.5266 225L24.8466 217.44V213.56L27.4066 212.36L32.6066 196.72H40.4866L46.9266 214.64L50.0066 220.32V225H44.5266L42.1266 217.8H30.4866L28.3666 225H22.5266ZM32.7266 212.84H40.3266L36.8866 202H36.0466L32.7266 212.84ZM52.0078 225V203.12L51.2078 199.08L52.0078 196.68H61.6078C63.5545 196.68 65.3011 196.987 66.8478 197.6C68.4211 198.187 69.6611 199.2 70.5678 200.64C71.5011 202.053 71.9678 204.013 71.9678 206.52C71.9678 208.893 71.5145 210.787 70.6078 212.2C69.7278 213.613 68.5011 214.667 66.9278 215.36L68.0878 216.4L71.6478 220.56L73.9278 222.6V225H66.5278L60.9278 216.48H57.6078V218.56L58.0078 222.56L57.6078 225H52.0078ZM57.6078 211.4H61.5278C63.2878 211.4 64.4878 210.947 65.1278 210.04C65.7678 209.107 66.0878 207.933 66.0878 206.52C66.0878 205.027 65.7411 203.88 65.0478 203.08C64.3811 202.28 63.1545 201.88 61.3678 201.88H57.2078L57.6078 211.4ZM75.9156 225V203.12L75.1156 199.12L75.9556 196.72H81.9956L90.6356 213.52H91.4356L98.7156 196.72H105.076L105.476 199.12L105.076 202.96V225H99.4356L99.5556 221.6V207.24H99.1156L97.7556 210.56L93.1156 221H88.3156L81.9156 207.24H81.5156V210.48L81.9156 225H75.9156ZM116.912 225.4C114.859 225.4 113.112 225.133 111.672 224.6C110.232 224.04 109.152 223.453 108.432 222.84V217.32C109.365 217.853 110.605 218.413 112.152 219C113.725 219.587 115.459 219.88 117.352 219.88C118.579 219.88 119.485 219.64 120.072 219.16C120.685 218.68 120.992 218.027 120.992 217.2C120.992 216.453 120.752 215.84 120.272 215.36C119.792 214.88 119.072 214.44 118.112 214.04C117.152 213.64 115.925 213.173 114.432 212.64C112.299 211.867 110.645 210.867 109.472 209.64C108.299 208.413 107.712 206.76 107.712 204.68C107.712 203.213 108.032 201.84 108.672 200.56C109.339 199.28 110.365 198.253 111.752 197.48C113.165 196.68 114.965 196.28 117.152 196.28C118.005 196.28 118.845 196.32 119.672 196.4C120.525 196.453 121.245 196.533 121.832 196.64L126.352 199.96L124.352 204.04L117.032 201.44C116.072 201.44 115.272 201.68 114.632 202.16C114.019 202.613 113.712 203.267 113.712 204.12C113.712 205.187 114.152 206 115.032 206.56C115.939 207.12 117.205 207.667 118.832 208.2C121.925 209.213 124.099 210.44 125.352 211.88C126.605 213.293 127.232 214.96 127.232 216.88C127.232 218.427 126.912 219.853 126.272 221.16C125.632 222.44 124.552 223.467 123.032 224.24C121.539 225.013 119.499 225.4 116.912 225.4Z" fill="white"/>
<path fill-rule="evenodd" clip-rule="evenodd" d="M64.2481 4.65302C67.7416 4.61155 77.0915 -0.420111 82.1175 1.32456C91.398 4.54612 97.8008 16.0942 99.7574 31.9783C100.165 35.3198 100.36 38.6839 100.339 42.0501L29.8545 36.0137C30.4568 32.7394 31.2629 29.5059 32.268 26.332C36.7989 12.0649 47.7813 2.33404 54.5665 0.207258C58.9335 -1.16153 60.3475 4.69932 64.2481 4.65302Z" fill="#E5B585"/>
<path fill-rule="evenodd" clip-rule="evenodd" d="M99.7574 31.9783C99.6802 31.3512 99.5939 30.7323 99.5029 30.1191C99.4806 29.9686 99.4566 29.8195 99.4336 29.6699C99.3576 29.1788 99.2774 28.6922 99.1931 28.2099C99.1711 28.0843 99.1495 27.9584 99.1269 27.8335C99.0211 27.2487 98.9095 26.6703 98.7921 26.0985C98.7897 26.0868 98.7876 26.0749 98.7851 26.0633C98.6744 25.5293 98.5556 25.0034 98.4345 24.4813C98.3357 24.0603 98.2337 23.6436 98.1285 23.2311L98.1266 23.2234C97.6157 21.2208 96.9886 19.2497 96.2483 17.3201C88.3378 14.4975 78.3129 12.3998 67.4522 11.5295C57.1178 10.7014 47.4042 11.0959 39.4453 12.4451C36.2937 16.6404 33.8676 21.3344 32.268 26.332C31.2629 29.5058 30.4568 32.7394 29.8545 36.0137L100.339 42.0501C100.36 38.6839 100.165 35.3198 99.7574 31.9783Z" fill="#422A2F"/>
<path fill-rule="evenodd" clip-rule="evenodd" d="M60.6804 19.0699C94.9345 22.2698 125.144 14.6006 126.937 20.5374L126.916 26.0672L123.29 28.9508L9.16485 17.0773L6.94385 16.8699L7.36908 12.3179C8.34586 5.28285 26.4269 15.8701 60.6804 19.0699Z" fill="#E5B585"/>
<path fill-rule="evenodd" clip-rule="evenodd" d="M59.5515 21.8276C93.8055 25.0275 127.8 15.8095 126.916 25.2669C126.033 34.7248 98.0751 57.9473 63.821 54.7474C29.5675 51.5476 6.06048 25.5275 6.94401 16.0695C7.82748 6.6121 25.298 18.6278 59.5515 21.8276Z" fill="#B7895C"/>
<path d="M64.9764 24.9082C40.2035 21.9491 28.9467 40.0762 23.9503 51.8262C18.3313 65.0404 19.6122 64.0072 18.4056 65.3C17.8458 65.8999 17.2627 87.5181 17.2627 87.5181C17.2627 87.5181 17.0904 91.4013 16.8974 95.5094C16.7043 99.6175 16.4906 111.489 17.2528 117.386C22.1117 154.975 47.6805 173.793 79.5696 172.959C113.594 172.071 126.429 140.017 128.094 132.887C129.759 125.757 135.842 127.83 135.842 127.83C136.221 127.837 136.595 127.746 136.928 127.566C137.261 127.385 137.542 127.122 137.742 126.8C138.479 125.675 137.401 124.407 137.401 124.407C137.401 124.407 131.386 118.582 124.194 122.557C117.003 126.533 113.479 140.861 101.52 142.64C89.5605 144.418 91.3198 117.746 93.3021 107.561C95.1686 97.9714 102.532 95.3107 102.532 74.7242C102.532 59.0382 95.9818 28.3557 64.9764 24.9082Z" fill="white"/>
<path d="M64.909 58.3698C64.379 58.33 63.8866 58.0814 63.5399 57.6785C63.1933 57.2757 63.0208 56.7516 63.0606 56.2217L63.3119 52.8698C63.3316 52.6074 63.4028 52.3514 63.5214 52.1165C63.64 51.8816 63.8037 51.6724 64.0032 51.5007C64.2026 51.3291 64.4339 51.1984 64.6839 51.1162C64.9339 51.0339 65.1976 51.0017 65.46 51.0214C65.7224 51.0411 65.9784 51.1123 66.2133 51.2309C66.4482 51.3495 66.6575 51.5132 66.8291 51.7126C67.0007 51.9121 67.1314 52.1434 67.2136 52.3934C67.2959 52.6433 67.3281 52.9071 67.3084 53.1695L67.0571 56.5214C67.0173 57.0513 66.7687 57.5438 66.3659 57.8904C65.963 58.2371 65.439 58.4095 64.909 58.3698Z" fill="#1D1D1B"/>
<path d="M35.4253 54.1143C35.3426 55.2179 36.1701 56.1796 37.2737 56.2624C38.3773 56.3451 39.3391 55.5176 39.4218 54.414L39.6732 51.0621C39.7559 49.9585 38.9283 48.9968 37.8248 48.914C36.7212 48.8313 35.7594 49.6588 35.6767 50.7624L35.4253 54.1143Z" fill="#1D1D1B"/>
<path d="M54.0443 61.562C53.8718 63.8636 52.0305 65.6018 49.9318 65.4445C47.833 65.2871 46.2716 63.2937 46.4442 60.9921" stroke="#1D1D1B" stroke-width="0.915738" stroke-miterlimit="10" stroke-linecap="round"/>
<path d="M17.474 55.131C16.6804 58.7437 16.4145 61.6588 14.2689 61.1875C12.1233 60.7162 11.0273 57.4055 11.8208 53.7928C12.6143 50.1801 14.997 47.6335 17.1426 48.1047C19.2882 48.576 18.2675 51.5183 17.474 55.131Z" fill="white"/>
<path d="M20.6245 64.7266C20.6245 64.7266 18.5537 67.1094 17.3179 64.4393C16.0821 61.7692 16.697 57.7502 16.697 57.7502L12.4655 60.015L9.36279 73.1155C9.36279 73.1155 10.397 77.827 12.4655 80.7574C13.7649 82.5626 15.4153 84.087 17.3179 85.2391L20.6245 64.7266Z" fill="white"/>
<path d="M134.441 126.283C132.458 125.486 129.119 125.658 127.58 128.063C123.171 134.954 113.737 170.441 68.8596 166.424C10.8031 161.229 19.8252 84.4817 19.8252 84.4817C19.7672 84.0023 19.5938 83.5442 19.3198 83.1466C19.0459 82.749 18.6795 82.4238 18.2522 82.1989L17.4121 81.7567C17.4102 81.8149 14.5037 79.9119 12.9822 77.8859C11.2835 75.624 10.2411 72.3029 9.85361 70.9044L9.33643 73.0882C9.33643 73.0882 10.3707 77.7997 12.4392 80.7301C13.7385 82.5353 15.389 84.0597 17.2916 85.2118L17.3052 85.1274C17.2613 86.5781 17.2367 87.4908 17.2367 87.4908C17.2367 87.4908 17.0643 91.374 16.8713 95.4821C16.8001 96.9983 16.7262 99.5732 16.6994 102.514C16.6814 106.167 16.7363 110.87 16.9469 114.348C17.0206 115.454 17.1126 116.474 17.2268 117.358C17.3052 117.965 17.3891 118.566 17.4786 119.163C22.6639 152.476 44.1061 170.57 71.7964 172.735C71.9278 172.746 72.0581 172.758 72.1897 172.768C72.2827 172.775 72.3767 172.779 72.4698 172.785C73.8229 172.878 75.1895 172.934 76.5697 172.953C76.9737 172.958 77.3796 172.958 77.7858 172.956C77.8716 172.956 77.9568 172.957 78.0427 172.957C78.5375 172.953 79.0339 172.945 79.5319 172.932C113.556 172.043 126.392 139.99 128.057 132.86C129.099 128.397 131.871 127.54 133.8 127.523C134.482 127.513 135.162 127.607 135.816 127.803C135.816 127.803 135.828 127.804 135.846 127.804C136.206 127.804 136.561 127.714 136.878 127.542C136.104 127.052 135.288 126.63 134.441 126.283Z" fill="url(#paint0_radial)"/>
<path d="M134.441 126.283C132.458 125.486 129.119 125.658 127.58 128.063C123.171 134.954 113.737 170.441 68.8596 166.424C10.8031 161.229 19.8252 84.4817 19.8252 84.4817C19.7672 84.0023 19.5938 83.5442 19.3198 83.1466C19.0459 82.749 18.6795 82.4238 18.2522 82.1989L17.4121 81.7567C17.4102 81.8149 14.5037 79.9119 12.9822 77.8859C11.2835 75.624 10.2411 72.3029 9.85361 70.9044L9.33643 73.0882C9.33643 73.0882 10.3707 77.7997 12.4392 80.7301C13.7385 82.5353 15.389 84.0597 17.2916 85.2118L17.3052 85.1274C17.2613 86.5781 17.2367 87.4908 17.2367 87.4908C17.2367 87.4908 17.0643 91.374 16.8713 95.4821C16.8001 96.9983 16.7262 99.5732 16.6994 102.514C16.6814 106.167 16.7363 110.87 16.9469 114.348C17.0206 115.454 17.1126 116.474 17.2268 117.358C17.3052 117.965 17.3891 118.566 17.4786 119.163C22.6639 152.476 44.1061 170.57 71.7964 172.735C71.9278 172.746 72.0581 172.758 72.1897 172.768C72.2827 172.775 72.3767 172.779 72.4698 172.785C73.8229 172.878 75.1895 172.934 76.5697 172.953C76.9737 172.958 77.3796 172.958 77.7858 172.956C77.8716 172.956 77.9568 172.957 78.0427 172.957C78.5375 172.953 79.0339 172.945 79.5319 172.932C113.556 172.043 126.392 139.99 128.057 132.86C129.099 128.397 131.871 127.54 133.8 127.523C134.482 127.513 135.162 127.607 135.816 127.803C135.816 127.803 135.828 127.804 135.846 127.804C136.206 127.804 136.561 127.714 136.878 127.542C136.104 127.052 135.288 126.63 134.441 126.283Z" fill="url(#paint1_linear)"/>
<path d="M8.28948 74.7202C12.8676 74.7202 16.579 70.1386 16.579 64.487C16.579 58.8353 12.8676 54.2538 8.28948 54.2538C3.71133 54.2538 0 58.8353 0 64.487C0 70.1386 3.71133 74.7202 8.28948 74.7202Z" fill="white"/>
<path d="M14.6804 57.9697C15.6001 59.7121 16.0747 61.6549 16.0618 63.6251C16.0618 69.2768 12.3505 73.8583 7.77232 73.8583C5.20016 73.8583 2.90177 72.412 1.38135 70.1423C2.86622 72.901 5.40529 74.7202 8.28944 74.7202C12.8676 74.7202 16.5789 70.1386 16.5789 64.487C16.6022 62.1749 15.9417 59.9076 14.6804 57.9697Z" fill="url(#paint2_radial)"/>
<path d="M93.3025 107.561C93.6708 105.62 94.3078 103.74 95.1953 101.974C95.4015 101.528 98.5745 95.3577 98.5745 95.3577C98.5745 95.3577 96.1831 99.7058 90.6171 98.9428C85.2735 98.2102 67.8797 86.0536 67.5405 85.4114C71.4059 84.0872 73.1199 80.4744 72.5894 75.8089C71.9859 70.5008 67.6272 66.6376 62.854 67.1802C58.0807 67.723 53.9584 70.1641 55.3041 77.7742C56.2345 83.0361 60.2663 86.9456 65.0395 86.4029C65.0886 86.3973 65.1365 86.3886 65.1851 86.3822C65.6938 87.7991 68.23 95.4347 73.8068 101.184C80.6435 108.231 85.1803 108.411 86.9332 109.524C86.0405 114.423 85.8509 119.424 86.37 124.377C87.6221 137.727 94.6684 141.656 98.7059 142.484C89.8707 139.902 91.6264 116.885 93.3025 107.561Z" fill="url(#paint3_radial)"/>
<path d="M93.3025 107.561C93.6708 105.62 94.3078 103.74 95.1953 101.974C95.4015 101.528 98.5745 95.3577 98.5745 95.3577C98.5745 95.3577 96.1831 99.7058 90.6171 98.9428C85.2735 98.2102 67.8797 86.0536 67.5405 85.4114C71.4059 84.0872 73.1199 80.4744 72.5894 75.8089C71.9859 70.5008 67.6272 66.6376 62.854 67.1802C58.0807 67.723 53.9584 70.1641 55.3041 77.7742C56.2345 83.0361 60.2663 86.9456 65.0395 86.4029C65.0886 86.3973 65.1365 86.3886 65.1851 86.3822C65.6938 87.7991 68.23 95.4347 73.8068 101.184C80.6435 108.231 85.1803 108.411 86.9332 109.524C86.0405 114.423 85.8509 119.424 86.37 124.377C87.6221 137.727 94.6684 141.656 98.7059 142.484C89.8707 139.902 91.6264 116.885 93.3025 107.561Z" fill="url(#paint4_radial)"/>
<path d="M71.9633 63.2075C71.1697 66.8202 70.9038 69.7352 68.7582 69.2639C66.6126 68.7926 65.5165 65.4819 66.3101 61.8692C67.1036 58.2565 69.4863 55.7099 71.6318 56.1812C73.7774 56.6525 72.7568 59.5948 71.9633 63.2075Z" fill="white"/>
<path d="M98.0503 75.5861C98.0503 75.5861 73.9624 74.8135 72.7266 72.1434C71.4908 69.4733 72.1057 65.4543 72.1057 65.4543L67.8742 67.7191L64.7715 80.8196C64.7715 80.8196 65.7968 87.1905 73.3147 93.5992C89.0869 107.044 96.7927 97.3496 96.7927 97.3496L98.0503 75.5861Z" fill="white"/>
<path d="M62.7792 82.7966C67.3574 82.7966 71.0687 78.215 71.0687 72.5633C71.0687 66.9117 67.3574 62.3301 62.7792 62.3301C58.2011 62.3301 54.4897 66.9117 54.4897 72.5633C54.4897 78.215 58.2011 82.7966 62.7792 82.7966Z" fill="white"/>
<path d="M56.4685 79.1988C56.1086 78.7892 55.811 78.329 55.5852 77.8328C55.352 77.3394 55.1585 76.8281 55.0066 76.3039C54.6999 75.255 54.4971 74.1784 54.4014 73.0898C54.3569 72.5456 54.3175 72.0023 54.3169 71.4504C54.3209 70.8994 54.3625 70.3494 54.4412 69.8041C54.6003 68.708 54.9206 67.6415 55.3917 66.6391C56.3219 64.5813 57.9856 62.944 60.058 62.0468C61.1065 61.6163 62.2411 61.4364 63.3714 61.5213C64.5023 61.6164 65.5961 61.9713 66.5675 62.5583L66.1092 62.779C66.234 61.8048 66.4879 60.8516 66.8642 59.9444C67.2333 59.0264 67.7537 58.1767 68.4037 57.4307C68.7361 57.0531 69.1172 56.7214 69.5372 56.4444C69.969 56.157 70.458 55.9666 70.9704 55.8862C71.504 55.8015 72.0506 55.8901 72.5301 56.1392C72.7798 56.2791 72.9869 56.4842 73.1293 56.7325C73.2616 56.9694 73.349 57.2287 73.3872 57.4974C73.4464 57.9959 73.4357 58.5003 73.3553 58.9959C73.2881 59.48 73.191 59.9533 73.0861 60.4225C72.8735 61.3598 72.6303 62.2823 72.4141 63.2095C72.1964 64.1401 71.9712 65.068 71.7712 65.9972C71.5824 66.923 71.382 67.87 71.4919 68.7993L71.49 68.7908C71.6782 69.4604 71.9713 70.096 72.3584 70.6739C72.7312 71.2677 73.2247 71.7766 73.8068 72.1674C73.2028 71.7996 72.6828 71.3091 72.2805 70.7275C71.8656 70.151 71.545 69.5121 71.3307 68.8349L71.3298 68.8317L71.3289 68.8263C71.2557 68.3451 71.2446 67.8566 71.2958 67.3727C71.3372 66.8917 71.4085 66.4157 71.489 65.9428C71.6528 64.997 71.8638 64.0652 72.0538 63.1302C72.2472 62.192 72.4671 61.2613 72.6531 60.3308C72.7446 59.8658 72.8273 59.4003 72.8795 58.9369C72.941 58.4869 72.9407 58.0305 72.8785 57.5806C72.8614 57.3806 72.7975 57.1875 72.6918 57.0169C72.5862 56.8463 72.4419 56.703 72.2705 56.5986C71.8917 56.4123 71.4637 56.35 71.0475 56.4206C70.19 56.5514 69.4224 57.1248 68.8255 57.8055C68.2248 58.5084 67.746 59.3068 67.4089 60.1677C67.0617 61.0308 66.8275 61.9352 66.712 62.8582L66.6541 63.3226L66.2537 63.079C65.3674 62.5255 64.3626 62.1899 63.3216 62.0997C62.2807 62.0094 61.2331 62.1671 60.2648 62.5597C59.2899 62.9553 58.4044 63.5424 57.6604 64.2863C56.9128 65.036 56.2878 65.8989 55.8087 66.8431C55.3313 67.7958 54.9974 68.8138 54.8178 69.864C54.7281 70.3905 54.6744 70.9224 54.6568 71.4562C54.6419 71.9891 54.6731 72.5292 54.6949 73.0671C54.7448 74.1445 54.9006 75.2144 55.1602 76.2613C55.2893 76.7851 55.459 77.2981 55.6678 77.7955C55.8644 78.3 56.1342 78.7729 56.4685 79.1988Z" fill="url(#paint5_radial)"/>
<g style="mix-blend-mode:multiply">
<path d="M96.116 46.6271C90.8989 36.3242 81.8274 27.3373 66.5879 25.1172C66.1703 25.0604 65.7513 25.0049 65.3243 24.9574C63.1187 24.6888 60.8974 24.5704 58.6758 24.6028C58.6371 24.6038 58.5978 24.6041 58.5592 24.6052C58.399 24.6083 58.2433 24.6174 58.0844 24.6223C44.4311 25.1799 35.6229 32.6963 29.9717 40.7842L96.116 46.6271Z" fill="#BDCCD4"/>
</g>
<path fill-rule="evenodd" clip-rule="evenodd" d="M96.5527 43.6313C96.5527 43.6313 95.3257 33.1739 60.8426 30.6745C37.0817 28.9522 32.5112 36.1103 32.5112 36.1103C33.044 28.8364 45.1444 21.8121 52.4738 21.8277L76.4338 24.1642C83.6522 25.2141 98.292 30.8414 97.7593 38.1153L96.5527 43.6313Z" fill="#B7895C"/>
<defs>
<radialGradient id="paint0_radial" cx="0" cy="0" r="1" gradientUnits="userSpaceOnUse" gradientTransform="translate(76489.4 58710.8) scale(35055.8 28050)">
<stop offset="0.32445" stop-color="white"/>
<stop offset="0.80091" stop-color="#A0B6BF" stop-opacity="0.9"/>
</radialGradient>
<linearGradient id="paint1_linear" x1="94.8053" y1="115.928" x2="77.0919" y2="216.923" gradientUnits="userSpaceOnUse">
<stop offset="0.162585" stop-color="white"/>
<stop offset="0.704762" stop-color="#A0B6BF" stop-opacity="0.9"/>
<stop offset="0.95525" stop-color="#AFC1C9" stop-opacity="0.94247"/>
</linearGradient>
<radialGradient id="paint2_radial" cx="0" cy="0" r="1" gradientUnits="userSpaceOnUse" gradientTransform="translate(8783.39 3794.37) scale(398.142 438.806)">
<stop offset="0.32445" stop-color="white"/>
<stop offset="0.80091" stop-color="#A0B6BF" stop-opacity="0.9"/>
</radialGradient>
<radialGradient id="paint3_radial" cx="0" cy="0" r="1" gradientUnits="userSpaceOnUse" gradientTransform="translate(30790 34252.3) scale(9562.31 16503.9)">
<stop offset="0.32445" stop-color="white"/>
<stop offset="0.80091" stop-color="#A0B6BF" stop-opacity="0.9"/>
</radialGradient>
<radialGradient id="paint4_radial" cx="0" cy="0" r="1" gradientUnits="userSpaceOnUse" gradientTransform="translate(104.912 71.1687) scale(58.9734 85.187)">
<stop offset="0.32445" stop-color="white"/>
<stop offset="0.80091" stop-color="#A0B6BF" stop-opacity="0.9"/>
</radialGradient>
<radialGradient id="paint5_radial" cx="0" cy="0" r="1" gradientUnits="userSpaceOnUse" gradientTransform="translate(14833.2 5360.3) scale(695.405 832.912)">
<stop offset="0.32445" stop-color="white"/>
<stop offset="0.80091" stop-color="#A0B6BF" stop-opacity="0.9"/>
</radialGradient>
</defs>
</svg>
