<svg width="174" height="276" viewBox="0 0 174 276" fill="none" xmlns="http://www.w3.org/2000/svg">
<g filter="url(#filter0_d)">
<path d="M54.2 256V234.12L53.4 230.12L54.2 227.72H59.04L68.72 241.8L70.64 245.12H71.04V227.72H76.92V230.12L76.52 234.12V256H71.92L60.2 238.72H59.8V241.12L60.2 256H54.2ZM80.9203 256V234.16L80.1203 230.08L80.9203 227.68H99.1203L101.12 228.88L99.2803 233.28L95.6803 232.88H86.1203L86.5203 239.08H97.2803V244.08H94.0403L86.5203 243.68V249.64L86.9603 253.64L86.5203 256H80.9203ZM109.631 256V232.8L100.831 233.2V227.68H124.231V233.2L115.231 232.8V249.6L115.671 253.6L115.231 256H109.631Z" fill="url(#paint0_linear)"/>
<path d="M70.9797 93.5049C76.8278 91.611 79.7562 84.479 77.5204 77.5752C75.2846 70.6714 68.7312 66.6102 62.883 68.5041C57.0348 70.3981 54.1064 77.5301 56.3423 84.4339C58.5781 91.3377 65.1315 95.3989 70.9797 93.5049Z" fill="#4F2A0B"/>
<path d="M147.435 80.4296C149.371 73.6931 146.151 66.8557 140.243 65.1578C134.335 63.4599 127.976 67.5445 126.04 74.281C124.104 81.0175 127.324 87.855 133.232 89.5529C139.141 91.2508 145.499 87.1661 147.435 80.4296Z" fill="#4F2A0B"/>
<path d="M80.8556 192.329C45.4189 191.404 32.0507 158.02 30.3167 150.594C28.5827 143.168 22.2472 145.327 22.2472 145.327C21.8527 145.334 21.4631 145.239 21.1163 145.051C20.7695 144.863 20.4773 144.589 20.2682 144.254C19.501 143.082 20.6236 141.761 20.6236 141.761C20.6236 141.761 26.8888 135.695 34.3783 139.835C41.8679 143.975 42.3602 155.231 54.8157 157.084C67.2712 158.936 68.6177 142.675 66.5531 132.068C64.609 122.08 61.0383 108.497 60.6376 99.0663C60.2369 89.6359 60.9866 51.2902 96.4048 48.0885C122.206 45.0067 133.58 61.7813 138.784 74.019C144.636 87.7818 145.749 111.192 145.749 111.192C145.749 111.192 145.928 115.237 146.129 119.515C146.33 123.794 146.553 128.307 145.759 134.449C140.698 173.599 114.068 193.197 80.8556 192.329Z" fill="white"/>
<path d="M80.9069 192.484C114.12 193.352 140.75 173.753 145.81 134.603C146.604 128.461 146.382 123.949 146.181 119.67C145.98 115.391 145.8 111.347 145.492 106.961C141.838 128.364 140.113 137.576 129.3 156.885C119.051 175.187 104.385 184.283 90.434 184.892C77.7308 185.446 62.0832 186.159 47.5074 171.539C30.8111 154.793 33.6908 145.776 28.8136 143.173C24.9162 141.093 21.5261 142.835 20.3196 144.409C20.5287 144.743 20.8209 145.018 21.1677 145.206C21.5145 145.394 21.9041 145.489 22.2986 145.481C22.2986 145.481 28.6341 143.322 30.3681 150.748C32.1021 158.174 45.4703 191.558 80.9069 192.484Z" fill="url(#paint1_radial)"/>
<path d="M80.9069 192.484C114.12 193.352 140.75 173.753 145.81 134.603C146.604 128.461 146.382 123.949 146.181 119.67C145.98 115.391 145.8 111.347 145.492 106.961C141.838 128.364 140.113 137.576 129.3 156.885C119.051 175.187 104.385 184.283 90.434 184.892C77.7308 185.446 62.0832 186.159 47.5074 171.539C30.8111 154.793 33.6908 145.776 28.8136 143.173C24.9162 141.093 21.5261 142.835 20.3196 144.409C20.5287 144.743 20.8209 145.018 21.1677 145.206C21.5145 145.394 21.9041 145.489 22.2986 145.481C22.2986 145.481 28.6341 143.322 30.3681 150.748C32.1021 158.174 45.4703 191.558 80.9069 192.484Z" fill="url(#paint2_linear)"/>
<path d="M84.8573 75.0675L84.2763 75.1111C83.2873 75.1852 82.5457 76.0471 82.6199 77.0361L82.9252 81.108C82.9994 82.097 83.8612 82.8386 84.8502 82.7645L85.4311 82.7209C86.4201 82.6467 87.1617 81.7849 87.0876 80.7959L86.7822 76.724C86.7081 75.735 85.8462 74.9934 84.8573 75.0675Z" fill="#1D1D1B"/>
<path d="M113.639 72.8727L113.059 72.9163C112.07 72.9904 111.328 73.8523 111.402 74.8412L111.707 78.9132C111.782 79.9022 112.643 80.6438 113.632 80.5696L114.213 80.5261C115.202 80.4519 115.944 79.5901 115.87 78.6011L115.564 74.5291C115.49 73.5402 114.628 72.7985 113.639 72.8727Z" fill="#1D1D1B"/>
<path d="M66.5589 121.98C65.79 119.848 62.6775 113.559 62.6775 113.559L66.4211 131.363V131.363C66.4781 131.65 66.5392 131.936 66.6044 132.222C68.4596 140.301 67.6869 153.915 59.2471 156.885C61.7876 156.372 64.7323 155.022 67.2026 151.849C73.3323 143.977 68.7215 128.467 66.5589 121.98Z" fill="url(#paint3_radial)"/>
<path d="M55.1556 116.325C56.3741 109.539 63.1242 104.531 68.535 109.244C72.6354 112.815 77.7459 114.62 81.1822 115.444C85.4148 116.459 89.0491 118.225 89.2539 122.385C89.4587 126.544 85.9581 129.607 81.7512 130.494C75.4261 131.827 70.2875 132.993 63.4786 130.447C57.5972 128.247 53.9371 123.111 55.1556 116.325Z" fill="white"/>
<path d="M63.1112 126.392C69.9202 128.939 75.9779 130.352 81.9508 127.726C85.3468 126.233 87.9908 123.21 88.7289 120.101C89.0441 120.808 89.2217 121.569 89.2524 122.342C89.4572 126.502 85.8521 129.581 81.7448 131.073C75.4978 133.343 70.286 132.951 63.4771 130.404C58.0865 128.388 54.565 123.904 54.9524 117.946C55.9933 121.897 59.0112 124.859 63.1112 126.392Z" fill="url(#paint4_radial)"/>
<path d="M61.4687 129.492L62.5123 129.888L63.5466 130.304L63.5341 130.299C64.8509 130.743 66.1822 131.138 67.5279 131.452C68.8654 131.782 70.2274 132.003 71.6007 132.112C72.9647 132.224 74.3362 132.204 75.6964 132.053C77.0534 131.892 78.3941 131.616 79.704 131.227C80.3612 131.039 81.008 130.806 81.6508 130.576C82.2832 130.337 82.9001 130.06 83.4978 129.744C84.6887 129.135 85.7738 128.337 86.7112 127.382C87.6276 126.455 88.2723 125.295 88.575 124.027C88.8541 122.773 88.7243 121.463 88.2046 120.289C87.6768 119.14 86.6851 118.243 85.5391 117.591C84.3526 116.946 83.0914 116.449 81.7838 116.111C81.1323 115.933 80.435 115.769 79.7586 115.569C79.0817 115.368 78.4074 115.158 77.7437 114.917C76.4139 114.441 75.117 113.877 73.8615 113.23C72.6029 112.588 71.3975 111.846 70.2568 111.012C69.968 110.809 69.6925 110.587 69.4163 110.368C69.1356 110.153 68.8724 109.917 68.6051 109.687C68.3315 109.454 68.0903 109.231 67.8213 109.023C67.5552 108.817 67.2768 108.626 66.9877 108.453C65.8194 107.747 64.4514 107.444 63.0942 107.591C61.7179 107.771 60.4122 108.306 59.3057 109.144C60.3655 108.205 61.6636 107.575 63.0575 107.324C64.4863 107.093 65.9512 107.337 67.2278 108.019C67.5467 108.186 67.8545 108.374 68.1493 108.581C68.4414 108.787 68.722 109.027 68.9872 109.235C69.2564 109.449 69.5206 109.669 69.8024 109.866C70.0797 110.07 70.3554 110.275 70.6446 110.461C71.7875 111.226 72.9834 111.908 74.2231 112.503C75.4634 113.098 76.7409 113.611 78.0476 114.041C78.6975 114.265 79.3576 114.458 80.0193 114.643C80.6829 114.826 81.3451 114.97 82.0411 115.147C83.4421 115.479 84.7937 115.993 86.0616 116.675C86.7106 117.036 87.3111 117.478 87.8491 117.99C88.3981 118.519 88.8485 119.141 89.179 119.828C89.5026 120.517 89.7034 121.257 89.7723 122.015C89.8473 122.766 89.8015 123.525 89.6366 124.261C89.2843 125.719 88.539 127.053 87.4816 128.117C86.4618 129.154 85.2756 130.014 83.9721 130.66C83.3317 130.985 82.6717 131.269 81.9957 131.511C81.3231 131.74 80.6538 131.966 79.9672 132.149C77.2265 132.927 74.3599 133.161 71.5293 132.836C70.1283 132.666 68.7434 132.383 67.3883 131.988C66.0385 131.595 64.7204 131.116 63.4234 130.595L63.4127 130.59L63.4109 130.589L62.4351 130.05L61.4687 129.492Z" fill="url(#paint5_radial)"/>
<path d="M103.338 81.0046C103.492 83.0672 102.093 84.8535 100.212 84.9946C98.3315 85.1356 96.6815 83.5779 96.5269 81.5153" stroke="#1D1D1B" stroke-width="0.820633" stroke-miterlimit="10" stroke-linecap="round"/>
<path d="M143.134 148.687C136.657 151.019 118.28 156.607 100.909 154.362C84.5803 152.254 71.0172 145.794 67.1807 143.828C66.9756 145.737 66.563 147.617 65.9502 149.436C71.345 152.089 84.4757 157.756 100.208 159.788C103.262 160.175 106.337 160.366 109.416 160.36C121.828 160.36 133.753 157.5 140.785 155.274C141.653 153.167 142.436 150.971 143.134 148.687Z" fill="#1A1A1A"/>
<path d="M147.083 112.837C147.078 112.738 147.073 112.641 147.068 112.547C147.059 112.38 147.051 112.22 147.042 112.067C147.025 111.739 147.009 111.443 146.996 111.186C146.99 111.066 146.984 110.954 146.978 110.852C146.953 110.366 146.938 110.086 146.938 110.086L146.936 110.038L146.934 110.014L146.933 109.999C146.932 109.977 146.93 109.948 146.928 109.916C146.927 109.902 146.926 109.888 146.925 109.872L146.921 109.813L146.919 109.774L146.914 109.693L146.911 109.661C146.904 109.555 146.895 109.43 146.885 109.286L146.884 109.277C146.87 109.07 146.851 108.827 146.829 108.55L146.828 108.54C146.755 107.628 146.495 105.339 145.589 104.938C144.754 104.569 107.123 116.48 107.123 116.48L105.463 125.709L104.536 116.441L60.9412 102.905L60.9413 102.906C61.0585 104.711 61.3101 106.505 61.694 108.274C61.8576 108.703 61.9986 109.142 62.1164 109.586C62.1238 109.621 62.131 109.656 62.1384 109.691C62.2346 110.142 62.3335 110.596 62.4352 111.052L62.4427 111.085C62.542 111.53 62.6435 111.976 62.7474 112.424C62.755 112.457 62.7626 112.49 62.7702 112.523C62.8762 112.979 62.984 113.436 63.0936 113.894C63.0991 113.917 63.1047 113.94 63.1103 113.964C63.2159 114.405 63.3228 114.846 63.431 115.287C63.4389 115.319 63.4468 115.352 63.4547 115.384C63.5662 115.839 63.6786 116.293 63.7919 116.747C63.801 116.784 63.8103 116.82 63.8195 116.857C63.9262 117.285 64.0334 117.711 64.1409 118.137C64.1504 118.174 64.1599 118.212 64.1694 118.25C64.2817 118.694 64.3939 119.137 64.5061 119.577C64.536 119.695 64.5659 119.813 64.5957 119.93C64.6693 120.219 64.7426 120.507 64.8158 120.794C64.9478 121.313 65.0786 121.828 65.2081 122.338L65.2385 122.458C65.347 122.887 65.4541 123.311 65.5598 123.733L65.5679 123.765C65.6738 124.188 65.7778 124.606 65.8799 125.02C65.8855 125.043 65.8914 125.067 65.897 125.089L65.8969 125.089C66.1584 126.151 66.4063 127.184 66.6319 128.174C67.278 131.024 67.5336 133.949 67.3917 136.868C67.3066 138.443 61.9478 140.17 61.5681 141.622C61.1213 143.33 66.4795 146.596 66.4795 146.596C66.4795 146.596 85.7016 153.818 100.341 154.903C116.241 156.081 131.321 154.394 140.245 150.686C141.222 150.308 144.774 148.314 146.208 146.775C147.894 144.964 144.849 140.481 146.083 134.904L146.08 134.901C146.153 134.569 146.225 134.235 146.293 133.899C146.306 133.838 146.319 133.778 146.331 133.718C146.387 133.442 146.44 133.164 146.494 132.886C146.535 132.666 146.576 132.446 146.616 132.225C146.653 132.021 146.69 131.817 146.726 131.611C146.803 131.156 146.879 130.699 146.949 130.238C147.226 128.423 147.402 126.594 147.476 124.76C147.509 123.937 147.52 123.147 147.516 122.383V122.382C147.507 120.581 147.413 118.92 147.324 117.298C147.273 116.371 147.224 115.457 147.178 114.607C147.172 114.496 147.166 114.386 147.16 114.277C147.133 113.766 147.107 113.282 147.083 112.837Z" fill="#88D0EA"/>
<g style="mix-blend-mode:multiply">
<path d="M104.536 116.441L99.3802 129.49L62.417 112.307L99.3802 131.529L104.536 116.441Z" fill="#88D0EA"/>
</g>
<g style="mix-blend-mode:multiply">
<path d="M107.123 116.48L113.09 129.678L148.867 114.105L112.55 131.483L107.123 116.48Z" fill="#88D0EA"/>
</g>
<path d="M107.167 134.168C108.081 134.168 108.822 133.427 108.822 132.513C108.822 131.599 108.081 130.857 107.167 130.857C106.252 130.857 105.511 131.599 105.511 132.513C105.511 133.427 106.252 134.168 107.167 134.168Z" fill="#1A1A1A"/>
<path d="M106.233 142.077C107.148 142.077 107.889 141.336 107.889 140.422C107.889 139.507 107.148 138.766 106.233 138.766C105.319 138.766 104.578 139.507 104.578 140.422C104.578 141.336 105.319 142.077 106.233 142.077Z" fill="#1A1A1A"/>
<path d="M105.189 149.986C106.103 149.986 106.845 149.245 106.845 148.33C106.845 147.416 106.103 146.675 105.189 146.675C104.275 146.675 103.533 147.416 103.533 148.33C103.533 149.245 104.275 149.986 105.189 149.986Z" fill="#1A1A1A"/>
<path d="M55.1556 116.325C56.3741 109.539 63.1242 104.531 68.535 109.244C72.6354 112.815 77.7459 114.62 81.1822 115.444C85.4148 116.459 89.0491 118.225 89.2539 122.385C89.4587 126.544 85.9581 129.607 81.7512 130.494C75.4261 131.827 70.2875 132.993 63.4786 130.447C57.5972 128.247 53.9371 123.111 55.1556 116.325Z" fill="#88D0EA"/>
<g style="mix-blend-mode:multiply" opacity="0.51">
<g style="mix-blend-mode:multiply" opacity="0.51">
<path d="M89.2539 122.385C89.2215 121.517 89.0016 120.666 88.6093 119.892C88.0985 123.367 84.9162 125.881 81.172 126.67C74.8468 128.004 69.7083 129.17 62.8994 126.623C59.0178 125.172 56.105 122.44 54.9223 118.801C54.8915 124.354 58.3356 128.523 63.4786 130.447C70.2875 132.993 75.4261 131.827 81.7512 130.494C85.9581 129.607 89.4588 126.544 89.2539 122.385Z" fill="#88D0EA"/>
</g>
</g>
<g style="mix-blend-mode:multiply">
<path d="M65.5701 123.774C65.6752 124.194 65.7785 124.609 65.8799 125.02C65.8855 125.043 65.8914 125.066 65.897 125.089L65.8968 125.089C66.1583 126.151 66.4063 127.184 66.6319 128.174C67.2779 131.024 67.5335 133.949 67.3916 136.868C67.36 137.454 66.5975 138.061 65.6334 138.667C67.1553 141.78 69.8529 146.286 73.7246 149.062C75.9217 149.76 78.4963 150.534 81.2755 151.289C89.6606 150.327 100.452 140.37 110.769 140.017C120.371 139.689 138.419 143.814 146.043 140.744C145.681 138.813 145.695 136.83 146.083 134.904L146.08 134.901C146.153 134.569 146.224 134.235 146.293 133.899C146.306 133.838 146.319 133.778 146.331 133.718C146.387 133.442 146.44 133.164 146.494 132.886C146.535 132.666 146.576 132.446 146.616 132.225C146.653 132.021 146.69 131.817 146.725 131.611C146.803 131.156 146.879 130.699 146.949 130.238C147.226 128.423 147.402 126.594 147.476 124.759C147.509 123.937 147.52 123.147 147.516 122.383V122.382C147.516 122.299 147.513 122.22 147.512 122.138C141.634 124.517 118.112 133.782 107.449 134.144C96.4388 134.518 72.2038 122.651 65.5701 123.774Z" fill="#88D0EA"/>
</g>
<path d="M92.8056 117.711L92.8512 118.392H65.099C64.474 121.245 64.1248 124.153 64.0563 127.073C63.7167 139.448 71.3779 145.195 83.1241 145.195C94.8703 145.195 103.335 136.587 102.166 127.073C101.684 123.148 96.9389 120.052 92.8056 117.711Z" fill="#A06635"/>
<path d="M87.6353 113.993C84.2014 111.657 84.6635 105.928 77.739 105.575C70.5574 105.21 64.667 111.175 64.1655 126.174C63.8367 138.402 71.4527 144.076 83.1234 144.076C94.7941 144.076 103.211 135.575 102.056 126.174C101.346 120.399 91.1853 116.408 87.6353 113.993ZM76.5176 111.779C74.9803 111.779 73.7998 110.779 73.8798 109.565C73.9583 108.372 75.2287 107.42 76.7184 107.42C78.2081 107.42 79.3907 108.372 79.3593 109.565C79.3274 110.779 78.0549 111.779 76.5176 111.779Z" fill="#EAB773"/>
<path d="M74.0909 109.889C74.1678 108.69 75.4396 107.733 76.9327 107.733C77.344 107.721 77.7532 107.796 78.1327 107.956C78.5121 108.115 78.8528 108.354 79.1317 108.656C78.7227 107.924 77.8035 107.42 76.7183 107.42C75.2286 107.42 73.9583 108.372 73.8797 109.565C73.8525 110.018 73.998 110.464 74.2868 110.814C74.1383 110.529 74.0705 110.209 74.0909 109.889Z" fill="#A06635"/>
<path d="M95.4904 122.261C95.7442 122.561 95.9272 122.914 96.026 123.294C96.1247 123.674 96.1367 124.072 96.061 124.457C95.9853 124.842 95.8238 125.206 95.5886 125.52C95.3534 125.835 95.0504 126.092 94.7021 126.274C93.1731 127.141 92.7612 125.741 91.7183 124.35C90.694 122.984 89.438 122.132 90.9383 121.32C91.691 120.935 92.5522 120.819 93.3798 120.99C94.2073 121.162 94.9518 121.61 95.4904 122.261Z" fill="#16168F"/>
<path d="M88.2718 122.611C87.988 122.103 88.2768 121.487 88.9131 121.233C89.5474 120.979 89.8203 121.41 89.8828 121.963C90.0662 123.587 91.3837 124.183 90.7627 124.186C90.0398 124.189 88.5575 123.122 88.2718 122.611Z" fill="#16168F"/>
<path d="M73.9775 120.165C73.9 118.66 74.281 117.854 73.0051 117.756C72.4286 117.712 72.1882 117.942 71.726 118.21C71.3162 117.928 70.8215 117.797 70.326 117.839C69.2068 117.916 68.2961 118.743 68.293 119.698C68.2902 120.546 68.6269 120.986 69.4809 121.028C69.5049 121.355 69.6342 121.665 69.8492 121.912C70.187 122.288 70.6562 122.521 71.1604 122.563C71.8492 123.09 72.7128 123.335 73.5756 123.248C75.3959 123.096 74.0567 121.702 73.9775 120.165Z" fill="#FCEE21"/>
<path d="M87.4106 130.054C86.2941 130.054 86.5074 130.929 86.8864 132.019C86.5844 132.075 86.2904 132.168 86.0112 132.296C84.2866 133.088 83.6112 134.206 84.4633 135.816C85.1303 137.077 86.5771 136.549 87.1056 136.791C87.6357 137.033 87.1661 137.698 88.1426 137.698C90.1365 137.698 92.5609 136.29 92.4536 134.436C92.3486 132.622 89.313 130.054 87.4106 130.054Z" fill="#C1272D"/>
<path d="M75.9747 127.763C77.0751 127.763 76.8506 128.613 76.4593 129.671C76.7553 129.725 77.0434 129.815 77.3173 129.94C79.0036 130.71 79.6506 131.795 78.7846 133.358C78.107 134.58 70.59 133.807 70.9354 132.017C71.6621 128.251 74.0997 127.763 75.9747 127.763Z" fill="#F79018"/>
<path d="M86.6541 118.325C86.4619 119.441 83.6535 121.527 82.6965 120.387C81.7142 119.217 78.1876 120.871 78.9501 118.236C79.2645 117.149 81.3745 115.618 82.7047 116.319C84.6417 117.341 87.2334 114.963 86.6541 118.325Z" fill="#006837"/>
<path d="M79.3638 120.411C79.194 120.554 79.0081 120.749 79.0926 120.936C79.1373 121.004 79.1998 121.058 79.2733 121.093C79.3468 121.127 79.4284 121.141 79.5091 121.132C79.6777 121.116 79.8442 121.083 80.0059 121.032C80.1684 120.982 80.3424 120.985 80.5036 121.038C80.7088 121.126 80.8109 121.352 81.0311 121.41C81.2301 121.435 81.4315 121.385 81.5954 121.269C81.7 121.229 81.7883 121.155 81.847 121.059C81.9056 120.964 81.9312 120.851 81.9199 120.74C81.9364 120.561 81.8884 120.383 81.7847 120.236C81.5856 120.021 81.1531 120.088 80.8745 120.091C80.5513 120.094 80.1288 119.769 79.3638 120.411Z" fill="#006837"/>
<path d="M139.617 49.7103C138.996 49.7223 138.378 49.7822 137.767 49.8895C139.013 46.8851 139.335 43.5769 138.69 40.3885C138.045 37.2002 136.464 34.277 134.147 31.9932C131.831 29.7094 128.886 28.169 125.688 27.5694C122.491 26.9698 119.188 27.3382 116.202 28.6274C112.026 23.3152 105.186 19.8916 97.5335 20.0026C88.444 20.1345 80.7454 25.2155 77.4027 32.4015C74.3734 31.2594 71.073 31.0432 67.9206 31.7802C64.7682 32.5172 61.9058 34.1741 59.6967 36.5408C57.4877 38.9075 56.0316 41.8771 55.5132 45.0728C54.9949 48.2685 55.4378 51.5461 56.7856 54.4897C54.5614 55.1162 52.5664 56.3735 51.0416 58.1097C49.5168 59.8458 48.5275 61.9865 48.1934 64.2729C47.8592 66.5593 48.1945 68.8935 49.1586 70.9934C50.1228 73.0933 51.6746 74.869 53.6264 76.1058C55.5782 77.3426 57.8465 77.9876 60.1571 77.9627C62.4676 77.9379 64.7215 77.2443 66.6463 75.9659C68.5711 74.6874 70.0843 72.8788 71.0032 70.7586C71.922 68.6385 72.207 66.2976 71.8238 64.0189C71.8671 64.0184 71.9099 64.0205 71.9534 64.0197C74.5012 63.9726 77.0025 63.3292 79.2568 62.1411C81.5111 60.953 83.4557 59.2533 84.9347 57.1782C88.964 59.8452 93.7084 61.225 98.5395 61.1348C103.576 61.0934 108.465 59.4273 112.478 56.3843C114.655 58.1255 117.242 59.2805 119.992 59.7392C122.741 60.1978 125.563 59.9449 128.187 59.0045C127.632 61.4318 127.849 63.9717 128.807 66.2699C129.765 68.5681 131.416 70.51 133.531 71.8248C135.645 73.1397 138.117 73.7619 140.602 73.6047C143.087 73.4475 145.461 72.5187 147.392 70.9478C149.324 69.377 150.718 67.2424 151.378 64.8418C152.039 62.4412 151.934 59.8943 151.078 57.5562C150.222 55.2182 148.657 53.2056 146.603 51.7991C144.548 50.3926 142.106 49.6624 139.617 49.7103V49.7103Z" fill="#603813"/>
<path d="M106.34 95.3902L96.258 96.1462C94.9923 96.2396 93.7412 95.8272 92.7792 94.9994C91.8172 94.1716 91.2228 92.996 91.1265 91.7305L90.3704 81.6483C90.277 80.3826 90.6894 79.1315 91.5172 78.1695C92.345 77.2075 93.5206 76.6131 94.7861 76.5168L104.868 75.7608C106.134 75.6673 107.385 76.0797 108.347 76.9075C109.309 77.7353 109.904 78.9109 110 80.1764L110.756 90.2586C110.849 91.5243 110.437 92.7754 109.609 93.7374C108.781 94.6994 107.606 95.2938 106.34 95.3902ZM95.0111 79.5173C94.5411 79.5531 94.1044 79.7739 93.797 80.1312C93.4895 80.4885 93.3363 80.9532 93.371 81.4233L94.127 91.5055C94.1628 91.9755 94.3836 92.4122 94.7409 92.7196C95.0982 93.0271 95.5629 93.1803 96.033 93.1456L106.115 92.3896C106.585 92.3538 107.022 92.133 107.329 91.7757C107.637 91.4184 107.79 90.9537 107.755 90.4836L106.999 80.4014C106.963 79.9314 106.743 79.4947 106.385 79.1873C106.028 78.8798 105.563 78.7266 105.093 78.7613L95.0111 79.5173Z" fill="#603813"/>
<path d="M90.7109 86.9882L110.382 85.5131L111.066 94.6353C111.131 95.5035 110.849 96.3619 110.281 97.0218C109.713 97.6817 108.906 98.089 108.038 98.1541L94.9138 99.1383C94.0456 99.2034 93.1871 98.9209 92.5272 98.3531C91.8673 97.7852 91.4601 96.9785 91.395 96.1104L90.7109 86.9882Z" fill="#603813"/>
<path d="M109.105 97.4316L93.829 98.577C93.444 98.6068 93.0566 98.572 92.6831 98.4741C93.3344 98.9622 94.1408 99.1972 94.9524 99.1353L108.077 98.1512C108.894 98.0663 109.653 97.6897 110.215 97.0906C109.866 97.2652 109.491 97.3805 109.105 97.4316Z" fill="#4F2A0B"/>
<path d="M94.864 94.6384L73.148 96.2668C71.5569 96.3843 69.984 95.8658 68.7746 94.8251C67.5652 93.7844 66.818 92.3065 66.6969 90.7156L64.8787 66.4674L70.3343 66.0583L72.1525 90.3065C72.1652 90.4505 72.2336 90.5838 72.3432 90.6781C72.4527 90.7723 72.5947 90.8201 72.739 90.8112L94.4549 89.1828L94.864 94.6384Z" fill="#603813"/>
<path d="M131.73 91.9281L110.014 93.5564L109.605 88.1009L131.321 86.4725C131.465 86.4598 131.598 86.3914 131.693 86.2819C131.787 86.1723 131.835 86.0303 131.826 85.8861L130.008 61.6378L135.463 61.2287L137.281 85.477C137.399 87.0682 136.88 88.641 135.84 89.8504C134.799 91.0598 133.321 91.807 131.73 91.9281Z" fill="#603813"/>
<path d="M142.223 68.3567C134.294 68.3567 130.734 62.1642 129.565 56.301C126.313 56.8315 122.975 56.3645 119.993 54.9616C117.011 53.5587 114.524 51.2856 112.858 48.4417C108.677 51.5315 103.626 53.2197 98.4276 53.2647C93.3426 53.3597 88.3488 51.9073 84.1078 49.1002C81.276 55.484 74.4472 57.9579 68.7968 58.0669C68.751 58.0677 68.706 58.0655 68.6603 58.066C68.7626 58.6764 68.8201 59.2934 68.8323 59.9122C68.9663 66.8633 65.0874 70.8412 58.1364 70.9753C56.1992 71.014 54.2793 70.6042 52.5268 69.7779C50.7743 68.9517 49.2365 67.7314 48.0337 66.2123C48.0341 66.2378 48.0331 66.2629 48.0336 66.2883C48.0654 67.9327 48.4361 69.5529 49.1224 71.0475C49.8087 72.5422 50.796 73.8792 52.0224 74.9751C53.2489 76.071 54.6881 76.9021 56.2503 77.4165C57.8125 77.931 59.464 78.1177 61.1016 77.965C62.7392 77.8122 64.3278 77.3234 65.7679 76.529C67.2081 75.7346 68.4688 74.6517 69.4715 73.3479C70.4742 72.0442 71.1972 70.5477 71.5953 68.9519C71.9935 67.3561 72.0582 65.6953 71.7854 64.0733C71.8288 64.0729 71.8716 64.0749 71.915 64.0741C74.4628 64.0271 76.9641 63.3837 79.2184 62.1956C81.4727 61.0076 83.4173 59.3078 84.8963 57.2327C88.9256 59.8997 93.6701 61.2795 98.5012 61.1894C103.538 61.1479 108.426 59.4817 112.44 56.4388C114.617 58.1801 117.203 59.3351 119.953 59.7937C122.703 60.2524 125.524 59.9994 128.149 59.059C127.773 60.7031 127.749 62.4082 128.079 64.0622C128.409 65.7162 129.085 67.2817 130.062 68.656C131.04 70.0303 132.297 71.1822 133.752 72.0361C135.206 72.8901 136.825 73.4268 138.501 73.6109C140.178 73.795 141.874 73.6225 143.479 73.1046C145.084 72.5867 146.562 71.7351 147.814 70.6058C149.067 69.4765 150.067 68.095 150.747 66.552C151.428 65.0091 151.775 63.3395 151.765 61.653C150.359 65.8851 147.579 68.3567 142.223 68.3567Z" fill="#4F2A0B"/>
<path d="M123.555 116.098C123.555 121.053 122.324 139.068 120.806 139.068C119.287 139.068 118.057 121.053 118.057 116.098C118.057 111.143 119.287 110.268 120.806 110.268C122.324 110.268 123.555 111.143 123.555 116.098Z" fill="#FBB03B"/>
<path d="M124.668 104.32C124.668 105.344 124.261 106.327 123.537 107.051C122.812 107.775 121.83 108.182 120.806 108.182C119.782 108.182 118.799 107.775 118.075 107.051C117.351 106.327 116.944 105.344 116.944 104.32C116.944 100.884 119.625 96.6947 121.137 94.6119C121.315 94.3669 121.669 94.4034 121.69 94.7055C121.778 96.0107 121.186 98.0991 121.841 99.7919C122.725 102.077 124.668 102.586 124.668 104.32Z" fill="#4F2A0B"/>
<g style="mix-blend-mode:multiply" opacity="0.25">
<path d="M120.66 106.428C118.604 106.342 117.253 104.94 116.95 104.034C116.946 104.13 116.944 104.225 116.944 104.32C116.944 105.214 117.254 106.08 117.821 106.77C118.388 107.461 119.177 107.934 120.053 108.108C120.93 108.282 121.84 108.147 122.628 107.726C123.416 107.304 124.033 106.623 124.375 105.797C123.19 106.251 121.928 106.465 120.66 106.428Z" fill="#4F2A0B"/>
</g>
<path d="M123.172 112.351H118.439L119.025 108.03C119.041 107.916 119.097 107.811 119.184 107.735C119.271 107.659 119.382 107.617 119.497 107.617H122.114C122.229 107.617 122.341 107.659 122.428 107.735C122.514 107.811 122.571 107.916 122.586 108.03L123.172 112.351Z" fill="#E6E6E6"/>
<g style="mix-blend-mode:multiply" opacity="0.31">
<path d="M120.806 124.668C119.736 124.668 118.786 122.947 118.192 120.288C118.551 127.429 119.585 139.068 120.806 139.068C122.026 139.068 123.061 127.429 123.42 120.288C122.825 122.947 121.876 124.668 120.806 124.668Z" fill="#FBB03B"/>
</g>
<path d="M120.806 108.37C120.198 108.38 119.593 108.284 119.018 108.087L118.439 112.35H123.172L122.594 108.087C122.019 108.284 121.414 108.38 120.806 108.37Z" fill="#F2F2F2"/>
<path d="M153.675 117.174C152.456 110.388 145.706 105.379 140.295 110.092C136.195 113.664 131.084 115.468 127.648 116.292C123.415 117.307 119.781 119.074 119.576 123.233C119.371 127.392 122.872 130.455 127.079 131.342C133.404 132.675 138.543 133.842 145.351 131.295C151.233 129.095 154.893 123.959 153.675 117.174Z" fill="white"/>
<path d="M145.719 127.241C138.91 129.787 132.852 131.2 126.879 128.574C123.483 127.081 120.839 124.058 120.101 120.949C119.786 121.656 119.608 122.417 119.578 123.191C119.373 127.35 122.978 130.429 127.085 131.921C133.332 134.191 138.544 133.799 145.353 131.252C150.744 129.236 154.265 124.753 153.878 118.794C152.837 122.745 149.819 125.707 145.719 127.241Z" fill="url(#paint6_radial)"/>
<path d="M147.362 130.34L146.395 130.899L145.419 131.438L145.418 131.439L145.407 131.443C144.11 131.964 142.792 132.443 141.442 132.836C140.087 133.231 138.702 133.515 137.301 133.685C134.47 134.009 131.604 133.776 128.863 132.997C128.176 132.814 127.507 132.588 126.834 132.359C126.159 132.117 125.499 131.833 124.858 131.508C123.555 130.862 122.368 130.003 121.349 128.965C120.291 127.901 119.546 126.568 119.194 125.109C119.029 124.373 118.983 123.615 119.058 122.863C119.127 122.105 119.328 121.365 119.651 120.676C119.982 119.989 120.432 119.367 120.981 118.839C121.519 118.326 122.12 117.884 122.769 117.523C124.037 116.841 125.388 116.327 126.789 115.995C127.485 115.818 128.147 115.674 128.811 115.491C129.473 115.306 130.133 115.113 130.783 114.889C132.089 114.46 133.367 113.946 134.607 113.351C135.847 112.756 137.043 112.074 138.186 111.309C138.475 111.123 138.751 110.918 139.028 110.715C139.31 110.517 139.574 110.297 139.843 110.083C140.108 109.875 140.389 109.636 140.681 109.429C140.976 109.222 141.284 109.034 141.602 108.867C142.879 108.186 144.344 107.941 145.773 108.172C147.167 108.423 148.465 109.053 149.525 109.993C148.418 109.154 147.112 108.619 145.736 108.439C144.379 108.292 143.011 108.595 141.843 109.301C141.553 109.474 141.275 109.665 141.009 109.872C140.74 110.079 140.499 110.302 140.225 110.535C139.958 110.766 139.695 111.002 139.414 111.216C139.138 111.436 138.862 111.657 138.573 111.86C137.433 112.694 136.227 113.436 134.969 114.078C133.713 114.725 132.416 115.289 131.087 115.765C130.423 116.006 129.749 116.216 129.072 116.418C128.395 116.617 127.698 116.782 127.046 116.959C125.739 117.297 124.478 117.794 123.291 118.439C122.145 119.092 121.153 119.989 120.626 121.137C120.106 122.311 119.976 123.621 120.255 124.875C120.558 126.143 121.203 127.303 122.119 128.23C123.057 129.185 124.142 129.983 125.332 130.593C125.93 130.908 126.547 131.186 127.179 131.424C127.822 131.655 128.469 131.887 129.126 132.075C130.436 132.464 131.777 132.74 133.134 132.901C134.494 133.052 135.866 133.072 137.23 132.961C138.603 132.851 139.965 132.63 141.302 132.3C142.648 131.986 143.979 131.591 145.296 131.147L145.284 131.152L146.318 130.736L147.362 130.34Z" fill="url(#paint7_radial)"/>
<path d="M140.103 109.587C136.36 112.847 131.265 114.62 127.88 115.534C130.429 116.924 132.515 120.523 132.434 125.534C132.394 127.986 130.96 131.559 129.966 133.415C134.699 134.301 139.268 134.128 145.374 131.493C152.812 128.282 154.893 123.959 153.675 117.174C152.456 110.388 145.514 104.873 140.103 109.587Z" fill="#88D0EA"/>
<g style="mix-blend-mode:multiply" opacity="0.49">
<g style="mix-blend-mode:multiply" opacity="0.49">
<path d="M145.374 127.806C139.909 130.165 135.676 130.548 131.454 129.968C131.04 131.143 130.543 132.288 129.966 133.392C134.699 134.278 139.268 134.105 145.374 131.469C152.276 128.49 154.563 124.552 153.883 118.578C153.331 122.577 150.756 125.483 145.374 127.806Z" fill="#88D0EA"/>
</g>
</g>
<path d="M121.962 99.7408C121.301 98.0336 121.877 95.934 121.81 94.5917C121.806 94.5269 121.782 94.4651 121.741 94.4146C121.701 94.3641 121.645 94.3274 121.583 94.3095C121.521 94.2916 121.454 94.2933 121.393 94.3145C121.332 94.3357 121.278 94.3753 121.24 94.4279C119.96 96.1922 117.729 99.4114 117.031 102.47C116.998 102.619 117.021 102.773 117.094 102.906C117.425 103.518 117.875 104.089 118.697 104.16C119.499 104.229 119.691 103.367 120.384 103.574C121.077 103.78 120.904 105.653 122.318 105.655C123.49 105.657 124.01 104.413 124.298 103.259C124.322 103.179 124.326 103.095 124.311 103.013C124.296 102.931 124.262 102.853 124.211 102.787C123.548 101.981 122.537 101.227 121.962 99.7408Z" fill="#F7931E"/>
<g style="mix-blend-mode:screen">
<path d="M123.335 104.743C122.547 105.42 121.882 105.178 121.56 104.804C121.239 104.43 122.2 104.249 122.736 103.788C123.273 103.327 123.273 102.875 123.594 103.249C123.916 103.624 124.124 104.066 123.335 104.743Z" fill="#F7931E"/>
</g>
<g style="mix-blend-mode:screen">
<path d="M118.831 103.595C118.343 103.729 118.101 103.485 118.037 103.253C117.974 103.022 118.327 103.236 118.659 103.144C118.991 103.053 119.191 102.76 119.255 102.992C119.319 103.223 119.318 103.461 118.831 103.595Z" fill="#F7931E"/>
</g>
</g>
<defs>
<filter id="filter0_d" x="0" y="0" width="174" height="291" filterUnits="userSpaceOnUse" color-interpolation-filters="sRGB">
<feFlood flood-opacity="0" result="BackgroundImageFix"/>
<feColorMatrix in="SourceAlpha" type="matrix" values="0 0 0 0 0 0 0 0 0 0 0 0 0 0 0 0 0 0 127 0" result="hardAlpha"/>
<feOffset/>
<feGaussianBlur stdDeviation="10"/>
<feComposite in2="hardAlpha" operator="out"/>
<feColorMatrix type="matrix" values="0 0 0 0 0.054902 0 0 0 0 0.956863 0 0 0 0 0.933333 0 0 0 1 0"/>
<feBlend mode="normal" in2="BackgroundImageFix" result="effect1_dropShadow"/>
<feBlend mode="normal" in="SourceGraphic" in2="effect1_dropShadow" result="shape"/>
</filter>
<linearGradient id="paint0_linear" x1="57" y1="242" x2="121.5" y2="237" gradientUnits="userSpaceOnUse">
<stop stop-color="#E05FBB"/>
<stop offset="0.333333" stop-color="#CE608C"/>
<stop offset="0.65625" stop-color="#4FC2D1"/>
<stop offset="1" stop-color="#B478CD"/>
</linearGradient>
<radialGradient id="paint1_radial" cx="0" cy="0" r="1" gradientUnits="userSpaceOnUse" gradientTransform="translate(186145 31920.5) scale(38936.1 26425.9)">
<stop offset="0.63788" stop-color="white"/>
<stop offset="0.80085" stop-color="#A0B6BF" stop-opacity="0.9"/>
</radialGradient>
<linearGradient id="paint2_linear" x1="161.674" y1="92.5788" x2="150.594" y2="227.907" gradientUnits="userSpaceOnUse">
<stop offset="0.162585" stop-color="white"/>
<stop offset="0.704762" stop-color="#A0B6BF" stop-opacity="0.9"/>
<stop offset="0.95525" stop-color="#AFC1C9" stop-opacity="0.94247"/>
</linearGradient>
<radialGradient id="paint3_radial" cx="0" cy="0" r="1" gradientUnits="userSpaceOnUse" gradientTransform="translate(15081.7 19119.7) scale(889.715 3499.1)">
<stop offset="0.32445" stop-color="white"/>
<stop offset="0.80091" stop-color="#A0B6BF" stop-opacity="0.9"/>
</radialGradient>
<radialGradient id="paint4_radial" cx="0" cy="0" r="1" gradientUnits="userSpaceOnUse" gradientTransform="translate(23825.7 3691.53) rotate(180) scale(7380.97 3142.87)">
<stop offset="0.65538" stop-color="white"/>
<stop offset="0.80091" stop-color="#A0B6BF" stop-opacity="0.9"/>
</radialGradient>
<radialGradient id="paint5_radial" cx="0" cy="0" r="1" gradientUnits="userSpaceOnUse" gradientTransform="translate(43174.1 -8021.34) scale(1603.77 1784.78)">
<stop offset="0.32445" stop-color="white"/>
<stop offset="0.80091" stop-color="#A0B6BF" stop-opacity="0.9"/>
</radialGradient>
<radialGradient id="paint6_radial" cx="0" cy="0" r="1" gradientUnits="userSpaceOnUse" gradientTransform="translate(57184.6 3737.72) scale(7380.97 3142.87)">
<stop offset="0.65538" stop-color="white"/>
<stop offset="0.80091" stop-color="#A0B6BF" stop-opacity="0.9"/>
</radialGradient>
<radialGradient id="paint7_radial" cx="0" cy="0" r="1" gradientUnits="userSpaceOnUse" gradientTransform="translate(49953.4 -7940.4) scale(1603.77 1784.78)">
<stop offset="0.32445" stop-color="white"/>
<stop offset="0.80091" stop-color="#A0B6BF" stop-opacity="0.9"/>
</radialGradient>
</defs>
</svg>
