<svg width="134" height="251" viewBox="0 0 134 251" fill="none" xmlns="http://www.w3.org/2000/svg">
<path d="M34.2 236V214.12L33.4 210.12L34.2 207.72H39.04L48.72 221.8L50.64 225.12H51.04V207.72H56.92V210.12L56.52 214.12V236H51.92L40.2 218.72H39.8V221.12L40.2 236H34.2ZM60.9203 236V214.16L60.1203 210.08L60.9203 207.68H79.1203L81.1203 208.88L79.2803 213.28L75.6803 212.88H66.1203L66.5203 219.08H77.2803V224.08H74.0403L66.5203 223.68V229.64L66.9603 233.64L66.5203 236H60.9203ZM89.6312 236V212.8L80.8312 213.2V207.68H104.231V213.2L95.2313 212.8V229.6L95.6713 233.6L95.2313 236H89.6312Z" fill="white"/>
<path d="M50.9797 73.5049C56.8278 71.611 59.7562 64.479 57.5204 57.5752C55.2846 50.6714 48.7312 46.6102 42.883 48.5041C37.0348 50.3981 34.1064 57.5301 36.3423 64.4339C38.5781 71.3377 45.1315 75.3989 50.9797 73.5049Z" fill="#4F2A0B"/>
<path d="M127.436 60.4296C129.372 53.6931 126.152 46.8557 120.243 45.1578C114.335 43.4599 107.976 47.5445 106.041 54.281C104.105 61.0175 107.325 67.855 113.233 69.5529C119.141 71.2508 125.5 67.1661 127.436 60.4296Z" fill="#4F2A0B"/>
<path d="M60.8556 172.329C25.4189 171.404 12.0507 138.02 10.3167 130.594C8.5827 123.168 2.24715 125.327 2.24715 125.327C1.85272 125.334 1.46313 125.239 1.11631 125.051C0.769489 124.863 0.477267 124.589 0.268164 124.254C-0.498959 123.082 0.623617 121.761 0.623617 121.761C0.623617 121.761 6.88881 115.695 14.3783 119.835C21.8679 123.975 22.3602 135.231 34.8157 137.084C47.2712 138.936 48.6177 122.675 46.5531 112.068C44.609 102.08 41.0383 88.4967 40.6376 79.0663C40.2369 69.6359 40.9866 31.2902 76.4048 28.0885C102.206 25.0067 113.58 41.7813 118.784 54.019C124.636 67.7818 125.749 91.1924 125.749 91.1924C125.749 91.1924 125.928 95.2368 126.129 99.5154C126.33 103.794 126.553 108.307 125.759 114.449C120.698 153.599 94.0684 173.197 60.8556 172.329Z" fill="white"/>
<path d="M60.9072 172.484C94.12 173.352 120.75 153.753 125.811 114.603C126.605 108.461 126.382 103.949 126.181 99.6699C125.98 95.3913 125.8 91.3469 125.493 86.9606C121.838 108.364 120.113 117.576 109.3 136.885C99.0513 155.187 84.3856 164.283 70.4342 164.892C57.7311 165.446 42.0835 166.159 27.5076 151.539C10.8113 134.793 13.6911 125.776 8.81389 123.173C4.91644 121.093 1.52638 122.835 0.319824 124.409C0.52893 124.743 0.821113 125.018 1.16794 125.206C1.51476 125.394 1.90438 125.489 2.29881 125.481C2.29881 125.481 8.63436 123.322 10.3684 130.748C12.1024 138.174 25.4706 171.558 60.9072 172.484Z" fill="url(#paint0_radial)"/>
<path d="M60.9072 172.484C94.12 173.352 120.75 153.753 125.811 114.603C126.605 108.461 126.382 103.949 126.181 99.6699C125.98 95.3913 125.8 91.3469 125.493 86.9606C121.838 108.364 120.113 117.576 109.3 136.885C99.0513 155.187 84.3856 164.283 70.4342 164.892C57.7311 165.446 42.0835 166.159 27.5076 151.539C10.8113 134.793 13.6911 125.776 8.81389 123.173C4.91644 121.093 1.52638 122.835 0.319824 124.409C0.52893 124.743 0.821113 125.018 1.16794 125.206C1.51476 125.394 1.90438 125.489 2.29881 125.481C2.29881 125.481 8.63436 123.322 10.3684 130.748C12.1024 138.174 25.4706 171.558 60.9072 172.484Z" fill="url(#paint1_linear)"/>
<path d="M64.857 55.0675L64.2761 55.1111C63.2871 55.1852 62.5455 56.0471 62.6196 57.0361L62.925 61.108C62.9991 62.097 63.861 62.8386 64.8499 62.7645L65.4309 62.7209C66.4199 62.6467 67.1615 61.7849 67.0873 60.7959L66.782 56.724C66.7078 55.735 65.846 54.9934 64.857 55.0675Z" fill="#1D1D1B"/>
<path d="M93.6392 52.8727L93.0583 52.9163C92.0693 52.9904 91.3277 53.8523 91.4019 54.8412L91.7072 58.9132C91.7813 59.9022 92.6432 60.6438 93.6322 60.5696L94.2131 60.5261C95.2021 60.4519 95.9437 59.5901 95.8696 58.6011L95.5642 54.5291C95.4901 53.5402 94.6282 52.7985 93.6392 52.8727Z" fill="#1D1D1B"/>
<path d="M46.5589 101.98C45.79 99.8479 42.6775 93.5591 42.6775 93.5591L46.4211 111.363V111.363C46.4781 111.65 46.5392 111.936 46.6044 112.222C48.4596 120.301 47.6869 133.915 39.2471 136.885C41.7876 136.372 44.7323 135.022 47.2026 131.849C53.3323 123.977 48.7215 108.467 46.5589 101.98Z" fill="url(#paint2_radial)"/>
<path d="M35.1556 96.3252C36.3741 89.5395 43.1242 84.5306 48.535 89.2437C52.6354 92.8154 57.7459 94.62 61.1822 95.4439C65.4148 96.4588 69.0491 98.2253 69.2539 102.385C69.4587 106.544 65.9581 109.607 61.7512 110.494C55.4261 111.827 50.2875 112.993 43.4786 110.447C37.5972 108.247 33.9371 103.111 35.1556 96.3252Z" fill="white"/>
<path d="M43.1112 106.392C49.9202 108.939 55.9779 110.352 61.9508 107.726C65.3468 106.233 67.9908 103.21 68.7289 100.101C69.0441 100.808 69.2217 101.569 69.2524 102.342C69.4572 106.502 65.8521 109.581 61.7448 111.073C55.4978 113.343 50.286 112.951 43.4771 110.404C38.0865 108.388 34.565 103.904 34.9524 97.9456C35.9933 101.897 39.0112 104.859 43.1112 106.392Z" fill="url(#paint3_radial)"/>
<path d="M41.4687 109.492L42.5123 109.888L43.5466 110.304L43.5341 110.299C44.8509 110.743 46.1822 111.138 47.5279 111.452C48.8654 111.782 50.2274 112.003 51.6007 112.112C52.9647 112.224 54.3362 112.204 55.6964 112.053C57.0534 111.892 58.3941 111.616 59.704 111.227C60.3612 111.039 61.008 110.806 61.6508 110.576C62.2832 110.337 62.9001 110.06 63.4978 109.744C64.6887 109.135 65.7738 108.337 66.7112 107.382C67.6276 106.455 68.2723 105.295 68.575 104.027C68.8541 102.773 68.7243 101.463 68.2046 100.289C67.6768 99.1404 66.6851 98.2433 65.5391 97.5907C64.3526 96.9455 63.0914 96.4486 61.7838 96.111C61.1323 95.9334 60.435 95.7688 59.7586 95.5694C59.0817 95.368 58.4074 95.158 57.7437 94.9167C56.4139 94.4407 55.117 93.8772 53.8615 93.2299C52.6029 92.5876 51.3975 91.8459 50.2568 91.0118C49.968 90.8088 49.6925 90.5874 49.4163 90.3676C49.1356 90.1535 48.8724 89.9173 48.6051 89.6871C48.3315 89.4537 48.0903 89.2305 47.8213 89.0235C47.5552 88.8166 47.2768 88.6262 46.9877 88.4531C45.8194 87.7469 44.4514 87.444 43.0942 87.5909C41.7179 87.7709 40.4122 88.3062 39.3057 89.1442C40.3655 88.2046 41.6636 87.5747 43.0575 87.3237C44.4863 87.0931 45.9512 87.3373 47.2278 88.019C47.5467 88.1862 47.8545 88.3738 48.1493 88.5807C48.4414 88.7873 48.722 89.0268 48.9872 89.235C49.2564 89.449 49.5206 89.6686 49.8024 89.8664C50.0797 90.0697 50.3554 90.2745 50.6446 90.4611C51.7875 91.2257 52.9834 91.908 54.2231 92.503C55.4634 93.0977 56.7409 93.6114 58.0476 94.0409C58.6975 94.2648 59.3576 94.4581 60.0193 94.6428C60.6829 94.8262 61.3451 94.9699 62.0411 95.1467C63.4421 95.4788 64.7937 95.9925 66.0616 96.6749C66.7106 97.0362 67.3111 97.4782 67.8491 97.9904C68.3981 98.5188 68.8485 99.141 69.179 99.8276C69.5026 100.517 69.7034 101.257 69.7723 102.015C69.8473 102.766 69.8015 103.525 69.6366 104.261C69.2843 105.719 68.539 107.053 67.4816 108.117C66.4618 109.154 65.2756 110.014 63.9721 110.66C63.3317 110.985 62.6717 111.269 61.9957 111.511C61.3231 111.74 60.6538 111.966 59.9672 112.149C57.2265 112.927 54.3599 113.161 51.5293 112.836C50.1283 112.666 48.7434 112.383 47.3883 111.988C46.0385 111.595 44.7204 111.116 43.4234 110.595L43.4127 110.59L43.4109 110.589L42.4351 110.05L41.4687 109.492Z" fill="url(#paint4_radial)"/>
<path d="M83.3377 61.0046C83.4923 63.0672 82.0931 64.8535 80.2123 64.9946C78.3315 65.1356 76.6815 63.5779 76.5269 61.5153" stroke="#1D1D1B" stroke-width="0.820633" stroke-miterlimit="10" stroke-linecap="round"/>
<path d="M123.134 128.687C116.657 131.019 98.2802 136.607 80.9087 134.362C64.5803 132.254 51.0172 125.794 47.1807 123.828C46.9756 125.737 46.563 127.617 45.9502 129.436C51.345 132.089 64.4757 137.756 80.2078 139.788C83.2617 140.175 86.3372 140.366 89.4156 140.36C101.828 140.36 113.753 137.5 120.785 135.274C121.653 133.167 122.436 130.971 123.134 128.687Z" fill="#1A1A1A"/>
<path d="M127.083 92.8369C127.078 92.7382 127.073 92.6414 127.068 92.5465C127.059 92.3803 127.05 92.2205 127.042 92.0672C127.025 91.7391 127.009 91.443 126.996 91.1857C126.989 91.0658 126.984 90.9544 126.978 90.8521C126.953 90.3664 126.938 90.086 126.938 90.086L126.935 90.0381L126.934 90.014L126.933 89.9994C126.932 89.9765 126.93 89.9483 126.928 89.9164C126.927 89.9022 126.926 89.8884 126.925 89.8725L126.921 89.8125L126.919 89.7739L126.913 89.693L126.911 89.6612C126.904 89.5548 126.895 89.4299 126.885 89.2864L126.884 89.2768C126.869 89.0704 126.851 88.8269 126.829 88.5495L126.828 88.54C126.755 87.6282 126.495 85.3387 125.589 84.9382C124.754 84.5688 87.123 96.4798 87.123 96.4798L85.4624 105.709L84.5356 96.4412L40.9409 82.9048L40.9411 82.9056C41.0582 84.7111 41.3098 86.5054 41.6938 88.2735C41.8574 88.7034 41.9983 89.1416 42.1161 89.5863C42.1235 89.6212 42.1307 89.6559 42.1382 89.6908C42.2343 90.1424 42.3333 90.5961 42.4349 91.0519L42.4424 91.0854C42.5417 91.53 42.6433 91.9761 42.7471 92.4237C42.7548 92.4567 42.7623 92.4896 42.77 92.5226C42.8759 92.979 42.9837 93.4362 43.0933 93.8942C43.0989 93.9173 43.1045 93.9405 43.11 93.9637C43.2156 94.4047 43.3226 94.8458 43.4307 95.287C43.4387 95.3194 43.4466 95.3519 43.4545 95.3843C43.566 95.8389 43.6783 96.2931 43.7916 96.7468C43.8008 96.7836 43.81 96.8202 43.8192 96.857C43.926 97.2845 44.0331 97.7111 44.1406 98.1367C44.1502 98.1743 44.1597 98.2119 44.1692 98.2496C44.2814 98.6939 44.3936 99.1366 44.5058 99.5775C44.5358 99.6951 44.5656 99.8125 44.5954 99.9298C44.669 100.219 44.7424 100.507 44.8155 100.794C44.9476 101.313 45.0784 101.828 45.2079 102.338L45.2382 102.458C45.3467 102.887 45.4538 103.311 45.5595 103.733L45.5676 103.765C45.6736 104.188 45.7776 104.606 45.8796 105.02C45.8853 105.043 45.8912 105.067 45.8968 105.089L45.8966 105.089C46.1581 106.151 46.406 107.184 46.6317 108.174C47.2777 111.024 47.5333 113.949 47.3914 116.868C47.3064 118.443 41.9476 120.17 41.5678 121.622C41.121 123.33 46.4793 126.596 46.4793 126.596C46.4793 126.596 65.7013 133.818 80.3411 134.903C96.2407 136.081 111.321 134.394 120.245 130.686C121.221 130.308 124.774 128.314 126.207 126.775C127.894 124.964 124.849 120.481 126.082 114.904L126.08 114.901C126.153 114.569 126.224 114.235 126.293 113.899C126.305 113.838 126.319 113.778 126.331 113.718C126.387 113.442 126.44 113.164 126.493 112.886C126.535 112.666 126.576 112.446 126.616 112.225C126.653 112.021 126.69 111.817 126.725 111.611C126.803 111.156 126.879 110.699 126.949 110.238C127.225 108.423 127.401 106.594 127.476 104.76C127.509 103.937 127.52 103.147 127.516 102.383V102.382C127.507 100.581 127.413 98.9199 127.324 97.298C127.273 96.3711 127.223 95.4569 127.178 94.607C127.172 94.4959 127.166 94.386 127.16 94.2773C127.133 93.7664 127.107 93.2824 127.083 92.8369Z" fill="#88D0EA"/>
<g style="mix-blend-mode:multiply">
<path d="M84.5357 96.4411L79.3802 109.49L42.417 92.3073L79.3802 111.529L84.5357 96.4411Z" fill="#88D0EA"/>
</g>
<g style="mix-blend-mode:multiply">
<path d="M87.123 96.4799L93.0896 109.678L128.867 94.1055L92.5499 111.483L87.123 96.4799Z" fill="#88D0EA"/>
</g>
<path d="M87.1663 114.168C88.0806 114.168 88.8219 113.427 88.8219 112.513C88.8219 111.599 88.0806 110.857 87.1663 110.857C86.252 110.857 85.5107 111.599 85.5107 112.513C85.5107 113.427 86.252 114.168 87.1663 114.168Z" fill="#1A1A1A"/>
<path d="M86.2332 122.077C87.1475 122.077 87.8888 121.336 87.8888 120.422C87.8888 119.507 87.1475 118.766 86.2332 118.766C85.3189 118.766 84.5776 119.507 84.5776 120.422C84.5776 121.336 85.3189 122.077 86.2332 122.077Z" fill="#1A1A1A"/>
<path d="M85.1892 129.986C86.1036 129.986 86.8448 129.245 86.8448 128.33C86.8448 127.416 86.1036 126.675 85.1892 126.675C84.2749 126.675 83.5337 127.416 83.5337 128.33C83.5337 129.245 84.2749 129.986 85.1892 129.986Z" fill="#1A1A1A"/>
<path d="M35.1556 96.3252C36.3741 89.5395 43.1242 84.5306 48.535 89.2437C52.6354 92.8154 57.7459 94.62 61.1822 95.4439C65.4148 96.4588 69.0491 98.2253 69.2539 102.385C69.4587 106.544 65.9581 109.607 61.7512 110.494C55.4261 111.827 50.2875 112.993 43.4786 110.447C37.5972 108.247 33.9371 103.111 35.1556 96.3252Z" fill="#88D0EA"/>
<g style="mix-blend-mode:multiply" opacity="0.51">
<g style="mix-blend-mode:multiply" opacity="0.51">
<path d="M69.2542 102.385C69.2218 101.517 69.0018 100.666 68.6096 99.8917C68.0988 103.367 64.9165 105.881 61.1722 106.67C54.8471 108.004 49.7085 109.17 42.8996 106.623C39.018 105.172 36.1052 102.44 34.9226 98.8006C34.8917 104.354 38.3359 108.523 43.4788 110.447C50.2878 112.993 55.4263 111.827 61.7515 110.494C65.9584 109.607 69.459 106.544 69.2542 102.385Z" fill="#88D0EA"/>
</g>
</g>
<g style="mix-blend-mode:multiply">
<path d="M45.5698 103.774C45.675 104.194 45.7783 104.609 45.8796 105.02C45.8852 105.043 45.8912 105.066 45.8968 105.089L45.8966 105.089C46.1581 106.151 46.406 107.184 46.6316 108.174C47.2777 111.024 47.5333 113.949 47.3914 116.868C47.3597 117.454 46.5972 118.061 45.6331 118.667C47.1551 121.78 49.8527 126.286 53.7244 129.062C55.9215 129.76 58.4961 130.534 61.2752 131.289C69.6604 130.327 80.4522 120.37 90.7691 120.017C100.371 119.689 118.419 123.814 126.042 120.744C125.681 118.813 125.695 116.83 126.082 114.904L126.08 114.901C126.153 114.569 126.224 114.235 126.293 113.899C126.305 113.838 126.318 113.778 126.331 113.718C126.387 113.442 126.44 113.164 126.493 112.886C126.535 112.666 126.576 112.446 126.616 112.225C126.653 112.021 126.69 111.817 126.725 111.611C126.803 111.156 126.879 110.699 126.949 110.238C127.225 108.423 127.401 106.594 127.476 104.759C127.509 103.937 127.52 103.147 127.516 102.383V102.382C127.516 102.299 127.513 102.22 127.512 102.138C121.634 104.517 98.1122 113.782 87.4483 114.144C76.4386 114.518 52.2035 102.651 45.5698 103.774Z" fill="#88D0EA"/>
</g>
<path d="M72.8056 97.7108L72.8512 98.3917H45.099C44.474 101.245 44.1248 104.153 44.0563 107.073C43.7167 119.448 51.3779 125.195 63.1241 125.195C74.8703 125.195 83.3349 116.587 82.166 107.073C81.6838 103.148 76.9389 100.052 72.8056 97.7108Z" fill="#A06635"/>
<path d="M67.6353 93.9928C64.2014 91.6566 64.6635 85.9276 57.739 85.5754C50.5574 85.2102 44.667 91.1748 44.1655 106.174C43.8367 118.402 51.4527 124.076 63.1234 124.076C74.7941 124.076 83.2107 115.575 82.0556 106.174C81.3461 100.399 71.1853 96.4079 67.6353 93.9928ZM56.5176 91.7792C54.9803 91.7792 53.7998 90.7793 53.8798 89.5652C53.9583 88.372 55.2287 87.4198 56.7184 87.4198C58.2081 87.4198 59.3907 88.372 59.3593 89.5652C59.3274 90.7793 58.0549 91.7792 56.5176 91.7792Z" fill="#EAB773"/>
<path d="M54.0909 89.8887C54.1678 88.69 55.4396 87.7334 56.9327 87.7334C57.344 87.7206 57.7532 87.7964 58.1327 87.9557C58.5121 88.1149 58.8528 88.3539 59.1317 88.6565C58.7227 87.9237 57.8035 87.4197 56.7183 87.4197C55.2286 87.4197 53.9583 88.372 53.8797 89.5652C53.8525 90.0179 53.998 90.4641 54.2868 90.8138C54.1383 90.5291 54.0705 90.2092 54.0909 89.8887Z" fill="#A06635"/>
<path d="M75.4904 102.261C75.7442 102.561 75.9272 102.914 76.026 103.294C76.1247 103.674 76.1367 104.072 76.061 104.457C75.9853 104.842 75.8238 105.206 75.5886 105.52C75.3534 105.835 75.0504 106.092 74.7021 106.274C73.1731 107.141 72.7612 105.741 71.7183 104.35C70.694 102.984 69.438 102.132 70.9383 101.32C71.691 100.935 72.5522 100.819 73.3798 100.99C74.2073 101.162 74.9518 101.61 75.4904 102.261Z" fill="#16168F"/>
<path d="M68.2718 102.611C67.988 102.103 68.2768 101.487 68.9131 101.233C69.5474 100.979 69.8203 101.41 69.8828 101.963C70.0662 103.587 71.3837 104.183 70.7627 104.186C70.0398 104.189 68.5575 103.122 68.2718 102.611Z" fill="#16168F"/>
<path d="M53.9775 100.165C53.9 98.6601 54.281 97.8542 53.0051 97.7561C52.4286 97.7117 52.1882 97.9418 51.726 98.2099C51.3162 97.9282 50.8215 97.7973 50.326 97.8394C49.2068 97.916 48.2961 98.7434 48.293 99.6984C48.2902 100.546 48.6269 100.986 49.4809 101.028C49.5049 101.355 49.6342 101.665 49.8492 101.912C50.187 102.288 50.6562 102.521 51.1604 102.563C51.8492 103.09 52.7128 103.335 53.5756 103.248C55.3959 103.096 54.0567 101.702 53.9775 100.165Z" fill="#FCEE21"/>
<path d="M67.4106 110.054C66.2941 110.054 66.5074 110.929 66.8864 112.019C66.5844 112.075 66.2904 112.168 66.0112 112.296C64.2866 113.088 63.6112 114.206 64.4633 115.816C65.1303 117.077 66.5771 116.549 67.1056 116.791C67.6357 117.033 67.1661 117.698 68.1426 117.698C70.1365 117.698 72.5609 116.29 72.4536 114.436C72.3486 112.622 69.313 110.054 67.4106 110.054Z" fill="#C1272D"/>
<path d="M55.9747 107.763C57.0751 107.763 56.8506 108.613 56.4593 109.671C56.7553 109.725 57.0434 109.815 57.3173 109.94C59.0036 110.71 59.6506 111.795 58.7846 113.358C58.107 114.58 50.59 113.807 50.9354 112.017C51.6621 108.251 54.0997 107.763 55.9747 107.763Z" fill="#F79018"/>
<path d="M66.6539 98.3251C66.4616 99.4412 63.6533 101.527 62.6963 100.387C61.714 99.2168 58.1874 100.871 58.9498 98.2356C59.2643 97.1485 61.3743 95.6177 62.7045 96.3194C64.6415 97.3411 67.2331 94.9625 66.6539 98.3251Z" fill="#006837"/>
<path d="M59.364 100.411C59.1942 100.554 59.0083 100.749 59.0929 100.936C59.1375 101.004 59.2001 101.058 59.2736 101.093C59.3471 101.127 59.4287 101.141 59.5094 101.132C59.678 101.116 59.8445 101.083 60.0062 101.032C60.1686 100.982 60.3427 100.985 60.5039 101.038C60.7091 101.126 60.8111 101.352 61.0313 101.41C61.2304 101.435 61.4317 101.385 61.5957 101.269C61.7002 101.229 61.7886 101.155 61.8472 101.059C61.9058 100.964 61.9315 100.851 61.9202 100.74C61.9367 100.561 61.8887 100.383 61.785 100.236C61.5859 100.021 61.1533 100.088 60.8747 100.091C60.5516 100.094 60.129 99.7692 59.364 100.411Z" fill="#006837"/>
<path d="M119.616 29.7103C118.996 29.7223 118.377 29.7822 117.766 29.8895C119.013 26.8851 119.335 23.5769 118.69 20.3885C118.045 17.2002 116.463 14.277 114.147 11.9932C111.831 9.70938 108.885 8.16903 105.688 7.5694C102.491 6.96977 99.1878 7.33817 96.2014 8.62741C92.026 3.3152 85.1862 -0.108373 77.5333 0.00262048C68.4437 0.134518 60.7452 5.21546 57.4025 12.4015C54.3732 11.2594 51.0728 11.0432 47.9204 11.7802C44.7679 12.5172 41.9055 14.1741 39.6965 16.5408C37.4874 18.9075 36.0313 21.8771 35.513 25.0728C34.9947 28.2685 35.4375 31.5461 36.7853 34.4897C34.5612 35.1162 32.5661 36.3735 31.0413 38.1097C29.5165 39.8458 28.5273 41.9865 28.1931 44.2729C27.859 46.5593 28.1942 48.8935 29.1584 50.9934C30.1226 53.0933 31.6744 54.869 33.6262 56.1058C35.578 57.3426 37.8463 57.9876 40.1568 57.9627C42.4674 57.9379 44.7213 57.2443 46.646 55.9659C48.5708 54.6874 50.0841 52.8788 51.0029 50.7586C51.9217 48.6385 52.2067 46.2976 51.8235 44.0189C51.8669 44.0184 51.9097 44.0205 51.9531 44.0197C54.5009 43.9726 57.0022 43.3292 59.2566 42.1411C61.5109 40.953 63.4555 39.2533 64.9345 37.1782C68.9637 39.8452 73.7082 41.225 78.5393 41.1348C83.5758 41.0934 88.4644 39.4273 92.478 36.3843C94.655 38.1255 97.2415 39.2805 99.9913 39.7392C102.741 40.1978 105.562 39.9449 108.187 39.0045C107.632 41.4318 107.849 43.9717 108.807 46.2699C109.765 48.5681 111.416 50.51 113.53 51.8248C115.645 53.1397 118.117 53.7619 120.602 53.6047C123.087 53.4475 125.46 52.5187 127.392 50.9478C129.324 49.377 130.717 47.2424 131.378 44.8418C132.039 42.4412 131.934 39.8943 131.078 37.5562C130.222 35.2182 128.657 33.2056 126.603 31.7991C124.548 30.3926 122.106 29.6624 119.616 29.7103V29.7103Z" fill="#603813"/>
<path d="M86.3402 75.3902L76.258 76.1462C74.9923 76.2396 73.7412 75.8272 72.7792 74.9994C71.8172 74.1716 71.2228 72.996 71.1265 71.7305L70.3704 61.6483C70.277 60.3826 70.6894 59.1315 71.5172 58.1695C72.345 57.2075 73.5206 56.6131 74.7861 56.5168L84.8683 55.7608C86.134 55.6673 87.3851 56.0797 88.3471 56.9075C89.3091 57.7353 89.9035 58.9109 89.9998 60.1764L90.7558 70.2586C90.8493 71.5243 90.4369 72.7754 89.6091 73.7374C88.7813 74.6994 87.6056 75.2938 86.3402 75.3902ZM75.0111 59.5173C74.5411 59.5531 74.1044 59.7739 73.797 60.1312C73.4895 60.4885 73.3363 60.9532 73.371 61.4233L74.127 71.5055C74.1628 71.9755 74.3836 72.4122 74.7409 72.7196C75.0982 73.0271 75.5629 73.1803 76.033 73.1456L86.1152 72.3896C86.5852 72.3538 87.0218 72.133 87.3293 71.7757C87.6368 71.4184 87.79 70.9537 87.7553 70.4836L86.9993 60.4014C86.9635 59.9314 86.7427 59.4947 86.3854 59.1873C86.0281 58.8798 85.5634 58.7266 85.0933 58.7613L75.0111 59.5173Z" fill="#603813"/>
<path d="M70.7109 66.9882L90.3822 65.5131L91.0662 74.6353C91.1313 75.5035 90.8489 76.3619 90.2811 77.0218C89.7132 77.6817 88.9065 78.089 88.0384 78.1541L74.9138 79.1383C74.0456 79.2034 73.1871 78.9209 72.5272 78.3531C71.8673 77.7852 71.4601 76.9785 71.395 76.1104L70.7109 66.9882Z" fill="#603813"/>
<path d="M89.1045 77.4316L73.829 78.577C73.444 78.6068 73.0566 78.572 72.6831 78.4741C73.3344 78.9622 74.1408 79.1972 74.9524 79.1353L88.077 78.1512C88.894 78.0663 89.653 77.6897 90.2148 77.0906C89.8663 77.2652 89.491 77.3805 89.1045 77.4316Z" fill="#4F2A0B"/>
<path d="M74.8638 74.6384L53.1478 76.2668C51.5566 76.3843 49.9838 75.8658 48.7744 74.8251C47.565 73.7844 46.8178 72.3065 46.6967 70.7156L44.8784 46.4674L50.334 46.0583L52.1523 70.3065C52.165 70.4505 52.2334 70.5838 52.3429 70.6781C52.4525 70.7723 52.5945 70.8201 52.7387 70.8112L74.4547 69.1828L74.8638 74.6384Z" fill="#603813"/>
<path d="M111.731 71.9281L90.0145 73.5564L89.6055 68.1009L111.321 66.4725C111.465 66.4598 111.599 66.3914 111.693 66.2819C111.787 66.1723 111.835 66.0303 111.826 65.8861L110.008 41.6378L115.463 41.2287L117.282 65.477C117.399 67.0682 116.881 68.641 115.84 69.8504C114.799 71.0598 113.321 71.807 111.731 71.9281Z" fill="#603813"/>
<path d="M122.224 48.3567C114.294 48.3567 110.735 42.1642 109.566 36.301C106.313 36.8315 102.976 36.3645 99.9935 34.9616C97.0113 33.5587 94.5239 31.2856 92.8585 28.4417C88.6776 31.5315 83.6265 33.2197 78.4279 33.2647C73.3429 33.3597 68.3491 31.9073 64.108 29.1002C61.2763 35.484 54.4474 37.9579 48.797 38.0669C48.7513 38.0677 48.7062 38.0655 48.6605 38.066C48.7629 38.6764 48.8204 39.2934 48.8326 39.9122C48.9665 46.8633 45.0877 50.8412 38.1366 50.9753C36.1994 51.014 34.2796 50.6042 32.527 49.7779C30.7745 48.9517 29.2367 47.7314 28.034 46.2123C28.0343 46.2378 28.0333 46.2629 28.0338 46.2883C28.0657 47.9327 28.4363 49.5529 29.1226 51.0475C29.809 52.5422 30.7962 53.8792 32.0227 54.9751C33.2491 56.071 34.6884 56.9021 36.2506 57.4165C37.8128 57.931 39.4643 58.1177 41.1019 57.965C42.7395 57.8122 44.328 57.3234 45.7682 56.529C47.2083 55.7346 48.4691 54.6517 49.4718 53.3479C50.4744 52.0442 51.1974 50.5477 51.5956 48.9519C51.9937 47.3561 52.0584 45.6953 51.7856 44.0733C51.829 44.0729 51.8718 44.0749 51.9153 44.0741C54.463 44.0271 56.9644 43.3837 59.2187 42.1956C61.473 41.0076 63.4176 39.3078 64.8966 37.2327C68.9258 39.8997 73.6703 41.2795 78.5014 41.1894C83.5379 41.1479 88.4265 39.4817 92.4401 36.4388C94.6171 38.1801 97.2037 39.3351 99.9534 39.7937C102.703 40.2524 105.524 39.9994 108.149 39.059C107.773 40.7031 107.749 42.4082 108.079 44.0622C108.409 45.7162 109.085 47.2817 110.063 48.656C111.04 50.0303 112.298 51.1822 113.752 52.0361C115.206 52.8901 116.825 53.4268 118.501 53.6109C120.178 53.795 121.874 53.6225 123.479 53.1046C125.084 52.5867 126.562 51.7351 127.814 50.6058C129.067 49.4765 130.067 48.095 130.748 46.552C131.429 45.0091 131.776 43.3395 131.766 41.653C130.359 45.8851 127.58 48.3567 122.224 48.3567Z" fill="#4F2A0B"/>
<path d="M103.555 96.0984C103.555 101.053 102.324 119.068 100.806 119.068C99.2874 119.068 98.0566 101.053 98.0566 96.0984C98.0566 91.1434 99.2874 90.2684 100.806 90.2684C102.324 90.2684 103.555 91.1434 103.555 96.0984Z" fill="#FBB03B"/>
<path d="M104.667 84.3201C104.667 85.3444 104.261 86.3266 103.536 87.0508C102.812 87.7751 101.83 88.1819 100.806 88.1819C99.7814 88.1819 98.7991 87.7751 98.0749 87.0508C97.3507 86.3266 96.9438 85.3444 96.9438 84.3201C96.9438 80.8838 99.6252 76.6947 101.137 74.6119C101.315 74.3669 101.669 74.4034 101.689 74.7055C101.778 76.0107 101.186 78.0991 101.841 79.7919C102.725 82.0768 104.667 82.5856 104.667 84.3201Z" fill="#4F2A0B"/>
<g style="mix-blend-mode:multiply" opacity="0.25">
<path d="M100.659 86.4283C98.6039 86.3422 97.2529 84.9399 96.9502 84.0342C96.9462 84.13 96.9438 84.2254 96.9438 84.3202C96.944 85.2137 97.2539 86.0796 97.8209 86.7703C98.3879 87.4609 99.1768 87.9336 100.053 88.1078C100.93 88.282 101.839 88.1469 102.627 87.7256C103.415 87.3042 104.033 86.6227 104.375 85.7971C103.19 86.2506 101.927 86.4651 100.659 86.4283Z" fill="#4F2A0B"/>
</g>
<path d="M103.172 92.3505H98.4395L99.0255 88.03C99.041 87.9158 99.0974 87.811 99.1842 87.7351C99.271 87.6593 99.3824 87.6175 99.4977 87.6175H102.114C102.23 87.6175 102.341 87.6593 102.428 87.7351C102.515 87.811 102.571 87.9158 102.586 88.03L103.172 92.3505Z" fill="#E6E6E6"/>
<g style="mix-blend-mode:multiply" opacity="0.31">
<path d="M100.806 104.668C99.7361 104.668 98.7866 102.947 98.1919 100.288C98.5509 107.429 99.5856 119.068 100.806 119.068C102.026 119.068 103.061 107.429 103.42 100.288C102.825 102.947 101.876 104.668 100.806 104.668Z" fill="#FBB03B"/>
</g>
<path d="M100.806 88.3702C100.198 88.3801 99.5929 88.2842 99.0178 88.0867L98.4395 92.3505H103.172L102.594 88.0867C102.019 88.2842 101.414 88.3801 100.806 88.3702Z" fill="#F2F2F2"/>
<path d="M133.674 97.1735C132.456 90.3878 125.706 85.3789 120.295 90.092C116.194 93.6637 111.084 95.4682 107.648 96.2922C103.415 97.307 99.7808 99.0736 99.5759 103.233C99.3711 107.392 102.872 110.455 107.079 111.342C113.404 112.675 118.542 113.842 125.351 111.295C131.233 109.095 134.893 103.959 133.674 97.1735Z" fill="white"/>
<path d="M125.719 107.241C118.91 109.787 112.852 111.2 106.879 108.574C103.483 107.081 100.839 104.058 100.101 100.949C99.786 101.656 99.6083 102.417 99.5777 103.191C99.3729 107.35 102.978 110.429 107.085 111.921C113.332 114.191 118.544 113.799 125.353 111.252C130.744 109.236 134.265 104.753 133.878 98.7939C132.837 102.745 129.819 105.707 125.719 107.241Z" fill="url(#paint5_radial)"/>
<path d="M127.362 110.34L126.395 110.899L125.419 111.438L125.418 111.439L125.407 111.443C124.11 111.964 122.792 112.443 121.442 112.836C120.087 113.231 118.702 113.515 117.301 113.685C114.47 114.009 111.604 113.776 108.863 112.997C108.176 112.814 107.507 112.588 106.834 112.359C106.159 112.117 105.499 111.833 104.858 111.508C103.555 110.862 102.368 110.003 101.349 108.965C100.291 107.901 99.5459 106.568 99.1936 105.109C99.0287 104.373 98.9829 103.615 99.0579 102.863C99.1268 102.105 99.3276 101.365 99.6512 100.676C99.9817 99.9892 100.432 99.3671 100.981 98.8386C101.519 98.3265 102.12 97.8844 102.769 97.5231C104.037 96.8407 105.388 96.327 106.789 95.9949C107.485 95.8181 108.147 95.6744 108.811 95.491C109.473 95.3063 110.133 95.1131 110.783 94.8891C112.089 94.4597 113.367 93.9459 114.607 93.3512C115.847 92.7562 117.043 92.0739 118.186 91.3093C118.475 91.1228 118.751 90.9179 119.028 90.7146C119.31 90.5168 119.574 90.2973 119.843 90.0832C120.108 89.875 120.389 89.6356 120.681 89.4289C120.976 89.2221 121.284 89.0345 121.602 88.8672C122.879 88.1856 124.344 87.9413 125.773 88.1719C127.167 88.423 128.465 89.0529 129.525 89.9925C128.418 89.1545 127.112 88.6191 125.736 88.4392C124.379 88.2922 123.011 88.5951 121.843 89.3013C121.553 89.4744 121.275 89.6649 121.009 89.8718C120.74 90.0788 120.499 90.302 120.225 90.5353C119.958 90.7656 119.695 91.0017 119.414 91.2158C119.138 91.4356 118.862 91.657 118.573 91.86C117.433 92.6941 116.227 93.4358 114.969 94.0782C113.713 94.7254 112.416 95.2889 111.087 95.7649C110.423 96.0062 109.749 96.2162 109.072 96.4177C108.395 96.617 107.698 96.7816 107.046 96.9593C105.739 97.2968 104.478 97.7937 103.291 98.4389C102.145 99.0915 101.153 99.9887 100.626 101.137C100.106 102.311 99.9761 103.621 100.255 104.875C100.558 106.143 101.203 107.303 102.119 108.23C103.057 109.185 104.142 109.983 105.332 110.593C105.93 110.908 106.547 111.186 107.179 111.424C107.822 111.655 108.469 111.887 109.126 112.075C110.436 112.464 111.777 112.74 113.134 112.901C114.494 113.052 115.866 113.072 117.23 112.961C118.603 112.851 119.965 112.63 121.302 112.3C122.648 111.986 123.979 111.591 125.296 111.147L125.284 111.152L126.318 110.736L127.362 110.34Z" fill="url(#paint6_radial)"/>
<path d="M120.103 89.5865C116.36 92.8466 111.265 94.62 107.88 95.5337C110.429 96.9239 112.515 100.523 112.434 105.534C112.394 107.986 110.96 111.559 109.966 113.415C114.699 114.301 119.268 114.128 125.374 111.493C132.812 108.282 134.893 103.959 133.675 97.1735C132.456 90.3878 125.514 84.8734 120.103 89.5865Z" fill="#88D0EA"/>
<g style="mix-blend-mode:multiply" opacity="0.49">
<g style="mix-blend-mode:multiply" opacity="0.49">
<path d="M125.374 107.806C119.91 110.165 115.676 110.548 111.454 109.968C111.041 111.143 110.543 112.288 109.966 113.392C114.699 114.278 119.268 114.105 125.374 111.469C132.276 108.49 134.563 104.552 133.884 98.5778C133.332 102.577 130.756 105.483 125.374 107.806Z" fill="#88D0EA"/>
</g>
</g>
<path d="M101.962 79.7408C101.301 78.0336 101.877 75.934 101.81 74.5917C101.806 74.5269 101.782 74.4651 101.741 74.4146C101.7 74.3641 101.645 74.3274 101.583 74.3095C101.52 74.2916 101.454 74.2933 101.393 74.3145C101.331 74.3357 101.278 74.3753 101.24 74.4279C99.9594 76.1922 97.7284 79.4114 97.0305 82.4704C96.9981 82.6186 97.0207 82.7734 97.0941 82.9062C97.4251 83.5183 97.8744 84.0889 98.6972 84.16C99.4992 84.2293 99.6909 83.3674 100.384 83.5739C101.077 83.7805 100.904 85.6533 102.318 85.6552C103.49 85.6567 104.01 84.4129 104.298 83.2593C104.322 83.1793 104.326 83.0948 104.311 83.0127C104.296 82.9306 104.261 82.8533 104.211 82.7871C103.548 81.9808 102.537 81.227 101.962 79.7408Z" fill="#F7931E"/>
<g style="mix-blend-mode:screen">
<path d="M103.335 84.743C102.547 85.4203 101.882 85.178 101.56 84.8038C101.239 84.4296 102.2 84.2487 102.736 83.7879C103.273 83.3271 103.273 82.8752 103.594 83.2494C103.916 83.6236 104.124 84.0657 103.335 84.743Z" fill="#F7931E"/>
</g>
<g style="mix-blend-mode:screen">
<path d="M98.8308 83.5951C98.3433 83.7294 98.101 83.4848 98.0373 83.2534C97.9736 83.0221 98.3274 83.2356 98.6591 83.1442C98.9908 83.0529 99.1911 82.7604 99.2548 82.9918C99.3186 83.2232 99.3183 83.4608 98.8308 83.5951Z" fill="#F7931E"/>
</g>
<defs>
<radialGradient id="paint0_radial" cx="0" cy="0" r="1" gradientUnits="userSpaceOnUse" gradientTransform="translate(186125 31900.5) scale(38936.1 26425.9)">
<stop offset="0.63788" stop-color="white"/>
<stop offset="0.80085" stop-color="#A0B6BF" stop-opacity="0.9"/>
</radialGradient>
<linearGradient id="paint1_linear" x1="141.674" y1="72.5788" x2="130.594" y2="207.907" gradientUnits="userSpaceOnUse">
<stop offset="0.162585" stop-color="white"/>
<stop offset="0.704762" stop-color="#A0B6BF" stop-opacity="0.9"/>
<stop offset="0.95525" stop-color="#AFC1C9" stop-opacity="0.94247"/>
</linearGradient>
<radialGradient id="paint2_radial" cx="0" cy="0" r="1" gradientUnits="userSpaceOnUse" gradientTransform="translate(15061.7 19099.7) scale(889.715 3499.1)">
<stop offset="0.32445" stop-color="white"/>
<stop offset="0.80091" stop-color="#A0B6BF" stop-opacity="0.9"/>
</radialGradient>
<radialGradient id="paint3_radial" cx="0" cy="0" r="1" gradientUnits="userSpaceOnUse" gradientTransform="translate(23805.7 3671.53) rotate(180) scale(7380.97 3142.87)">
<stop offset="0.65538" stop-color="white"/>
<stop offset="0.80091" stop-color="#A0B6BF" stop-opacity="0.9"/>
</radialGradient>
<radialGradient id="paint4_radial" cx="0" cy="0" r="1" gradientUnits="userSpaceOnUse" gradientTransform="translate(43154.1 -8041.34) scale(1603.77 1784.78)">
<stop offset="0.32445" stop-color="white"/>
<stop offset="0.80091" stop-color="#A0B6BF" stop-opacity="0.9"/>
</radialGradient>
<radialGradient id="paint5_radial" cx="0" cy="0" r="1" gradientUnits="userSpaceOnUse" gradientTransform="translate(57164.6 3717.72) scale(7380.97 3142.87)">
<stop offset="0.65538" stop-color="white"/>
<stop offset="0.80091" stop-color="#A0B6BF" stop-opacity="0.9"/>
</radialGradient>
<radialGradient id="paint6_radial" cx="0" cy="0" r="1" gradientUnits="userSpaceOnUse" gradientTransform="translate(49933.4 -7960.4) scale(1603.77 1784.78)">
<stop offset="0.32445" stop-color="white"/>
<stop offset="0.80091" stop-color="#A0B6BF" stop-opacity="0.9"/>
</radialGradient>
</defs>
</svg>
