<svg width="168" height="239" viewBox="0 0 168 239" fill="none" xmlns="http://www.w3.org/2000/svg">
<path d="M47.64 224.4C45.5867 224.4 43.84 224.133 42.4 223.6C40.96 223.04 39.88 222.453 39.16 221.84V216.32C40.0933 216.853 41.3333 217.413 42.88 218C44.4533 218.587 46.1867 218.88 48.08 218.88C49.3067 218.88 50.2133 218.64 50.8 218.16C51.4133 217.68 51.72 217.027 51.72 216.2C51.72 215.453 51.48 214.84 51 214.36C50.52 213.88 49.8 213.44 48.84 213.04C47.88 212.64 46.6533 212.173 45.16 211.64C43.0267 210.867 41.3733 209.867 40.2 208.64C39.0267 207.413 38.44 205.76 38.44 203.68C38.44 202.213 38.76 200.84 39.4 199.56C40.0667 198.28 41.0933 197.253 42.48 196.48C43.8933 195.68 45.6933 195.28 47.88 195.28C48.7333 195.28 49.5733 195.32 50.4 195.4C51.2533 195.453 51.9733 195.533 52.56 195.64L57.08 198.96L55.08 203.04L47.76 200.44C46.8 200.44 46 200.68 45.36 201.16C44.7467 201.613 44.44 202.267 44.44 203.12C44.44 204.187 44.88 205 45.76 205.56C46.6667 206.12 47.9333 206.667 49.56 207.2C52.6533 208.213 54.8267 209.44 56.08 210.88C57.3333 212.293 57.96 213.96 57.96 215.88C57.96 217.427 57.64 218.853 57 220.16C56.36 221.44 55.28 222.467 53.76 223.24C52.2667 224.013 50.2267 224.4 47.64 224.4ZM60.4266 224V202.12L60.0266 198.12L60.4266 195.68H66.0266V207.36H77.5866V195.68H83.1866V210.72L83.5866 213.48V224H77.5866V212.6H66.0266V215.84L66.4266 224H60.4266ZM98.1059 224.4C96.6126 224.4 95.1459 224.2 93.7059 223.8C92.2926 223.373 91.0126 222.627 89.8659 221.56C88.7193 220.493 87.8126 219.013 87.1459 217.12C86.4793 215.227 86.1459 212.8 86.1459 209.84C86.1459 206.88 86.4793 204.453 87.1459 202.56C87.8126 200.667 88.7193 199.187 89.8659 198.12C91.0126 197.053 92.2926 196.32 93.7059 195.92C95.1459 195.493 96.6126 195.28 98.1059 195.28C99.6793 195.28 101.173 195.493 102.586 195.92C104.026 196.347 105.306 197.093 106.426 198.16C107.546 199.227 108.426 200.707 109.066 202.6C109.733 204.493 110.066 206.907 110.066 209.84C110.066 212.773 109.733 215.187 109.066 217.08C108.426 218.973 107.546 220.453 106.426 221.52C105.306 222.587 104.026 223.333 102.586 223.76C101.173 224.187 99.6793 224.4 98.1059 224.4ZM98.1059 218.8C99.7859 218.8 101.053 218.453 101.906 217.76C102.759 217.04 103.333 216.013 103.626 214.68C103.946 213.32 104.106 211.707 104.106 209.84C104.106 207.947 103.946 206.333 103.626 205C103.333 203.667 102.759 202.653 101.906 201.96C101.053 201.24 99.7859 200.88 98.1059 200.88C96.4526 200.88 95.1859 201.24 94.3059 201.96C93.4526 202.68 92.8793 203.707 92.5859 205.04C92.2926 206.373 92.1459 207.973 92.1459 209.84C92.1459 211.68 92.2926 213.28 92.5859 214.64C92.8793 215.973 93.4526 217 94.3059 217.72C95.1859 218.44 96.4526 218.8 98.1059 218.8ZM113.408 224V202.12L112.608 198.08L113.408 195.68H123.008C124.954 195.68 126.701 195.987 128.248 196.6C129.821 197.187 131.061 198.2 131.968 199.64C132.901 201.053 133.368 203.013 133.368 205.52C133.368 208.027 132.874 210.013 131.888 211.48C130.901 212.92 129.528 213.947 127.768 214.56C126.034 215.173 124.048 215.48 121.808 215.48H119.008V217.56L119.408 221.56L119.008 224H113.408ZM119.008 210.4H122.928C124.688 210.4 125.888 209.947 126.528 209.04C127.168 208.107 127.488 206.933 127.488 205.52C127.488 204.027 127.141 202.88 126.448 202.08C125.781 201.28 124.554 200.88 122.768 200.88H118.608L119.008 210.4Z" fill="white"/>
<path d="M110.194 93.4667C110.197 93.3717 110.197 93.2742 110.196 93.1751C111.144 94.4516 111.955 95.824 112.617 97.2696C113.87 100.146 112.929 115.61 112.929 115.61C112.929 115.61 74.1879 113.53 41.9291 121.396L34.0836 114.908L16.8759 110.19C26.0419 98.7201 72.7801 89.7583 110.194 93.4667Z" fill="#FF3F92"/>
<g style="mix-blend-mode:multiply" opacity="0.2">
<path d="M77.5719 104.881C52.7685 105.904 34.0837 114.908 34.0837 114.908C34.0837 114.908 33.9763 116.909 36.8812 119.019C39.7865 121.13 41.9291 121.396 41.9291 121.396C74.188 113.53 112.929 115.61 112.929 115.61L113.402 106.805C113.402 106.805 102.375 103.858 77.5719 104.881Z" fill="#2B3C76"/>
</g>
<g style="mix-blend-mode:soft-light">
<path d="M21.8627 111.557C22.3982 111.037 22.9643 110.55 23.558 110.097C28.1683 106.547 34.7332 104.294 40.5948 105.133C41.3355 105.239 42.2856 105.742 42.0356 106.447C41.9104 106.709 41.6969 106.918 41.4327 107.037C39.6644 108.05 37.5822 108.313 35.6202 108.864C33.5375 109.449 31.5641 110.37 29.7771 111.589C29.0973 112.051 28.4825 112.601 27.9489 113.226L21.8626 111.558L21.8627 111.557Z" fill="white"/>
</g>
<path d="M77.5459 30.6592C51.9329 30.1236 42.3907 47.6795 38.465 60.1889C34.0501 74.2572 35.2554 73.0727 34.1521 74.515C33.6403 75.1843 29.3042 79.4011 24.5838 82.5696C18.9965 86.3201 14.0334 90.7483 14.751 94.7186C16.0898 102.126 27.5663 99.795 29.9978 99.2003C31.7835 98.7168 33.5282 98.093 35.2158 97.3348C35.2158 97.3348 35.4297 101.32 35.6451 105.538C35.8605 109.755 36.0772 114.205 37.4485 120.155C46.1894 158.08 74.2086 174.742 106.713 170.687C141.394 166.361 151.291 132.316 152.276 124.863C153.262 117.409 159.686 118.917 159.686 118.917C160.074 118.886 160.447 118.755 160.769 118.538C161.091 118.32 161.352 118.022 161.524 117.674C162.164 116.449 160.935 115.262 160.935 115.262C160.935 115.262 154.203 109.914 147.254 114.698C140.304 119.483 140.907 130.575 128.864 133.593C116.821 136.612 113.932 120.786 114.935 110.18C115.879 100.192 116.891 99.7687 117.495 99.6099C117.778 99.5357 119.843 101.308 124.237 101.674C128.665 102.044 130.68 101.488 132.177 100.894C133.611 100.325 136.244 98.9843 137.027 96.4419C138.28 92.3704 135.049 90.0497 133.861 89.2142C132.673 88.3787 124.002 82.3002 122.78 81.2369C121.559 80.1736 118.525 76.5822 118.386 75.173C118.248 73.7638 112.607 30.385 77.5459 30.6592Z" fill="white"/>
<path d="M36.4018 92.8804C46.6118 92.4105 37.6104 110.467 56.2663 140.86C67.0852 158.485 78.2698 154.383 90.4166 154.383C108.833 154.383 122.939 149.681 136.299 144.442C150.579 126.012 146.805 120.012 151.339 116.987C154.963 114.57 160.189 116.246 161.524 117.674C161.352 118.022 161.091 118.32 160.769 118.538C160.447 118.755 160.074 118.886 159.686 118.917C159.686 118.917 153.261 117.409 152.276 124.863C151.291 132.316 141.394 166.361 106.713 170.687C74.2086 174.742 46.1893 158.08 37.4485 120.155C36.0772 114.205 35.8604 109.755 35.645 105.538C35.4297 101.32 35.2157 97.3348 35.2157 97.3348C33.5282 98.093 31.7835 98.7168 29.9978 99.2003C27.5663 99.795 16.0898 102.126 14.7509 94.7186C14.7178 94.5274 14.6975 94.3342 14.6901 94.1403C15.1952 95.4687 16.2086 98.5408 25.5907 96.433C31.0323 95.2104 32.2243 93.0727 36.4018 92.8804Z" fill="url(#paint0_radial)"/>
<path d="M137.027 96.4419C136.244 98.9843 133.611 100.325 132.177 100.894C130.68 101.488 128.665 102.044 124.237 101.674C119.843 101.308 117.777 99.5357 117.495 99.6099C116.891 99.7687 116.019 101.741 114.935 110.18C113.894 118.285 115.965 131.569 124.532 133.669C121.99 133.411 118.971 132.37 116.241 129.496C109.467 122.362 109.921 115.266 111.649 103.892C113.377 92.517 116.944 95.3389 123.54 97.2992C128.997 98.9211 132.836 97.7912 135.159 95.179C136.33 93.8613 135.812 91.4243 134.855 89.9698C136.239 91.1382 138.008 93.2529 137.027 96.4419Z" fill="url(#paint1_radial)"/>
<path d="M91.4581 55.8618L92.1435 55.846C93.0903 55.8241 93.8757 56.5739 93.8976 57.5207L93.9932 61.6567C94.0151 62.6035 93.2653 63.3888 92.3185 63.4108L91.6331 63.4266C90.6863 63.4485 89.901 62.6987 89.8791 61.7519L89.7834 57.6159C89.7615 56.6691 90.5113 55.8837 91.4581 55.8618Z" fill="#1D1D1B"/>
<path d="M63.0057 56.484L63.6911 56.4682C64.638 56.4463 65.4233 57.1961 65.4452 58.1429L65.5408 62.2789C65.5628 63.2257 64.813 64.011 63.8661 64.0329L63.1807 64.0488C62.2339 64.0707 61.4486 63.3209 61.4267 62.3741L61.331 58.2381C61.3091 57.2913 62.0589 56.5059 63.0057 56.484Z" fill="#1D1D1B"/>
<path d="M81.1938 67.7721C81.2486 70.1415 79.5416 72.1028 77.381 72.1528C75.2205 72.2027 73.4246 70.3225 73.3698 67.9531" stroke="#1D1D1B" stroke-width="0.783669" stroke-miterlimit="10" stroke-linecap="round"/>
<path d="M11.8981 121.793C12.9721 116.38 15.4234 112.024 16.876 110.19L34.0837 114.908L44.3423 121.609C57.2739 126.933 66.3711 129.723 81.065 127.953C100.746 125.582 112.929 115.61 112.929 115.61C112.929 115.61 114.11 108.333 110.556 96.1387C107.002 83.9443 79.802 41.7021 96.1022 15.0675C112.402 -11.5669 142.852 4.18139 147.997 9.2505C153.141 14.333 152.09 39.587 136.252 35.5976C122.215 37.154 116.087 20.2161 112.865 29.5909C108.953 40.9782 135.293 81.899 142.916 97.5339C149.197 110.418 148.806 118.137 145.501 130.254C144.274 134.818 142.352 139.166 139.803 143.145C128.148 161.16 38.172 158.905 21.299 146.01C11.5424 138.556 10.4388 129.189 11.8981 121.793Z" fill="#FF3F92"/>
<path d="M164.624 54.5765C160.513 61.8254 156.995 44.6126 156.995 44.6126C147.979 45.9029 136.249 35.5945 136.249 35.5945C149.579 34.3622 149.338 23.6038 147.999 9.25C156.689 14.7172 162.835 22.2811 165.867 30.2859C168.985 38.5311 168.779 47.2306 164.624 54.5765Z" fill="#F7C934"/>
<g style="mix-blend-mode:multiply" opacity="0.2">
<path d="M145.5 130.254C144.274 134.818 142.352 139.166 139.803 143.145C128.148 161.16 38.172 158.905 21.2991 146.01C11.5423 138.556 10.4387 129.189 11.8981 121.793C21.8441 130.665 46.6782 148.103 86.5696 145.983C114.251 144.509 133.452 137.056 145.5 130.254Z" fill="#2B3C76"/>
</g>
<path d="M141.713 19.343C141.713 19.343 145.383 24.7543 150.751 19.8282C151.626 34.9345 145.38 35.4592 145.38 35.4592C145.38 35.4592 146.579 26.0954 141.459 24.069C140.862 23.177 141.713 19.343 141.713 19.343Z" fill="#F7C934"/>
<path d="M128.271 24.3238C129.984 26.0112 132.16 27.1519 134.523 27.6011C136.876 28.0041 139.406 27.5441 141.353 26.1613C142.349 25.4422 143.172 24.5092 143.761 23.4307C144.35 22.3522 144.69 21.1556 144.757 19.9285C145.055 13.5282 137.161 9.12157 131.359 10.444C125.234 11.8403 124.169 20.3954 128.271 24.3238Z" fill="white"/>
<path d="M132.776 20.9035C133.389 21.5073 134.167 21.9154 135.012 22.0761C135.863 22.2317 136.741 22.0467 137.456 21.561C137.813 21.3037 138.107 20.9699 138.318 20.584C138.529 20.1981 138.651 19.7699 138.674 19.3309C138.781 17.0408 135.957 15.4641 133.881 15.9372C131.689 16.4369 131.308 19.4979 132.776 20.9035Z" fill="black"/>
<path d="M164.624 54.5765C160.513 61.8254 156.995 44.6126 156.995 44.6126C156.995 44.6126 160.995 40.5961 161.225 36.3152C161.353 33.9273 163.347 31.4535 165.867 30.2859C168.985 38.5311 168.779 47.2306 164.624 54.5765Z" fill="black"/>
<g style="mix-blend-mode:soft-light" opacity="0.95">
<path d="M95.6785 33.6747C95.4245 42.7235 97.742 51.6317 100.25 60.3298C101.029 63.0326 101.845 65.7676 103.335 68.1532C104.826 70.5388 107.096 72.5718 109.848 73.1554C109.798 69.2322 107.996 65.5792 106.436 61.9793C102.946 53.9295 100.479 45.3009 100.507 36.5272C100.525 31.1015 101.548 25.6327 103.731 20.6531C104.619 18.6279 110.085 12.0186 108.422 11.1384C105.516 9.5997 101.049 14.9201 99.9907 16.8168C97.1464 21.9152 95.8415 27.8738 95.6785 33.6747Z" fill="white"/>
</g>
<g style="mix-blend-mode:soft-light" opacity="0.95">
<path d="M98.0579 132.68C96.802 132.875 95.4882 133.043 94.433 133.751C93.3777 134.46 92.6906 135.907 93.2763 137.035C93.746 137.94 94.8222 138.324 95.8129 138.565C101.843 140.03 108.224 139.098 114.165 137.305C122.706 134.726 131.124 129.956 135.343 122.094C137.541 117.999 140.58 110.473 139.986 105.735C139.329 100.497 135.061 107.187 133.721 109.207C128.452 117.148 121.496 123.618 112.934 127.896C108.251 130.247 103.233 131.861 98.0579 132.68Z" fill="white"/>
</g>
<g style="mix-blend-mode:soft-light" opacity="0.95">
<path d="M21.8647 111.558L27.9468 113.226C26.9912 114.362 26.4217 115.725 26.9027 117.075C27.3466 118.321 28.5485 119.098 29.5122 120.004C30.4759 120.91 31.2807 122.337 30.6629 123.506C30.2949 124.203 29.514 124.586 28.7444 124.753C26.4337 125.253 24.0582 124.189 22.1507 122.792C21.0554 121.99 20.0193 121.034 19.4551 119.8C18.666 118.072 18.9229 115.996 19.7854 114.303C20.3254 113.282 21.0277 112.355 21.8647 111.558Z" fill="white"/>
</g>
<path d="M9.46296 98.9607L16.783 97.5263L12.5718 76.0368L1.82688 78.1423L9.46296 98.9607Z" fill="#E20613"/>
<path d="M22.3838 96.4287L15.0638 97.8634L10.8524 76.3736L21.5972 74.2681L22.3838 96.4287Z" fill="#E20613"/>
<path d="M0.567697 77.5858C0.516135 77.3227 5.33724 76.1564 11.3359 74.9809C17.3346 73.8053 22.2394 73.0656 22.2909 73.3287C22.3425 73.5918 17.5214 74.7581 11.5227 75.9337C5.52396 77.1092 0.619259 77.8489 0.567697 77.5858Z" fill="#F5F5F5"/>
<path d="M22.2327 73.1616L0.325488 77.4548C0.239187 77.4717 0.163136 77.5222 0.114072 77.5952C0.065008 77.6682 0.0469477 77.7576 0.0638599 77.8439L0.121622 78.1387C0.138534 78.225 0.189034 78.301 0.262015 78.3501C0.334997 78.3992 0.424485 78.4172 0.510785 78.4003L22.418 74.1071C22.4607 74.0988 22.5014 74.0821 22.5377 74.058C22.5739 74.0339 22.6051 74.0029 22.6294 73.9668C22.6537 73.9306 22.6707 73.89 22.6793 73.8474C22.6879 73.8047 22.688 73.7607 22.6796 73.718L22.6219 73.4232C22.605 73.3369 22.5544 73.2609 22.4815 73.2118C22.4085 73.1628 22.319 73.1447 22.2327 73.1616Z" fill="white"/>
<path d="M18.194 96.3762L21.2974 95.7681L20.4121 75.6973L15.0217 76.7537L18.194 96.3762Z" fill="#FC3A4D"/>
<defs>
<radialGradient id="paint0_radial" cx="0" cy="0" r="1" gradientUnits="userSpaceOnUse" gradientTransform="translate(89.2586 112.229) rotate(174.387) scale(81.7575)">
<stop offset="0.32445" stop-color="white"/>
<stop offset="0.80091" stop-color="#A0B6BF" stop-opacity="0.9"/>
</radialGradient>
<radialGradient id="paint1_radial" cx="0" cy="0" r="1" gradientUnits="userSpaceOnUse" gradientTransform="translate(-6371.72 19847) rotate(180) scale(3504.13 5723.34)">
<stop offset="0.32445" stop-color="white"/>
<stop offset="0.80091" stop-color="#A0B6BF" stop-opacity="0.9"/>
</radialGradient>
</defs>
</svg>
