<svg width="208" height="265" viewBox="0 0 208 265" fill="none" xmlns="http://www.w3.org/2000/svg">
<g filter="url(#filter0_d)">
<path d="M67.64 244.4C65.5867 244.4 63.84 244.133 62.4 243.6C60.96 243.04 59.88 242.453 59.16 241.84V236.32C60.0933 236.853 61.3333 237.413 62.88 238C64.4533 238.587 66.1867 238.88 68.08 238.88C69.3067 238.88 70.2133 238.64 70.8 238.16C71.4133 237.68 71.72 237.027 71.72 236.2C71.72 235.453 71.48 234.84 71 234.36C70.52 233.88 69.8 233.44 68.84 233.04C67.88 232.64 66.6533 232.173 65.16 231.64C63.0267 230.867 61.3733 229.867 60.2 228.64C59.0267 227.413 58.44 225.76 58.44 223.68C58.44 222.213 58.76 220.84 59.4 219.56C60.0667 218.28 61.0933 217.253 62.48 216.48C63.8933 215.68 65.6933 215.28 67.88 215.28C68.7333 215.28 69.5733 215.32 70.4 215.4C71.2533 215.453 71.9733 215.533 72.56 215.64L77.08 218.96L75.08 223.04L67.76 220.44C66.8 220.44 66 220.68 65.36 221.16C64.7467 221.613 64.44 222.267 64.44 223.12C64.44 224.187 64.88 225 65.76 225.56C66.6667 226.12 67.9333 226.667 69.56 227.2C72.6533 228.213 74.8267 229.44 76.08 230.88C77.3333 232.293 77.96 233.96 77.96 235.88C77.96 237.427 77.64 238.853 77 240.16C76.36 241.44 75.28 242.467 73.76 243.24C72.2667 244.013 70.2267 244.4 67.64 244.4ZM80.4266 244V222.12L80.0266 218.12L80.4266 215.68H86.0266V227.36H97.5866V215.68H103.187V230.72L103.587 233.48V244H97.5866V232.6H86.0266V235.84L86.4266 244H80.4266ZM118.106 244.4C116.613 244.4 115.146 244.2 113.706 243.8C112.293 243.373 111.013 242.627 109.866 241.56C108.719 240.493 107.813 239.013 107.146 237.12C106.479 235.227 106.146 232.8 106.146 229.84C106.146 226.88 106.479 224.453 107.146 222.56C107.813 220.667 108.719 219.187 109.866 218.12C111.013 217.053 112.293 216.32 113.706 215.92C115.146 215.493 116.613 215.28 118.106 215.28C119.679 215.28 121.173 215.493 122.586 215.92C124.026 216.347 125.306 217.093 126.426 218.16C127.546 219.227 128.426 220.707 129.066 222.6C129.733 224.493 130.066 226.907 130.066 229.84C130.066 232.773 129.733 235.187 129.066 237.08C128.426 238.973 127.546 240.453 126.426 241.52C125.306 242.587 124.026 243.333 122.586 243.76C121.173 244.187 119.679 244.4 118.106 244.4ZM118.106 238.8C119.786 238.8 121.053 238.453 121.906 237.76C122.759 237.04 123.333 236.013 123.626 234.68C123.946 233.32 124.106 231.707 124.106 229.84C124.106 227.947 123.946 226.333 123.626 225C123.333 223.667 122.759 222.653 121.906 221.96C121.053 221.24 119.786 220.88 118.106 220.88C116.453 220.88 115.186 221.24 114.306 221.96C113.453 222.68 112.879 223.707 112.586 225.04C112.293 226.373 112.146 227.973 112.146 229.84C112.146 231.68 112.293 233.28 112.586 234.64C112.879 235.973 113.453 237 114.306 237.72C115.186 238.44 116.453 238.8 118.106 238.8ZM133.408 244V222.12L132.608 218.08L133.408 215.68H143.008C144.954 215.68 146.701 215.987 148.248 216.6C149.821 217.187 151.061 218.2 151.968 219.64C152.901 221.053 153.368 223.013 153.368 225.52C153.368 228.027 152.874 230.013 151.888 231.48C150.901 232.92 149.528 233.947 147.768 234.56C146.034 235.173 144.048 235.48 141.808 235.48H139.008V237.56L139.408 241.56L139.008 244H133.408ZM139.008 230.4H142.928C144.688 230.4 145.888 229.947 146.528 229.04C147.168 228.107 147.488 226.933 147.488 225.52C147.488 224.027 147.141 222.88 146.448 222.08C145.781 221.28 144.554 220.88 142.768 220.88H138.608L139.008 230.4Z" fill="url(#paint0_linear)"/>
<path d="M130.194 113.467C130.197 113.372 130.198 113.274 130.196 113.175C131.144 114.452 131.955 115.824 132.617 117.27C133.871 120.146 132.929 135.61 132.929 135.61C132.929 135.61 94.188 133.53 61.9292 141.396L54.0837 134.908L36.876 130.19C46.0421 118.72 92.7802 109.758 130.194 113.467Z" fill="#FF3F92"/>
<g style="mix-blend-mode:multiply" opacity="0.2">
<path d="M97.5719 124.881C72.7685 125.904 54.0837 134.908 54.0837 134.908C54.0837 134.908 53.9763 136.909 56.8812 139.019C59.7865 141.13 61.9291 141.396 61.9291 141.396C94.188 133.53 132.929 135.61 132.929 135.61L133.402 126.805C133.402 126.805 122.375 123.858 97.5719 124.881Z" fill="#2B3C76"/>
</g>
<g style="mix-blend-mode:soft-light">
<path d="M41.8627 131.557C42.3982 131.037 42.9643 130.55 43.558 130.097C48.1683 126.547 54.7332 124.294 60.5948 125.133C61.3355 125.239 62.2856 125.742 62.0356 126.447C61.9104 126.709 61.6969 126.918 61.4327 127.037C59.6644 128.05 57.5822 128.313 55.6202 128.864C53.5375 129.449 51.5641 130.37 49.7771 131.589C49.0973 132.051 48.4825 132.601 47.9489 133.226L41.8626 131.558L41.8627 131.557Z" fill="white"/>
</g>
<path d="M97.5459 50.6592C71.9329 50.1236 62.3907 67.6795 58.465 80.1889C54.0501 94.2572 55.2554 93.0727 54.1521 94.515C53.6403 95.1843 49.3042 99.4011 44.5838 102.57C38.9965 106.32 34.0334 110.748 34.751 114.719C36.0898 122.126 47.5663 119.795 49.9978 119.2C51.7835 118.717 53.5282 118.093 55.2158 117.335C55.2158 117.335 55.4297 121.32 55.6451 125.538C55.8605 129.755 56.0772 134.205 57.4485 140.155C66.1894 178.08 94.2086 194.742 126.713 190.687C161.394 186.361 171.291 152.316 172.276 144.863C173.262 137.409 179.686 138.917 179.686 138.917C180.074 138.886 180.447 138.755 180.769 138.538C181.091 138.32 181.352 138.022 181.524 137.674C182.164 136.449 180.935 135.262 180.935 135.262C180.935 135.262 174.203 129.914 167.254 134.698C160.304 139.483 160.907 150.575 148.864 153.593C136.821 156.612 133.932 140.786 134.935 130.18C135.879 120.192 136.891 119.769 137.495 119.61C137.778 119.536 139.843 121.308 144.237 121.674C148.665 122.044 150.68 121.488 152.177 120.894C153.611 120.325 156.244 118.984 157.027 116.442C158.28 112.37 155.049 110.05 153.861 109.214C152.673 108.379 144.002 102.3 142.78 101.237C141.559 100.174 138.525 96.5822 138.386 95.173C138.248 93.7638 132.607 50.385 97.5459 50.6592Z" fill="white"/>
<path d="M56.4019 112.88C66.612 112.41 57.6105 130.467 76.2664 160.86C87.0853 178.485 98.2699 174.383 110.417 174.383C128.833 174.383 142.939 169.681 156.299 164.442C170.579 146.012 166.805 140.012 171.339 136.987C174.963 134.57 180.189 136.246 181.525 137.674C181.352 138.022 181.091 138.32 180.769 138.538C180.447 138.755 180.074 138.886 179.686 138.917C179.686 138.917 173.262 137.409 172.276 144.863C171.291 152.316 161.394 186.361 126.713 190.687C94.2087 194.742 66.1895 178.08 57.4486 140.155C56.0773 134.205 55.8605 129.755 55.6451 125.538C55.4298 121.32 55.2158 117.335 55.2158 117.335C53.5283 118.093 51.7836 118.717 49.9979 119.2C47.5664 119.795 36.0899 122.126 34.7511 114.719C34.7179 114.527 34.6976 114.334 34.6902 114.14C35.1953 115.469 36.2087 118.541 45.5908 116.433C51.0325 115.21 52.2244 113.073 56.4019 112.88Z" fill="url(#paint1_radial)"/>
<path d="M157.027 116.442C156.244 118.984 153.611 120.325 152.177 120.894C150.68 121.488 148.665 122.044 144.237 121.674C139.843 121.308 137.778 119.536 137.495 119.61C136.891 119.769 136.019 121.741 134.935 130.18C133.894 138.285 135.965 151.569 144.532 153.669C141.99 153.411 138.971 152.37 136.241 149.496C129.467 142.362 129.921 135.266 131.649 123.892C133.377 112.517 136.944 115.339 143.54 117.299C148.997 118.921 152.837 117.791 155.159 115.179C156.33 113.861 155.812 111.424 154.855 109.97C156.239 111.138 158.009 113.253 157.027 116.442Z" fill="url(#paint2_radial)"/>
<path d="M111.458 75.8618L112.144 75.846C113.09 75.8241 113.876 76.5739 113.898 77.5207L113.993 81.6567C114.015 82.6035 113.265 83.3888 112.319 83.4108L111.633 83.4266C110.686 83.4485 109.901 82.6987 109.879 81.7519L109.783 77.6159C109.761 76.6691 110.511 75.8837 111.458 75.8618Z" fill="#1D1D1B"/>
<path d="M83.0056 76.484L83.691 76.4682C84.6378 76.4463 85.4232 77.1961 85.4451 78.1429L85.5407 82.2789C85.5626 83.2257 84.8128 84.011 83.866 84.0329L83.1806 84.0488C82.2338 84.0707 81.4485 83.3209 81.4266 82.3741L81.3309 78.2381C81.309 77.2913 82.0588 76.5059 83.0056 76.484Z" fill="#1D1D1B"/>
<path d="M101.194 87.7721C101.248 90.1415 99.5415 92.1028 97.3809 92.1528C95.2204 92.2027 93.4245 90.3225 93.3697 87.9531" stroke="#1D1D1B" stroke-width="0.783669" stroke-miterlimit="10" stroke-linecap="round"/>
<path d="M31.8981 141.793C32.9721 136.38 35.4234 132.024 36.876 130.19L54.0837 134.908L64.3423 141.609C77.2739 146.933 86.3711 149.723 101.065 147.953C120.746 145.582 132.929 135.61 132.929 135.61C132.929 135.61 134.11 128.333 130.556 116.139C127.002 103.944 99.802 61.7021 116.102 35.0675C132.402 8.43307 162.852 24.1814 167.997 29.2505C173.141 34.333 172.09 59.587 156.252 55.5976C142.215 57.154 136.087 40.2161 132.865 49.5909C128.953 60.9782 155.293 101.899 162.916 117.534C169.197 130.418 168.806 138.137 165.501 150.254C164.274 154.818 162.352 159.166 159.803 163.145C148.148 181.16 58.172 178.905 41.299 166.01C31.5424 158.556 30.4388 149.189 31.8981 141.793Z" fill="#FF3F92"/>
<path d="M184.624 74.5765C180.513 81.8254 176.995 64.6126 176.995 64.6126C167.979 65.9029 156.249 55.5945 156.249 55.5945C169.579 54.3622 169.338 43.6038 167.999 29.25C176.689 34.7172 182.835 42.2811 185.867 50.2859C188.985 58.5311 188.779 67.2306 184.624 74.5765Z" fill="#F7C934"/>
<g style="mix-blend-mode:multiply" opacity="0.2">
<path d="M165.5 150.254C164.274 154.818 162.352 159.166 159.803 163.145C148.148 181.16 58.172 178.905 41.2991 166.01C31.5423 158.556 30.4387 149.189 31.8981 141.793C41.8441 150.665 66.6782 168.103 106.57 165.983C134.251 164.509 153.452 157.056 165.5 150.254Z" fill="#2B3C76"/>
</g>
<path d="M161.713 39.343C161.713 39.343 165.383 44.7543 170.751 39.8282C171.626 54.9345 165.38 55.4592 165.38 55.4592C165.38 55.4592 166.579 46.0954 161.459 44.069C160.862 43.177 161.713 39.343 161.713 39.343Z" fill="#F7C934"/>
<path d="M148.271 44.3238C149.984 46.0112 152.16 47.1519 154.523 47.6011C156.876 48.0041 159.406 47.5441 161.353 46.1613C162.349 45.4422 163.172 44.5092 163.761 43.4307C164.35 42.3522 164.69 41.1556 164.757 39.9285C165.055 33.5282 157.161 29.1216 151.359 30.444C145.234 31.8403 144.169 40.3954 148.271 44.3238Z" fill="white"/>
<path d="M152.776 40.9035C153.389 41.5073 154.167 41.9154 155.012 42.0761C155.863 42.2317 156.741 42.0467 157.456 41.561C157.813 41.3037 158.107 40.9699 158.318 40.584C158.529 40.1981 158.65 39.7699 158.674 39.3309C158.781 37.0408 155.956 35.4641 153.881 35.9372C151.689 36.4369 151.308 39.4979 152.776 40.9035Z" fill="black"/>
<path d="M184.624 74.5765C180.513 81.8254 176.995 64.6126 176.995 64.6126C176.995 64.6126 180.995 60.5961 181.225 56.3152C181.353 53.9273 183.347 51.4535 185.867 50.2859C188.985 58.5311 188.779 67.2306 184.624 74.5765Z" fill="black"/>
<g style="mix-blend-mode:soft-light" opacity="0.95">
<path d="M115.679 53.6747C115.424 62.7235 117.742 71.6317 120.25 80.3298C121.029 83.0326 121.845 85.7676 123.335 88.1532C124.826 90.5388 127.096 92.5718 129.848 93.1554C129.798 89.2322 127.996 85.5792 126.436 81.9793C122.946 73.9295 120.479 65.3009 120.507 56.5272C120.525 51.1015 121.548 45.6327 123.731 40.6531C124.619 38.6279 130.085 32.0186 128.422 31.1384C125.516 29.5997 121.049 34.9201 119.991 36.8168C117.146 41.9152 115.841 47.8738 115.679 53.6747Z" fill="white"/>
</g>
<g style="mix-blend-mode:soft-light" opacity="0.95">
<path d="M118.058 152.68C116.802 152.875 115.488 153.043 114.433 153.751C113.378 154.46 112.691 155.907 113.276 157.035C113.746 157.94 114.822 158.324 115.813 158.565C121.843 160.03 128.224 159.098 134.165 157.305C142.706 154.726 151.124 149.956 155.343 142.094C157.541 137.999 160.581 130.473 159.986 125.735C159.329 120.497 155.061 127.187 153.721 129.207C148.452 137.148 141.496 143.618 132.935 147.896C128.252 150.247 123.234 151.861 118.058 152.68Z" fill="white"/>
</g>
<g style="mix-blend-mode:soft-light" opacity="0.95">
<path d="M41.8648 131.558L47.9469 133.226C46.9913 134.362 46.4218 135.725 46.9028 137.075C47.3467 138.321 48.5486 139.098 49.5124 140.004C50.476 140.91 51.2808 142.337 50.663 143.506C50.295 144.203 49.5141 144.586 48.7445 144.753C46.4338 145.253 44.0583 144.189 42.1508 142.792C41.0555 141.99 40.0194 141.034 39.4553 139.8C38.6661 138.072 38.923 135.996 39.7855 134.303C40.3256 133.282 41.0278 132.355 41.8648 131.558Z" fill="white"/>
</g>
<path d="M29.463 118.961L36.783 117.526L32.5718 96.0368L21.8269 98.1423L29.463 118.961Z" fill="#E20613"/>
<path d="M42.3838 116.429L35.0638 117.863L30.8524 96.3736L41.5972 94.2681L42.3838 116.429Z" fill="#E20613"/>
<path d="M20.5677 97.5858C20.5161 97.3227 25.3372 96.1564 31.3359 94.9809C37.3346 93.8053 42.2394 93.0656 42.2909 93.3287C42.3425 93.5918 37.5214 94.7581 31.5227 95.9337C25.524 97.1092 20.6193 97.8489 20.5677 97.5858Z" fill="#F5F5F5"/>
<path d="M42.2326 93.1616L20.3254 97.4548C20.2391 97.4717 20.163 97.5222 20.1139 97.5952C20.0649 97.6682 20.0468 97.7576 20.0637 97.8439L20.1215 98.1387C20.1384 98.225 20.1889 98.301 20.2619 98.3501C20.3349 98.3992 20.4244 98.4172 20.5107 98.4003L42.4179 94.1071C42.4606 94.0988 42.5013 94.0821 42.5375 94.058C42.5738 94.0339 42.605 94.0029 42.6293 93.9668C42.6536 93.9306 42.6705 93.89 42.6791 93.8474C42.6878 93.8047 42.6879 93.7607 42.6795 93.718L42.6218 93.4232C42.6048 93.3369 42.5543 93.2609 42.4813 93.2118C42.4084 93.1628 42.3189 93.1447 42.2326 93.1616Z" fill="white"/>
<path d="M38.194 116.376L41.2974 115.768L40.4121 95.6973L35.0217 96.7537L38.194 116.376Z" fill="#FC3A4D"/>
</g>
<defs>
<filter id="filter0_d" x="0" y="0" width="208" height="279" filterUnits="userSpaceOnUse" color-interpolation-filters="sRGB">
<feFlood flood-opacity="0" result="BackgroundImageFix"/>
<feColorMatrix in="SourceAlpha" type="matrix" values="0 0 0 0 0 0 0 0 0 0 0 0 0 0 0 0 0 0 127 0" result="hardAlpha"/>
<feOffset/>
<feGaussianBlur stdDeviation="10"/>
<feComposite in2="hardAlpha" operator="out"/>
<feColorMatrix type="matrix" values="0 0 0 0 0.054902 0 0 0 0 0.956863 0 0 0 0 0.933333 0 0 0 1 0"/>
<feBlend mode="normal" in2="BackgroundImageFix" result="effect1_dropShadow"/>
<feBlend mode="normal" in="SourceGraphic" in2="effect1_dropShadow" result="shape"/>
</filter>
<linearGradient id="paint0_linear" x1="143" y1="232.5" x2="57" y2="234" gradientUnits="userSpaceOnUse">
<stop stop-color="#CE64CA"/>
<stop offset="0.463542" stop-color="#59BBD9"/>
<stop offset="0.739583" stop-color="#C66078"/>
<stop offset="1" stop-color="#DA5EAA"/>
</linearGradient>
<radialGradient id="paint1_radial" cx="0" cy="0" r="1" gradientUnits="userSpaceOnUse" gradientTransform="translate(109.259 132.229) rotate(174.387) scale(81.7575)">
<stop offset="0.32445" stop-color="white"/>
<stop offset="0.80091" stop-color="#A0B6BF" stop-opacity="0.9"/>
</radialGradient>
<radialGradient id="paint2_radial" cx="0" cy="0" r="1" gradientUnits="userSpaceOnUse" gradientTransform="translate(-6351.72 19867) rotate(180) scale(3504.13 5723.34)">
<stop offset="0.32445" stop-color="white"/>
<stop offset="0.80091" stop-color="#A0B6BF" stop-opacity="0.9"/>
</radialGradient>
</defs>
</svg>
