<svg width="178" height="222" viewBox="0 0 178 222" fill="none" xmlns="http://www.w3.org/2000/svg">
<path d="M89.2254 0.324948C64.1976 -2.66454 52.825 15.649 47.7772 27.5199C42.1004 40.8701 43.3945 39.8263 42.1755 41.1324C41.6098 41.7384 41.0208 63.579 41.0208 63.579C41.0208 63.579 40.8467 67.5022 40.6517 71.6526C40.4567 75.8029 40.2407 87.7962 41.0108 93.7539C45.9196 131.73 71.7515 150.741 103.969 149.9C138.343 149.001 151.311 116.618 152.993 109.415C154.675 102.211 160.82 104.306 160.82 104.306C161.203 104.313 161.581 104.221 161.917 104.039C162.254 103.856 162.537 103.59 162.74 103.266C163.484 102.128 162.395 100.847 162.395 100.847C162.395 100.847 156.318 94.9628 149.053 98.9789C141.788 102.995 138.227 117.471 126.145 119.268C114.062 121.065 115.84 94.1176 117.843 83.8284C119.728 74.1399 124.591 51.2765 124.591 49.8833C124.591 48.4901 123.582 3.43062 89.2254 0.324948Z" fill="white"/>
<path d="M90.6296 39.6789L90.6296 39.6789C91.7446 39.7625 92.7162 38.9264 92.7998 37.8115L93.0537 34.4251C93.1373 33.3101 92.3013 32.3385 91.1863 32.2549L91.1863 32.2549C90.0714 32.1713 89.0998 33.0074 89.0161 34.1223L88.7622 37.5087C88.6786 38.6237 89.5147 39.5953 90.6296 39.6789Z" fill="#1D1D1B"/>
<path d="M79.6529 42.9038C79.4786 45.2291 77.6184 46.9853 75.4981 46.8263C73.3777 46.6673 71.8002 44.6534 71.9746 42.3281" stroke="#1D1D1B" stroke-width="0.92516" stroke-miterlimit="10" stroke-linecap="round"/>
<path d="M23.6702 41.3528C26.8978 40.6079 28.8896 42.6685 30.0912 45.0362C31.4486 47.7108 34.6249 47.9392 38.6468 45.7065C42.6687 43.4737 44.9309 39.2643 44.9309 39.2643L44.5678 74.9632C44.5678 74.9632 35.6863 71.132 30.2878 67.0075C25.5567 63.393 20.3722 58.2872 19.7228 52.6724C19.1365 47.6025 20.2102 42.1512 23.6702 41.3528Z" fill="white"/>
<path d="M111.741 105.948C116.254 116.743 122.694 118.912 122.723 118.911C117.322 116.674 116.13 106.333 116.451 96.8624C117.282 97.464 118.286 97.7807 119.312 97.7651L117.364 85.6916L117.864 85.1938C117.764 85.2653 117.662 85.3392 117.557 85.4193C117.651 84.8543 117.746 84.3219 117.842 83.8284C118.014 82.9459 118.211 81.953 118.426 80.8781C119.133 82.0973 119.38 83.1951 119.183 83.8798L121.805 81.2696C121.805 81.2696 115.512 77.4322 112.662 80.0657C107.089 85.2159 107.467 95.7245 111.741 105.948Z" fill="url(#paint0_radial)"/>
<path d="M160.82 104.306C161.199 104.315 161.573 104.224 161.905 104.042C161.123 103.547 160.299 103.121 159.443 102.77C157.44 101.965 154.066 102.139 152.511 104.569C148.057 111.531 138.523 147.413 93.1867 143.325C43.3103 138.827 45.3893 78.1143 45.2152 73.4993C45.041 68.8844 39.6509 66.6999 39.6509 66.6999C39.6509 66.6999 33.1639 63.6814 29.2165 59.6179C25.9848 56.2912 30.7526 49.4496 32.5883 47.0772C32.4279 47.0364 32.2702 46.9857 32.1162 46.9254L21.554 53.2325L19.7535 47.3998C19.5218 49.1491 19.5116 50.9206 19.7232 52.6723C20.3726 58.2872 25.5571 63.393 30.2882 67.0075C33.3557 69.351 37.546 71.5989 40.5942 73.104C40.4237 78.1197 40.317 88.3857 41.0109 93.754C45.9197 131.73 71.7515 150.741 103.969 149.9C138.343 149.002 151.311 116.618 152.993 109.415C154.675 102.211 160.82 104.306 160.82 104.306Z" fill="url(#paint1_radial)"/>
<path d="M124.459 47.1793C124.459 47.1793 144.483 60.2803 142.45 74.443C141.574 80.5466 139.181 85.4188 133.685 88.6851C130.103 90.814 128.87 89.9677 125.771 92.5598C123.158 94.7454 123.576 97.4604 119.864 97.747C115.306 98.0988 113.722 93.6645 114.551 90.4618C115.802 85.6266 118.139 85.3534 119.003 84.2653C119.515 83.6206 119.251 82.1411 118.206 80.5157C117.161 78.8903 115.023 78.2641 115.023 78.2641L124.459 47.1793Z" fill="white"/>
<path d="M138.54 60.8588C140.374 64.2869 141.431 68.0275 140.882 71.8459C140.006 77.9495 137.614 82.8217 132.118 86.088C128.535 88.2169 127.303 87.3706 124.204 89.9627C121.59 92.1483 122.008 94.8633 118.296 95.1499C117.636 95.2279 116.966 95.1688 116.33 94.9764C115.693 94.7839 115.103 94.4622 114.596 94.0314C115.203 96.1887 116.907 97.9752 119.864 97.7469C123.576 97.4603 123.158 94.7453 125.771 92.5597C128.87 89.9676 130.103 90.8139 133.685 88.685C139.181 85.4187 141.574 80.5465 142.45 74.4429C143.14 69.6354 141.287 64.9508 138.54 60.8588Z" fill="url(#paint2_radial)"/>
<path d="M62.8238 32.6132L62.8238 32.6132C64.6443 32.7497 66.2308 31.3846 66.3673 29.5641L66.7819 24.0348C66.9184 22.2143 65.5533 20.6279 63.7328 20.4914L63.7328 20.4914C61.9123 20.3548 60.3258 21.72 60.1893 23.5405L59.7747 29.0697C59.6382 30.8902 61.0033 32.4767 62.8238 32.6132Z" fill="#1D1D1B"/>
<path d="M73.9232 40.3394C76.9201 37.7888 79.0933 34.4068 80.1681 30.6211C81.2428 26.8354 81.1709 22.816 79.9613 19.0712C78.7517 15.3264 76.4588 12.0244 73.3726 9.58268C70.2863 7.14099 66.5453 5.66932 62.6227 5.35376C58.7001 5.0382 54.7719 5.89292 51.3351 7.80985C47.8982 9.72677 45.1069 12.6198 43.3143 16.1231C41.5216 19.6264 40.808 23.5826 41.2638 27.4914C41.7196 31.4002 43.3242 35.0861 45.8748 38.083C47.5683 40.0728 49.6372 41.7096 51.9633 42.8999C54.2894 44.0902 56.8272 44.8107 59.4317 45.0202C62.0362 45.2297 64.6565 44.9242 67.143 44.1211C69.6294 43.3179 71.9334 42.0329 73.9232 40.3394ZM48.8799 35.5254C46.8352 33.1229 45.5488 30.168 45.1834 27.0344C44.818 23.9008 45.3901 20.7292 46.8272 17.9208C48.2643 15.1123 50.502 12.793 53.2572 11.2563C56.0125 9.71951 59.1616 9.0343 62.3062 9.28727C65.4509 9.54025 68.4499 10.72 70.9241 12.6775C73.3983 14.6349 75.2364 17.282 76.2061 20.2841C77.1758 23.2863 77.2335 26.5085 76.3719 29.5434C75.5103 32.5783 73.7681 35.2895 71.3656 37.3343C68.1439 40.0762 63.965 41.426 59.7481 41.0867C55.5312 40.7475 51.6218 38.747 48.8799 35.5254Z" fill="url(#paint3_radial)"/>
<path d="M61.0273 40.0923C69.8369 40.0923 76.9784 32.9508 76.9784 24.1412C76.9784 15.3316 69.8369 8.19006 61.0273 8.19006C52.2177 8.19006 45.0762 15.3316 45.0762 24.1412C45.0762 32.9508 52.2177 40.0923 61.0273 40.0923Z" fill="url(#paint4_radial)"/>
<path d="M43.8657 31.3015L46.7759 36.0864L20.584 52.0164C20.0951 52.3137 19.5083 52.4047 18.9524 52.2693C18.3966 52.1338 17.9173 51.7832 17.62 51.2943L16.9516 50.1954C16.6543 49.7066 16.5634 49.1198 16.6988 48.5639C16.8342 48.0081 17.1849 47.5288 17.6737 47.2315L43.8657 31.3015Z" fill="#E1E8EA"/>
<path d="M78.0272 13.8018C75.9822 10.4395 72.9862 7.75916 69.4179 6.09964C65.8496 4.44011 61.8694 3.87597 57.9804 4.47856C54.0915 5.08115 50.4687 6.8234 47.5699 9.48499C44.6712 12.1466 42.6268 15.608 41.6953 19.4315C40.7638 23.2549 40.987 27.2688 42.3367 30.9654C43.6864 34.662 46.102 37.8754 49.278 40.1992C52.4539 42.523 56.2477 43.8528 60.1794 44.0204C64.1111 44.1881 68.0043 43.1861 71.3666 41.1412C73.5991 39.7834 75.5422 37.9992 77.0852 35.8904C78.6281 33.7817 79.7406 31.3897 80.3591 28.851C80.9775 26.3123 81.09 23.6766 80.6898 21.0945C80.2897 18.5123 79.385 16.0343 78.0272 13.8018ZM69.316 37.7696C66.6206 39.409 63.4995 40.2123 60.3476 40.0779C57.1956 39.9434 54.1543 38.8774 51.6082 37.0145C49.0621 35.1516 47.1256 32.5755 46.0436 29.612C44.9616 26.6485 44.7826 23.4308 45.5294 20.3656C46.2762 17.3004 47.9151 14.5255 50.2389 12.3918C52.5627 10.258 55.4671 8.86132 58.5847 8.37824C61.7023 7.89516 64.8932 8.34741 67.7538 9.6778C70.6144 11.0082 73.0163 13.157 74.6556 15.8524C76.8539 19.4669 77.5264 23.8066 76.525 27.9169C75.5236 32.0272 72.9305 35.5713 69.316 37.7696V37.7696Z" fill="#E1E8EA"/>
<path d="M48.6857 34.2441L46.2539 37.4675C47.5375 38.8937 49.0221 40.1251 50.661 41.1231L53.05 37.9563C51.3817 36.9944 49.9028 35.7364 48.6857 34.2441Z" fill="white"/>
<path d="M67.3521 9.50119C69.1213 10.2615 70.7375 11.3374 72.1215 12.6763L74.5103 9.50999C73.0998 8.2092 71.5076 7.12046 69.7837 6.27795L67.3521 9.50119Z" fill="white"/>
<path d="M75.1035 10.079L72.6997 13.2654C73.1119 13.7107 73.4984 14.1791 73.8573 14.6684L76.3171 11.4078C75.9308 10.9428 75.5246 10.5012 75.1035 10.079Z" fill="white"/>
<path d="M55.4422 39.0784C54.8736 38.867 54.3175 38.6235 53.7766 38.3489L51.3721 41.5362C51.8983 41.8276 52.4356 42.0945 52.9841 42.3368L55.4422 39.0784Z" fill="white"/>
<path d="M41.9059 37.8025L40.1018 34.8362C39.3377 33.5799 37.6998 33.1809 36.4435 33.945L17.2746 45.6035C16.0183 46.3676 15.6193 48.0055 16.3834 49.2618L18.1875 52.2281C18.9516 53.4844 20.5894 53.8834 21.8457 53.1193L41.0146 41.4607C42.2709 40.6967 42.67 39.0588 41.9059 37.8025Z" fill="#404F53"/>
<path d="M42.1654 30.4651C42.0971 30.5063 42.0448 30.5696 42.0171 30.6444C41.9894 30.7192 41.9878 30.8012 42.0128 30.877C42.898 33.526 44.369 35.9413 46.3164 37.9433C46.3678 37.9956 46.4353 38.0289 46.508 38.0379C46.5808 38.0469 46.6544 38.031 46.7169 37.9928L50.098 35.9364C50.1814 35.8859 50.2525 35.8176 50.3063 35.7363C50.3601 35.6551 50.3953 35.5629 50.4092 35.4665C50.4232 35.37 50.4156 35.2717 50.387 35.1786C50.3585 35.0854 50.3096 34.9997 50.244 34.9277C48.6158 33.1518 47.3484 31.0763 46.5124 28.8167C46.4758 28.7179 46.4178 28.6284 46.3425 28.5546C46.2672 28.4808 46.1765 28.4246 46.0769 28.39C45.9773 28.3554 45.8713 28.3433 45.7665 28.3545C45.6617 28.3657 45.5606 28.4 45.4706 28.4548L42.1654 30.4651Z" fill="#BCD7DD"/>
<path d="M46.7737 37.6652C44.8263 35.6631 43.3553 33.2478 42.4701 30.5989C42.4451 30.5231 42.4467 30.4411 42.4744 30.3663C42.5021 30.2914 42.5544 30.2282 42.6227 30.187L42.1654 30.4651C42.0971 30.5064 42.0448 30.5696 42.0171 30.6444C41.9894 30.7192 41.9878 30.8012 42.0128 30.877C42.898 33.526 44.369 35.9413 46.3164 37.9433C46.3678 37.9956 46.4353 38.029 46.5081 38.0379C46.5808 38.0469 46.6544 38.031 46.7169 37.9928L47.1742 37.7146C47.1117 37.7529 47.0381 37.7688 46.9654 37.7598C46.8926 37.7508 46.8251 37.7175 46.7737 37.6652Z" fill="#94B9BF"/>
<path d="M9.8 207V183.8L1 184.2V178.68H24.4V184.2L15.4 183.8V200.6L15.84 204.6L15.4 207H9.8ZM26.9906 207V185.12L26.1906 181.08L26.9906 178.68H36.5906C38.5373 178.68 40.284 178.987 41.8306 179.6C43.404 180.187 44.644 181.2 45.5506 182.64C46.484 184.053 46.9506 186.013 46.9506 188.52C46.9506 190.893 46.4973 192.787 45.5906 194.2C44.7106 195.613 43.484 196.667 41.9106 197.36L43.0706 198.4L46.6306 202.56L48.9106 204.6V207H41.5106L35.9106 198.48H32.5906V200.56L32.9906 204.56L32.5906 207H26.9906ZM32.5906 193.4H36.5106C38.2706 193.4 39.4706 192.947 40.1106 192.04C40.7506 191.107 41.0706 189.933 41.0706 188.52C41.0706 187.027 40.724 185.88 40.0306 185.08C39.364 184.28 38.1373 183.88 36.3506 183.88H32.1906L32.5906 193.4ZM48.0984 207L50.4184 199.44V195.56L52.9784 194.36L58.1784 178.72H66.0584L72.4984 196.64L75.5784 202.32V207H70.0984L67.6984 199.8H56.0584L53.9384 207H48.0984ZM58.2984 194.84H65.8984L62.4584 184H61.6184L58.2984 194.84ZM88.8384 207.4C87.2651 207.4 85.6784 207.173 84.0784 206.72C82.5051 206.267 81.0518 205.507 79.7184 204.44C78.4118 203.347 77.3584 201.867 76.5584 200C75.7584 198.107 75.3584 195.72 75.3584 192.84C75.3584 189.933 75.9184 187.4 77.0384 185.24C78.1851 183.053 79.7451 181.347 81.7184 180.12C83.6918 178.893 85.9318 178.28 88.4384 178.28C89.6384 178.28 90.7851 178.387 91.8784 178.6C92.9984 178.813 93.8518 179.053 94.4384 179.32L98.8784 183.36L96.0784 187.56L89.2384 184.04C87.7451 184.04 86.3984 184.4 85.1984 185.12C83.9984 185.84 83.0384 186.867 82.3184 188.2C81.6251 189.507 81.2784 191.053 81.2784 192.84C81.2784 194.893 81.6384 196.587 82.3584 197.92C83.1051 199.253 84.1184 200.253 85.3984 200.92C86.6784 201.56 88.1051 201.88 89.6784 201.88C91.2784 201.88 92.6518 201.747 93.7984 201.48C94.9451 201.187 95.9051 200.867 96.6784 200.52C97.4518 200.147 98.0384 199.827 98.4384 199.56V205C97.6918 205.507 96.5451 206.04 94.9984 206.6C93.4784 207.133 91.4251 207.4 88.8384 207.4ZM101.917 207V185.24L101.117 181.2L101.917 178.68H107.517V183.48L107.117 191.04H110.317L116.757 178.68H123.117V181.08L115.197 192.32L121.917 200.64L125.877 204.6V207H118.477L111.197 195.6L107.517 196V202.2L107.917 204.6L107.517 207H101.917ZM127.895 207L127.095 204.6L127.895 200.6V178.68H146.055L148.055 179.88L145.815 184.28L141.815 183.88H133.415V190.08H144.215V195.08H140.295L133.415 194.68V201.8H146.215L149.375 204.44L147.015 207H127.895ZM150.983 207V185.12L150.183 181.08L150.983 178.68H160.583C162.529 178.68 164.276 178.987 165.823 179.6C167.396 180.187 168.636 181.2 169.543 182.64C170.476 184.053 170.943 186.013 170.943 188.52C170.943 190.893 170.489 192.787 169.583 194.2C168.703 195.613 167.476 196.667 165.903 197.36L167.063 198.4L170.623 202.56L172.903 204.6V207H165.503L159.903 198.48H156.583V200.56L156.983 204.56L156.583 207H150.983ZM156.583 193.4H160.503C162.263 193.4 163.463 192.947 164.103 192.04C164.743 191.107 165.063 189.933 165.063 188.52C165.063 187.027 164.716 185.88 164.023 185.08C163.356 184.28 162.129 183.88 160.343 183.88H156.183L156.583 193.4Z" fill="white"/>
<defs>
<radialGradient id="paint0_radial" cx="0" cy="0" r="1" gradientUnits="userSpaceOnUse" gradientTransform="translate(113.533 131.309) scale(60.7585)">
<stop offset="0.32445" stop-color="white"/>
<stop offset="0.80091" stop-color="#A0B6BF" stop-opacity="0.9"/>
</radialGradient>
<radialGradient id="paint1_radial" cx="0" cy="0" r="1" gradientUnits="userSpaceOnUse" gradientTransform="translate(29845.9 35702.6) scale(30357.5 21968.6)">
<stop offset="0.32445" stop-color="white"/>
<stop offset="0.80091" stop-color="#A0B6BF" stop-opacity="0.9"/>
</radialGradient>
<radialGradient id="paint2_radial" cx="0" cy="0" r="1" gradientUnits="userSpaceOnUse" gradientTransform="translate(10677.6 7647.51) scale(3418.11 4505.78)">
<stop offset="0.32445" stop-color="white"/>
<stop offset="0.80091" stop-color="#A0B6BF" stop-opacity="0.9"/>
</radialGradient>
<radialGradient id="paint3_radial" cx="0" cy="0" r="1" gradientUnits="userSpaceOnUse" gradientTransform="translate(14249.5 -14361.4) rotate(80.9073) scale(3654.77 3654.77)">
<stop offset="0.32445" stop-color="white"/>
<stop offset="0.80091" stop-color="#A0B6BF" stop-opacity="0.9"/>
</radialGradient>
<radialGradient id="paint4_radial" cx="0" cy="0" r="1" gradientUnits="userSpaceOnUse" gradientTransform="translate(61.0273 24.1412) rotate(58.692) scale(15.9511)">
<stop offset="0.15633" stop-color="white" stop-opacity="0"/>
<stop offset="0.33836" stop-color="#FDFEFE" stop-opacity="0.01489"/>
<stop offset="0.46638" stop-color="#F8FAFB" stop-opacity="0.0629"/>
<stop offset="0.57781" stop-color="#F0F3F5" stop-opacity="0.14434"/>
<stop offset="0.67978" stop-color="#E4EAED" stop-opacity="0.25937"/>
<stop offset="0.77527" stop-color="#D4DEE2" stop-opacity="0.40812"/>
<stop offset="0.86598" stop-color="#C1CFD5" stop-opacity="0.59081"/>
<stop offset="0.95132" stop-color="#AABEC6" stop-opacity="0.80327"/>
<stop offset="0.98545" stop-color="#A0B6BF" stop-opacity="0.9"/>
</radialGradient>
</defs>
</svg>
