 <svg width="188" height="238" viewBox="0 0 188 238" fill="none" xmlns="http://www.w3.org/2000/svg">
<g filter="url(#filter0_d)">
<path d="M94.2251 16.3249C69.1974 13.3355 57.8248 31.649 52.777 43.5199C47.1001 56.8701 48.3943 55.8263 47.1752 57.1324C46.6096 57.7384 46.0205 79.579 46.0205 79.579C46.0205 79.579 45.8464 83.5022 45.6514 87.6526C45.4564 91.8029 45.2405 103.796 46.0106 109.754C50.9194 147.73 76.7513 166.741 108.969 165.9C143.343 165.001 156.31 132.618 157.992 125.415C159.674 118.211 165.82 120.306 165.82 120.306C166.203 120.313 166.581 120.221 166.917 120.039C167.254 119.856 167.537 119.59 167.74 119.266C168.484 118.128 167.395 116.847 167.395 116.847C167.395 116.847 161.318 110.963 154.053 114.979C146.788 118.995 143.227 133.471 131.144 135.268C119.062 137.065 120.84 110.118 122.842 99.8284C124.728 90.1399 129.591 67.2765 129.591 65.8833C129.591 64.4901 128.582 19.4306 94.2251 16.3249Z" fill="white"/>
<path d="M95.6296 55.6789L95.6296 55.6789C96.7446 55.7625 97.7162 54.9264 97.7998 53.8115L98.0537 50.4251C98.1373 49.3101 97.3013 48.3385 96.1863 48.2549L96.1863 48.2549C95.0714 48.1713 94.0998 49.0074 94.0161 50.1223L93.7622 53.5087C93.6786 54.6237 94.5147 55.5953 95.6296 55.6789Z" fill="#1D1D1B"/>
<path d="M84.6532 58.9038C84.4788 61.2291 82.6186 62.9853 80.4983 62.8263C78.378 62.6673 76.8005 60.6534 76.9748 58.3281" stroke="#1D1D1B" stroke-width="0.92516" stroke-miterlimit="10" stroke-linecap="round"/>
<path d="M28.6704 57.3528C31.8981 56.6079 33.8899 58.6685 35.0915 61.0362C36.4489 63.7108 39.6252 63.9392 43.6471 61.7065C47.669 59.4737 49.9311 55.2643 49.9311 55.2643L49.5681 90.9632C49.5681 90.9632 40.6866 87.132 35.288 83.0075C30.557 79.393 25.3724 74.2872 24.7231 68.6724C24.1367 63.6025 25.2104 58.1512 28.6704 57.3528Z" fill="white"/>
<path d="M116.741 121.948C121.254 132.743 127.694 134.912 127.723 134.911C122.323 132.674 121.131 122.333 121.451 112.862C122.282 113.464 123.286 113.781 124.312 113.765L122.364 101.692L122.864 101.194C122.764 101.265 122.663 101.339 122.558 101.419C122.651 100.854 122.747 100.322 122.843 99.8284C123.014 98.9459 123.211 97.953 123.426 96.8781C124.133 98.0973 124.381 99.1951 124.184 99.8798L126.805 97.2696C126.805 97.2696 120.512 93.4322 117.662 96.0657C112.089 101.216 112.467 111.724 116.741 121.948Z" fill="url(#paint0_radial)"/>
<path d="M165.82 120.306C166.199 120.315 166.572 120.224 166.905 120.042C166.123 119.547 165.299 119.121 164.442 118.77C162.44 117.965 159.066 118.139 157.511 120.569C153.056 127.531 143.523 163.413 98.1864 159.325C48.3101 154.827 50.3891 94.1143 50.2149 89.4993C50.0408 84.8844 44.6506 82.6999 44.6506 82.6999C44.6506 82.6999 38.1636 79.6814 34.2163 75.6179C30.9845 72.2912 35.7523 65.4496 37.588 63.0772C37.4277 63.0364 37.27 62.9857 37.1159 62.9254L26.5538 69.2325L24.7533 63.3998C24.5215 65.1491 24.5114 66.9206 24.723 68.6723C25.3723 74.2872 30.5569 79.393 35.288 83.0075C38.3554 85.351 42.5457 87.5989 45.594 89.104C45.4234 94.1197 45.3167 104.386 46.0107 109.754C50.9195 147.73 76.7513 166.741 108.969 165.9C143.343 165.002 156.311 132.618 157.993 125.415C159.675 118.211 165.82 120.306 165.82 120.306Z" fill="url(#paint1_radial)"/>
<path d="M129.459 63.1793C129.459 63.1793 149.483 76.2803 147.45 90.443C146.574 96.5466 144.181 101.419 138.685 104.685C135.103 106.814 133.87 105.968 130.771 108.56C128.158 110.745 128.576 113.46 124.864 113.747C120.306 114.099 118.722 109.664 119.551 106.462C120.802 101.627 123.139 101.353 124.003 100.265C124.515 99.6206 124.251 98.1411 123.206 96.5157C122.161 94.8903 120.023 94.2641 120.023 94.2641L129.459 63.1793Z" fill="white"/>
<path d="M143.54 76.8588C145.374 80.2869 146.431 84.0275 145.882 87.8459C145.006 93.9495 142.614 98.8217 137.118 102.088C133.535 104.217 132.303 103.371 129.204 105.963C126.59 108.148 127.008 110.863 123.296 111.15C122.636 111.228 121.966 111.169 121.33 110.976C120.693 110.784 120.103 110.462 119.596 110.031C120.203 112.189 121.907 113.975 124.864 113.747C128.576 113.46 128.158 110.745 130.771 108.56C133.87 105.968 135.103 106.814 138.685 104.685C144.181 101.419 146.574 96.5465 147.45 90.4429C148.14 85.6354 146.287 80.9508 143.54 76.8588Z" fill="url(#paint2_radial)"/>
<path d="M67.8238 48.6132L67.8238 48.6132C69.6443 48.7497 71.2308 47.3846 71.3673 45.5641L71.7819 40.0348C71.9184 38.2143 70.5533 36.6279 68.7328 36.4914L68.7328 36.4914C66.9123 36.3548 65.3258 37.72 65.1893 39.5405L64.7747 45.0697C64.6382 46.8902 66.0033 48.4767 67.8238 48.6132Z" fill="#1D1D1B"/>
<path d="M78.9232 56.3394C81.9201 53.7888 84.0933 50.4068 85.1681 46.6211C86.2428 42.8354 86.1709 38.816 84.9613 35.0712C83.7517 31.3264 81.4588 28.0244 78.3726 25.5827C75.2863 23.141 71.5453 21.6693 67.6227 21.3538C63.7001 21.0382 59.7719 21.8929 56.3351 23.8098C52.8982 25.7268 50.1069 28.6198 48.3143 32.1231C46.5216 35.6264 45.808 39.5826 46.2638 43.4914C46.7196 47.4002 48.3242 51.0861 50.8748 54.083C52.5683 56.0728 54.6372 57.7096 56.9633 58.8999C59.2894 60.0902 61.8272 60.8107 64.4317 61.0202C67.0362 61.2297 69.6565 60.9242 72.143 60.1211C74.6294 59.3179 76.9334 58.0329 78.9232 56.3394ZM53.8799 51.5254C51.8352 49.1229 50.5488 46.168 50.1834 43.0344C49.818 39.9008 50.3901 36.7292 51.8272 33.9208C53.2643 31.1123 55.502 28.793 58.2572 27.2563C61.0125 25.7195 64.1616 25.0343 67.3062 25.2873C70.4509 25.5402 73.4499 26.72 75.9241 28.6775C78.3983 30.6349 80.2364 33.282 81.2061 36.2841C82.1758 39.2863 82.2335 42.5085 81.3719 45.5434C80.5103 48.5783 78.7681 51.2895 76.3656 53.3343C73.1439 56.0762 68.965 57.426 64.7481 57.0867C60.5312 56.7475 56.6218 54.747 53.8799 51.5254Z" fill="url(#paint3_radial)"/>
<path d="M66.0273 56.0923C74.8369 56.0923 81.9784 48.9508 81.9784 40.1412C81.9784 31.3316 74.8369 24.1901 66.0273 24.1901C57.2177 24.1901 50.0762 31.3316 50.0762 40.1412C50.0762 48.9508 57.2177 56.0923 66.0273 56.0923Z" fill="url(#paint4_radial)"/>
<path d="M48.8655 47.3015L51.7757 52.0864L25.5837 68.0164C25.0949 68.3137 24.508 68.4047 23.9522 68.2693C23.3963 68.1338 22.917 67.7832 22.6197 67.2943L21.9514 66.1954C21.6541 65.7066 21.5632 65.1198 21.6986 64.5639C21.834 64.0081 22.1847 63.5288 22.6735 63.2315L48.8655 47.3015Z" fill="#E1E8EA"/>
<path d="M83.0272 29.8018C80.9822 26.4395 77.9862 23.7592 74.4179 22.0996C70.8496 20.4401 66.8694 19.876 62.9804 20.4786C59.0915 21.0811 55.4687 22.8234 52.5699 25.485C49.6712 28.1466 47.6268 31.608 46.6953 35.4315C45.7638 39.2549 45.987 43.2688 47.3367 46.9654C48.6864 50.662 51.102 53.8754 54.278 56.1992C57.4539 58.523 61.2477 59.8528 65.1794 60.0204C69.1111 60.1881 73.0043 59.1861 76.3666 57.1412C78.5991 55.7834 80.5422 53.9992 82.0852 51.8904C83.6281 49.7817 84.7406 47.3897 85.3591 44.851C85.9775 42.3123 86.09 39.6766 85.6898 37.0945C85.2897 34.5123 84.385 32.0343 83.0272 29.8018ZM74.316 53.7696C71.6206 55.409 68.4995 56.2123 65.3476 56.0779C62.1956 55.9434 59.1543 54.8774 56.6082 53.0145C54.0621 51.1516 52.1256 48.5755 51.0436 45.612C49.9616 42.6485 49.7826 39.4308 50.5294 36.3656C51.2762 33.3004 52.9151 30.5255 55.2389 28.3918C57.5627 26.258 60.4671 24.8613 63.5847 24.3782C66.7023 23.8952 69.8932 24.3474 72.7538 25.6778C75.6144 27.0082 78.0163 29.157 79.6556 31.8524C81.8539 35.4669 82.5264 39.8066 81.525 43.9169C80.5236 48.0272 77.9305 51.5713 74.316 53.7696V53.7696Z" fill="#E1E8EA"/>
<path d="M53.6859 50.2441L51.2542 53.4675C52.5378 54.8937 54.0224 56.1251 55.6612 57.1231L58.0503 53.9563C56.382 52.9944 54.903 51.7364 53.6859 50.2441Z" fill="white"/>
<path d="M72.3521 25.5012C74.1213 26.2615 75.7375 27.3374 77.1215 28.6763L79.5103 25.51C78.0998 24.2092 76.5076 23.1205 74.7837 22.278L72.3521 25.5012Z" fill="white"/>
<path d="M80.1035 26.079L77.6997 29.2654C78.1119 29.7107 78.4984 30.1791 78.8573 30.6684L81.3171 27.4078C80.9308 26.9428 80.5246 26.5012 80.1035 26.079Z" fill="white"/>
<path d="M60.4422 55.0784C59.8736 54.867 59.3175 54.6235 58.7766 54.3489L56.3721 57.5362C56.8983 57.8276 57.4356 58.0945 57.9841 58.3368L60.4422 55.0784Z" fill="white"/>
<path d="M46.9061 53.8025L45.102 50.8362C44.3379 49.5799 42.7001 49.1809 41.4438 49.945L22.2749 61.6035C21.0185 62.3676 20.6195 64.0055 21.3836 65.2618L23.1877 68.2281C23.9518 69.4844 25.5897 69.8834 26.846 69.1193L46.0149 57.4607C47.2712 56.6967 47.6702 55.0588 46.9061 53.8025Z" fill="#404F53"/>
<path d="M47.1654 46.4651C47.0971 46.5063 47.0448 46.5696 47.0171 46.6444C46.9894 46.7192 46.9878 46.8012 47.0128 46.877C47.898 49.526 49.369 51.9413 51.3164 53.9433C51.3678 53.9956 51.4353 54.0289 51.508 54.0379C51.5808 54.0469 51.6544 54.031 51.7169 53.9928L55.098 51.9364C55.1814 51.8859 55.2525 51.8176 55.3063 51.7363C55.3601 51.6551 55.3953 51.5629 55.4092 51.4665C55.4232 51.37 55.4156 51.2717 55.387 51.1786C55.3585 51.0854 55.3096 50.9997 55.244 50.9277C53.6158 49.1518 52.3484 47.0763 51.5124 44.8167C51.4758 44.7179 51.4178 44.6284 51.3425 44.5546C51.2672 44.4808 51.1765 44.4246 51.0769 44.39C50.9773 44.3554 50.8713 44.3433 50.7665 44.3545C50.6617 44.3657 50.5606 44.4 50.4706 44.4548L47.1654 46.4651Z" fill="#BCD7DD"/>
<path d="M51.7737 53.6652C49.8263 51.6631 48.3553 49.2478 47.4701 46.5989C47.4451 46.5231 47.4467 46.4411 47.4744 46.3663C47.5021 46.2914 47.5544 46.2282 47.6227 46.187L47.1654 46.4651C47.0971 46.5064 47.0448 46.5696 47.0171 46.6444C46.9894 46.7192 46.9878 46.8012 47.0128 46.877C47.898 49.526 49.369 51.9413 51.3164 53.9433C51.3678 53.9956 51.4353 54.029 51.5081 54.0379C51.5808 54.0469 51.6544 54.031 51.7169 53.9928L52.1742 53.7146C52.1117 53.7529 52.0381 53.7688 51.9654 53.7598C51.8926 53.7508 51.8251 53.7175 51.7737 53.6652Z" fill="#94B9BF"/>
</g>
<g filter="url(#filter1_d)">
<path d="M14.8 223V199.8L6 200.2V194.68H29.4V200.2L20.4 199.8V216.6L20.84 220.6L20.4 223H14.8ZM31.9906 223V201.12L31.1906 197.08L31.9906 194.68H41.5906C43.5373 194.68 45.284 194.987 46.8306 195.6C48.404 196.187 49.644 197.2 50.5506 198.64C51.484 200.053 51.9506 202.013 51.9506 204.52C51.9506 206.893 51.4973 208.787 50.5906 210.2C49.7106 211.613 48.484 212.667 46.9106 213.36L48.0706 214.4L51.6306 218.56L53.9106 220.6V223H46.5106L40.9106 214.48H37.5906V216.56L37.9906 220.56L37.5906 223H31.9906ZM37.5906 209.4H41.5106C43.2706 209.4 44.4706 208.947 45.1106 208.04C45.7506 207.107 46.0706 205.933 46.0706 204.52C46.0706 203.027 45.724 201.88 45.0306 201.08C44.364 200.28 43.1373 199.88 41.3506 199.88H37.1906L37.5906 209.4ZM53.0984 223L55.4184 215.44V211.56L57.9784 210.36L63.1784 194.72H71.0584L77.4984 212.64L80.5784 218.32V223H75.0984L72.6984 215.8H61.0584L58.9384 223H53.0984ZM63.2984 210.84H70.8984L67.4584 200H66.6184L63.2984 210.84ZM93.8384 223.4C92.2651 223.4 90.6784 223.173 89.0784 222.72C87.5051 222.267 86.0518 221.507 84.7184 220.44C83.4118 219.347 82.3584 217.867 81.5584 216C80.7584 214.107 80.3584 211.72 80.3584 208.84C80.3584 205.933 80.9184 203.4 82.0384 201.24C83.1851 199.053 84.7451 197.347 86.7184 196.12C88.6918 194.893 90.9318 194.28 93.4384 194.28C94.6384 194.28 95.7851 194.387 96.8784 194.6C97.9984 194.813 98.8518 195.053 99.4384 195.32L103.878 199.36L101.078 203.56L94.2384 200.04C92.7451 200.04 91.3984 200.4 90.1984 201.12C88.9984 201.84 88.0384 202.867 87.3184 204.2C86.6251 205.507 86.2784 207.053 86.2784 208.84C86.2784 210.893 86.6384 212.587 87.3584 213.92C88.1051 215.253 89.1184 216.253 90.3984 216.92C91.6784 217.56 93.1051 217.88 94.6784 217.88C96.2784 217.88 97.6518 217.747 98.7984 217.48C99.9451 217.187 100.905 216.867 101.678 216.52C102.452 216.147 103.038 215.827 103.438 215.56V221C102.692 221.507 101.545 222.04 99.9984 222.6C98.4784 223.133 96.4251 223.4 93.8384 223.4ZM106.917 223V201.24L106.117 197.2L106.917 194.68H112.517V199.48L112.117 207.04H115.317L121.757 194.68H128.117V197.08L120.197 208.32L126.917 216.64L130.877 220.6V223H123.477L116.197 211.6L112.517 212V218.2L112.917 220.6L112.517 223H106.917ZM132.895 223L132.095 220.6L132.895 216.6V194.68H151.055L153.055 195.88L150.815 200.28L146.815 199.88H138.415V206.08H149.215V211.08H145.295L138.415 210.68V217.8H151.215L154.375 220.44L152.015 223H132.895ZM155.983 223V201.12L155.183 197.08L155.983 194.68H165.583C167.529 194.68 169.276 194.987 170.823 195.6C172.396 196.187 173.636 197.2 174.543 198.64C175.476 200.053 175.943 202.013 175.943 204.52C175.943 206.893 175.489 208.787 174.583 210.2C173.703 211.613 172.476 212.667 170.903 213.36L172.063 214.4L175.623 218.56L177.903 220.6V223H170.503L164.903 214.48H161.583V216.56L161.983 220.56L161.583 223H155.983ZM161.583 209.4H165.503C167.263 209.4 168.463 208.947 169.103 208.04C169.743 207.107 170.063 205.933 170.063 204.52C170.063 203.027 169.716 201.88 169.023 201.08C168.356 200.28 167.129 199.88 165.343 199.88H161.183L161.583 209.4Z" fill="url(#paint5_linear)"/>
</g>
<defs>
<filter id="filter0_d" x="0.995605" y="0" width="187.004" height="189.926" filterUnits="userSpaceOnUse" color-interpolation-filters="sRGB">
<feFlood flood-opacity="0" result="BackgroundImageFix"/>
<feColorMatrix in="SourceAlpha" type="matrix" values="0 0 0 0 0 0 0 0 0 0 0 0 0 0 0 0 0 0 127 0" result="hardAlpha"/>
<feOffset dy="4"/>
<feGaussianBlur stdDeviation="10"/>
<feColorMatrix type="matrix" values="0 0 0 0 0.054902 0 0 0 0 0.956863 0 0 0 0 0.933333 0 0 0 1 0"/>
<feBlend mode="normal" in2="BackgroundImageFix" result="effect1_dropShadow"/>
<feBlend mode="normal" in="SourceGraphic" in2="effect1_dropShadow" result="shape"/>
</filter>
<filter id="filter1_d" x="1" y="189.28" width="181.903" height="39.12" filterUnits="userSpaceOnUse" color-interpolation-filters="sRGB">
<feFlood flood-opacity="0" result="BackgroundImageFix"/>
<feColorMatrix in="SourceAlpha" type="matrix" values="0 0 0 0 0 0 0 0 0 0 0 0 0 0 0 0 0 0 127 0" result="hardAlpha"/>
<feOffset/>
<feGaussianBlur stdDeviation="2.5"/>
<feComposite in2="hardAlpha" operator="out"/>
<feColorMatrix type="matrix" values="0 0 0 0 0.054902 0 0 0 0 0.956863 0 0 0 0 0.933333 0 0 0 1 0"/>
<feBlend mode="normal" in2="BackgroundImageFix" result="effect1_dropShadow"/>
<feBlend mode="normal" in="SourceGraphic" in2="effect1_dropShadow" result="shape"/>
</filter>
<radialGradient id="paint0_radial" cx="0" cy="0" r="1" gradientUnits="userSpaceOnUse" gradientTransform="translate(118.533 147.309) scale(60.7585)">
<stop offset="0.32445" stop-color="white"/>
<stop offset="0.80091" stop-color="#A0B6BF" stop-opacity="0.9"/>
</radialGradient>
<radialGradient id="paint1_radial" cx="0" cy="0" r="1" gradientUnits="userSpaceOnUse" gradientTransform="translate(29850.9 35718.6) scale(30357.5 21968.6)">
<stop offset="0.32445" stop-color="white"/>
<stop offset="0.80091" stop-color="#A0B6BF" stop-opacity="0.9"/>
</radialGradient>
<radialGradient id="paint2_radial" cx="0" cy="0" r="1" gradientUnits="userSpaceOnUse" gradientTransform="translate(10682.6 7663.51) scale(3418.11 4505.78)">
<stop offset="0.32445" stop-color="white"/>
<stop offset="0.80091" stop-color="#A0B6BF" stop-opacity="0.9"/>
</radialGradient>
<radialGradient id="paint3_radial" cx="0" cy="0" r="1" gradientUnits="userSpaceOnUse" gradientTransform="translate(14254.5 -14345.4) rotate(80.9073) scale(3654.77 3654.77)">
<stop offset="0.32445" stop-color="white"/>
<stop offset="0.80091" stop-color="#A0B6BF" stop-opacity="0.9"/>
</radialGradient>
<radialGradient id="paint4_radial" cx="0" cy="0" r="1" gradientUnits="userSpaceOnUse" gradientTransform="translate(66.0273 40.1412) rotate(58.692) scale(15.9511)">
<stop offset="0.15633" stop-color="white" stop-opacity="0"/>
<stop offset="0.33836" stop-color="#FDFEFE" stop-opacity="0.01489"/>
<stop offset="0.46638" stop-color="#F8FAFB" stop-opacity="0.0629"/>
<stop offset="0.57781" stop-color="#F0F3F5" stop-opacity="0.14434"/>
<stop offset="0.67978" stop-color="#E4EAED" stop-opacity="0.25937"/>
<stop offset="0.77527" stop-color="#D4DEE2" stop-opacity="0.40812"/>
<stop offset="0.86598" stop-color="#C1CFD5" stop-opacity="0.59081"/>
<stop offset="0.95132" stop-color="#AABEC6" stop-opacity="0.80327"/>
<stop offset="0.98545" stop-color="#A0B6BF" stop-opacity="0.9"/>
</radialGradient>
<linearGradient id="paint5_linear" x1="174" y1="209" x2="5" y2="209" gradientUnits="userSpaceOnUse">
<stop stop-color="#CF63CA"/>
<stop offset="0.317708" stop-color="#39D4E1"/>
<stop offset="0.713542" stop-color="#C46075"/>
<stop offset="0.963542" stop-color="#E05DBC"/>
</linearGradient>
</defs>
</svg>
