<svg width="198" height="253" viewBox="0 0 198 253" fill="none" xmlns="http://www.w3.org/2000/svg">
<g filter="url(#filter0_d)">
<path d="M28.96 232.926L21.76 210.966L20.56 207.006V204.606H26.52L32.32 226.046H33.12L37.36 204.606H45.44L48.8 220.966L49.6 226.046H50.4L56.16 204.606H62.08V207.006L60.88 210.966L53.76 232.926H45.84L41.68 210.846H40.84L40 216.566L36.88 232.926H28.96ZM59.0734 232.926L61.3934 225.366V221.486L63.9534 220.286L69.1534 204.646H77.0334L83.4734 222.566L86.5534 228.246V232.926H81.0734L78.6734 225.726H67.0334L64.9134 232.926H59.0734ZM69.2734 220.766H76.8734L73.4334 209.926H72.5934L69.2734 220.766ZM88.5547 232.926L87.7547 230.526L88.5547 226.526V204.606H94.1547V221.046L93.7547 227.726H94.5547L103.315 227.326L106.155 226.926L108.875 230.366L106.915 232.926H88.5547ZM110.783 232.926L109.983 230.526L110.783 226.526V204.606H116.383V221.046L115.983 227.726H116.783L125.543 227.326L128.383 226.926L131.103 230.366L129.143 232.926H110.783ZM133.011 232.926L132.211 230.526L133.011 226.526V204.606H151.171L153.171 205.806L150.931 210.206L146.931 209.806H138.531V216.006H149.331V221.006H145.411L138.531 220.606V227.726H151.331L154.491 230.366L152.131 232.926H133.011ZM162.698 232.926V209.726L153.898 210.126V204.606H177.298V210.126L168.298 209.726V226.526L168.738 230.526L168.298 232.926H162.698Z" fill="url(#paint0_linear)"/>
<path d="M90.1216 167.621C53.9478 166.675 40.3014 132.597 38.5314 125.016C36.7613 117.436 30.2939 119.64 30.2939 119.64C29.8913 119.648 29.4936 119.551 29.1395 119.359C28.7855 119.167 28.4872 118.887 28.2737 118.545C27.4907 117.349 28.6366 116 28.6366 116C28.6366 116 35.0321 109.808 42.6775 114.034C50.3228 118.261 50.8254 129.751 63.54 131.642C76.2547 133.533 77.6291 116.933 75.5216 106.105C73.5371 95.9093 69.8921 82.0437 69.483 72.4171C69.074 62.7905 69.8393 23.647 105.994 20.3788C132.332 17.2328 143.943 34.3564 149.255 46.8487C155.229 60.8978 156.365 84.7955 156.365 84.7955C156.365 84.7955 156.548 88.9241 156.753 93.2917C156.959 97.6593 157.186 102.266 156.375 108.536C151.21 148.5 124.025 168.506 90.1216 167.621Z" fill="white"/>
<path d="M90.1743 167.778C124.078 168.664 151.262 148.658 156.428 108.693C157.239 102.424 157.011 97.817 156.806 93.4494C156.601 89.0817 156.418 84.9532 156.103 80.4756C152.373 102.325 150.612 111.728 139.574 131.439C129.112 150.121 114.141 159.407 99.8996 160.028C86.9321 160.594 70.959 161.321 56.0799 146.398C39.0362 129.303 41.9759 120.099 36.9972 117.442C33.0187 115.318 29.5581 117.096 28.3264 118.703C28.5399 119.044 28.8382 119.325 29.1922 119.517C29.5462 119.709 29.944 119.805 30.3466 119.798C30.3466 119.798 36.814 117.594 38.584 125.174C40.3541 132.755 54.0004 166.833 90.1743 167.778Z" fill="url(#paint1_radial)"/>
<path d="M94.2066 47.9191L93.6136 47.9635C92.604 48.0392 91.847 48.919 91.9227 49.9286L92.2344 54.0853C92.3101 55.0948 93.1899 55.8519 94.1994 55.7762L94.7925 55.7317C95.802 55.656 96.5591 54.7762 96.4834 53.7667L96.1717 49.61C96.096 48.6004 95.2162 47.8434 94.2066 47.9191Z" fill="#1D1D1B"/>
<path d="M123.588 45.6786L122.994 45.723C121.985 45.7987 121.228 46.6785 121.304 47.6881L121.615 51.8447C121.691 52.8543 122.571 53.6113 123.58 53.5356L124.173 53.4912C125.183 53.4155 125.94 52.5357 125.864 51.5261L125.553 47.3695C125.477 46.3599 124.597 45.6029 123.588 45.6786Z" fill="#1D1D1B"/>
<path d="M75.5277 95.8071C74.7428 93.6311 71.5656 87.2115 71.5656 87.2115L75.387 105.386C75.4452 105.679 75.5076 105.971 75.5742 106.263C77.4679 114.51 76.6791 128.407 68.0637 131.439C70.6571 130.915 73.663 129.537 76.1847 126.298C82.442 118.262 77.7353 102.43 75.5277 95.8071Z" fill="url(#paint2_radial)"/>
<path d="M75.5277 95.8071C74.7428 93.6311 71.5656 87.2115 71.5656 87.2115L75.387 105.386C75.4452 105.679 75.5076 105.971 75.5742 106.263C77.4679 114.51 76.6791 128.407 68.0637 131.439C70.6571 130.915 73.663 129.537 76.1847 126.298C82.442 118.262 77.7353 102.43 75.5277 95.8071Z" fill="url(#paint3_linear)"/>
<path d="M127.035 70.72H101.967C100.116 70.72 98.6162 72.2202 98.6162 74.0709V93.8604C98.6162 95.711 100.116 97.2112 101.967 97.2112H127.035C128.886 97.2112 130.386 95.711 130.386 93.8604V74.0709C130.386 72.2202 128.886 70.72 127.035 70.72Z" fill="#603813"/>
<path d="M127.035 95.4241H101.967C101.079 95.4215 100.228 95.0676 99.6005 94.4398C98.9727 93.8119 98.6188 92.9611 98.6162 92.0732V93.8604C98.6188 94.7483 98.9727 95.5991 99.6005 96.2269C100.228 96.8547 101.079 97.2086 101.967 97.2112H127.035C127.923 97.2086 128.774 96.8547 129.402 96.2269C130.03 95.5991 130.384 94.7483 130.386 93.8604V92.0732C130.384 92.9611 130.03 93.8119 129.402 94.4398C128.774 95.0676 127.923 95.4215 127.035 95.4241Z" fill="#512D10"/>
<path d="M98.6162 74.0709V76.0814L130.386 93.8604V74.0709C130.384 73.183 130.03 72.3322 129.402 71.7043C128.774 71.0765 127.923 70.7226 127.035 70.72H102.205L101.246 70.801C100.502 70.9671 99.8361 71.3813 99.3583 71.9754C98.8805 72.5696 98.6189 73.3084 98.6162 74.0709Z" fill="#703F16"/>
<path d="M98.6162 74.0709V76.0814L130.386 93.8604V74.0709C130.384 73.183 130.03 72.3322 129.402 71.7043C128.774 71.0765 127.923 70.7226 127.035 70.72H102.205L101.246 70.801C100.502 70.9671 99.8361 71.3813 99.3583 71.9754C98.8805 72.5696 98.6189 73.3084 98.6162 74.0709Z" fill="#703F16"/>
<path d="M129.06 71.4099H102.015C101.668 71.4099 101.384 71.8712 101.384 72.4349C101.384 72.9985 101.668 73.4598 102.015 73.4598H130.328C130.173 72.6432 129.722 71.9128 129.06 71.4099Z" fill="#84471F"/>
<path d="M130.237 73.0656C130.09 72.597 129.842 72.1664 129.511 71.8041H102.035C101.867 71.8041 101.707 71.8706 101.589 71.9889C101.47 72.1071 101.404 72.2676 101.404 72.4349C101.404 72.6021 101.47 72.7626 101.589 72.8809C101.707 72.9992 101.867 73.0656 102.035 73.0656H130.237Z" fill="#542C0C"/>
<path d="M154.994 81.3616C153.751 74.4347 146.86 69.3216 141.337 74.1328C137.151 77.7788 131.934 79.6209 128.426 80.4619C124.106 81.4979 120.396 83.3012 120.187 87.5472C119.978 91.7932 123.551 94.9196 127.845 95.8249C134.302 97.1859 139.548 98.3765 146.498 95.7768C152.502 93.5311 156.238 88.2887 154.994 81.3616Z" fill="white"/>
<path d="M146.873 91.6381C139.923 94.2379 133.739 95.6803 127.642 92.9997C124.175 91.4755 121.476 88.3892 120.723 85.2158C120.401 85.9377 120.219 86.7143 120.188 87.504C119.979 91.75 123.659 94.8928 127.852 96.4162C134.229 98.7334 139.549 98.3333 146.5 95.7335C152.002 93.6754 155.597 89.0985 155.202 83.0157C154.139 87.0494 151.059 90.0726 146.873 91.6381Z" fill="url(#paint4_radial)"/>
<path d="M148.55 94.802L147.564 95.3723L146.568 95.9225L146.566 95.9236L146.555 95.928C145.231 96.4601 143.885 96.9492 142.507 97.3504C141.124 97.7531 139.71 98.0426 138.28 98.2163C135.391 98.5474 132.465 98.3091 129.667 97.5148C128.966 97.328 128.283 97.0968 127.596 96.8636C126.906 96.6163 126.232 96.3261 125.579 95.9946C124.248 95.3351 123.037 94.4576 121.996 93.3985C120.917 92.3124 120.156 90.9511 119.796 89.4627C119.628 88.7108 119.581 87.9367 119.658 87.1699C119.728 86.3959 119.933 85.6402 120.263 84.9368C120.601 84.2359 121.061 83.6008 121.621 83.0614C122.17 82.5386 122.783 82.0874 123.446 81.7185C124.74 81.0219 126.12 80.4975 127.55 80.1585C128.26 79.9781 128.936 79.8314 129.614 79.6442C130.289 79.4556 130.963 79.2584 131.626 79.0297C132.96 78.5913 134.264 78.0669 135.53 77.4598C136.796 76.8525 138.017 76.1559 139.183 75.3755C139.479 75.185 139.76 74.9759 140.043 74.7683C140.331 74.5665 140.601 74.3423 140.875 74.1238C141.146 73.9113 141.433 73.6668 141.731 73.4559C142.032 73.2448 142.346 73.0533 142.671 72.8825C143.975 72.1867 145.47 71.9374 146.928 72.1727C148.351 72.4291 149.676 73.072 150.758 74.0312C149.629 73.1757 148.296 72.6292 146.891 72.4456C145.505 72.2956 144.109 72.6048 142.916 73.3257C142.621 73.5023 142.337 73.6968 142.066 73.908C141.791 74.1193 141.545 74.3471 141.265 74.5853C140.992 74.8204 140.724 75.0615 140.437 75.28C140.155 75.5043 139.874 75.7304 139.579 75.9376C138.415 76.789 137.184 77.5461 135.9 78.2019C134.618 78.8626 133.294 79.4378 131.937 79.9237C131.259 80.1701 130.571 80.3845 129.88 80.59C129.189 80.7936 128.478 80.9616 127.812 81.1429C126.478 81.4875 125.19 81.9948 123.979 82.6534C122.809 83.3196 121.797 84.2354 121.258 85.4075C120.728 86.6064 120.595 87.9437 120.88 89.2234C121.189 90.5176 121.847 91.7023 122.783 92.6486C123.74 93.6232 124.847 94.4374 126.063 95.06C126.673 95.382 127.303 95.6654 127.948 95.9087C128.604 96.1441 129.265 96.3815 129.936 96.573C131.273 96.9702 132.641 97.2523 134.027 97.4162C135.415 97.5707 136.815 97.5911 138.208 97.4772C139.609 97.3656 141 97.1401 142.365 96.8031C143.739 96.482 145.098 96.0793 146.442 95.6256L146.429 95.631L147.485 95.2065L148.55 94.802Z" fill="url(#paint5_radial)"/>
<path d="M76.2647 81.3616C77.5085 74.4347 84.3991 69.3216 89.9224 74.1328C94.1082 77.7788 99.325 79.6209 102.833 80.4619C107.153 81.4979 110.863 83.3012 111.072 87.5472C111.282 91.7932 107.708 94.9196 103.414 95.8249C96.9569 97.1859 91.7115 98.3765 84.7609 95.7768C78.7571 93.5311 75.0209 88.2887 76.2647 81.3616Z" fill="white"/>
<path d="M84.3858 91.6381C91.3365 94.2379 97.5202 95.6803 103.617 92.9997C107.084 91.4755 109.783 88.3892 110.536 85.2158C110.858 85.9377 111.04 86.7143 111.071 87.504C111.28 91.75 107.6 94.8928 103.407 96.4162C97.03 98.7334 91.7099 98.3333 84.7593 95.7335C79.2566 93.6754 75.6618 89.0985 76.0572 83.0157C77.1198 87.0494 80.2005 90.0726 84.3858 91.6381Z" fill="url(#paint6_radial)"/>
<path d="M82.709 94.8021L83.7743 95.2065L84.8301 95.631L84.8175 95.6256C86.1616 96.0794 87.5206 96.482 88.8943 96.8031C90.2596 97.1402 91.65 97.3656 93.0518 97.4773C94.4442 97.5911 95.8443 97.5707 97.2328 97.4163C98.618 97.2523 99.9866 96.9702 101.324 96.573C101.995 96.3816 102.655 96.1441 103.311 95.9087C103.957 95.6654 104.586 95.382 105.196 95.06C106.412 94.4375 107.52 93.6233 108.477 92.6487C109.412 91.7024 110.07 90.5177 110.379 89.2234C110.664 87.9437 110.532 86.6064 110.001 85.4076C109.462 84.2354 108.45 83.3196 107.28 82.6534C106.069 81.9948 104.782 81.4875 103.447 81.143C102.782 80.9616 102.07 80.7936 101.379 80.59C100.688 80.3845 100 80.1701 99.3226 79.9238C97.9651 79.4379 96.6412 78.8627 95.3597 78.2019C94.0749 77.5462 92.8444 76.789 91.68 75.9377C91.3851 75.7304 91.104 75.5044 90.8219 75.28C90.5355 75.0615 90.2668 74.8204 89.9939 74.5853C89.7146 74.3471 89.4684 74.1193 89.1938 73.908C88.9222 73.6968 88.638 73.5024 88.3428 73.3257C87.1502 72.6048 85.7538 72.2956 84.3684 72.4456C82.9634 72.6293 81.6305 73.1758 80.501 74.0313C81.5829 73.0721 82.9079 72.4291 84.3309 72.1728C85.7894 71.9374 87.2848 72.1867 88.588 72.8826C88.9135 73.0533 89.2277 73.2448 89.5286 73.4559C89.8267 73.6669 90.1132 73.9113 90.3839 74.1239C90.6587 74.3424 90.9285 74.5665 91.2161 74.7684C91.4991 74.976 91.7806 75.185 92.0758 75.3755C93.2425 76.156 94.4633 76.8525 95.7288 77.4598C96.9948 78.0669 98.2989 78.5913 99.6328 79.0297C100.296 79.2584 100.97 79.4556 101.646 79.6442C102.323 79.8314 102.999 79.9781 103.709 80.1586C105.14 80.4976 106.519 81.022 107.814 81.7185C108.476 82.0874 109.089 82.5386 109.638 83.0614C110.199 83.6009 110.658 84.2359 110.996 84.9368C111.326 85.6403 111.531 86.396 111.601 87.1699C111.678 87.9367 111.631 88.7108 111.463 89.4628C111.103 90.9511 110.342 92.3124 109.263 93.3985C108.222 94.4576 107.011 95.3351 105.681 95.9947C105.027 96.3261 104.353 96.6163 103.663 96.8636C102.977 97.0968 102.293 97.328 101.592 97.5148C98.7947 98.3091 95.8684 98.5474 92.979 98.2163C91.5488 98.0427 90.1351 97.7531 88.7518 97.3504C87.3739 96.9492 86.0284 96.4602 84.7044 95.928L84.6935 95.9236L84.6916 95.9226L83.6956 95.3723L82.709 94.8021Z" fill="url(#paint7_radial)"/>
<path d="M113.072 53.9796C113.23 56.0851 111.801 57.9087 109.881 58.0526C107.961 58.1966 106.277 56.6065 106.119 54.501" stroke="#1D1D1B" stroke-width="0.837706" stroke-miterlimit="10" stroke-linecap="round"/>
</g>
<defs>
<filter id="filter0_d" x="0" y="0" width="206" height="267.926" filterUnits="userSpaceOnUse" color-interpolation-filters="sRGB">
<feFlood flood-opacity="0" result="BackgroundImageFix"/>
<feColorMatrix in="SourceAlpha" type="matrix" values="0 0 0 0 0 0 0 0 0 0 0 0 0 0 0 0 0 0 127 0" result="hardAlpha"/>
<feOffset/>
<feGaussianBlur stdDeviation="10"/>
<feComposite in2="hardAlpha" operator="out"/>
<feColorMatrix type="matrix" values="0 0 0 0 0.054902 0 0 0 0 0.956863 0 0 0 0 0.933333 0 0 0 1 0"/>
<feBlend mode="normal" in2="BackgroundImageFix" result="effect1_dropShadow"/>
<feBlend mode="normal" in="SourceGraphic" in2="effect1_dropShadow" result="shape"/>
</filter>
<linearGradient id="paint0_linear" x1="27" y1="227.5" x2="180.5" y2="219" gradientUnits="userSpaceOnUse">
<stop stop-color="#DC5EB3"/>
<stop offset="0.333333" stop-color="#B66C80"/>
<stop offset="0.661458" stop-color="#49C7D5"/>
<stop offset="1" stop-color="#CB67CB"/>
</linearGradient>
<radialGradient id="paint1_radial" cx="0" cy="0" r="1" gradientUnits="userSpaceOnUse" gradientTransform="translate(101.02 95.5443) scale(86.2534)">
<stop offset="0.63788" stop-color="white"/>
<stop offset="0.80085" stop-color="#A0B6BF" stop-opacity="0.9"/>
</radialGradient>
<radialGradient id="paint2_radial" cx="0" cy="0" r="1" gradientUnits="userSpaceOnUse" gradientTransform="translate(69.4847 114.201) scale(22.5517)">
<stop offset="0.32445" stop-color="white"/>
<stop offset="0.80091" stop-color="#A0B6BF" stop-opacity="0.9"/>
</radialGradient>
<linearGradient id="paint3_linear" x1="61.5083" y1="98.884" x2="75.7045" y2="142.503" gradientUnits="userSpaceOnUse">
<stop offset="0.07465" stop-color="white"/>
<stop offset="0.657988" stop-color="#A0B6BF" stop-opacity="0.9"/>
<stop offset="0.95525" stop-color="#AFC1C9" stop-opacity="0.94247"/>
</linearGradient>
<radialGradient id="paint4_radial" cx="0" cy="0" r="1" gradientUnits="userSpaceOnUse" gradientTransform="translate(143.305 51.2809) scale(60.0228)">
<stop offset="0.65538" stop-color="white"/>
<stop offset="0.80091" stop-color="#A0B6BF" stop-opacity="0.9"/>
</radialGradient>
<radialGradient id="paint5_radial" cx="0" cy="0" r="1" gradientUnits="userSpaceOnUse" gradientTransform="translate(12102.9 -4780.73) scale(1637.14 1821.91)">
<stop offset="0.32445" stop-color="white"/>
<stop offset="0.80091" stop-color="#A0B6BF" stop-opacity="0.9"/>
</radialGradient>
<radialGradient id="paint6_radial" cx="0" cy="0" r="1" gradientUnits="userSpaceOnUse" gradientTransform="translate(-8820.62 1755) rotate(180) scale(7534.53 3208.26)">
<stop offset="0.65538" stop-color="white"/>
<stop offset="0.80091" stop-color="#A0B6BF" stop-opacity="0.9"/>
</radialGradient>
<radialGradient id="paint7_radial" cx="0" cy="0" r="1" gradientUnits="userSpaceOnUse" gradientTransform="translate(7639.54 -4780.73) scale(1637.14 1821.91)">
<stop offset="0.32445" stop-color="white"/>
<stop offset="0.80091" stop-color="#A0B6BF" stop-opacity="0.9"/>
</radialGradient>
</defs>
</svg>
