<svg width="166" height="228" viewBox="0 0 166 228" fill="none" xmlns="http://www.w3.org/2000/svg">
<path d="M8.96 212.926L1.76 190.966L0.56 187.006V184.606H6.52L12.32 206.046H13.12L17.36 184.606H25.44L28.8 200.966L29.6 206.046H30.4L36.16 184.606H42.08V187.006L40.88 190.966L33.76 212.926H25.84L21.68 190.846H20.84L20 196.566L16.88 212.926H8.96ZM39.0734 212.926L41.3934 205.366V201.486L43.9534 200.286L49.1534 184.646H57.0334L63.4734 202.566L66.5534 208.246V212.926H61.0734L58.6734 205.726H47.0334L44.9134 212.926H39.0734ZM49.2734 200.766H56.8734L53.4334 189.926H52.5934L49.2734 200.766ZM68.5547 212.926L67.7547 210.526L68.5547 206.526V184.606H74.1547V201.046L73.7547 207.726H74.5547L83.3147 207.326L86.1547 206.926L88.8747 210.366L86.9147 212.926H68.5547ZM90.7828 212.926L89.9828 210.526L90.7828 206.526V184.606H96.3828V201.046L95.9828 207.726H96.7828L105.543 207.326L108.383 206.926L111.103 210.366L109.143 212.926H90.7828ZM113.011 212.926L112.211 210.526L113.011 206.526V184.606H131.171L133.171 185.806L130.931 190.206L126.931 189.806H118.531V196.006H129.331V201.006H125.411L118.531 200.606V207.726H131.331L134.491 210.366L132.131 212.926H113.011ZM142.698 212.926V189.726L133.898 190.126V184.606H157.298V190.126L148.298 189.726V206.526L148.738 210.526L148.298 212.926H142.698Z" fill="white"/>
<path d="M70.1216 147.621C33.9478 146.675 20.3014 112.597 18.5314 105.016C16.7613 97.4359 10.2939 99.6402 10.2939 99.6402C9.89128 99.6478 9.49356 99.5508 9.13952 99.3589C8.78548 99.167 8.4872 98.8867 8.27375 98.5452C7.49067 97.3487 8.63657 96.0003 8.63657 96.0003C8.63657 96.0003 15.0321 89.8078 22.6775 94.0342C30.3228 98.2606 30.8254 109.751 43.54 111.642C56.2547 113.533 57.6291 96.9328 55.5216 86.1049C53.5371 75.9093 49.8921 62.0437 49.483 52.4171C49.074 42.7905 49.8393 3.64702 85.9944 0.378773C112.332 -2.76723 123.943 14.3564 129.255 26.8487C135.229 40.8978 136.365 64.7955 136.365 64.7955C136.365 64.7955 136.548 68.9241 136.753 73.2917C136.959 77.6593 137.186 82.2661 136.375 88.5357C131.21 128.5 104.025 148.506 70.1216 147.621Z" fill="white"/>
<path d="M70.174 147.778C104.078 148.664 131.262 128.658 136.428 88.6934C137.238 82.4237 137.011 77.817 136.806 73.4494C136.601 69.0817 136.417 64.9532 136.103 60.4756C132.373 82.3248 130.612 91.728 119.574 111.439C109.112 130.121 94.141 139.407 79.8993 140.028C66.9319 140.594 50.9587 141.321 36.0796 126.398C19.0359 109.303 21.9756 100.099 16.997 97.4417C13.0184 95.3182 9.55783 97.0962 8.32617 98.7029C8.53963 99.0444 8.83791 99.3247 9.19195 99.5166C9.54599 99.7085 9.94371 99.8054 10.3463 99.7979C10.3463 99.7979 16.8137 97.5936 18.5838 105.174C20.3539 112.755 34.0002 146.833 70.174 147.778Z" fill="url(#paint0_radial)"/>
<path d="M74.2066 27.9191L73.6136 27.9635C72.604 28.0392 71.847 28.919 71.9227 29.9286L72.2344 34.0853C72.3101 35.0948 73.1899 35.8519 74.1994 35.7762L74.7925 35.7317C75.802 35.656 76.5591 34.7762 76.4834 33.7667L76.1717 29.61C76.096 28.6004 75.2162 27.8434 74.2066 27.9191Z" fill="#1D1D1B"/>
<path d="M103.588 25.6786L102.994 25.723C101.985 25.7987 101.228 26.6785 101.304 27.6881L101.615 31.8447C101.691 32.8543 102.571 33.6113 103.58 33.5356L104.173 33.4912C105.183 33.4155 105.94 32.5357 105.864 31.5261L105.553 27.3695C105.477 26.3599 104.597 25.6029 103.588 25.6786Z" fill="#1D1D1B"/>
<path d="M55.5275 75.8071C54.7425 73.6311 51.5653 67.2115 51.5653 67.2115L55.3867 85.3861C55.4449 85.679 55.5073 85.9712 55.5739 86.2626C57.4676 94.5095 56.6789 108.407 48.0635 111.439C50.6569 110.915 53.6628 109.537 56.1845 106.298C62.4418 98.2621 57.7351 82.4299 55.5275 75.8071Z" fill="url(#paint1_radial)"/>
<path d="M55.5275 75.8071C54.7425 73.6311 51.5653 67.2115 51.5653 67.2115L55.3867 85.3861C55.4449 85.679 55.5073 85.9712 55.5739 86.2626C57.4676 94.5095 56.6789 108.407 48.0635 111.439C50.6569 110.915 53.6628 109.537 56.1845 106.298C62.4418 98.2621 57.7351 82.4299 55.5275 75.8071Z" fill="url(#paint2_linear)"/>
<path d="M107.035 50.72H81.967C80.1164 50.72 78.6162 52.2202 78.6162 54.0709V73.8604C78.6162 75.711 80.1164 77.2112 81.967 77.2112H107.035C108.886 77.2112 110.386 75.711 110.386 73.8604V54.0709C110.386 52.2202 108.886 50.72 107.035 50.72Z" fill="#603813"/>
<path d="M107.035 75.4241H81.967C81.0791 75.4215 80.2283 75.0676 79.6005 74.4398C78.9727 73.8119 78.6188 72.9611 78.6162 72.0732V73.8604C78.6188 74.7483 78.9727 75.5991 79.6005 76.2269C80.2283 76.8547 81.0791 77.2086 81.967 77.2112H107.035C107.923 77.2086 108.774 76.8547 109.402 76.2269C110.03 75.5991 110.384 74.7483 110.386 73.8604V72.0732C110.384 72.9611 110.03 73.8119 109.402 74.4398C108.774 75.0676 107.923 75.4215 107.035 75.4241Z" fill="#512D10"/>
<path d="M78.6162 54.0709V56.0814L110.386 73.8604V54.0709C110.384 53.183 110.03 52.3322 109.402 51.7043C108.774 51.0765 107.923 50.7226 107.035 50.72H82.205L81.2456 50.801C80.5016 50.9671 79.8361 51.3813 79.3583 51.9754C78.8805 52.5696 78.6189 53.3084 78.6162 54.0709Z" fill="#703F16"/>
<path d="M78.6162 54.0709V56.0814L110.386 73.8604V54.0709C110.384 53.183 110.03 52.3322 109.402 51.7043C108.774 51.0765 107.923 50.7226 107.035 50.72H82.205L81.2456 50.801C80.5016 50.9671 79.8361 51.3813 79.3583 51.9754C78.8805 52.5696 78.6189 53.3084 78.6162 54.0709Z" fill="#703F16"/>
<path d="M109.06 51.4099H82.015C81.6681 51.4099 81.3843 51.8712 81.3843 52.4349C81.3843 52.9985 81.6681 53.4598 82.015 53.4598H110.328C110.173 52.6432 109.722 51.9128 109.06 51.4099Z" fill="#84471F"/>
<path d="M110.237 53.0656C110.09 52.597 109.842 52.1664 109.511 51.8041H82.0346C81.8673 51.8041 81.7068 51.8706 81.5885 51.9889C81.4703 52.1071 81.4038 52.2676 81.4038 52.4349C81.4038 52.6021 81.4703 52.7626 81.5885 52.8809C81.7068 52.9992 81.8673 53.0656 82.0346 53.0656H110.237Z" fill="#542C0C"/>
<path d="M134.994 61.3616C133.75 54.4347 126.86 49.3216 121.336 54.1328C117.151 57.7788 111.934 59.6209 108.426 60.4619C104.105 61.4979 100.396 63.3012 100.186 67.5472C99.9774 71.7932 103.551 74.9196 107.845 75.8249C114.302 77.1859 119.547 78.3765 126.498 75.7768C132.502 73.5311 136.238 68.2887 134.994 61.3616Z" fill="white"/>
<path d="M126.873 71.6381C119.923 74.2379 113.739 75.6803 107.642 72.9997C104.175 71.4755 101.476 68.3892 100.723 65.2158C100.401 65.9377 100.219 66.7143 100.188 67.504C99.9791 71.75 103.659 74.8928 107.852 76.4162C114.229 78.7334 119.549 78.3333 126.5 75.7335C132.002 73.6754 135.597 69.0985 135.202 63.0157C134.139 67.0494 131.059 70.0726 126.873 71.6381Z" fill="url(#paint3_radial)"/>
<path d="M128.55 74.802L127.564 75.3723L126.568 75.9225L126.566 75.9236L126.555 75.928C125.231 76.4601 123.885 76.9492 122.507 77.3504C121.124 77.7531 119.71 78.0426 118.28 78.2163C115.391 78.5474 112.465 78.3091 109.667 77.5148C108.966 77.328 108.283 77.0968 107.596 76.8636C106.906 76.6163 106.232 76.3261 105.579 75.9946C104.248 75.3351 103.037 74.4576 101.996 73.3985C100.917 72.3124 100.156 70.9511 99.7963 69.4627C99.628 68.7108 99.5812 67.9367 99.6578 67.1699C99.7281 66.3959 99.9331 65.6402 100.263 64.9368C100.601 64.2359 101.061 63.6008 101.621 63.0614C102.17 62.5386 102.783 62.0874 103.446 61.7185C104.74 61.0219 106.12 60.4975 107.55 60.1585C108.26 59.9781 108.936 59.8314 109.614 59.6442C110.289 59.4556 110.963 59.2584 111.626 59.0297C112.96 58.5913 114.264 58.0669 115.53 57.4598C116.796 56.8525 118.017 56.1559 119.183 55.3755C119.479 55.185 119.76 54.9759 120.043 54.7683C120.331 54.5665 120.601 54.3423 120.875 54.1238C121.146 53.9113 121.433 53.6668 121.731 53.4559C122.032 53.2448 122.346 53.0533 122.671 52.8825C123.975 52.1867 125.47 51.9374 126.928 52.1727C128.351 52.4291 129.676 53.072 130.758 54.0312C129.629 53.1757 128.296 52.6292 126.891 52.4456C125.505 52.2956 124.109 52.6048 122.916 53.3257C122.621 53.5023 122.337 53.6968 122.066 53.908C121.791 54.1193 121.545 54.3471 121.265 54.5853C120.992 54.8204 120.724 55.0615 120.437 55.28C120.155 55.5043 119.874 55.7304 119.579 55.9376C118.415 56.789 117.184 57.5461 115.9 58.2019C114.618 58.8626 113.294 59.4378 111.937 59.9237C111.259 60.1701 110.571 60.3845 109.88 60.59C109.189 60.7936 108.478 60.9616 107.812 61.1429C106.478 61.4875 105.19 61.9948 103.979 62.6534C102.809 63.3196 101.797 64.2354 101.258 65.4075C100.728 66.6064 100.595 67.9437 100.88 69.2234C101.189 70.5176 101.847 71.7023 102.783 72.6486C103.74 73.6232 104.847 74.4374 106.063 75.06C106.673 75.382 107.303 75.6654 107.948 75.9087C108.604 76.1441 109.265 76.3815 109.936 76.573C111.273 76.9702 112.641 77.2523 114.027 77.4162C115.415 77.5707 116.815 77.5911 118.208 77.4772C119.609 77.3656 121 77.1401 122.365 76.8031C123.739 76.482 125.098 76.0793 126.442 75.6256L126.429 75.631L127.485 75.2065L128.55 74.802Z" fill="url(#paint4_radial)"/>
<path d="M56.2644 61.3616C57.5083 54.4347 64.3989 49.3216 69.9222 54.1328C74.1079 57.7788 79.3247 59.6209 82.8325 60.4619C87.1533 61.4979 90.8631 63.3012 91.0722 67.5472C91.2813 71.7932 87.7078 74.9196 83.4134 75.8249C76.9567 77.1859 71.7112 78.3765 64.7606 75.7768C58.7568 73.5311 55.0207 68.2887 56.2644 61.3616Z" fill="white"/>
<path d="M64.3856 71.6381C71.3362 74.2379 77.5199 75.6803 83.6171 72.9997C87.0837 71.4755 89.7827 68.3892 90.5362 65.2158C90.8579 65.9377 91.0393 66.7143 91.0706 67.504C91.2797 71.75 87.5995 74.8928 83.4068 76.4162C77.0298 78.7334 71.7097 78.3333 64.759 75.7335C59.2563 73.6754 55.6615 69.0985 56.057 63.0157C57.1195 67.0494 60.2003 70.0726 64.3856 71.6381Z" fill="url(#paint5_radial)"/>
<path d="M62.709 74.8021L63.7743 75.2065L64.8301 75.631L64.8175 75.6256C66.1616 76.0794 67.5206 76.482 68.8943 76.8031C70.2596 77.1402 71.65 77.3656 73.0518 77.4773C74.4442 77.5911 75.8443 77.5707 77.2328 77.4163C78.618 77.2523 79.9866 76.9702 81.3237 76.573C81.9946 76.3816 82.6549 76.1441 83.311 75.9087C83.9566 75.6654 84.5863 75.382 85.1965 75.06C86.4122 74.4375 87.5197 73.6233 88.4767 72.6487C89.4122 71.7024 90.0702 70.5177 90.3793 69.2234C90.6642 67.9437 90.5317 66.6064 90.0012 65.4076C89.4624 64.2354 88.4501 63.3196 87.2802 62.6534C86.0691 61.9948 84.7816 61.4875 83.4468 61.143C82.7817 60.9616 82.07 60.7936 81.3794 60.59C80.6884 60.3845 80.0001 60.1701 79.3226 59.9238C77.9651 59.4379 76.6412 58.8627 75.3597 58.2019C74.0749 57.5462 72.8444 56.789 71.68 55.9377C71.3851 55.7304 71.104 55.5044 70.8219 55.28C70.5355 55.0615 70.2668 54.8204 69.9939 54.5853C69.7146 54.3471 69.4684 54.1193 69.1938 53.908C68.9222 53.6968 68.638 53.5024 68.3428 53.3257C67.1502 52.6048 65.7538 52.2956 64.3684 52.4456C62.9634 52.6293 61.6305 53.1758 60.501 54.0313C61.5829 53.0721 62.9079 52.4291 64.3309 52.1728C65.7894 51.9374 67.2848 52.1867 68.588 52.8826C68.9135 53.0533 69.2277 53.2448 69.5286 53.4559C69.8267 53.6669 70.1132 53.9113 70.3839 54.1239C70.6587 54.3424 70.9285 54.5665 71.2161 54.7684C71.4991 54.976 71.7806 55.185 72.0758 55.3755C73.2425 56.156 74.4633 56.8525 75.7288 57.4598C76.9948 58.0669 78.2989 58.5913 79.6328 59.0297C80.2962 59.2584 80.9701 59.4556 81.6456 59.6442C82.3229 59.8314 82.9989 59.9781 83.7094 60.1586C85.1396 60.4976 86.5193 61.022 87.8136 61.7185C88.476 62.0874 89.0891 62.5386 89.6383 63.0614C90.1987 63.6009 90.6585 64.2359 90.9959 64.9368C91.3262 65.6403 91.5311 66.396 91.6015 67.1699C91.6781 67.9367 91.6313 68.7108 91.463 69.4628C91.1034 70.9511 90.3425 72.3124 89.2631 73.3985C88.2221 74.4576 87.0112 75.3351 85.6806 75.9947C85.0269 76.3261 84.3531 76.6163 83.6632 76.8636C82.9765 77.0968 82.2933 77.328 81.5924 77.5148C78.7947 78.3091 75.8684 78.5474 72.979 78.2163C71.5488 78.0427 70.1351 77.7531 68.7518 77.3504C67.3739 76.9492 66.0284 76.4602 64.7044 75.928L64.6935 75.9236L64.6916 75.9226L63.6956 75.3723L62.709 74.8021Z" fill="url(#paint6_radial)"/>
<path d="M93.0717 33.9796C93.2296 36.0851 91.8012 37.9087 89.8813 38.0526C87.9614 38.1966 86.277 36.6065 86.1191 34.501" stroke="#1D1D1B" stroke-width="0.837706" stroke-miterlimit="10" stroke-linecap="round"/>
<defs>
<radialGradient id="paint0_radial" cx="0" cy="0" r="1" gradientUnits="userSpaceOnUse" gradientTransform="translate(81.02 75.5443) scale(86.2534)">
<stop offset="0.63788" stop-color="white"/>
<stop offset="0.80085" stop-color="#A0B6BF" stop-opacity="0.9"/>
</radialGradient>
<radialGradient id="paint1_radial" cx="0" cy="0" r="1" gradientUnits="userSpaceOnUse" gradientTransform="translate(49.4845 94.2006) scale(22.5517)">
<stop offset="0.32445" stop-color="white"/>
<stop offset="0.80091" stop-color="#A0B6BF" stop-opacity="0.9"/>
</radialGradient>
<linearGradient id="paint2_linear" x1="41.5081" y1="78.884" x2="55.7042" y2="122.503" gradientUnits="userSpaceOnUse">
<stop offset="0.07465" stop-color="white"/>
<stop offset="0.657988" stop-color="#A0B6BF" stop-opacity="0.9"/>
<stop offset="0.95525" stop-color="#AFC1C9" stop-opacity="0.94247"/>
</linearGradient>
<radialGradient id="paint3_radial" cx="0" cy="0" r="1" gradientUnits="userSpaceOnUse" gradientTransform="translate(123.305 31.2809) scale(60.0228)">
<stop offset="0.65538" stop-color="white"/>
<stop offset="0.80091" stop-color="#A0B6BF" stop-opacity="0.9"/>
</radialGradient>
<radialGradient id="paint4_radial" cx="0" cy="0" r="1" gradientUnits="userSpaceOnUse" gradientTransform="translate(12082.9 -4800.73) scale(1637.14 1821.91)">
<stop offset="0.32445" stop-color="white"/>
<stop offset="0.80091" stop-color="#A0B6BF" stop-opacity="0.9"/>
</radialGradient>
<radialGradient id="paint5_radial" cx="0" cy="0" r="1" gradientUnits="userSpaceOnUse" gradientTransform="translate(-8840.62 1735) rotate(180) scale(7534.53 3208.26)">
<stop offset="0.65538" stop-color="white"/>
<stop offset="0.80091" stop-color="#A0B6BF" stop-opacity="0.9"/>
</radialGradient>
<radialGradient id="paint6_radial" cx="0" cy="0" r="1" gradientUnits="userSpaceOnUse" gradientTransform="translate(7619.54 -4800.73) scale(1637.14 1821.91)">
<stop offset="0.32445" stop-color="white"/>
<stop offset="0.80091" stop-color="#A0B6BF" stop-opacity="0.9"/>
</radialGradient>
</defs>
</svg>
