<svg width="19" height="20" viewBox="0 0 19 20" fill="none" xmlns="http://www.w3.org/2000/svg">
<path fill-rule="evenodd" clip-rule="evenodd" d="M3.0556 11.5796L3.05581 11.5807C3.64934 14.782 6.18673 17.3384 9.27594 17.856L9.27902 17.8565C11.5694 18.2443 13.6972 17.581 15.3063 16.254C9.95408 14.2585 6.7162 8.32315 7.94987 2.45886C4.53565 3.74264 2.29383 7.48315 3.0556 11.5796ZM8.66413 0.181245C3.64263 1.224 0.129672 6.34017 1.17487 11.9608C1.92205 15.9908 5.09277 19.1808 8.97235 19.8308C12.3453 20.4018 15.4531 19.1315 17.5325 16.8294C17.5423 16.8185 17.552 16.8077 17.5618 16.7968C17.6975 16.6452 17.8289 16.4891 17.9556 16.3288C17.958 16.3257 17.9605 16.3226 17.963 16.3194C18.1255 16.1133 18.2803 15.9002 18.427 15.6808C18.6282 15.3708 18.4653 14.9308 18.1109 14.8908C17.7674 14.8503 17.4309 14.7916 17.1022 14.7159C17.0824 14.7113 17.0627 14.7067 17.043 14.702C16.959 14.6821 16.8755 14.661 16.7925 14.6388C16.7908 14.6384 16.789 14.6379 16.7872 14.6374C11.5524 13.2354 8.3929 7.45076 10.0492 2.00487C10.0498 2.00284 10.0504 2.00082 10.0511 1.9988C10.0811 1.90024 10.1127 1.80179 10.1459 1.70349C10.1472 1.69981 10.1484 1.69613 10.1497 1.69245C10.2624 1.35991 10.3934 1.02899 10.5433 0.700757C10.6966 0.360757 10.4284 -0.019243 10.0644 0.000757021C9.8013 0.014489 9.54128 0.039179 9.28472 0.0743831C9.28045 0.0749691 9.27617 0.0755581 9.2719 0.0761511C9.07888 0.102911 8.88781 0.135626 8.69886 0.174102C8.68728 0.176461 8.6757 0.178843 8.66413 0.181245Z" fill="white"/>
</svg>
