 <svg width="22" height="22" viewBox="0 0 22 22" fill="none" xmlns="http://www.w3.org/2000/svg">
<path d="M4.66002 3.20002L5.05002 3.59002C5.44002 3.97002 5.44002 4.61002 5.05002 4.99002L5.04002 5.00002C4.65002 5.39002 4.03002 5.39002 3.64002 5.00002L3.25002 4.61002C2.86002 4.23002 2.86002 3.60002 3.25002 3.21002L3.26002 3.20002C3.64002 2.82002 4.27002 2.81002 4.66002 3.20002Z" fill="#666"/>
<path d="M0.99 9.95001H2.01C2.56 9.95001 3 10.39 3 10.95V10.96C3 11.51 2.56 11.95 2 11.94H0.99C0.44 11.94 0 11.5 0 10.95V10.94C0 10.39 0.44 9.95001 0.99 9.95001Z" fill="#666"/>
<path d="M11 0H11.01C11.56 0 12 0.44 12 0.99V1.96C12 2.51 11.56 2.95 11 2.94H10.99C10.44 2.94 10 2.5 10 1.95V0.99C10 0.44 10.44 0 11 0Z" fill="#666"/>
<path d="M17.3397 3.20002C17.7297 2.82002 18.3597 2.82002 18.7497 3.21002C19.1397 3.60002 19.1397 4.22002 18.7497 4.61002L18.3597 5.00002C17.9797 5.39002 17.3497 5.39002 16.9597 5.00002L16.9497 4.99002C16.5597 4.61002 16.5597 3.98002 16.9497 3.59002L17.3397 3.20002Z" fill="#666"/>
<path d="M17.3297 18.7L16.9397 18.31C16.5497 17.92 16.5497 17.3 16.9497 16.9C17.3297 16.52 17.9597 16.51 18.3497 16.9L18.7397 17.29C19.1297 17.68 19.1297 18.31 18.7397 18.7C18.3497 19.09 17.7197 19.09 17.3297 18.7Z" fill="#666"/>
<path d="M19 10.95V10.94C19 10.39 19.44 9.95001 19.99 9.95001H21C21.55 9.95001 21.99 10.39 21.99 10.94V10.95C21.99 11.5 21.55 11.94 21 11.94H19.99C19.44 11.94 19 11.5 19 10.95Z" fill="#666"/>
<path fill-rule="evenodd" clip-rule="evenodd" d="M5 10.95C5 7.64001 7.69 4.95001 11 4.95001C14.31 4.95001 17 7.64001 17 10.95C17 14.26 14.31 16.95 11 16.95C7.69 16.95 5 14.26 5 10.95ZM11 15C13.2091 15 15 13.2091 15 11C15 8.79087 13.2091 7.00001 11 7.00001C8.79086 7.00001 7 8.79087 7 11C7 13.2091 8.79086 15 11 15Z" fill="#666"/>
<path d="M11 21.9H10.99C10.44 21.9 10 21.46 10 20.91V19.95C10 19.4 10.44 18.96 10.99 18.96H11C11.55 18.96 11.99 19.4 11.99 19.95V20.91C11.99 21.46 11.55 21.9 11 21.9Z" fill="#666"/>
<path d="M4.65982 18.69C4.26982 19.08 3.63982 19.08 3.24982 18.69C2.85982 18.3 2.85982 17.68 3.23982 17.28L3.62982 16.89C4.01982 16.5 4.64982 16.5 5.03982 16.89L5.04982 16.9C5.42982 17.28 5.43982 17.91 5.04982 18.3L4.65982 18.69Z" fill="#666"/>
</svg>
