<svg width="522" height="115" viewBox="0 0 522 115" fill="none" xmlns="http://www.w3.org/2000/svg">
<path d="M38.6198 88.1449C34.1166 88.1449 29.5753 87.4961 24.9958 86.1986C20.4926 84.9011 16.3329 82.7258 12.5166 79.6728C8.77668 76.5435 5.76184 72.3074 3.47209 66.9647C1.18233 61.5456 0.0374583 54.7145 0.0374583 46.4714C0.0374583 38.1519 1.64029 30.901 4.84594 24.7187C8.12792 18.46 12.5929 13.5752 18.241 10.0643C23.8891 6.55332 30.3004 4.79784 37.4749 4.79784C40.9096 4.79784 44.1915 5.10314 47.3209 5.71374C50.5265 6.32435 52.9689 7.01127 54.6481 7.77452L67.3562 19.3378L59.3421 31.359L39.7647 21.2841C35.4905 21.2841 31.6361 22.3145 28.2014 24.3752C24.7668 26.436 22.0191 29.3745 19.9583 33.1908C17.9739 36.9307 16.9816 41.3576 16.9816 46.4714C16.9816 52.3484 18.012 57.195 20.0728 61.0113C22.2099 64.8276 25.1103 67.6897 28.7739 69.5979C32.4375 71.4297 36.5209 72.3456 41.024 72.3456C45.6036 72.3456 49.5343 71.964 52.8163 71.2007C56.0983 70.3611 58.846 69.4452 61.0594 68.453C63.2728 67.3844 64.952 66.4685 66.0969 65.7053V81.2756C63.9598 82.7258 60.6778 84.2523 56.2509 85.8551C51.9004 87.3816 46.0233 88.1449 38.6198 88.1449ZM88.6473 88.1449C83.5336 88.1449 79.183 86.8473 75.5957 84.2523C72.0848 81.5809 70.3293 77.4594 70.3293 71.8876C70.3293 66.0106 72.1993 61.5456 75.9392 58.4926C79.6791 55.3632 84.6784 53.7986 90.9371 53.7986C95.5166 53.7986 98.9894 54.1802 101.355 54.9434C103.798 55.7067 105.401 56.2791 106.164 56.6608L106.965 55.9738C106.965 53.6841 106.775 51.6615 106.393 49.906C106.011 48.1505 105.134 46.8148 103.76 45.8989C102.386 44.9067 100.249 44.4106 97.3484 44.4106C92.1583 44.4106 87.5025 44.8304 83.3809 45.6699C79.3357 46.5095 76.13 47.2728 73.7639 47.9597V35.3661C76.13 34.5265 79.7173 33.7632 84.5258 33.0763C89.3343 32.313 94.5244 31.9314 100.096 31.9314C104.828 31.9314 108.683 32.5802 111.659 33.8777C114.712 35.0989 117.04 36.7781 118.643 38.9152C120.322 41.0523 121.467 43.4184 122.078 46.0134C122.765 48.5321 123.108 51.0509 123.108 53.5696V68.7965L125.398 80.3597L123.108 87.1145H108.11V81.5046L106.965 80.9322C106.355 81.6954 105.286 82.6495 103.76 83.7943C102.31 84.9392 100.325 85.9696 97.8064 86.8855C95.364 87.7251 92.3109 88.1449 88.6473 88.1449ZM94.9442 75.4367C98.2261 75.4367 100.783 75.1314 102.615 74.5208C104.523 73.9102 105.973 73.2996 106.965 72.689V70.5138C106.965 69.0636 106.088 67.6134 104.332 66.1632C102.653 64.7131 99.8671 63.988 95.9746 63.988C93.0742 63.988 90.9371 64.5604 89.5632 65.7053C88.1894 66.8502 87.5025 68.3003 87.5025 70.0558C87.5025 71.8876 88.1512 73.2615 89.4488 74.1774C90.7463 75.017 92.5781 75.4367 94.9442 75.4367ZM149.426 88.1449C144.541 88.1449 140.458 87.7251 137.176 86.8855C133.97 86.0459 131.375 85.0919 129.391 84.0233V70.5138C132.138 71.964 135.268 73.2233 138.779 74.2919C142.366 75.2841 145.801 75.7802 149.083 75.7802C152.975 75.7802 154.921 74.5208 154.921 72.0021C154.921 70.6283 154.349 69.5979 153.204 68.9109C152.136 68.224 150.609 67.6134 148.625 67.0791C146.716 66.4685 144.503 65.7435 141.984 64.9039C137.634 63.3774 134.275 61.4311 131.909 59.065C129.543 56.6989 128.36 52.9972 128.36 47.9597C128.36 42.5406 130.23 38.4954 133.97 35.824C137.786 33.1526 142.786 31.8169 148.968 31.8169C151.487 31.8169 153.624 31.9696 155.379 32.2749C157.135 32.5039 158.738 32.7328 160.188 32.9618L170.606 38.6862L166.141 49.7915L148.968 44.2961C147.518 44.2961 146.335 44.6014 145.419 45.212C144.579 45.7463 144.16 46.5095 144.16 47.5017C144.16 49.1046 144.961 50.3258 146.564 51.1654C148.167 51.9286 150.495 52.7682 153.548 53.6841C159.73 55.5159 164.271 57.7293 167.172 60.3244C170.072 62.9194 171.522 66.7357 171.522 71.7731C171.522 76.429 169.69 80.3216 166.027 83.4509C162.439 86.5802 156.906 88.1449 149.426 88.1449ZM177.192 114.821V52.4247L174.902 39.8311L178.451 32.8473H190.93V37.7703L192.075 38.3427C192.075 38.3427 192.762 37.7703 194.136 36.6254C195.51 35.4805 197.38 34.3738 199.746 33.3053C202.188 32.1604 205.012 31.588 208.218 31.588C215.011 31.588 220.316 33.7632 224.132 38.1138C228.024 42.4643 229.971 49.3336 229.971 58.7215C229.971 65.7435 228.979 71.4297 226.994 75.7802C225.086 80.0544 222.491 83.1456 219.209 85.0537C215.927 86.9618 212.263 87.9159 208.218 87.9159C204.249 87.9159 200.967 87.5724 198.372 86.8855C195.777 86.1223 194.06 85.588 193.22 85.2827V114.821H177.192ZM200.776 75.7802C203.753 75.7802 206.119 75.0551 207.875 73.6049C209.63 72.0784 210.889 70.094 211.653 67.6516C212.416 65.2092 212.798 62.576 212.798 59.7519C212.798 57.0042 212.492 54.4473 211.882 52.0813C211.271 49.7152 210.164 47.8452 208.562 46.4714C207.035 45.0212 204.822 44.2961 201.921 44.2961L193.22 46.7003V74.2919C193.22 74.2919 193.983 74.559 195.51 75.0933C197.113 75.5512 198.868 75.7802 200.776 75.7802ZM257.995 88.1449C253.034 88.1449 248.607 87.2671 244.715 85.5117C240.822 83.7562 237.769 80.8177 235.556 76.6961C233.342 72.5746 232.235 67.0028 232.235 59.9809C232.235 53.188 233.418 47.7307 235.785 43.6092C238.151 39.4876 241.28 36.5109 245.173 34.6791C249.065 32.771 253.339 31.8169 257.995 31.8169C263.109 31.8169 267.116 32.3894 270.016 33.5343C272.993 34.6791 275.245 35.7858 276.771 36.8544L282.496 55.0579L280.206 62.1562H248.149C248.607 66.2014 250.057 69.4452 252.5 71.8876C254.942 74.33 258.682 75.5512 263.72 75.5512C267.841 75.5512 271.161 75.0551 273.68 74.0629C276.275 73.0707 278.069 72.3074 279.061 71.7731V83.6799C276.771 84.9011 273.833 85.9696 270.245 86.8855C266.734 87.7251 262.651 88.1449 257.995 88.1449ZM248.035 54.829L265.208 52.5392L263.491 44.0671C262.956 43.7618 262.193 43.5328 261.201 43.3802C260.285 43.2275 259.445 43.1512 258.682 43.1512C255.247 43.1512 252.614 44.3724 250.782 46.8148C248.951 49.1809 248.035 51.8523 248.035 54.829ZM287.443 87V51.1654L285.038 39.7166L287.443 32.8473H298.433L300.723 35.4805C300.723 35.4805 301.219 35.1752 302.212 34.5646C303.28 33.8777 304.768 33.229 306.677 32.6183C308.585 32.0078 310.913 31.7025 313.66 31.7025C315.187 31.7025 316.713 31.8169 318.24 32.0459C319.766 32.2749 320.949 32.5802 321.789 32.9618L329.231 40.4035L322.934 51.6233L307.249 43.7237L303.242 45.3265V87H287.443ZM333.785 87V24.3752L331.495 12.9265L333.785 5.94272H358.743C364.239 5.94272 369.505 6.477 374.543 7.54555C379.657 8.53777 384.198 10.4459 388.167 13.2699C392.212 16.094 395.38 20.1392 397.669 25.4056C400.035 30.6721 401.218 37.5032 401.218 45.8989C401.218 54.2947 400.035 61.2021 397.669 66.6212C395.303 71.964 392.098 76.1237 388.052 79.1003C384.007 82.077 379.428 84.1378 374.314 85.2827C369.276 86.4276 364.086 87 358.743 87H333.785ZM350.042 72.1166H362.178C370.116 72.1166 375.764 69.7887 379.122 65.1329C382.481 60.4007 384.16 53.9894 384.16 45.8989C384.16 37.8085 382.442 31.6261 379.008 27.3519C375.649 23.0014 370.04 20.8261 362.178 20.8261H350.042V72.1166ZM430.858 88.1449C425.897 88.1449 421.47 87.2671 417.578 85.5117C413.685 83.7562 410.632 80.8177 408.419 76.6961C406.205 72.5746 405.098 67.0028 405.098 59.9809C405.098 53.188 406.281 47.7307 408.648 43.6092C411.014 39.4876 414.143 36.5109 418.036 34.6791C421.928 32.771 426.202 31.8169 430.858 31.8169C435.972 31.8169 439.979 32.3894 442.879 33.5343C445.856 34.6791 448.108 35.7858 449.634 36.8544L455.359 55.0579L453.069 62.1562H421.012C421.47 66.2014 422.92 69.4452 425.363 71.8876C427.805 74.33 431.545 75.5512 436.583 75.5512C440.704 75.5512 444.024 75.0551 446.543 74.0629C449.138 73.0707 450.932 72.3074 451.924 71.7731V83.6799C449.634 84.9011 446.696 85.9696 443.108 86.8855C439.597 87.7251 435.514 88.1449 430.858 88.1449ZM420.898 54.829L438.071 52.5392L436.354 44.0671C435.819 43.7618 435.056 43.5328 434.064 43.3802C433.148 43.2275 432.308 43.1512 431.545 43.1512C428.11 43.1512 425.477 44.3724 423.645 46.8148C421.814 49.1809 420.898 51.8523 420.898 54.829ZM461.68 87V46.4714L455.612 38.4572L461.68 32.9618C461.298 31.6643 460.993 29.947 460.764 27.8099C460.611 25.5964 460.535 23.8028 460.535 22.4289C460.535 15.9413 461.985 10.6749 464.885 6.62965C467.862 2.50809 472.747 0.44731 479.54 0.44731C481.677 0.44731 483.928 0.561799 486.294 0.790776C488.737 0.943424 490.836 1.24872 492.591 1.70667L503.696 8.69043L498.316 20.0247L482.86 13.1554C480.265 13.1554 478.357 14.1477 477.135 16.1321C475.914 18.0403 475.304 20.4445 475.304 23.3448C475.304 25.253 475.571 27.1993 476.105 29.1837C476.639 31.0918 477.174 32.3512 477.708 32.9618H496.026V43.2657H477.708V68.453L478.853 80.0163L477.708 87H461.68ZM509.466 27.2374L497.215 14.9872L509.466 2.73706L521.601 14.9872L509.466 27.2374ZM501.451 87V49.1046L499.047 39.9456L501.337 32.9618H517.365V87H501.451Z" fill="#786394"/>
</svg>
