<svg width="542" height="135" viewBox="0 0 542 135" fill="none" xmlns="http://www.w3.org/2000/svg">
<g filter="url(#filter0_d)">
<path d="M48.6198 98.1449C44.1166 98.1449 39.5753 97.4961 34.9958 96.1986C30.4926 94.9011 26.3329 92.7258 22.5166 89.6728C18.7767 86.5435 15.7618 82.3074 13.4721 76.9647C11.1823 71.5456 10.0375 64.7145 10.0375 56.4714C10.0375 48.1519 11.6403 40.901 14.8459 34.7187C18.1279 28.46 22.5929 23.5752 28.241 20.0643C33.8891 16.5533 40.3004 14.7978 47.4749 14.7978C50.9096 14.7978 54.1915 15.1031 57.3209 15.7137C60.5265 16.3243 62.9689 17.0113 64.6481 17.7745L77.3562 29.3378L69.3421 41.359L49.7647 31.2841C45.4905 31.2841 41.6361 32.3145 38.2014 34.3752C34.7668 36.436 32.0191 39.3745 29.9583 43.1908C27.9739 46.9307 26.9816 51.3576 26.9816 56.4714C26.9816 62.3484 28.012 67.195 30.0728 71.0113C32.2099 74.8276 35.1103 77.6897 38.7739 79.5979C42.4375 81.4297 46.5209 82.3456 51.024 82.3456C55.6036 82.3456 59.5343 81.964 62.8163 81.2007C66.0983 80.3611 68.846 79.4452 71.0594 78.453C73.2728 77.3844 74.952 76.4685 76.0969 75.7053V91.2756C73.9598 92.7258 70.6778 94.2523 66.2509 95.8551C61.9004 97.3816 56.0233 98.1449 48.6198 98.1449ZM98.6473 98.1449C93.5336 98.1449 89.183 96.8473 85.5957 94.2523C82.0848 91.5809 80.3293 87.4594 80.3293 81.8876C80.3293 76.0106 82.1993 71.5456 85.9392 68.4926C89.6791 65.3632 94.6784 63.7986 100.937 63.7986C105.517 63.7986 108.989 64.1802 111.355 64.9434C113.798 65.7067 115.401 66.2791 116.164 66.6608L116.965 65.9738C116.965 63.6841 116.775 61.6615 116.393 59.906C116.011 58.1505 115.134 56.8148 113.76 55.8989C112.386 54.9067 110.249 54.4106 107.348 54.4106C102.158 54.4106 97.5025 54.8304 93.3809 55.6699C89.3357 56.5095 86.13 57.2728 83.7639 57.9597V45.3661C86.13 44.5265 89.7173 43.7632 94.5258 43.0763C99.3343 42.313 104.524 41.9314 110.096 41.9314C114.828 41.9314 118.683 42.5802 121.659 43.8777C124.712 45.0989 127.04 46.7781 128.643 48.9152C130.322 51.0523 131.467 53.4184 132.078 56.0134C132.765 58.5321 133.108 61.0509 133.108 63.5696V78.7965L135.398 90.3597L133.108 97.1145H118.11V91.5046L116.965 90.9322C116.355 91.6954 115.286 92.6495 113.76 93.7943C112.31 94.9392 110.325 95.9696 107.806 96.8855C105.364 97.7251 102.311 98.1449 98.6473 98.1449ZM104.944 85.4367C108.226 85.4367 110.783 85.1314 112.615 84.5208C114.523 83.9102 115.973 83.2996 116.965 82.689V80.5138C116.965 79.0636 116.088 77.6134 114.332 76.1632C112.653 74.7131 109.867 73.988 105.975 73.988C103.074 73.988 100.937 74.5604 99.5632 75.7053C98.1894 76.8502 97.5025 78.3003 97.5025 80.0558C97.5025 81.8876 98.1512 83.2615 99.4488 84.1774C100.746 85.017 102.578 85.4367 104.944 85.4367ZM159.426 98.1449C154.541 98.1449 150.458 97.7251 147.176 96.8855C143.97 96.0459 141.375 95.0919 139.391 94.0233V80.5138C142.138 81.964 145.268 83.2233 148.779 84.2919C152.366 85.2841 155.801 85.7802 159.083 85.7802C162.975 85.7802 164.921 84.5208 164.921 82.0021C164.921 80.6283 164.349 79.5979 163.204 78.9109C162.136 78.224 160.609 77.6134 158.625 77.0791C156.716 76.4685 154.503 75.7435 151.984 74.9039C147.634 73.3774 144.275 71.4311 141.909 69.065C139.543 66.6989 138.36 62.9972 138.36 57.9597C138.36 52.5406 140.23 48.4954 143.97 45.824C147.786 43.1526 152.786 41.8169 158.968 41.8169C161.487 41.8169 163.624 41.9696 165.379 42.2749C167.135 42.5039 168.738 42.7328 170.188 42.9618L180.606 48.6862L176.141 59.7915L158.968 54.2961C157.518 54.2961 156.335 54.6014 155.419 55.212C154.579 55.7463 154.16 56.5095 154.16 57.5017C154.16 59.1046 154.961 60.3258 156.564 61.1654C158.167 61.9286 160.495 62.7682 163.548 63.6841C169.73 65.5159 174.271 67.7293 177.172 70.3244C180.072 72.9194 181.522 76.7357 181.522 81.7731C181.522 86.429 179.69 90.3216 176.027 93.4509C172.439 96.5802 166.906 98.1449 159.426 98.1449ZM187.192 124.821V62.4247L184.902 49.8311L188.451 42.8473H200.93V47.7703L202.075 48.3427C202.075 48.3427 202.762 47.7703 204.136 46.6254C205.51 45.4805 207.38 44.3738 209.746 43.3053C212.188 42.1604 215.012 41.588 218.218 41.588C225.011 41.588 230.316 43.7632 234.132 48.1138C238.024 52.4643 239.971 59.3336 239.971 68.7215C239.971 75.7435 238.979 81.4297 236.994 85.7802C235.086 90.0544 232.491 93.1456 229.209 95.0537C225.927 96.9618 222.263 97.9159 218.218 97.9159C214.249 97.9159 210.967 97.5724 208.372 96.8855C205.777 96.1223 204.06 95.588 203.22 95.2827V124.821H187.192ZM210.776 85.7802C213.753 85.7802 216.119 85.0551 217.875 83.6049C219.63 82.0784 220.889 80.094 221.653 77.6516C222.416 75.2092 222.798 72.576 222.798 69.7519C222.798 67.0042 222.492 64.4473 221.882 62.0813C221.271 59.7152 220.164 57.8452 218.562 56.4714C217.035 55.0212 214.822 54.2961 211.921 54.2961L203.22 56.7003V84.2919C203.22 84.2919 203.983 84.559 205.51 85.0933C207.113 85.5512 208.868 85.7802 210.776 85.7802ZM267.995 98.1449C263.034 98.1449 258.607 97.2671 254.715 95.5117C250.822 93.7562 247.769 90.8177 245.556 86.6961C243.342 82.5746 242.235 77.0028 242.235 69.9809C242.235 63.188 243.418 57.7307 245.785 53.6092C248.151 49.4876 251.28 46.5109 255.173 44.6791C259.065 42.771 263.339 41.8169 267.995 41.8169C273.109 41.8169 277.116 42.3894 280.016 43.5343C282.993 44.6791 285.245 45.7858 286.771 46.8544L292.496 65.0579L290.206 72.1562H258.149C258.607 76.2014 260.057 79.4452 262.5 81.8876C264.942 84.33 268.682 85.5512 273.72 85.5512C277.841 85.5512 281.161 85.0551 283.68 84.0629C286.275 83.0707 288.069 82.3074 289.061 81.7731V93.6799C286.771 94.9011 283.833 95.9696 280.245 96.8855C276.734 97.7251 272.651 98.1449 267.995 98.1449ZM258.035 64.829L275.208 62.5392L273.491 54.0671C272.956 53.7618 272.193 53.5328 271.201 53.3802C270.285 53.2275 269.445 53.1512 268.682 53.1512C265.247 53.1512 262.614 54.3724 260.782 56.8148C258.951 59.1809 258.035 61.8523 258.035 64.829ZM297.443 97V61.1654L295.038 49.7166L297.443 42.8473H308.433L310.723 45.4805C310.723 45.4805 311.219 45.1752 312.212 44.5646C313.28 43.8777 314.768 43.229 316.677 42.6183C318.585 42.0078 320.913 41.7025 323.66 41.7025C325.187 41.7025 326.713 41.8169 328.24 42.0459C329.766 42.2749 330.949 42.5802 331.789 42.9618L339.231 50.4035L332.934 61.6233L317.249 53.7237L313.242 55.3265V97H297.443ZM343.785 97V34.3752L341.495 22.9265L343.785 15.9427H368.743C374.239 15.9427 379.505 16.477 384.543 17.5456C389.657 18.5378 394.198 20.4459 398.167 23.2699C402.212 26.094 405.38 30.1392 407.669 35.4056C410.035 40.6721 411.218 47.5032 411.218 55.8989C411.218 64.2947 410.035 71.2021 407.669 76.6212C405.303 81.964 402.098 86.1237 398.052 89.1003C394.007 92.077 389.428 94.1378 384.314 95.2827C379.276 96.4276 374.086 97 368.743 97H343.785ZM360.042 82.1166H372.178C380.116 82.1166 385.764 79.7887 389.122 75.1329C392.481 70.4007 394.16 63.9894 394.16 55.8989C394.16 47.8085 392.442 41.6261 389.008 37.3519C385.649 33.0014 380.04 30.8261 372.178 30.8261H360.042V82.1166ZM440.858 98.1449C435.897 98.1449 431.47 97.2671 427.578 95.5117C423.685 93.7562 420.632 90.8177 418.419 86.6961C416.205 82.5746 415.098 77.0028 415.098 69.9809C415.098 63.188 416.281 57.7307 418.648 53.6092C421.014 49.4876 424.143 46.5109 428.036 44.6791C431.928 42.771 436.202 41.8169 440.858 41.8169C445.972 41.8169 449.979 42.3894 452.879 43.5343C455.856 44.6791 458.108 45.7858 459.634 46.8544L465.359 65.0579L463.069 72.1562H431.012C431.47 76.2014 432.92 79.4452 435.363 81.8876C437.805 84.33 441.545 85.5512 446.583 85.5512C450.704 85.5512 454.024 85.0551 456.543 84.0629C459.138 83.0707 460.932 82.3074 461.924 81.7731V93.6799C459.634 94.9011 456.696 95.9696 453.108 96.8855C449.597 97.7251 445.514 98.1449 440.858 98.1449ZM430.898 64.829L448.071 62.5392L446.354 54.0671C445.819 53.7618 445.056 53.5328 444.064 53.3802C443.148 53.2275 442.308 53.1512 441.545 53.1512C438.11 53.1512 435.477 54.3724 433.645 56.8148C431.814 59.1809 430.898 61.8523 430.898 64.829ZM471.68 97V56.4714L465.612 48.4572L471.68 42.9618C471.298 41.6643 470.993 39.947 470.764 37.8099C470.611 35.5964 470.535 33.8028 470.535 32.4289C470.535 25.9413 471.985 20.6749 474.885 16.6296C477.862 12.5081 482.747 10.4473 489.54 10.4473C491.677 10.4473 493.928 10.5618 496.294 10.7908C498.737 10.9434 500.836 11.2487 502.591 11.7067L513.696 18.6904L508.316 30.0247L492.86 23.1554C490.265 23.1554 488.357 24.1477 487.135 26.1321C485.914 28.0403 485.304 30.4445 485.304 33.3448C485.304 35.253 485.571 37.1993 486.105 39.1837C486.639 41.0918 487.174 42.3512 487.708 42.9618H506.026V53.2657H487.708V78.453L488.853 90.0163L487.708 97H471.68ZM519.466 37.2374L507.215 24.9872L519.466 12.7371L531.601 24.9872L519.466 37.2374ZM511.451 97V59.1046L509.047 49.9456L511.337 42.9618H527.365V97H511.451Z" fill="url(#paint0_linear)"/>
</g>
<defs>
<filter id="filter0_d" x="0.0375977" y="0.447327" width="541.564" height="134.373" filterUnits="userSpaceOnUse" color-interpolation-filters="sRGB">
<feFlood flood-opacity="0" result="BackgroundImageFix"/>
<feColorMatrix in="SourceAlpha" type="matrix" values="0 0 0 0 0 0 0 0 0 0 0 0 0 0 0 0 0 0 127 0" result="hardAlpha"/>
<feOffset/>
<feGaussianBlur stdDeviation="5"/>
<feColorMatrix type="matrix" values="0 0 0 0 0.054902 0 0 0 0 0.956863 0 0 0 0 0.933333 0 0 0 1 0"/>
<feBlend mode="normal" in2="BackgroundImageFix" result="effect1_dropShadow"/>
<feBlend mode="normal" in="SourceGraphic" in2="effect1_dropShadow" result="shape"/>
</filter>
<linearGradient id="paint0_linear" x1="525.029" y1="70.5002" x2="4.79184" y2="64.2056" gradientUnits="userSpaceOnUse">
<stop stop-color="#E15CBF"/>
<stop offset="0.237867" stop-color="#C65E73"/>
<stop offset="0.657367" stop-color="#2FDBE8"/>
<stop offset="1" stop-color="#DD58C7"/>
</linearGradient>
</defs>
</svg>
