<svg width="20" height="16" viewBox="0 0 20 16" fill="none" xmlns="http://www.w3.org/2000/svg">
<path fill-rule="evenodd" clip-rule="evenodd" d="M3.14147 3.73843C3.1675 3.50415 3.07639 3.27638 2.90068 3.11369L1.12408 0.972651V0.653774H6.64262L10.9117 10.0119L14.6601 0.653774H19.9248V0.972651L18.402 2.43038C18.2719 2.528 18.2068 2.69719 18.2328 2.85989V13.5716C18.2068 13.7343 18.2719 13.897 18.402 13.9946L19.8858 15.4523V15.7712H12.4149V15.4523L13.9508 13.962C14.1004 13.8124 14.1004 13.7668 14.1004 13.539V4.88378L9.82488 15.7451H9.2457L4.2673 4.88378V12.1659C4.22825 12.4718 4.32588 12.7776 4.54063 12.9989L6.53849 15.4263V15.7451H0.86377V15.4263L2.86164 12.9989C3.07639 12.7776 3.17401 12.4653 3.12194 12.1659C3.14147 12.1529 3.14147 3.73843 3.14147 3.73843Z" fill="white"/>
</svg>
