<svg width="24" height="21" viewBox="0 0 24 21" fill="none" xmlns="http://www.w3.org/2000/svg">
<path d="M4.93076 12.3822L7.59892 19.0591C7.78113 19.5212 8.37985 19.6448 8.73126 19.2934L11.9721 16.0526L17.9266 20.7902C18.3236 21.109 18.9158 20.9008 19.033 20.4062L23.4257 1.52084C23.5493 0.974192 23.0157 0.512142 22.4951 0.720389L0.707258 9.46675C0.128072 9.70103 0.128078 10.5275 0.713772 10.7553L4.93076 12.3822ZM3.5251 9.88324L14.7574 5.3734L5.41234 11.0221L3.5251 10.2867C3.34288 10.2216 3.33637 9.96134 3.5251 9.88324ZM16.8529 5.7964L9.05665 12.9288L8.11954 16.4625L6.38198 12.1284L16.8529 5.7964ZM9.63583 16.3454L10.1109 14.5623L10.8398 15.1415L9.63583 16.3454ZM17.6273 18.7012L10.8007 13.2738L21.4799 3.49918L17.9722 18.571C17.9397 18.7402 17.7575 18.8053 17.6273 18.7012Z" fill="#1D0E31"/>
</svg>
