<svg width="24" height="19" viewBox="0 0 24 19" fill="none" xmlns="http://www.w3.org/2000/svg">
<path d="M23.9746 2.32347C23.1286 2.70091 22.2175 2.95472 21.2609 3.06535C22.2371 2.47965 22.9855 1.55556 23.3369 0.449247C22.4258 0.989387 21.4106 1.38636 20.3368 1.59461C19.4778 0.677019 18.2478 0.10434 16.8877 0.10434C13.8356 0.10434 11.597 2.94821 12.2868 5.9027C8.36263 5.70747 4.88101 3.82675 2.55125 0.969866C1.31479 3.09138 1.90699 5.87017 4.01549 7.27583C3.24107 7.2498 2.5122 7.04156 1.87445 6.68363C1.82238 8.87022 3.39075 10.9201 5.66194 11.3757C4.99815 11.5579 4.26929 11.597 3.52741 11.4538C4.12612 13.328 5.87018 14.6946 7.93963 14.7337C5.95478 16.289 3.44931 16.9853 0.943848 16.6925C3.03282 18.0331 5.51877 18.814 8.18693 18.814C16.9593 18.814 21.9117 11.4082 21.6123 4.76386C22.5429 4.10007 23.3434 3.27359 23.9746 2.32347Z" fill="white"/>
</svg>
